<?xml version="1.0" encoding="utf-8"?>
<svg xmlns="http://www.w3.org/2000/svg" xmlns:xlink="http://www.w3.org/1999/xlink" width="700" height="400" viewBox="0 0 2800 1600">
<defs>
  <clipPath id="clip440">
    <rect x="0" y="0" width="2800" height="1600"/>
  </clipPath>
</defs>
<path clip-path="url(#clip440)" d="M0 1600 L2800 1600 L2800 8.88178e-14 L0 8.88178e-14  Z" fill="#ffffff" fill-rule="evenodd" fill-opacity="1"/>
<defs>
  <clipPath id="clip441">
    <rect x="560" y="0" width="1961" height="1600"/>
  </clipPath>
</defs>
<path clip-path="url(#clip440)" d="M277.401 1434.91 L2752.76 1434.91 L2752.76 114.832 L277.401 114.832  Z" fill="#ffffff" fill-rule="evenodd" fill-opacity="1"/>
<defs>
  <clipPath id="clip442">
    <rect x="277" y="114" width="2476" height="1321"/>
  </clipPath>
</defs>
<polyline clip-path="url(#clip442)" style="stroke:#000000; stroke-linecap:round; stroke-linejoin:round; stroke-width:2; stroke-opacity:0.1; fill:none" points="277.401,1434.91 277.401,114.832 "/>
<polyline clip-path="url(#clip442)" style="stroke:#000000; stroke-linecap:round; stroke-linejoin:round; stroke-width:2; stroke-opacity:0.1; fill:none" points="689.961,1434.91 689.961,114.832 "/>
<polyline clip-path="url(#clip442)" style="stroke:#000000; stroke-linecap:round; stroke-linejoin:round; stroke-width:2; stroke-opacity:0.1; fill:none" points="1102.52,1434.91 1102.52,114.832 "/>
<polyline clip-path="url(#clip442)" style="stroke:#000000; stroke-linecap:round; stroke-linejoin:round; stroke-width:2; stroke-opacity:0.1; fill:none" points="1515.08,1434.91 1515.08,114.832 "/>
<polyline clip-path="url(#clip442)" style="stroke:#000000; stroke-linecap:round; stroke-linejoin:round; stroke-width:2; stroke-opacity:0.1; fill:none" points="1927.64,1434.91 1927.64,114.832 "/>
<polyline clip-path="url(#clip442)" style="stroke:#000000; stroke-linecap:round; stroke-linejoin:round; stroke-width:2; stroke-opacity:0.1; fill:none" points="2340.2,1434.91 2340.2,114.832 "/>
<polyline clip-path="url(#clip442)" style="stroke:#000000; stroke-linecap:round; stroke-linejoin:round; stroke-width:2; stroke-opacity:0.1; fill:none" points="277.401,1397.54 2752.76,1397.54 "/>
<polyline clip-path="url(#clip442)" style="stroke:#000000; stroke-linecap:round; stroke-linejoin:round; stroke-width:2; stroke-opacity:0.1; fill:none" points="277.401,1097 2752.76,1097 "/>
<polyline clip-path="url(#clip442)" style="stroke:#000000; stroke-linecap:round; stroke-linejoin:round; stroke-width:2; stroke-opacity:0.1; fill:none" points="277.401,796.455 2752.76,796.455 "/>
<polyline clip-path="url(#clip442)" style="stroke:#000000; stroke-linecap:round; stroke-linejoin:round; stroke-width:2; stroke-opacity:0.1; fill:none" points="277.401,495.91 2752.76,495.91 "/>
<polyline clip-path="url(#clip442)" style="stroke:#000000; stroke-linecap:round; stroke-linejoin:round; stroke-width:2; stroke-opacity:0.1; fill:none" points="277.401,195.365 2752.76,195.365 "/>
<polyline clip-path="url(#clip440)" style="stroke:#000000; stroke-linecap:round; stroke-linejoin:round; stroke-width:4; stroke-opacity:1; fill:none" points="277.401,1434.91 2752.76,1434.91 "/>
<polyline clip-path="url(#clip440)" style="stroke:#000000; stroke-linecap:round; stroke-linejoin:round; stroke-width:4; stroke-opacity:1; fill:none" points="277.401,1434.91 277.401,1416.01 "/>
<polyline clip-path="url(#clip440)" style="stroke:#000000; stroke-linecap:round; stroke-linejoin:round; stroke-width:4; stroke-opacity:1; fill:none" points="689.961,1434.91 689.961,1416.01 "/>
<polyline clip-path="url(#clip440)" style="stroke:#000000; stroke-linecap:round; stroke-linejoin:round; stroke-width:4; stroke-opacity:1; fill:none" points="1102.52,1434.91 1102.52,1416.01 "/>
<polyline clip-path="url(#clip440)" style="stroke:#000000; stroke-linecap:round; stroke-linejoin:round; stroke-width:4; stroke-opacity:1; fill:none" points="1515.08,1434.91 1515.08,1416.01 "/>
<polyline clip-path="url(#clip440)" style="stroke:#000000; stroke-linecap:round; stroke-linejoin:round; stroke-width:4; stroke-opacity:1; fill:none" points="1927.64,1434.91 1927.64,1416.01 "/>
<polyline clip-path="url(#clip440)" style="stroke:#000000; stroke-linecap:round; stroke-linejoin:round; stroke-width:4; stroke-opacity:1; fill:none" points="2340.2,1434.91 2340.2,1416.01 "/>
<path clip-path="url(#clip440)" d="M239.705 1469.02 Q236.094 1469.02 234.265 1472.59 Q232.46 1476.13 232.46 1483.26 Q232.46 1490.37 234.265 1493.93 Q236.094 1497.47 239.705 1497.47 Q243.339 1497.47 245.145 1493.93 Q246.973 1490.37 246.973 1483.26 Q246.973 1476.13 245.145 1472.59 Q243.339 1469.02 239.705 1469.02 M239.705 1465.32 Q245.515 1465.32 248.571 1469.93 Q251.649 1474.51 251.649 1483.26 Q251.649 1491.99 248.571 1496.59 Q245.515 1501.18 239.705 1501.18 Q233.895 1501.18 230.816 1496.59 Q227.761 1491.99 227.761 1483.26 Q227.761 1474.51 230.816 1469.93 Q233.895 1465.32 239.705 1465.32 Z" fill="#000000" fill-rule="nonzero" fill-opacity="1" /><path clip-path="url(#clip440)" d="M259.867 1494.63 L264.751 1494.63 L264.751 1500.51 L259.867 1500.51 L259.867 1494.63 Z" fill="#000000" fill-rule="nonzero" fill-opacity="1" /><path clip-path="url(#clip440)" d="M273.756 1465.95 L295.978 1465.95 L295.978 1467.94 L283.432 1500.51 L278.547 1500.51 L290.353 1469.88 L273.756 1469.88 L273.756 1465.95 Z" fill="#000000" fill-rule="nonzero" fill-opacity="1" /><path clip-path="url(#clip440)" d="M315.098 1469.02 Q311.487 1469.02 309.658 1472.59 Q307.853 1476.13 307.853 1483.26 Q307.853 1490.37 309.658 1493.93 Q311.487 1497.47 315.098 1497.47 Q318.732 1497.47 320.538 1493.93 Q322.366 1490.37 322.366 1483.26 Q322.366 1476.13 320.538 1472.59 Q318.732 1469.02 315.098 1469.02 M315.098 1465.32 Q320.908 1465.32 323.964 1469.93 Q327.042 1474.51 327.042 1483.26 Q327.042 1491.99 323.964 1496.59 Q320.908 1501.18 315.098 1501.18 Q309.288 1501.18 306.209 1496.59 Q303.154 1491.99 303.154 1483.26 Q303.154 1474.51 306.209 1469.93 Q309.288 1465.32 315.098 1465.32 Z" fill="#000000" fill-rule="nonzero" fill-opacity="1" /><path clip-path="url(#clip440)" d="M652.762 1469.02 Q649.151 1469.02 647.322 1472.59 Q645.516 1476.13 645.516 1483.26 Q645.516 1490.37 647.322 1493.93 Q649.151 1497.47 652.762 1497.47 Q656.396 1497.47 658.201 1493.93 Q660.03 1490.37 660.03 1483.26 Q660.03 1476.13 658.201 1472.59 Q656.396 1469.02 652.762 1469.02 M652.762 1465.32 Q658.572 1465.32 661.627 1469.93 Q664.706 1474.51 664.706 1483.26 Q664.706 1491.99 661.627 1496.59 Q658.572 1501.18 652.762 1501.18 Q646.951 1501.18 643.873 1496.59 Q640.817 1491.99 640.817 1483.26 Q640.817 1474.51 643.873 1469.93 Q646.951 1465.32 652.762 1465.32 Z" fill="#000000" fill-rule="nonzero" fill-opacity="1" /><path clip-path="url(#clip440)" d="M672.924 1494.63 L677.808 1494.63 L677.808 1500.51 L672.924 1500.51 L672.924 1494.63 Z" fill="#000000" fill-rule="nonzero" fill-opacity="1" /><path clip-path="url(#clip440)" d="M686.812 1465.95 L709.034 1465.95 L709.034 1467.94 L696.488 1500.51 L691.604 1500.51 L703.41 1469.88 L686.812 1469.88 L686.812 1465.95 Z" fill="#000000" fill-rule="nonzero" fill-opacity="1" /><path clip-path="url(#clip440)" d="M718.201 1465.95 L736.557 1465.95 L736.557 1469.88 L722.483 1469.88 L722.483 1478.35 Q723.502 1478.01 724.521 1477.84 Q725.539 1477.66 726.558 1477.66 Q732.345 1477.66 735.724 1480.83 Q739.104 1484 739.104 1489.42 Q739.104 1495 735.632 1498.1 Q732.159 1501.18 725.84 1501.18 Q723.664 1501.18 721.396 1500.81 Q719.15 1500.44 716.743 1499.7 L716.743 1495 Q718.826 1496.13 721.048 1496.69 Q723.271 1497.24 725.747 1497.24 Q729.752 1497.24 732.09 1495.14 Q734.428 1493.03 734.428 1489.42 Q734.428 1485.81 732.09 1483.7 Q729.752 1481.59 725.747 1481.59 Q723.872 1481.59 721.997 1482.01 Q720.146 1482.43 718.201 1483.31 L718.201 1465.95 Z" fill="#000000" fill-rule="nonzero" fill-opacity="1" /><path clip-path="url(#clip440)" d="M1064.82 1469.02 Q1061.21 1469.02 1059.38 1472.59 Q1057.58 1476.13 1057.58 1483.26 Q1057.58 1490.37 1059.38 1493.93 Q1061.21 1497.47 1064.82 1497.47 Q1068.46 1497.47 1070.26 1493.93 Q1072.09 1490.37 1072.09 1483.26 Q1072.09 1476.13 1070.26 1472.59 Q1068.46 1469.02 1064.82 1469.02 M1064.82 1465.32 Q1070.63 1465.32 1073.69 1469.93 Q1076.77 1474.51 1076.77 1483.26 Q1076.77 1491.99 1073.69 1496.59 Q1070.63 1501.18 1064.82 1501.18 Q1059.01 1501.18 1055.93 1496.59 Q1052.88 1491.99 1052.88 1483.26 Q1052.88 1474.51 1055.93 1469.93 Q1059.01 1465.32 1064.82 1465.32 Z" fill="#000000" fill-rule="nonzero" fill-opacity="1" /><path clip-path="url(#clip440)" d="M1084.98 1494.63 L1089.87 1494.63 L1089.87 1500.51 L1084.98 1500.51 L1084.98 1494.63 Z" fill="#000000" fill-rule="nonzero" fill-opacity="1" /><path clip-path="url(#clip440)" d="M1110.05 1484.09 Q1106.72 1484.09 1104.8 1485.88 Q1102.9 1487.66 1102.9 1490.78 Q1102.9 1493.91 1104.8 1495.69 Q1106.72 1497.47 1110.05 1497.47 Q1113.39 1497.47 1115.31 1495.69 Q1117.23 1493.89 1117.23 1490.78 Q1117.23 1487.66 1115.31 1485.88 Q1113.41 1484.09 1110.05 1484.09 M1105.38 1482.1 Q1102.37 1481.36 1100.68 1479.3 Q1099.01 1477.24 1099.01 1474.28 Q1099.01 1470.14 1101.95 1467.73 Q1104.92 1465.32 1110.05 1465.32 Q1115.22 1465.32 1118.16 1467.73 Q1121.1 1470.14 1121.1 1474.28 Q1121.1 1477.24 1119.41 1479.3 Q1117.74 1481.36 1114.75 1482.1 Q1118.13 1482.89 1120.01 1485.18 Q1121.91 1487.47 1121.91 1490.78 Q1121.91 1495.81 1118.83 1498.49 Q1115.77 1501.18 1110.05 1501.18 Q1104.34 1501.18 1101.26 1498.49 Q1098.2 1495.81 1098.2 1490.78 Q1098.2 1487.47 1100.1 1485.18 Q1102 1482.89 1105.38 1482.1 M1103.67 1474.72 Q1103.67 1477.4 1105.33 1478.91 Q1107.02 1480.41 1110.05 1480.41 Q1113.06 1480.41 1114.75 1478.91 Q1116.47 1477.4 1116.47 1474.72 Q1116.47 1472.03 1114.75 1470.53 Q1113.06 1469.02 1110.05 1469.02 Q1107.02 1469.02 1105.33 1470.53 Q1103.67 1472.03 1103.67 1474.72 Z" fill="#000000" fill-rule="nonzero" fill-opacity="1" /><path clip-path="url(#clip440)" d="M1140.22 1469.02 Q1136.61 1469.02 1134.78 1472.59 Q1132.97 1476.13 1132.97 1483.26 Q1132.97 1490.37 1134.78 1493.93 Q1136.61 1497.47 1140.22 1497.47 Q1143.85 1497.47 1145.66 1493.93 Q1147.48 1490.37 1147.48 1483.26 Q1147.48 1476.13 1145.66 1472.59 Q1143.85 1469.02 1140.22 1469.02 M1140.22 1465.32 Q1146.03 1465.32 1149.08 1469.93 Q1152.16 1474.51 1152.16 1483.26 Q1152.16 1491.99 1149.08 1496.59 Q1146.03 1501.18 1140.22 1501.18 Q1134.41 1501.18 1131.33 1496.59 Q1128.27 1491.99 1128.27 1483.26 Q1128.27 1474.51 1131.33 1469.93 Q1134.41 1465.32 1140.22 1465.32 Z" fill="#000000" fill-rule="nonzero" fill-opacity="1" /><path clip-path="url(#clip440)" d="M1477.88 1469.02 Q1474.27 1469.02 1472.44 1472.59 Q1470.63 1476.13 1470.63 1483.26 Q1470.63 1490.37 1472.44 1493.93 Q1474.27 1497.47 1477.88 1497.47 Q1481.51 1497.47 1483.32 1493.93 Q1485.15 1490.37 1485.15 1483.26 Q1485.15 1476.13 1483.32 1472.59 Q1481.51 1469.02 1477.88 1469.02 M1477.88 1465.32 Q1483.69 1465.32 1486.75 1469.93 Q1489.82 1474.51 1489.82 1483.26 Q1489.82 1491.99 1486.75 1496.59 Q1483.69 1501.18 1477.88 1501.18 Q1472.07 1501.18 1468.99 1496.59 Q1465.94 1491.99 1465.94 1483.26 Q1465.94 1474.51 1468.99 1469.93 Q1472.07 1465.32 1477.88 1465.32 Z" fill="#000000" fill-rule="nonzero" fill-opacity="1" /><path clip-path="url(#clip440)" d="M1498.04 1494.63 L1502.93 1494.63 L1502.93 1500.51 L1498.04 1500.51 L1498.04 1494.63 Z" fill="#000000" fill-rule="nonzero" fill-opacity="1" /><path clip-path="url(#clip440)" d="M1523.11 1484.09 Q1519.78 1484.09 1517.86 1485.88 Q1515.96 1487.66 1515.96 1490.78 Q1515.96 1493.91 1517.86 1495.69 Q1519.78 1497.47 1523.11 1497.47 Q1526.44 1497.47 1528.37 1495.69 Q1530.29 1493.89 1530.29 1490.78 Q1530.29 1487.66 1528.37 1485.88 Q1526.47 1484.09 1523.11 1484.09 M1518.44 1482.1 Q1515.43 1481.36 1513.74 1479.3 Q1512.07 1477.24 1512.07 1474.28 Q1512.07 1470.14 1515.01 1467.73 Q1517.97 1465.32 1523.11 1465.32 Q1528.27 1465.32 1531.21 1467.73 Q1534.15 1470.14 1534.15 1474.28 Q1534.15 1477.24 1532.46 1479.3 Q1530.8 1481.36 1527.81 1482.1 Q1531.19 1482.89 1533.06 1485.18 Q1534.96 1487.47 1534.96 1490.78 Q1534.96 1495.81 1531.88 1498.49 Q1528.83 1501.18 1523.11 1501.18 Q1517.39 1501.18 1514.31 1498.49 Q1511.26 1495.81 1511.26 1490.78 Q1511.26 1487.47 1513.16 1485.18 Q1515.06 1482.89 1518.44 1482.1 M1516.72 1474.72 Q1516.72 1477.4 1518.39 1478.91 Q1520.08 1480.41 1523.11 1480.41 Q1526.12 1480.41 1527.81 1478.91 Q1529.52 1477.4 1529.52 1474.72 Q1529.52 1472.03 1527.81 1470.53 Q1526.12 1469.02 1523.11 1469.02 Q1520.08 1469.02 1518.39 1470.53 Q1516.72 1472.03 1516.72 1474.72 Z" fill="#000000" fill-rule="nonzero" fill-opacity="1" /><path clip-path="url(#clip440)" d="M1543.32 1465.95 L1561.68 1465.95 L1561.68 1469.88 L1547.6 1469.88 L1547.6 1478.35 Q1548.62 1478.01 1549.64 1477.84 Q1550.66 1477.66 1551.68 1477.66 Q1557.46 1477.66 1560.84 1480.83 Q1564.22 1484 1564.22 1489.42 Q1564.22 1495 1560.75 1498.1 Q1557.28 1501.18 1550.96 1501.18 Q1548.78 1501.18 1546.51 1500.81 Q1544.27 1500.44 1541.86 1499.7 L1541.86 1495 Q1543.94 1496.13 1546.17 1496.69 Q1548.39 1497.24 1550.87 1497.24 Q1554.87 1497.24 1557.21 1495.14 Q1559.55 1493.03 1559.55 1489.42 Q1559.55 1485.81 1557.21 1483.7 Q1554.87 1481.59 1550.87 1481.59 Q1548.99 1481.59 1547.12 1482.01 Q1545.26 1482.43 1543.32 1483.31 L1543.32 1465.95 Z" fill="#000000" fill-rule="nonzero" fill-opacity="1" /><path clip-path="url(#clip440)" d="M1889.94 1469.02 Q1886.33 1469.02 1884.5 1472.59 Q1882.7 1476.13 1882.7 1483.26 Q1882.7 1490.37 1884.5 1493.93 Q1886.33 1497.47 1889.94 1497.47 Q1893.58 1497.47 1895.38 1493.93 Q1897.21 1490.37 1897.21 1483.26 Q1897.21 1476.13 1895.38 1472.59 Q1893.58 1469.02 1889.94 1469.02 M1889.94 1465.32 Q1895.75 1465.32 1898.81 1469.93 Q1901.89 1474.51 1901.89 1483.26 Q1901.89 1491.99 1898.81 1496.59 Q1895.75 1501.18 1889.94 1501.18 Q1884.13 1501.18 1881.05 1496.59 Q1878 1491.99 1878 1483.26 Q1878 1474.51 1881.05 1469.93 Q1884.13 1465.32 1889.94 1465.32 Z" fill="#000000" fill-rule="nonzero" fill-opacity="1" /><path clip-path="url(#clip440)" d="M1910.1 1494.63 L1914.99 1494.63 L1914.99 1500.51 L1910.1 1500.51 L1910.1 1494.63 Z" fill="#000000" fill-rule="nonzero" fill-opacity="1" /><path clip-path="url(#clip440)" d="M1925.31 1499.79 L1925.31 1495.53 Q1927.07 1496.36 1928.88 1496.8 Q1930.68 1497.24 1932.42 1497.24 Q1937.05 1497.24 1939.48 1494.14 Q1941.93 1491.01 1942.28 1484.67 Q1940.94 1486.66 1938.88 1487.73 Q1936.82 1488.79 1934.32 1488.79 Q1929.13 1488.79 1926.1 1485.67 Q1923.09 1482.52 1923.09 1477.08 Q1923.09 1471.76 1926.24 1468.54 Q1929.39 1465.32 1934.62 1465.32 Q1940.61 1465.32 1943.76 1469.93 Q1946.93 1474.51 1946.93 1483.26 Q1946.93 1491.43 1943.04 1496.32 Q1939.18 1501.18 1932.63 1501.18 Q1930.87 1501.18 1929.06 1500.83 Q1927.26 1500.48 1925.31 1499.79 M1934.62 1485.14 Q1937.77 1485.14 1939.59 1482.98 Q1941.45 1480.83 1941.45 1477.08 Q1941.45 1473.35 1939.59 1471.2 Q1937.77 1469.02 1934.62 1469.02 Q1931.47 1469.02 1929.62 1471.2 Q1927.79 1473.35 1927.79 1477.08 Q1927.79 1480.83 1929.62 1482.98 Q1931.47 1485.14 1934.62 1485.14 Z" fill="#000000" fill-rule="nonzero" fill-opacity="1" /><path clip-path="url(#clip440)" d="M1965.33 1469.02 Q1961.72 1469.02 1959.89 1472.59 Q1958.09 1476.13 1958.09 1483.26 Q1958.09 1490.37 1959.89 1493.93 Q1961.72 1497.47 1965.33 1497.47 Q1968.97 1497.47 1970.77 1493.93 Q1972.6 1490.37 1972.6 1483.26 Q1972.6 1476.13 1970.77 1472.59 Q1968.97 1469.02 1965.33 1469.02 M1965.33 1465.32 Q1971.14 1465.32 1974.2 1469.93 Q1977.28 1474.51 1977.28 1483.26 Q1977.28 1491.99 1974.2 1496.59 Q1971.14 1501.18 1965.33 1501.18 Q1959.52 1501.18 1956.45 1496.59 Q1953.39 1491.99 1953.39 1483.26 Q1953.39 1474.51 1956.45 1469.93 Q1959.52 1465.32 1965.33 1465.32 Z" fill="#000000" fill-rule="nonzero" fill-opacity="1" /><path clip-path="url(#clip440)" d="M2303 1469.02 Q2299.39 1469.02 2297.56 1472.59 Q2295.75 1476.13 2295.75 1483.26 Q2295.75 1490.37 2297.56 1493.93 Q2299.39 1497.47 2303 1497.47 Q2306.63 1497.47 2308.44 1493.93 Q2310.27 1490.37 2310.27 1483.26 Q2310.27 1476.13 2308.44 1472.59 Q2306.63 1469.02 2303 1469.02 M2303 1465.32 Q2308.81 1465.32 2311.86 1469.93 Q2314.94 1474.51 2314.94 1483.26 Q2314.94 1491.99 2311.86 1496.59 Q2308.81 1501.18 2303 1501.18 Q2297.19 1501.18 2294.11 1496.59 Q2291.05 1491.99 2291.05 1483.26 Q2291.05 1474.51 2294.11 1469.93 Q2297.19 1465.32 2303 1465.32 Z" fill="#000000" fill-rule="nonzero" fill-opacity="1" /><path clip-path="url(#clip440)" d="M2323.16 1494.63 L2328.04 1494.63 L2328.04 1500.51 L2323.16 1500.51 L2323.16 1494.63 Z" fill="#000000" fill-rule="nonzero" fill-opacity="1" /><path clip-path="url(#clip440)" d="M2338.37 1499.79 L2338.37 1495.53 Q2340.13 1496.36 2341.93 1496.8 Q2343.74 1497.24 2345.47 1497.24 Q2350.1 1497.24 2352.53 1494.14 Q2354.99 1491.01 2355.34 1484.67 Q2353.99 1486.66 2351.93 1487.73 Q2349.87 1488.79 2347.37 1488.79 Q2342.19 1488.79 2339.16 1485.67 Q2336.15 1482.52 2336.15 1477.08 Q2336.15 1471.76 2339.29 1468.54 Q2342.44 1465.32 2347.67 1465.32 Q2353.67 1465.32 2356.82 1469.93 Q2359.99 1474.51 2359.99 1483.26 Q2359.99 1491.43 2356.1 1496.32 Q2352.23 1501.18 2345.68 1501.18 Q2343.92 1501.18 2342.12 1500.83 Q2340.31 1500.48 2338.37 1499.79 M2347.67 1485.14 Q2350.82 1485.14 2352.65 1482.98 Q2354.5 1480.83 2354.5 1477.08 Q2354.5 1473.35 2352.65 1471.2 Q2350.82 1469.02 2347.67 1469.02 Q2344.53 1469.02 2342.67 1471.2 Q2340.84 1473.35 2340.84 1477.08 Q2340.84 1480.83 2342.67 1482.98 Q2344.53 1485.14 2347.67 1485.14 Z" fill="#000000" fill-rule="nonzero" fill-opacity="1" /><path clip-path="url(#clip440)" d="M2368.44 1465.95 L2386.79 1465.95 L2386.79 1469.88 L2372.72 1469.88 L2372.72 1478.35 Q2373.74 1478.01 2374.76 1477.84 Q2375.78 1477.66 2376.79 1477.66 Q2382.58 1477.66 2385.96 1480.83 Q2389.34 1484 2389.34 1489.42 Q2389.34 1495 2385.87 1498.1 Q2382.4 1501.18 2376.08 1501.18 Q2373.9 1501.18 2371.63 1500.81 Q2369.39 1500.44 2366.98 1499.7 L2366.98 1495 Q2369.06 1496.13 2371.28 1496.69 Q2373.51 1497.24 2375.98 1497.24 Q2379.99 1497.24 2382.33 1495.14 Q2384.66 1493.03 2384.66 1489.42 Q2384.66 1485.81 2382.33 1483.7 Q2379.99 1481.59 2375.98 1481.59 Q2374.11 1481.59 2372.23 1482.01 Q2370.38 1482.43 2368.44 1483.31 L2368.44 1465.95 Z" fill="#000000" fill-rule="nonzero" fill-opacity="1" /><path clip-path="url(#clip440)" d="M1530.01 1564.25 L1530.01 1599.33 L1524.15 1599.33 L1524.15 1564.44 Q1524.15 1559.38 1522.18 1556.87 Q1520.2 1554.35 1516.26 1554.35 Q1511.51 1554.35 1508.78 1557.38 Q1506.04 1560.4 1506.04 1565.62 L1506.04 1585.77 L1500.15 1585.77 L1500.15 1550.12 L1506.04 1550.12 L1506.04 1555.66 Q1508.14 1552.45 1510.97 1550.85 Q1513.84 1549.26 1517.56 1549.26 Q1523.7 1549.26 1526.86 1553.05 Q1530.01 1556.87 1530.01 1564.25 Z" fill="#000000" fill-rule="nonzero" fill-opacity="1" /><polyline clip-path="url(#clip440)" style="stroke:#000000; stroke-linecap:round; stroke-linejoin:round; stroke-width:4; stroke-opacity:1; fill:none" points="277.401,1434.91 277.401,114.832 "/>
<polyline clip-path="url(#clip440)" style="stroke:#000000; stroke-linecap:round; stroke-linejoin:round; stroke-width:4; stroke-opacity:1; fill:none" points="277.401,1397.54 296.299,1397.54 "/>
<polyline clip-path="url(#clip440)" style="stroke:#000000; stroke-linecap:round; stroke-linejoin:round; stroke-width:4; stroke-opacity:1; fill:none" points="277.401,1097 296.299,1097 "/>
<polyline clip-path="url(#clip440)" style="stroke:#000000; stroke-linecap:round; stroke-linejoin:round; stroke-width:4; stroke-opacity:1; fill:none" points="277.401,796.455 296.299,796.455 "/>
<polyline clip-path="url(#clip440)" style="stroke:#000000; stroke-linecap:round; stroke-linejoin:round; stroke-width:4; stroke-opacity:1; fill:none" points="277.401,495.91 296.299,495.91 "/>
<polyline clip-path="url(#clip440)" style="stroke:#000000; stroke-linecap:round; stroke-linejoin:round; stroke-width:4; stroke-opacity:1; fill:none" points="277.401,195.365 296.299,195.365 "/>
<path clip-path="url(#clip440)" d="M117.902 1383.34 Q114.291 1383.34 112.462 1386.91 Q110.657 1390.45 110.657 1397.58 Q110.657 1404.69 112.462 1408.25 Q114.291 1411.79 117.902 1411.79 Q121.536 1411.79 123.342 1408.25 Q125.171 1404.69 125.171 1397.58 Q125.171 1390.45 123.342 1386.91 Q121.536 1383.34 117.902 1383.34 M117.902 1379.64 Q123.712 1379.64 126.768 1384.25 Q129.846 1388.83 129.846 1397.58 Q129.846 1406.31 126.768 1410.91 Q123.712 1415.5 117.902 1415.5 Q112.092 1415.5 109.013 1410.91 Q105.958 1406.31 105.958 1397.58 Q105.958 1388.83 109.013 1384.25 Q112.092 1379.64 117.902 1379.64 Z" fill="#000000" fill-rule="nonzero" fill-opacity="1" /><path clip-path="url(#clip440)" d="M138.064 1408.95 L142.948 1408.95 L142.948 1414.82 L138.064 1414.82 L138.064 1408.95 Z" fill="#000000" fill-rule="nonzero" fill-opacity="1" /><path clip-path="url(#clip440)" d="M163.133 1383.34 Q159.522 1383.34 157.694 1386.91 Q155.888 1390.45 155.888 1397.58 Q155.888 1404.69 157.694 1408.25 Q159.522 1411.79 163.133 1411.79 Q166.768 1411.79 168.573 1408.25 Q170.402 1404.69 170.402 1397.58 Q170.402 1390.45 168.573 1386.91 Q166.768 1383.34 163.133 1383.34 M163.133 1379.64 Q168.943 1379.64 171.999 1384.25 Q175.078 1388.83 175.078 1397.58 Q175.078 1406.31 171.999 1410.91 Q168.943 1415.5 163.133 1415.5 Q157.323 1415.5 154.244 1410.91 Q151.189 1406.31 151.189 1397.58 Q151.189 1388.83 154.244 1384.25 Q157.323 1379.64 163.133 1379.64 Z" fill="#000000" fill-rule="nonzero" fill-opacity="1" /><path clip-path="url(#clip440)" d="M193.295 1383.34 Q189.684 1383.34 187.855 1386.91 Q186.05 1390.45 186.05 1397.58 Q186.05 1404.69 187.855 1408.25 Q189.684 1411.79 193.295 1411.79 Q196.929 1411.79 198.735 1408.25 Q200.564 1404.69 200.564 1397.58 Q200.564 1390.45 198.735 1386.91 Q196.929 1383.34 193.295 1383.34 M193.295 1379.64 Q199.105 1379.64 202.161 1384.25 Q205.24 1388.83 205.24 1397.58 Q205.24 1406.31 202.161 1410.91 Q199.105 1415.5 193.295 1415.5 Q187.485 1415.5 184.406 1410.91 Q181.351 1406.31 181.351 1397.58 Q181.351 1388.83 184.406 1384.25 Q187.485 1379.64 193.295 1379.64 Z" fill="#000000" fill-rule="nonzero" fill-opacity="1" /><path clip-path="url(#clip440)" d="M223.457 1383.34 Q219.846 1383.34 218.017 1386.91 Q216.212 1390.45 216.212 1397.58 Q216.212 1404.69 218.017 1408.25 Q219.846 1411.79 223.457 1411.79 Q227.091 1411.79 228.897 1408.25 Q230.726 1404.69 230.726 1397.58 Q230.726 1390.45 228.897 1386.91 Q227.091 1383.34 223.457 1383.34 M223.457 1379.64 Q229.267 1379.64 232.323 1384.25 Q235.401 1388.83 235.401 1397.58 Q235.401 1406.31 232.323 1410.91 Q229.267 1415.5 223.457 1415.5 Q217.647 1415.5 214.568 1410.91 Q211.513 1406.31 211.513 1397.58 Q211.513 1388.83 214.568 1384.25 Q217.647 1379.64 223.457 1379.64 Z" fill="#000000" fill-rule="nonzero" fill-opacity="1" /><path clip-path="url(#clip440)" d="M119.499 1082.8 Q115.888 1082.8 114.06 1086.36 Q112.254 1089.91 112.254 1097.03 Q112.254 1104.14 114.06 1107.71 Q115.888 1111.25 119.499 1111.25 Q123.134 1111.25 124.939 1107.71 Q126.768 1104.14 126.768 1097.03 Q126.768 1089.91 124.939 1086.36 Q123.134 1082.8 119.499 1082.8 M119.499 1079.09 Q125.309 1079.09 128.365 1083.7 Q131.444 1088.28 131.444 1097.03 Q131.444 1105.76 128.365 1110.37 Q125.309 1114.95 119.499 1114.95 Q113.689 1114.95 110.61 1110.37 Q107.555 1105.76 107.555 1097.03 Q107.555 1088.28 110.61 1083.7 Q113.689 1079.09 119.499 1079.09 Z" fill="#000000" fill-rule="nonzero" fill-opacity="1" /><path clip-path="url(#clip440)" d="M139.661 1108.4 L144.545 1108.4 L144.545 1114.28 L139.661 1114.28 L139.661 1108.4 Z" fill="#000000" fill-rule="nonzero" fill-opacity="1" /><path clip-path="url(#clip440)" d="M164.731 1082.8 Q161.119 1082.8 159.291 1086.36 Q157.485 1089.91 157.485 1097.03 Q157.485 1104.14 159.291 1107.71 Q161.119 1111.25 164.731 1111.25 Q168.365 1111.25 170.17 1107.71 Q171.999 1104.14 171.999 1097.03 Q171.999 1089.91 170.17 1086.36 Q168.365 1082.8 164.731 1082.8 M164.731 1079.09 Q170.541 1079.09 173.596 1083.7 Q176.675 1088.28 176.675 1097.03 Q176.675 1105.76 173.596 1110.37 Q170.541 1114.95 164.731 1114.95 Q158.92 1114.95 155.842 1110.37 Q152.786 1105.76 152.786 1097.03 Q152.786 1088.28 155.842 1083.7 Q158.92 1079.09 164.731 1079.09 Z" fill="#000000" fill-rule="nonzero" fill-opacity="1" /><path clip-path="url(#clip440)" d="M194.892 1082.8 Q191.281 1082.8 189.453 1086.36 Q187.647 1089.91 187.647 1097.03 Q187.647 1104.14 189.453 1107.71 Q191.281 1111.25 194.892 1111.25 Q198.527 1111.25 200.332 1107.71 Q202.161 1104.14 202.161 1097.03 Q202.161 1089.91 200.332 1086.36 Q198.527 1082.8 194.892 1082.8 M194.892 1079.09 Q200.703 1079.09 203.758 1083.7 Q206.837 1088.28 206.837 1097.03 Q206.837 1105.76 203.758 1110.37 Q200.703 1114.95 194.892 1114.95 Q189.082 1114.95 186.004 1110.37 Q182.948 1105.76 182.948 1097.03 Q182.948 1088.28 186.004 1083.7 Q189.082 1079.09 194.892 1079.09 Z" fill="#000000" fill-rule="nonzero" fill-opacity="1" /><path clip-path="url(#clip440)" d="M219.082 1110.34 L235.401 1110.34 L235.401 1114.28 L213.457 1114.28 L213.457 1110.34 Q216.119 1107.59 220.702 1102.96 Q225.309 1098.31 226.489 1096.97 Q228.735 1094.44 229.614 1092.71 Q230.517 1090.95 230.517 1089.26 Q230.517 1086.5 228.573 1084.77 Q226.651 1083.03 223.55 1083.03 Q221.351 1083.03 218.897 1083.79 Q216.466 1084.56 213.689 1086.11 L213.689 1081.39 Q216.513 1080.25 218.966 1079.67 Q221.42 1079.09 223.457 1079.09 Q228.827 1079.09 232.022 1081.78 Q235.216 1084.47 235.216 1088.96 Q235.216 1091.09 234.406 1093.01 Q233.619 1094.91 231.513 1097.5 Q230.934 1098.17 227.832 1101.39 Q224.73 1104.58 219.082 1110.34 Z" fill="#000000" fill-rule="nonzero" fill-opacity="1" /><path clip-path="url(#clip440)" d="M117.416 782.254 Q113.805 782.254 111.976 785.818 Q110.171 789.36 110.171 796.49 Q110.171 803.596 111.976 807.161 Q113.805 810.703 117.416 810.703 Q121.05 810.703 122.856 807.161 Q124.684 803.596 124.684 796.49 Q124.684 789.36 122.856 785.818 Q121.05 782.254 117.416 782.254 M117.416 778.55 Q123.226 778.55 126.282 783.156 Q129.36 787.74 129.36 796.49 Q129.36 805.216 126.282 809.823 Q123.226 814.406 117.416 814.406 Q111.606 814.406 108.527 809.823 Q105.472 805.216 105.472 796.49 Q105.472 787.74 108.527 783.156 Q111.606 778.55 117.416 778.55 Z" fill="#000000" fill-rule="nonzero" fill-opacity="1" /><path clip-path="url(#clip440)" d="M137.578 807.855 L142.462 807.855 L142.462 813.735 L137.578 813.735 L137.578 807.855 Z" fill="#000000" fill-rule="nonzero" fill-opacity="1" /><path clip-path="url(#clip440)" d="M162.647 782.254 Q159.036 782.254 157.207 785.818 Q155.402 789.36 155.402 796.49 Q155.402 803.596 157.207 807.161 Q159.036 810.703 162.647 810.703 Q166.281 810.703 168.087 807.161 Q169.916 803.596 169.916 796.49 Q169.916 789.36 168.087 785.818 Q166.281 782.254 162.647 782.254 M162.647 778.55 Q168.457 778.55 171.513 783.156 Q174.592 787.74 174.592 796.49 Q174.592 805.216 171.513 809.823 Q168.457 814.406 162.647 814.406 Q156.837 814.406 153.758 809.823 Q150.703 805.216 150.703 796.49 Q150.703 787.74 153.758 783.156 Q156.837 778.55 162.647 778.55 Z" fill="#000000" fill-rule="nonzero" fill-opacity="1" /><path clip-path="url(#clip440)" d="M192.809 782.254 Q189.198 782.254 187.369 785.818 Q185.564 789.36 185.564 796.49 Q185.564 803.596 187.369 807.161 Q189.198 810.703 192.809 810.703 Q196.443 810.703 198.249 807.161 Q200.078 803.596 200.078 796.49 Q200.078 789.36 198.249 785.818 Q196.443 782.254 192.809 782.254 M192.809 778.55 Q198.619 778.55 201.675 783.156 Q204.753 787.74 204.753 796.49 Q204.753 805.216 201.675 809.823 Q198.619 814.406 192.809 814.406 Q186.999 814.406 183.92 809.823 Q180.865 805.216 180.865 796.49 Q180.865 787.74 183.92 783.156 Q186.999 778.55 192.809 778.55 Z" fill="#000000" fill-rule="nonzero" fill-opacity="1" /><path clip-path="url(#clip440)" d="M225.818 783.249 L214.013 801.698 L225.818 801.698 L225.818 783.249 M224.591 779.175 L230.471 779.175 L230.471 801.698 L235.401 801.698 L235.401 805.587 L230.471 805.587 L230.471 813.735 L225.818 813.735 L225.818 805.587 L210.216 805.587 L210.216 801.073 L224.591 779.175 Z" fill="#000000" fill-rule="nonzero" fill-opacity="1" /><path clip-path="url(#clip440)" d="M117.74 481.709 Q114.129 481.709 112.3 485.273 Q110.495 488.815 110.495 495.945 Q110.495 503.051 112.3 506.616 Q114.129 510.158 117.74 510.158 Q121.374 510.158 123.18 506.616 Q125.009 503.051 125.009 495.945 Q125.009 488.815 123.18 485.273 Q121.374 481.709 117.74 481.709 M117.74 478.005 Q123.55 478.005 126.606 482.611 Q129.684 487.195 129.684 495.945 Q129.684 504.671 126.606 509.278 Q123.55 513.861 117.74 513.861 Q111.93 513.861 108.851 509.278 Q105.796 504.671 105.796 495.945 Q105.796 487.195 108.851 482.611 Q111.93 478.005 117.74 478.005 Z" fill="#000000" fill-rule="nonzero" fill-opacity="1" /><path clip-path="url(#clip440)" d="M137.902 507.31 L142.786 507.31 L142.786 513.19 L137.902 513.19 L137.902 507.31 Z" fill="#000000" fill-rule="nonzero" fill-opacity="1" /><path clip-path="url(#clip440)" d="M162.971 481.709 Q159.36 481.709 157.531 485.273 Q155.726 488.815 155.726 495.945 Q155.726 503.051 157.531 506.616 Q159.36 510.158 162.971 510.158 Q166.606 510.158 168.411 506.616 Q170.24 503.051 170.24 495.945 Q170.24 488.815 168.411 485.273 Q166.606 481.709 162.971 481.709 M162.971 478.005 Q168.781 478.005 171.837 482.611 Q174.916 487.195 174.916 495.945 Q174.916 504.671 171.837 509.278 Q168.781 513.861 162.971 513.861 Q157.161 513.861 154.082 509.278 Q151.027 504.671 151.027 495.945 Q151.027 487.195 154.082 482.611 Q157.161 478.005 162.971 478.005 Z" fill="#000000" fill-rule="nonzero" fill-opacity="1" /><path clip-path="url(#clip440)" d="M193.133 481.709 Q189.522 481.709 187.693 485.273 Q185.888 488.815 185.888 495.945 Q185.888 503.051 187.693 506.616 Q189.522 510.158 193.133 510.158 Q196.767 510.158 198.573 506.616 Q200.402 503.051 200.402 495.945 Q200.402 488.815 198.573 485.273 Q196.767 481.709 193.133 481.709 M193.133 478.005 Q198.943 478.005 201.999 482.611 Q205.078 487.195 205.078 495.945 Q205.078 504.671 201.999 509.278 Q198.943 513.861 193.133 513.861 Q187.323 513.861 184.244 509.278 Q181.189 504.671 181.189 495.945 Q181.189 487.195 184.244 482.611 Q187.323 478.005 193.133 478.005 Z" fill="#000000" fill-rule="nonzero" fill-opacity="1" /><path clip-path="url(#clip440)" d="M223.874 494.047 Q220.726 494.047 218.874 496.199 Q217.045 498.352 217.045 502.102 Q217.045 505.829 218.874 508.005 Q220.726 510.158 223.874 510.158 Q227.022 510.158 228.851 508.005 Q230.702 505.829 230.702 502.102 Q230.702 498.352 228.851 496.199 Q227.022 494.047 223.874 494.047 M233.156 479.394 L233.156 483.653 Q231.397 482.82 229.591 482.38 Q227.809 481.94 226.05 481.94 Q221.42 481.94 218.966 485.065 Q216.536 488.19 216.189 494.509 Q217.554 492.496 219.614 491.431 Q221.675 490.343 224.152 490.343 Q229.36 490.343 232.369 493.514 Q235.401 496.662 235.401 502.102 Q235.401 507.426 232.253 510.644 Q229.105 513.861 223.874 513.861 Q217.878 513.861 214.707 509.278 Q211.536 504.671 211.536 495.945 Q211.536 487.75 215.425 482.889 Q219.314 478.005 225.864 478.005 Q227.624 478.005 229.406 478.352 Q231.212 478.699 233.156 479.394 Z" fill="#000000" fill-rule="nonzero" fill-opacity="1" /><path clip-path="url(#clip440)" d="M117.995 181.164 Q114.384 181.164 112.555 184.728 Q110.749 188.27 110.749 195.4 Q110.749 202.506 112.555 206.071 Q114.384 209.613 117.995 209.613 Q121.629 209.613 123.434 206.071 Q125.263 202.506 125.263 195.4 Q125.263 188.27 123.434 184.728 Q121.629 181.164 117.995 181.164 M117.995 177.46 Q123.805 177.46 126.86 182.066 Q129.939 186.65 129.939 195.4 Q129.939 204.126 126.86 208.733 Q123.805 213.316 117.995 213.316 Q112.185 213.316 109.106 208.733 Q106.05 204.126 106.05 195.4 Q106.05 186.65 109.106 182.066 Q112.185 177.46 117.995 177.46 Z" fill="#000000" fill-rule="nonzero" fill-opacity="1" /><path clip-path="url(#clip440)" d="M138.157 206.765 L143.041 206.765 L143.041 212.645 L138.157 212.645 L138.157 206.765 Z" fill="#000000" fill-rule="nonzero" fill-opacity="1" /><path clip-path="url(#clip440)" d="M163.226 181.164 Q159.615 181.164 157.786 184.728 Q155.981 188.27 155.981 195.4 Q155.981 202.506 157.786 206.071 Q159.615 209.613 163.226 209.613 Q166.86 209.613 168.666 206.071 Q170.494 202.506 170.494 195.4 Q170.494 188.27 168.666 184.728 Q166.86 181.164 163.226 181.164 M163.226 177.46 Q169.036 177.46 172.092 182.066 Q175.17 186.65 175.17 195.4 Q175.17 204.126 172.092 208.733 Q169.036 213.316 163.226 213.316 Q157.416 213.316 154.337 208.733 Q151.282 204.126 151.282 195.4 Q151.282 186.65 154.337 182.066 Q157.416 177.46 163.226 177.46 Z" fill="#000000" fill-rule="nonzero" fill-opacity="1" /><path clip-path="url(#clip440)" d="M193.388 181.164 Q189.777 181.164 187.948 184.728 Q186.142 188.27 186.142 195.4 Q186.142 202.506 187.948 206.071 Q189.777 209.613 193.388 209.613 Q197.022 209.613 198.828 206.071 Q200.656 202.506 200.656 195.4 Q200.656 188.27 198.828 184.728 Q197.022 181.164 193.388 181.164 M193.388 177.46 Q199.198 177.46 202.253 182.066 Q205.332 186.65 205.332 195.4 Q205.332 204.126 202.253 208.733 Q199.198 213.316 193.388 213.316 Q187.578 213.316 184.499 208.733 Q181.443 204.126 181.443 195.4 Q181.443 186.65 184.499 182.066 Q187.578 177.46 193.388 177.46 Z" fill="#000000" fill-rule="nonzero" fill-opacity="1" /><path clip-path="url(#clip440)" d="M223.55 196.233 Q220.216 196.233 218.295 198.015 Q216.397 199.798 216.397 202.923 Q216.397 206.048 218.295 207.83 Q220.216 209.613 223.55 209.613 Q226.883 209.613 228.804 207.83 Q230.726 206.025 230.726 202.923 Q230.726 199.798 228.804 198.015 Q226.906 196.233 223.55 196.233 M218.874 194.242 Q215.865 193.501 214.175 191.441 Q212.508 189.381 212.508 186.418 Q212.508 182.275 215.448 179.867 Q218.411 177.46 223.55 177.46 Q228.712 177.46 231.651 179.867 Q234.591 182.275 234.591 186.418 Q234.591 189.381 232.901 191.441 Q231.235 193.501 228.249 194.242 Q231.628 195.029 233.503 197.321 Q235.401 199.613 235.401 202.923 Q235.401 207.946 232.323 210.631 Q229.267 213.316 223.55 213.316 Q217.832 213.316 214.753 210.631 Q211.698 207.946 211.698 202.923 Q211.698 199.613 213.596 197.321 Q215.494 195.029 218.874 194.242 M217.161 186.858 Q217.161 189.543 218.827 191.048 Q220.517 192.552 223.55 192.552 Q226.559 192.552 228.249 191.048 Q229.962 189.543 229.962 186.858 Q229.962 184.173 228.249 182.668 Q226.559 181.164 223.55 181.164 Q220.517 181.164 218.827 182.668 Q217.161 184.173 217.161 186.858 Z" fill="#000000" fill-rule="nonzero" fill-opacity="1" /><path clip-path="url(#clip440)" d="M6.97912 936.558 L24.8349 936.558 L24.8349 928.473 Q24.8349 923.986 22.5114 921.535 Q20.188 919.084 15.8911 919.084 Q11.6261 919.084 9.30261 921.535 Q6.97912 923.986 6.97912 928.473 L6.97912 936.558 M1.69559 942.987 L1.69559 928.473 Q1.69559 920.484 5.32404 916.41 Q8.92066 912.304 15.8911 912.304 Q22.9252 912.304 26.5218 916.41 Q30.1185 920.484 30.1185 928.473 L30.1185 936.558 L49.2156 936.558 L49.2156 942.987 L1.69559 942.987 Z" fill="#000000" fill-rule="nonzero" fill-opacity="1" /><path clip-path="url(#clip440)" d="M19.0421 884.423 Q18.4692 885.409 18.2146 886.587 Q17.9281 887.733 17.9281 889.133 Q17.9281 894.099 21.1746 896.772 Q24.3893 899.414 30.4368 899.414 L49.2156 899.414 L49.2156 905.302 L13.5676 905.302 L13.5676 899.414 L19.1058 899.414 Q15.8593 897.568 14.2997 894.608 Q12.7083 891.648 12.7083 887.415 Q12.7083 886.81 12.8037 886.078 Q12.8674 885.346 13.0265 884.454 L19.0421 884.423 Z" fill="#000000" fill-rule="nonzero" fill-opacity="1" /><path clip-path="url(#clip440)" d="M17.6735 865.898 Q17.6735 870.609 21.3656 873.346 Q25.0259 876.084 31.4234 876.084 Q37.821 876.084 41.5131 873.378 Q45.1734 870.641 45.1734 865.898 Q45.1734 861.22 41.4813 858.482 Q37.7891 855.745 31.4234 855.745 Q25.0896 855.745 21.3974 858.482 Q17.6735 861.22 17.6735 865.898 M12.7083 865.898 Q12.7083 858.26 17.6735 853.899 Q22.6388 849.539 31.4234 849.539 Q40.1763 849.539 45.1734 853.899 Q50.1386 858.26 50.1386 865.898 Q50.1386 873.569 45.1734 877.93 Q40.1763 882.258 31.4234 882.258 Q22.6388 882.258 17.6735 877.93 Q12.7083 873.569 12.7083 865.898 Z" fill="#000000" fill-rule="nonzero" fill-opacity="1" /><path clip-path="url(#clip440)" d="M31.4234 814.241 Q24.9622 814.241 21.302 816.914 Q17.6099 819.556 17.6099 824.203 Q17.6099 828.85 21.302 831.524 Q24.9622 834.165 31.4234 834.165 Q37.8846 834.165 41.5767 831.524 Q45.237 828.85 45.237 824.203 Q45.237 819.556 41.5767 816.914 Q37.8846 814.241 31.4234 814.241 M18.9785 834.165 Q15.7956 832.319 14.2679 829.518 Q12.7083 826.686 12.7083 822.771 Q12.7083 816.278 17.8645 812.236 Q23.0207 808.161 31.4234 808.161 Q39.8262 808.161 44.9824 812.236 Q50.1386 816.278 50.1386 822.771 Q50.1386 826.686 48.6108 829.518 Q47.0512 832.319 43.8684 834.165 L49.2156 834.165 L49.2156 840.054 L-0.309612 840.054 L-0.309612 834.165 L18.9785 834.165 Z" fill="#000000" fill-rule="nonzero" fill-opacity="1" /><path clip-path="url(#clip440)" d="M31.2961 782.253 Q31.2961 789.351 32.9194 792.088 Q34.5426 794.825 38.4575 794.825 Q41.5767 794.825 43.4228 792.788 Q45.237 790.719 45.237 787.186 Q45.237 782.317 41.7995 779.388 Q38.3302 776.428 32.6011 776.428 L31.2961 776.428 L31.2961 782.253 M28.8772 770.572 L49.2156 770.572 L49.2156 776.428 L43.8047 776.428 Q47.0512 778.434 48.6108 781.426 Q50.1386 784.417 50.1386 788.746 Q50.1386 794.221 47.0831 797.467 Q43.9957 800.682 38.8395 800.682 Q32.8239 800.682 29.7684 796.671 Q26.7128 792.629 26.7128 784.64 L26.7128 776.428 L26.1399 776.428 Q22.0977 776.428 19.9015 779.102 Q17.6735 781.744 17.6735 786.55 Q17.6735 789.605 18.4056 792.502 Q19.1376 795.398 20.6017 798.072 L15.1909 798.072 Q13.9496 794.857 13.3448 791.833 Q12.7083 788.81 12.7083 785.945 Q12.7083 778.211 16.7187 774.391 Q20.729 770.572 28.8772 770.572 Z" fill="#000000" fill-rule="nonzero" fill-opacity="1" /><path clip-path="url(#clip440)" d="M31.4234 732.919 Q24.9622 732.919 21.302 735.592 Q17.6099 738.234 17.6099 742.881 Q17.6099 747.528 21.302 750.202 Q24.9622 752.843 31.4234 752.843 Q37.8846 752.843 41.5767 750.202 Q45.237 747.528 45.237 742.881 Q45.237 738.234 41.5767 735.592 Q37.8846 732.919 31.4234 732.919 M18.9785 752.843 Q15.7956 750.997 14.2679 748.197 Q12.7083 745.364 12.7083 741.449 Q12.7083 734.956 17.8645 730.914 Q23.0207 726.84 31.4234 726.84 Q39.8262 726.84 44.9824 730.914 Q50.1386 734.956 50.1386 741.449 Q50.1386 745.364 48.6108 748.197 Q47.0512 750.997 43.8684 752.843 L49.2156 752.843 L49.2156 758.732 L-0.309612 758.732 L-0.309612 752.843 L18.9785 752.843 Z" fill="#000000" fill-rule="nonzero" fill-opacity="1" /><path clip-path="url(#clip440)" d="M13.5676 717.132 L13.5676 711.275 L49.2156 711.275 L49.2156 717.132 L13.5676 717.132 M-0.309612 717.132 L-0.309612 711.275 L7.10644 711.275 L7.10644 717.132 L-0.309612 717.132 Z" fill="#000000" fill-rule="nonzero" fill-opacity="1" /><path clip-path="url(#clip440)" d="M-0.309612 699.021 L-0.309612 693.165 L49.2156 693.165 L49.2156 699.021 L-0.309612 699.021 Z" fill="#000000" fill-rule="nonzero" fill-opacity="1" /><path clip-path="url(#clip440)" d="M13.5676 680.911 L13.5676 675.055 L49.2156 675.055 L49.2156 680.911 L13.5676 680.911 M-0.309612 680.911 L-0.309612 675.055 L7.10644 675.055 L7.10644 680.911 L-0.309612 680.911 Z" fill="#000000" fill-rule="nonzero" fill-opacity="1" /><path clip-path="url(#clip440)" d="M3.44616 657.008 L13.5676 657.008 L13.5676 644.945 L18.1191 644.945 L18.1191 657.008 L37.4709 657.008 Q41.8314 657.008 43.0727 655.83 Q44.314 654.621 44.314 650.96 L44.314 644.945 L49.2156 644.945 L49.2156 650.96 Q49.2156 657.74 46.7011 660.318 Q44.1548 662.896 37.4709 662.896 L18.1191 662.896 L18.1191 667.193 L13.5676 667.193 L13.5676 662.896 L3.44616 662.896 L3.44616 657.008 Z" fill="#000000" fill-rule="nonzero" fill-opacity="1" /><path clip-path="url(#clip440)" d="M52.5258 622.41 Q58.8915 624.893 60.833 627.248 Q62.7745 629.603 62.7745 633.55 L62.7745 638.229 L57.8729 638.229 L57.8729 634.791 Q57.8729 632.372 56.7271 631.036 Q55.5813 629.699 51.3163 628.076 L48.6427 627.025 L13.5676 641.444 L13.5676 635.237 L41.4494 624.097 L13.5676 612.957 L13.5676 606.751 L52.5258 622.41 Z" fill="#000000" fill-rule="nonzero" fill-opacity="1" /><path clip-path="url(#clip440)" d="M1118.62 16.7545 L1118.62 25.383 Q1114.48 21.5346 1109.79 19.6307 Q1105.13 17.7268 1099.86 17.7268 Q1089.49 17.7268 1083.98 24.0867 Q1078.47 30.4061 1078.47 42.3968 Q1078.47 54.3469 1083.98 60.7069 Q1089.49 67.0263 1099.86 67.0263 Q1105.13 67.0263 1109.79 65.1223 Q1114.48 63.2184 1118.62 59.3701 L1118.62 67.9175 Q1114.32 70.8341 1109.5 72.2924 Q1104.72 73.7508 1099.37 73.7508 Q1085.64 73.7508 1077.74 65.3654 Q1069.84 56.9395 1069.84 42.3968 Q1069.84 27.8135 1077.74 19.4281 Q1085.64 11.0023 1099.37 11.0023 Q1104.8 11.0023 1109.58 12.4606 Q1114.4 13.8784 1118.62 16.7545 Z" fill="#000000" fill-rule="nonzero" fill-opacity="1" /><path clip-path="url(#clip440)" d="M1168.65 45.1919 L1168.65 72.576 L1161.19 72.576 L1161.19 45.4349 Q1161.19 38.994 1158.68 35.7938 Q1156.17 32.5936 1151.15 32.5936 Q1145.11 32.5936 1141.63 36.4419 Q1138.14 40.2903 1138.14 46.9338 L1138.14 72.576 L1130.65 72.576 L1130.65 9.54393 L1138.14 9.54393 L1138.14 34.2544 Q1140.82 30.163 1144.42 28.1376 Q1148.07 26.1121 1152.81 26.1121 Q1160.62 26.1121 1164.63 30.9732 Q1168.65 35.7938 1168.65 45.1919 Z" fill="#000000" fill-rule="nonzero" fill-opacity="1" /><path clip-path="url(#clip440)" d="M1204.13 49.7694 Q1195.1 49.7694 1191.61 51.8354 Q1188.13 53.9013 1188.13 58.8839 Q1188.13 62.8538 1190.72 65.2034 Q1193.36 67.5124 1197.85 67.5124 Q1204.05 67.5124 1207.78 63.1374 Q1211.54 58.7219 1211.54 51.4303 L1211.54 49.7694 L1204.13 49.7694 M1219 46.6907 L1219 72.576 L1211.54 72.576 L1211.54 65.6895 Q1208.99 69.8214 1205.18 71.8063 Q1201.38 73.7508 1195.87 73.7508 Q1188.9 73.7508 1184.77 69.8619 Q1180.68 65.9325 1180.68 59.3701 Q1180.68 51.7138 1185.78 47.825 Q1190.93 43.9361 1201.09 43.9361 L1211.54 43.9361 L1211.54 43.2069 Q1211.54 38.0623 1208.14 35.2672 Q1204.78 32.4315 1198.66 32.4315 Q1194.77 32.4315 1191.09 33.3632 Q1187.4 34.295 1184 36.1584 L1184 29.2718 Q1188.09 27.692 1191.94 26.9223 Q1195.79 26.1121 1199.43 26.1121 Q1209.28 26.1121 1214.14 31.2163 Q1219 36.3204 1219 46.6907 Z" fill="#000000" fill-rule="nonzero" fill-opacity="1" /><path clip-path="url(#clip440)" d="M1234.35 27.2059 L1241.8 27.2059 L1241.8 72.576 L1234.35 72.576 L1234.35 27.2059 M1234.35 9.54393 L1241.8 9.54393 L1241.8 18.9825 L1234.35 18.9825 L1234.35 9.54393 Z" fill="#000000" fill-rule="nonzero" fill-opacity="1" /><path clip-path="url(#clip440)" d="M1295.11 45.1919 L1295.11 72.576 L1287.66 72.576 L1287.66 45.4349 Q1287.66 38.994 1285.15 35.7938 Q1282.64 32.5936 1277.61 32.5936 Q1271.58 32.5936 1268.1 36.4419 Q1264.61 40.2903 1264.61 46.9338 L1264.61 72.576 L1257.12 72.576 L1257.12 27.2059 L1264.61 27.2059 L1264.61 34.2544 Q1267.28 30.163 1270.89 28.1376 Q1274.54 26.1121 1279.28 26.1121 Q1287.09 26.1121 1291.1 30.9732 Q1295.11 35.7938 1295.11 45.1919 Z" fill="#000000" fill-rule="nonzero" fill-opacity="1" /><path clip-path="url(#clip440)" d="M1333.76 12.096 L1342.55 12.096 L1357.58 34.5785 L1372.69 12.096 L1381.48 12.096 L1362.04 41.141 L1382.78 72.576 L1373.99 72.576 L1356.97 46.8528 L1339.84 72.576 L1331.01 72.576 L1352.6 40.2903 L1333.76 12.096 Z" fill="#000000" fill-rule="nonzero" fill-opacity="1" /><path clip-path="url(#clip440)" d="M1419.88 12.096 L1458.12 12.096 L1458.12 18.9825 L1428.07 18.9825 L1428.07 36.8875 L1456.87 36.8875 L1456.87 43.7741 L1428.07 43.7741 L1428.07 65.6895 L1458.85 65.6895 L1458.85 72.576 L1419.88 72.576 L1419.88 12.096 Z" fill="#000000" fill-rule="nonzero" fill-opacity="1" /><path clip-path="url(#clip440)" d="M1498.27 34.1734 Q1497.01 33.4443 1495.51 33.1202 Q1494.05 32.7556 1492.27 32.7556 Q1485.95 32.7556 1482.55 36.8875 Q1479.19 40.9789 1479.19 48.6757 L1479.19 72.576 L1471.69 72.576 L1471.69 27.2059 L1479.19 27.2059 L1479.19 34.2544 Q1481.54 30.1225 1485.3 28.1376 Q1489.07 26.1121 1494.46 26.1121 Q1495.23 26.1121 1496.16 26.2337 Q1497.09 26.3147 1498.23 26.5172 L1498.27 34.1734 Z" fill="#000000" fill-rule="nonzero" fill-opacity="1" /><path clip-path="url(#clip440)" d="M1530.92 34.1734 Q1529.66 33.4443 1528.16 33.1202 Q1526.7 32.7556 1524.92 32.7556 Q1518.6 32.7556 1515.2 36.8875 Q1511.84 40.9789 1511.84 48.6757 L1511.84 72.576 L1504.34 72.576 L1504.34 27.2059 L1511.84 27.2059 L1511.84 34.2544 Q1514.19 30.1225 1517.95 28.1376 Q1521.72 26.1121 1527.11 26.1121 Q1527.88 26.1121 1528.81 26.2337 Q1529.74 26.3147 1530.88 26.5172 L1530.92 34.1734 Z" fill="#000000" fill-rule="nonzero" fill-opacity="1" /><path clip-path="url(#clip440)" d="M1554.49 32.4315 Q1548.5 32.4315 1545.01 37.1306 Q1541.53 41.7891 1541.53 49.9314 Q1541.53 58.0738 1544.97 62.7728 Q1548.46 67.4314 1554.49 67.4314 Q1560.45 67.4314 1563.93 62.7323 Q1567.42 58.0333 1567.42 49.9314 Q1567.42 41.8701 1563.93 37.1711 Q1560.45 32.4315 1554.49 32.4315 M1554.49 26.1121 Q1564.22 26.1121 1569.77 32.4315 Q1575.32 38.7509 1575.32 49.9314 Q1575.32 61.0714 1569.77 67.4314 Q1564.22 73.7508 1554.49 73.7508 Q1544.73 73.7508 1539.18 67.4314 Q1533.67 61.0714 1533.67 49.9314 Q1533.67 38.7509 1539.18 32.4315 Q1544.73 26.1121 1554.49 26.1121 Z" fill="#000000" fill-rule="nonzero" fill-opacity="1" /><path clip-path="url(#clip440)" d="M1613.96 34.1734 Q1612.71 33.4443 1611.21 33.1202 Q1609.75 32.7556 1607.97 32.7556 Q1601.65 32.7556 1598.24 36.8875 Q1594.88 40.9789 1594.88 48.6757 L1594.88 72.576 L1587.39 72.576 L1587.39 27.2059 L1594.88 27.2059 L1594.88 34.2544 Q1597.23 30.1225 1601 28.1376 Q1604.77 26.1121 1610.15 26.1121 Q1610.92 26.1121 1611.85 26.2337 Q1612.79 26.3147 1613.92 26.5172 L1613.96 34.1734 Z" fill="#000000" fill-rule="nonzero" fill-opacity="1" /><path clip-path="url(#clip440)" d="M1622.23 62.2867 L1630.77 62.2867 L1630.77 72.576 L1622.23 72.576 L1622.23 62.2867 M1622.23 29.6769 L1630.77 29.6769 L1630.77 39.9662 L1622.23 39.9662 L1622.23 29.6769 Z" fill="#000000" fill-rule="nonzero" fill-opacity="1" /><path clip-path="url(#clip440)" d="M1695.75 67.4314 Q1701.1 67.4719 1704.3 70.51 Q1707.7 73.7103 1707.7 78.5713 Q1707.7 83.2299 1704.7 86.4706 Q1701.46 89.9949 1694.86 89.9949 Q1694.86 86.9567 1694.86 83.878 Q1697.65 84.0806 1699.35 82.2982 Q1700.65 80.8804 1700.65 79.3815 Q1700.65 77.2345 1699.35 75.4521 Q1698.1 73.7508 1695.75 73.7508 Q1671.2 73.7508 1671.16 50.9442 Q1671.16 31.0137 1694.29 17.0381 L1672.74 17.0381 L1672.74 9.54393 L1707.98 9.54393 L1707.98 17.0381 Q1678.65 31.7834 1678.65 50.9442 Q1678.65 67.4314 1695.75 67.4314 Z" fill="#000000" fill-rule="nonzero" fill-opacity="1" /><path clip-path="url(#clip440)" d="M1747.11 34.9026 L1799.05 34.9026 L1799.05 41.7081 L1747.11 41.7081 L1747.11 34.9026 M1747.11 51.4303 L1799.05 51.4303 L1799.05 58.3168 L1747.11 58.3168 L1747.11 51.4303 Z" fill="#000000" fill-rule="nonzero" fill-opacity="1" /><path clip-path="url(#clip440)" d="M1860.58 17.4837 Q1854.26 17.4837 1851.06 23.7221 Q1847.9 29.92 1847.9 42.3968 Q1847.9 54.833 1851.06 61.0714 Q1854.26 67.2693 1860.58 67.2693 Q1866.94 67.2693 1870.1 61.0714 Q1873.3 54.833 1873.3 42.3968 Q1873.3 29.92 1870.1 23.7221 Q1866.94 17.4837 1860.58 17.4837 M1860.58 11.0023 Q1870.75 11.0023 1876.1 19.0636 Q1881.48 27.0843 1881.48 42.3968 Q1881.48 57.6687 1876.1 65.73 Q1870.75 73.7508 1860.58 73.7508 Q1850.41 73.7508 1845.02 65.73 Q1839.68 57.6687 1839.68 42.3968 Q1839.68 27.0843 1845.02 19.0636 Q1850.41 11.0023 1860.58 11.0023 Z" fill="#000000" fill-rule="nonzero" fill-opacity="1" /><path clip-path="url(#clip440)" d="M1895.86 62.2867 L1904.41 62.2867 L1904.41 72.576 L1895.86 72.576 L1895.86 62.2867 Z" fill="#000000" fill-rule="nonzero" fill-opacity="1" /><path clip-path="url(#clip440)" d="M1922.48 71.3202 L1922.48 63.8666 Q1925.56 65.3249 1928.72 66.0946 Q1931.88 66.8642 1934.91 66.8642 Q1943.02 66.8642 1947.27 61.436 Q1951.56 55.9673 1952.17 44.8678 Q1949.82 48.3516 1946.22 50.215 Q1942.61 52.0784 1938.24 52.0784 Q1929.16 52.0784 1923.86 46.6097 Q1918.59 41.1005 1918.59 31.5808 Q1918.59 22.2638 1924.1 16.633 Q1929.61 11.0023 1938.76 11.0023 Q1949.25 11.0023 1954.76 19.0636 Q1960.31 27.0843 1960.31 42.3968 Q1960.31 56.6965 1953.51 65.2439 Q1946.74 73.7508 1935.28 73.7508 Q1932.2 73.7508 1929.04 73.1431 Q1925.88 72.5355 1922.48 71.3202 M1938.76 45.678 Q1944.27 45.678 1947.47 41.9107 Q1950.71 38.1433 1950.71 31.5808 Q1950.71 25.0589 1947.47 21.2916 Q1944.27 17.4837 1938.76 17.4837 Q1933.25 17.4837 1930.01 21.2916 Q1926.81 25.0589 1926.81 31.5808 Q1926.81 38.1433 1930.01 41.9107 Q1933.25 45.678 1938.76 45.678 Z" fill="#000000" fill-rule="nonzero" fill-opacity="1" /><polyline clip-path="url(#clip442)" style="stroke:#009af9; stroke-linecap:round; stroke-linejoin:round; stroke-width:4; stroke-opacity:1; fill:none" points="277.401,152.193 359.913,208.81 442.425,264.024 524.937,317.886 607.449,370.446 689.961,421.749 772.472,471.842 854.984,520.765 937.496,568.559 1020.01,615.264 1102.52,660.915 1185.03,705.548 1267.54,749.198 1350.06,791.895 1432.57,833.671 1515.08,874.555 1597.59,914.575 1680.1,953.76 1762.61,992.134 1845.13,1029.72 1927.64,1066.55 2010.15,1102.64 2092.66,1138.01 2175.17,1172.68 2257.69,1206.68 2340.2,1240.03 2422.71,1272.73 2505.22,1304.82 2587.73,1336.31 2670.24,1367.21 "/>
<circle clip-path="url(#clip442)" cx="277.401" cy="152.193" r="14.4" fill="#009af9" fill-rule="evenodd" fill-opacity="1" stroke="#000000" stroke-opacity="1" stroke-width="3.2"/>
<circle clip-path="url(#clip442)" cx="359.913" cy="208.81" r="14.4" fill="#009af9" fill-rule="evenodd" fill-opacity="1" stroke="#000000" stroke-opacity="1" stroke-width="3.2"/>
<circle clip-path="url(#clip442)" cx="442.425" cy="264.024" r="14.4" fill="#009af9" fill-rule="evenodd" fill-opacity="1" stroke="#000000" stroke-opacity="1" stroke-width="3.2"/>
<circle clip-path="url(#clip442)" cx="524.937" cy="317.886" r="14.4" fill="#009af9" fill-rule="evenodd" fill-opacity="1" stroke="#000000" stroke-opacity="1" stroke-width="3.2"/>
<circle clip-path="url(#clip442)" cx="607.449" cy="370.446" r="14.4" fill="#009af9" fill-rule="evenodd" fill-opacity="1" stroke="#000000" stroke-opacity="1" stroke-width="3.2"/>
<circle clip-path="url(#clip442)" cx="689.961" cy="421.749" r="14.4" fill="#009af9" fill-rule="evenodd" fill-opacity="1" stroke="#000000" stroke-opacity="1" stroke-width="3.2"/>
<circle clip-path="url(#clip442)" cx="772.472" cy="471.842" r="14.4" fill="#009af9" fill-rule="evenodd" fill-opacity="1" stroke="#000000" stroke-opacity="1" stroke-width="3.2"/>
<circle clip-path="url(#clip442)" cx="854.984" cy="520.765" r="14.4" fill="#009af9" fill-rule="evenodd" fill-opacity="1" stroke="#000000" stroke-opacity="1" stroke-width="3.2"/>
<circle clip-path="url(#clip442)" cx="937.496" cy="568.559" r="14.4" fill="#009af9" fill-rule="evenodd" fill-opacity="1" stroke="#000000" stroke-opacity="1" stroke-width="3.2"/>
<circle clip-path="url(#clip442)" cx="1020.01" cy="615.264" r="14.4" fill="#009af9" fill-rule="evenodd" fill-opacity="1" stroke="#000000" stroke-opacity="1" stroke-width="3.2"/>
<circle clip-path="url(#clip442)" cx="1102.52" cy="660.915" r="14.4" fill="#009af9" fill-rule="evenodd" fill-opacity="1" stroke="#000000" stroke-opacity="1" stroke-width="3.2"/>
<circle clip-path="url(#clip442)" cx="1185.03" cy="705.548" r="14.4" fill="#009af9" fill-rule="evenodd" fill-opacity="1" stroke="#000000" stroke-opacity="1" stroke-width="3.2"/>
<circle clip-path="url(#clip442)" cx="1267.54" cy="749.198" r="14.4" fill="#009af9" fill-rule="evenodd" fill-opacity="1" stroke="#000000" stroke-opacity="1" stroke-width="3.2"/>
<circle clip-path="url(#clip442)" cx="1350.06" cy="791.895" r="14.4" fill="#009af9" fill-rule="evenodd" fill-opacity="1" stroke="#000000" stroke-opacity="1" stroke-width="3.2"/>
<circle clip-path="url(#clip442)" cx="1432.57" cy="833.671" r="14.4" fill="#009af9" fill-rule="evenodd" fill-opacity="1" stroke="#000000" stroke-opacity="1" stroke-width="3.2"/>
<circle clip-path="url(#clip442)" cx="1515.08" cy="874.555" r="14.4" fill="#009af9" fill-rule="evenodd" fill-opacity="1" stroke="#000000" stroke-opacity="1" stroke-width="3.2"/>
<circle clip-path="url(#clip442)" cx="1597.59" cy="914.575" r="14.4" fill="#009af9" fill-rule="evenodd" fill-opacity="1" stroke="#000000" stroke-opacity="1" stroke-width="3.2"/>
<circle clip-path="url(#clip442)" cx="1680.1" cy="953.76" r="14.4" fill="#009af9" fill-rule="evenodd" fill-opacity="1" stroke="#000000" stroke-opacity="1" stroke-width="3.2"/>
<circle clip-path="url(#clip442)" cx="1762.61" cy="992.134" r="14.4" fill="#009af9" fill-rule="evenodd" fill-opacity="1" stroke="#000000" stroke-opacity="1" stroke-width="3.2"/>
<circle clip-path="url(#clip442)" cx="1845.13" cy="1029.72" r="14.4" fill="#009af9" fill-rule="evenodd" fill-opacity="1" stroke="#000000" stroke-opacity="1" stroke-width="3.2"/>
<circle clip-path="url(#clip442)" cx="1927.64" cy="1066.55" r="14.4" fill="#009af9" fill-rule="evenodd" fill-opacity="1" stroke="#000000" stroke-opacity="1" stroke-width="3.2"/>
<circle clip-path="url(#clip442)" cx="2010.15" cy="1102.64" r="14.4" fill="#009af9" fill-rule="evenodd" fill-opacity="1" stroke="#000000" stroke-opacity="1" stroke-width="3.2"/>
<circle clip-path="url(#clip442)" cx="2092.66" cy="1138.01" r="14.4" fill="#009af9" fill-rule="evenodd" fill-opacity="1" stroke="#000000" stroke-opacity="1" stroke-width="3.2"/>
<circle clip-path="url(#clip442)" cx="2175.17" cy="1172.68" r="14.4" fill="#009af9" fill-rule="evenodd" fill-opacity="1" stroke="#000000" stroke-opacity="1" stroke-width="3.2"/>
<circle clip-path="url(#clip442)" cx="2257.69" cy="1206.68" r="14.4" fill="#009af9" fill-rule="evenodd" fill-opacity="1" stroke="#000000" stroke-opacity="1" stroke-width="3.2"/>
<circle clip-path="url(#clip442)" cx="2340.2" cy="1240.03" r="14.4" fill="#009af9" fill-rule="evenodd" fill-opacity="1" stroke="#000000" stroke-opacity="1" stroke-width="3.2"/>
<circle clip-path="url(#clip442)" cx="2422.71" cy="1272.73" r="14.4" fill="#009af9" fill-rule="evenodd" fill-opacity="1" stroke="#000000" stroke-opacity="1" stroke-width="3.2"/>
<circle clip-path="url(#clip442)" cx="2505.22" cy="1304.82" r="14.4" fill="#009af9" fill-rule="evenodd" fill-opacity="1" stroke="#000000" stroke-opacity="1" stroke-width="3.2"/>
<circle clip-path="url(#clip442)" cx="2587.73" cy="1336.31" r="14.4" fill="#009af9" fill-rule="evenodd" fill-opacity="1" stroke="#000000" stroke-opacity="1" stroke-width="3.2"/>
<circle clip-path="url(#clip442)" cx="2670.24" cy="1367.21" r="14.4" fill="#009af9" fill-rule="evenodd" fill-opacity="1" stroke="#000000" stroke-opacity="1" stroke-width="3.2"/>
<polyline clip-path="url(#clip442)" style="stroke:#e26f46; stroke-linecap:round; stroke-linejoin:round; stroke-width:4; stroke-opacity:1; fill:none" points="277.401,686.725 359.913,719.495 442.425,751.41 524.937,782.504 607.449,812.808 689.961,842.351 772.472,871.162 854.984,899.268 937.496,926.695 1020.01,953.466 1102.52,979.605 1185.03,1005.13 1267.54,1030.08 1350.06,1054.45 1432.57,1078.27 1515.08,1101.56 1597.59,1124.34 1680.1,1146.62 1762.61,1168.42 1845.13,1189.75 1927.64,1210.64 2010.15,1231.09 2092.66,1251.11 2175.17,1270.73 2257.69,1289.95 2340.2,1308.78 2422.71,1327.24 2505.22,1345.33 2587.73,1363.08 2670.24,1380.48 "/>
<path clip-path="url(#clip442)" d="M277.401 670.725 L261.401 686.725 L277.401 702.725 L293.401 686.725 L277.401 670.725 Z" fill="#e26f46" fill-rule="evenodd" fill-opacity="1" stroke="#000000" stroke-opacity="1" stroke-width="3.2"/>
<path clip-path="url(#clip442)" d="M359.913 703.495 L343.913 719.495 L359.913 735.495 L375.913 719.495 L359.913 703.495 Z" fill="#e26f46" fill-rule="evenodd" fill-opacity="1" stroke="#000000" stroke-opacity="1" stroke-width="3.2"/>
<path clip-path="url(#clip442)" d="M442.425 735.41 L426.425 751.41 L442.425 767.41 L458.425 751.41 L442.425 735.41 Z" fill="#e26f46" fill-rule="evenodd" fill-opacity="1" stroke="#000000" stroke-opacity="1" stroke-width="3.2"/>
<path clip-path="url(#clip442)" d="M524.937 766.504 L508.937 782.504 L524.937 798.504 L540.937 782.504 L524.937 766.504 Z" fill="#e26f46" fill-rule="evenodd" fill-opacity="1" stroke="#000000" stroke-opacity="1" stroke-width="3.2"/>
<path clip-path="url(#clip442)" d="M607.449 796.808 L591.449 812.808 L607.449 828.808 L623.449 812.808 L607.449 796.808 Z" fill="#e26f46" fill-rule="evenodd" fill-opacity="1" stroke="#000000" stroke-opacity="1" stroke-width="3.2"/>
<path clip-path="url(#clip442)" d="M689.961 826.351 L673.961 842.351 L689.961 858.351 L705.961 842.351 L689.961 826.351 Z" fill="#e26f46" fill-rule="evenodd" fill-opacity="1" stroke="#000000" stroke-opacity="1" stroke-width="3.2"/>
<path clip-path="url(#clip442)" d="M772.472 855.162 L756.472 871.162 L772.472 887.162 L788.472 871.162 L772.472 855.162 Z" fill="#e26f46" fill-rule="evenodd" fill-opacity="1" stroke="#000000" stroke-opacity="1" stroke-width="3.2"/>
<path clip-path="url(#clip442)" d="M854.984 883.268 L838.984 899.268 L854.984 915.268 L870.984 899.268 L854.984 883.268 Z" fill="#e26f46" fill-rule="evenodd" fill-opacity="1" stroke="#000000" stroke-opacity="1" stroke-width="3.2"/>
<path clip-path="url(#clip442)" d="M937.496 910.695 L921.496 926.695 L937.496 942.695 L953.496 926.695 L937.496 910.695 Z" fill="#e26f46" fill-rule="evenodd" fill-opacity="1" stroke="#000000" stroke-opacity="1" stroke-width="3.2"/>
<path clip-path="url(#clip442)" d="M1020.01 937.466 L1004.01 953.466 L1020.01 969.466 L1036.01 953.466 L1020.01 937.466 Z" fill="#e26f46" fill-rule="evenodd" fill-opacity="1" stroke="#000000" stroke-opacity="1" stroke-width="3.2"/>
<path clip-path="url(#clip442)" d="M1102.52 963.605 L1086.52 979.605 L1102.52 995.605 L1118.52 979.605 L1102.52 963.605 Z" fill="#e26f46" fill-rule="evenodd" fill-opacity="1" stroke="#000000" stroke-opacity="1" stroke-width="3.2"/>
<path clip-path="url(#clip442)" d="M1185.03 989.135 L1169.03 1005.13 L1185.03 1021.13 L1201.03 1005.13 L1185.03 989.135 Z" fill="#e26f46" fill-rule="evenodd" fill-opacity="1" stroke="#000000" stroke-opacity="1" stroke-width="3.2"/>
<path clip-path="url(#clip442)" d="M1267.54 1014.08 L1251.54 1030.08 L1267.54 1046.08 L1283.54 1030.08 L1267.54 1014.08 Z" fill="#e26f46" fill-rule="evenodd" fill-opacity="1" stroke="#000000" stroke-opacity="1" stroke-width="3.2"/>
<path clip-path="url(#clip442)" d="M1350.06 1038.45 L1334.06 1054.45 L1350.06 1070.45 L1366.06 1054.45 L1350.06 1038.45 Z" fill="#e26f46" fill-rule="evenodd" fill-opacity="1" stroke="#000000" stroke-opacity="1" stroke-width="3.2"/>
<path clip-path="url(#clip442)" d="M1432.57 1062.27 L1416.57 1078.27 L1432.57 1094.27 L1448.57 1078.27 L1432.57 1062.27 Z" fill="#e26f46" fill-rule="evenodd" fill-opacity="1" stroke="#000000" stroke-opacity="1" stroke-width="3.2"/>
<path clip-path="url(#clip442)" d="M1515.08 1085.56 L1499.08 1101.56 L1515.08 1117.56 L1531.08 1101.56 L1515.08 1085.56 Z" fill="#e26f46" fill-rule="evenodd" fill-opacity="1" stroke="#000000" stroke-opacity="1" stroke-width="3.2"/>
<path clip-path="url(#clip442)" d="M1597.59 1108.34 L1581.59 1124.34 L1597.59 1140.34 L1613.59 1124.34 L1597.59 1108.34 Z" fill="#e26f46" fill-rule="evenodd" fill-opacity="1" stroke="#000000" stroke-opacity="1" stroke-width="3.2"/>
<path clip-path="url(#clip442)" d="M1680.1 1130.62 L1664.1 1146.62 L1680.1 1162.62 L1696.1 1146.62 L1680.1 1130.62 Z" fill="#e26f46" fill-rule="evenodd" fill-opacity="1" stroke="#000000" stroke-opacity="1" stroke-width="3.2"/>
<path clip-path="url(#clip442)" d="M1762.61 1152.42 L1746.61 1168.42 L1762.61 1184.42 L1778.61 1168.42 L1762.61 1152.42 Z" fill="#e26f46" fill-rule="evenodd" fill-opacity="1" stroke="#000000" stroke-opacity="1" stroke-width="3.2"/>
<path clip-path="url(#clip442)" d="M1845.13 1173.75 L1829.13 1189.75 L1845.13 1205.75 L1861.13 1189.75 L1845.13 1173.75 Z" fill="#e26f46" fill-rule="evenodd" fill-opacity="1" stroke="#000000" stroke-opacity="1" stroke-width="3.2"/>
<path clip-path="url(#clip442)" d="M1927.64 1194.64 L1911.64 1210.64 L1927.64 1226.64 L1943.64 1210.64 L1927.64 1194.64 Z" fill="#e26f46" fill-rule="evenodd" fill-opacity="1" stroke="#000000" stroke-opacity="1" stroke-width="3.2"/>
<path clip-path="url(#clip442)" d="M2010.15 1215.09 L1994.15 1231.09 L2010.15 1247.09 L2026.15 1231.09 L2010.15 1215.09 Z" fill="#e26f46" fill-rule="evenodd" fill-opacity="1" stroke="#000000" stroke-opacity="1" stroke-width="3.2"/>
<path clip-path="url(#clip442)" d="M2092.66 1235.11 L2076.66 1251.11 L2092.66 1267.11 L2108.66 1251.11 L2092.66 1235.11 Z" fill="#e26f46" fill-rule="evenodd" fill-opacity="1" stroke="#000000" stroke-opacity="1" stroke-width="3.2"/>
<path clip-path="url(#clip442)" d="M2175.17 1254.73 L2159.17 1270.73 L2175.17 1286.73 L2191.17 1270.73 L2175.17 1254.73 Z" fill="#e26f46" fill-rule="evenodd" fill-opacity="1" stroke="#000000" stroke-opacity="1" stroke-width="3.2"/>
<path clip-path="url(#clip442)" d="M2257.69 1273.95 L2241.69 1289.95 L2257.69 1305.95 L2273.69 1289.95 L2257.69 1273.95 Z" fill="#e26f46" fill-rule="evenodd" fill-opacity="1" stroke="#000000" stroke-opacity="1" stroke-width="3.2"/>
<path clip-path="url(#clip442)" d="M2340.2 1292.78 L2324.2 1308.78 L2340.2 1324.78 L2356.2 1308.78 L2340.2 1292.78 Z" fill="#e26f46" fill-rule="evenodd" fill-opacity="1" stroke="#000000" stroke-opacity="1" stroke-width="3.2"/>
<path clip-path="url(#clip442)" d="M2422.71 1311.24 L2406.71 1327.24 L2422.71 1343.24 L2438.71 1327.24 L2422.71 1311.24 Z" fill="#e26f46" fill-rule="evenodd" fill-opacity="1" stroke="#000000" stroke-opacity="1" stroke-width="3.2"/>
<path clip-path="url(#clip442)" d="M2505.22 1329.33 L2489.22 1345.33 L2505.22 1361.33 L2521.22 1345.33 L2505.22 1329.33 Z" fill="#e26f46" fill-rule="evenodd" fill-opacity="1" stroke="#000000" stroke-opacity="1" stroke-width="3.2"/>
<path clip-path="url(#clip442)" d="M2587.73 1347.08 L2571.73 1363.08 L2587.73 1379.08 L2603.73 1363.08 L2587.73 1347.08 Z" fill="#e26f46" fill-rule="evenodd" fill-opacity="1" stroke="#000000" stroke-opacity="1" stroke-width="3.2"/>
<path clip-path="url(#clip442)" d="M2670.24 1364.48 L2654.24 1380.48 L2670.24 1396.48 L2686.24 1380.48 L2670.24 1364.48 Z" fill="#e26f46" fill-rule="evenodd" fill-opacity="1" stroke="#000000" stroke-opacity="1" stroke-width="3.2"/>
<polyline clip-path="url(#clip442)" style="stroke:#3da44d; stroke-linecap:round; stroke-linejoin:round; stroke-width:4; stroke-opacity:1; fill:none" points="277.401,1078.27 359.913,1093.14 442.425,1107.6 524.937,1121.68 607.449,1135.39 689.961,1148.75 772.472,1161.76 854.984,1174.44 937.496,1186.81 1020.01,1198.87 1102.52,1210.64 1185.03,1222.12 1267.54,1233.33 1350.06,1244.28 1432.57,1254.97 1515.08,1265.42 1597.59,1275.63 1680.1,1285.61 1762.61,1295.37 1845.13,1304.91 1927.64,1314.25 2010.15,1323.38 2092.66,1332.32 2175.17,1341.08 2257.69,1349.65 2340.2,1358.04 2422.71,1366.26 2505.22,1374.32 2587.73,1382.22 2670.24,1389.96 "/>
<path clip-path="url(#clip442)" d="M277.401 1062.27 L273.641 1073.09 L262.185 1073.33 L271.321 1080.25 L267.993 1091.21 L277.401 1084.67 L286.809 1091.21 L283.481 1080.25 L292.617 1073.33 L281.161 1073.09 L277.401 1062.27 Z" fill="#3da44d" fill-rule="evenodd" fill-opacity="1" stroke="#000000" stroke-opacity="1" stroke-width="3.2"/>
<path clip-path="url(#clip442)" d="M359.913 1077.14 L356.153 1087.95 L344.697 1088.19 L353.833 1095.12 L350.505 1106.08 L359.913 1099.54 L369.321 1106.08 L365.993 1095.12 L375.129 1088.19 L363.673 1087.95 L359.913 1077.14 Z" fill="#3da44d" fill-rule="evenodd" fill-opacity="1" stroke="#000000" stroke-opacity="1" stroke-width="3.2"/>
<path clip-path="url(#clip442)" d="M442.425 1091.6 L438.665 1102.42 L427.209 1102.66 L436.345 1109.59 L433.017 1120.55 L442.425 1114 L451.833 1120.55 L448.505 1109.59 L457.641 1102.66 L446.185 1102.42 L442.425 1091.6 Z" fill="#3da44d" fill-rule="evenodd" fill-opacity="1" stroke="#000000" stroke-opacity="1" stroke-width="3.2"/>
<path clip-path="url(#clip442)" d="M524.937 1105.68 L521.177 1116.5 L509.721 1116.74 L518.857 1123.67 L515.529 1134.63 L524.937 1128.08 L534.345 1134.63 L531.017 1123.67 L540.153 1116.74 L528.697 1116.5 L524.937 1105.68 Z" fill="#3da44d" fill-rule="evenodd" fill-opacity="1" stroke="#000000" stroke-opacity="1" stroke-width="3.2"/>
<path clip-path="url(#clip442)" d="M607.449 1119.39 L603.689 1130.21 L592.233 1130.45 L601.369 1137.38 L598.041 1148.34 L607.449 1141.79 L616.857 1148.34 L613.529 1137.38 L622.665 1130.45 L611.209 1130.21 L607.449 1119.39 Z" fill="#3da44d" fill-rule="evenodd" fill-opacity="1" stroke="#000000" stroke-opacity="1" stroke-width="3.2"/>
<path clip-path="url(#clip442)" d="M689.961 1132.75 L686.201 1143.57 L674.745 1143.81 L683.881 1150.73 L680.553 1161.69 L689.961 1155.15 L699.369 1161.69 L696.041 1150.73 L705.177 1143.81 L693.721 1143.57 L689.961 1132.75 Z" fill="#3da44d" fill-rule="evenodd" fill-opacity="1" stroke="#000000" stroke-opacity="1" stroke-width="3.2"/>
<path clip-path="url(#clip442)" d="M772.472 1145.76 L768.712 1156.58 L757.256 1156.82 L766.392 1163.75 L763.064 1174.71 L772.472 1168.16 L781.88 1174.71 L778.552 1163.75 L787.688 1156.82 L776.232 1156.58 L772.472 1145.76 Z" fill="#3da44d" fill-rule="evenodd" fill-opacity="1" stroke="#000000" stroke-opacity="1" stroke-width="3.2"/>
<path clip-path="url(#clip442)" d="M854.984 1158.44 L851.224 1169.26 L839.768 1169.5 L848.904 1176.43 L845.576 1187.39 L854.984 1180.84 L864.392 1187.39 L861.064 1176.43 L870.2 1169.5 L858.744 1169.26 L854.984 1158.44 Z" fill="#3da44d" fill-rule="evenodd" fill-opacity="1" stroke="#000000" stroke-opacity="1" stroke-width="3.2"/>
<path clip-path="url(#clip442)" d="M937.496 1170.81 L933.736 1181.63 L922.28 1181.87 L931.416 1188.79 L928.088 1199.75 L937.496 1193.21 L946.904 1199.75 L943.576 1188.79 L952.712 1181.87 L941.256 1181.63 L937.496 1170.81 Z" fill="#3da44d" fill-rule="evenodd" fill-opacity="1" stroke="#000000" stroke-opacity="1" stroke-width="3.2"/>
<path clip-path="url(#clip442)" d="M1020.01 1182.87 L1016.25 1193.69 L1004.79 1193.93 L1013.93 1200.86 L1010.6 1211.82 L1020.01 1205.27 L1029.42 1211.82 L1026.09 1200.86 L1035.22 1193.93 L1023.77 1193.69 L1020.01 1182.87 Z" fill="#3da44d" fill-rule="evenodd" fill-opacity="1" stroke="#000000" stroke-opacity="1" stroke-width="3.2"/>
<path clip-path="url(#clip442)" d="M1102.52 1194.64 L1098.76 1205.45 L1087.3 1205.69 L1096.44 1212.62 L1093.11 1223.58 L1102.52 1217.04 L1111.93 1223.58 L1108.6 1212.62 L1117.74 1205.69 L1106.28 1205.45 L1102.52 1194.64 Z" fill="#3da44d" fill-rule="evenodd" fill-opacity="1" stroke="#000000" stroke-opacity="1" stroke-width="3.2"/>
<path clip-path="url(#clip442)" d="M1185.03 1206.12 L1181.27 1216.94 L1169.82 1217.18 L1178.95 1224.11 L1175.62 1235.07 L1185.03 1228.52 L1194.44 1235.07 L1191.11 1224.11 L1200.25 1217.18 L1188.79 1216.94 L1185.03 1206.12 Z" fill="#3da44d" fill-rule="evenodd" fill-opacity="1" stroke="#000000" stroke-opacity="1" stroke-width="3.2"/>
<path clip-path="url(#clip442)" d="M1267.54 1217.33 L1263.78 1228.15 L1252.33 1228.39 L1261.46 1235.32 L1258.14 1246.28 L1267.54 1239.73 L1276.95 1246.28 L1273.62 1235.32 L1282.76 1228.39 L1271.3 1228.15 L1267.54 1217.33 Z" fill="#3da44d" fill-rule="evenodd" fill-opacity="1" stroke="#000000" stroke-opacity="1" stroke-width="3.2"/>
<path clip-path="url(#clip442)" d="M1350.06 1228.28 L1346.3 1239.1 L1334.84 1239.34 L1343.98 1246.26 L1340.65 1257.22 L1350.06 1250.68 L1359.46 1257.22 L1356.14 1246.26 L1365.27 1239.34 L1353.82 1239.1 L1350.06 1228.28 Z" fill="#3da44d" fill-rule="evenodd" fill-opacity="1" stroke="#000000" stroke-opacity="1" stroke-width="3.2"/>
<path clip-path="url(#clip442)" d="M1432.57 1238.97 L1428.81 1249.79 L1417.35 1250.03 L1426.49 1256.96 L1423.16 1267.92 L1432.57 1261.37 L1441.97 1267.92 L1438.65 1256.96 L1447.78 1250.03 L1436.33 1249.79 L1432.57 1238.97 Z" fill="#3da44d" fill-rule="evenodd" fill-opacity="1" stroke="#000000" stroke-opacity="1" stroke-width="3.2"/>
<path clip-path="url(#clip442)" d="M1515.08 1249.42 L1511.32 1260.23 L1499.86 1260.47 L1509 1267.4 L1505.67 1278.36 L1515.08 1271.82 L1524.49 1278.36 L1521.16 1267.4 L1530.29 1260.47 L1518.84 1260.23 L1515.08 1249.42 Z" fill="#3da44d" fill-rule="evenodd" fill-opacity="1" stroke="#000000" stroke-opacity="1" stroke-width="3.2"/>
<path clip-path="url(#clip442)" d="M1597.59 1259.63 L1593.83 1270.44 L1582.37 1270.68 L1591.51 1277.61 L1588.18 1288.57 L1597.59 1282.03 L1607 1288.57 L1603.67 1277.61 L1612.81 1270.68 L1601.35 1270.44 L1597.59 1259.63 Z" fill="#3da44d" fill-rule="evenodd" fill-opacity="1" stroke="#000000" stroke-opacity="1" stroke-width="3.2"/>
<path clip-path="url(#clip442)" d="M1680.1 1269.61 L1676.34 1280.42 L1664.89 1280.66 L1674.02 1287.59 L1670.69 1298.55 L1680.1 1292.01 L1689.51 1298.55 L1686.18 1287.59 L1695.32 1280.66 L1683.86 1280.42 L1680.1 1269.61 Z" fill="#3da44d" fill-rule="evenodd" fill-opacity="1" stroke="#000000" stroke-opacity="1" stroke-width="3.2"/>
<path clip-path="url(#clip442)" d="M1762.61 1279.37 L1758.85 1290.18 L1747.4 1290.42 L1756.53 1297.35 L1753.21 1308.31 L1762.61 1301.77 L1772.02 1308.31 L1768.69 1297.35 L1777.83 1290.42 L1766.37 1290.18 L1762.61 1279.37 Z" fill="#3da44d" fill-rule="evenodd" fill-opacity="1" stroke="#000000" stroke-opacity="1" stroke-width="3.2"/>
<path clip-path="url(#clip442)" d="M1845.13 1288.91 L1841.37 1299.72 L1829.91 1299.96 L1839.05 1306.89 L1835.72 1317.85 L1845.13 1311.31 L1854.53 1317.85 L1851.21 1306.89 L1860.34 1299.96 L1848.89 1299.72 L1845.13 1288.91 Z" fill="#3da44d" fill-rule="evenodd" fill-opacity="1" stroke="#000000" stroke-opacity="1" stroke-width="3.2"/>
<path clip-path="url(#clip442)" d="M1927.64 1298.25 L1923.88 1309.06 L1912.42 1309.3 L1921.56 1316.23 L1918.23 1327.19 L1927.64 1320.65 L1937.05 1327.19 L1933.72 1316.23 L1942.85 1309.3 L1931.4 1309.06 L1927.64 1298.25 Z" fill="#3da44d" fill-rule="evenodd" fill-opacity="1" stroke="#000000" stroke-opacity="1" stroke-width="3.2"/>
<path clip-path="url(#clip442)" d="M2010.15 1307.38 L2006.39 1318.2 L1994.93 1318.44 L2004.07 1325.37 L2000.74 1336.33 L2010.15 1329.78 L2019.56 1336.33 L2016.23 1325.37 L2025.37 1318.44 L2013.91 1318.2 L2010.15 1307.38 Z" fill="#3da44d" fill-rule="evenodd" fill-opacity="1" stroke="#000000" stroke-opacity="1" stroke-width="3.2"/>
<path clip-path="url(#clip442)" d="M2092.66 1316.32 L2088.9 1327.14 L2077.45 1327.38 L2086.58 1334.31 L2083.25 1345.27 L2092.66 1338.72 L2102.07 1345.27 L2098.74 1334.31 L2107.88 1327.38 L2096.42 1327.14 L2092.66 1316.32 Z" fill="#3da44d" fill-rule="evenodd" fill-opacity="1" stroke="#000000" stroke-opacity="1" stroke-width="3.2"/>
<path clip-path="url(#clip442)" d="M2175.17 1325.08 L2171.41 1335.89 L2159.96 1336.13 L2169.09 1343.06 L2165.77 1354.02 L2175.17 1347.48 L2184.58 1354.02 L2181.25 1343.06 L2190.39 1336.13 L2178.93 1335.89 L2175.17 1325.08 Z" fill="#3da44d" fill-rule="evenodd" fill-opacity="1" stroke="#000000" stroke-opacity="1" stroke-width="3.2"/>
<path clip-path="url(#clip442)" d="M2257.69 1333.65 L2253.93 1344.46 L2242.47 1344.7 L2251.61 1351.63 L2248.28 1362.59 L2257.69 1356.05 L2267.09 1362.59 L2263.77 1351.63 L2272.9 1344.7 L2261.45 1344.46 L2257.69 1333.65 Z" fill="#3da44d" fill-rule="evenodd" fill-opacity="1" stroke="#000000" stroke-opacity="1" stroke-width="3.2"/>
<path clip-path="url(#clip442)" d="M2340.2 1342.04 L2336.44 1352.86 L2324.98 1353.1 L2334.12 1360.03 L2330.79 1370.99 L2340.2 1364.44 L2349.6 1370.99 L2346.28 1360.03 L2355.41 1353.1 L2343.96 1352.86 L2340.2 1342.04 Z" fill="#3da44d" fill-rule="evenodd" fill-opacity="1" stroke="#000000" stroke-opacity="1" stroke-width="3.2"/>
<path clip-path="url(#clip442)" d="M2422.71 1350.26 L2418.95 1361.08 L2407.49 1361.32 L2416.63 1368.25 L2413.3 1379.21 L2422.71 1372.66 L2432.12 1379.21 L2428.79 1368.25 L2437.92 1361.32 L2426.47 1361.08 L2422.71 1350.26 Z" fill="#3da44d" fill-rule="evenodd" fill-opacity="1" stroke="#000000" stroke-opacity="1" stroke-width="3.2"/>
<path clip-path="url(#clip442)" d="M2505.22 1358.32 L2501.46 1369.14 L2490 1369.38 L2499.14 1376.31 L2495.81 1387.27 L2505.22 1380.72 L2514.63 1387.27 L2511.3 1376.31 L2520.44 1369.38 L2508.98 1369.14 L2505.22 1358.32 Z" fill="#3da44d" fill-rule="evenodd" fill-opacity="1" stroke="#000000" stroke-opacity="1" stroke-width="3.2"/>
<path clip-path="url(#clip442)" d="M2587.73 1366.22 L2583.97 1377.03 L2572.52 1377.27 L2581.65 1384.2 L2578.32 1395.16 L2587.73 1388.62 L2597.14 1395.16 L2593.81 1384.2 L2602.95 1377.27 L2591.49 1377.03 L2587.73 1366.22 Z" fill="#3da44d" fill-rule="evenodd" fill-opacity="1" stroke="#000000" stroke-opacity="1" stroke-width="3.2"/>
<path clip-path="url(#clip442)" d="M2670.24 1373.96 L2666.48 1384.77 L2655.03 1385.01 L2664.16 1391.94 L2660.84 1402.9 L2670.24 1396.36 L2679.65 1402.9 L2676.32 1391.94 L2685.46 1385.01 L2674 1384.77 L2670.24 1373.96 Z" fill="#3da44d" fill-rule="evenodd" fill-opacity="1" stroke="#000000" stroke-opacity="1" stroke-width="3.2"/>
<polyline clip-path="url(#clip442)" style="stroke:#c271d2; stroke-linecap:round; stroke-linejoin:round; stroke-width:4; stroke-opacity:1; fill:none" points="277.401,1397.54 359.913,1397.54 442.425,1397.54 524.937,1397.54 607.449,1397.54 689.961,1397.54 772.472,1397.54 854.984,1397.54 937.496,1397.54 1020.01,1397.54 1102.52,1397.54 1185.03,1397.54 1267.54,1397.54 1350.06,1397.54 1432.57,1397.54 1515.08,1397.54 1597.59,1397.54 1680.1,1397.54 1762.61,1397.54 1845.13,1397.54 1927.64,1397.54 2010.15,1397.54 2092.66,1397.54 2175.17,1397.54 2257.69,1397.54 2340.2,1397.54 2422.71,1397.54 2505.22,1397.54 2587.73,1397.54 2670.24,1397.54 "/>
<circle clip-path="url(#clip442)" cx="277.401" cy="1397.54" r="14.4" fill="#c271d2" fill-rule="evenodd" fill-opacity="1" stroke="#000000" stroke-opacity="1" stroke-width="3.2"/>
<circle clip-path="url(#clip442)" cx="359.913" cy="1397.54" r="14.4" fill="#c271d2" fill-rule="evenodd" fill-opacity="1" stroke="#000000" stroke-opacity="1" stroke-width="3.2"/>
<circle clip-path="url(#clip442)" cx="442.425" cy="1397.54" r="14.4" fill="#c271d2" fill-rule="evenodd" fill-opacity="1" stroke="#000000" stroke-opacity="1" stroke-width="3.2"/>
<circle clip-path="url(#clip442)" cx="524.937" cy="1397.54" r="14.4" fill="#c271d2" fill-rule="evenodd" fill-opacity="1" stroke="#000000" stroke-opacity="1" stroke-width="3.2"/>
<circle clip-path="url(#clip442)" cx="607.449" cy="1397.54" r="14.4" fill="#c271d2" fill-rule="evenodd" fill-opacity="1" stroke="#000000" stroke-opacity="1" stroke-width="3.2"/>
<circle clip-path="url(#clip442)" cx="689.961" cy="1397.54" r="14.4" fill="#c271d2" fill-rule="evenodd" fill-opacity="1" stroke="#000000" stroke-opacity="1" stroke-width="3.2"/>
<circle clip-path="url(#clip442)" cx="772.472" cy="1397.54" r="14.4" fill="#c271d2" fill-rule="evenodd" fill-opacity="1" stroke="#000000" stroke-opacity="1" stroke-width="3.2"/>
<circle clip-path="url(#clip442)" cx="854.984" cy="1397.54" r="14.4" fill="#c271d2" fill-rule="evenodd" fill-opacity="1" stroke="#000000" stroke-opacity="1" stroke-width="3.2"/>
<circle clip-path="url(#clip442)" cx="937.496" cy="1397.54" r="14.4" fill="#c271d2" fill-rule="evenodd" fill-opacity="1" stroke="#000000" stroke-opacity="1" stroke-width="3.2"/>
<circle clip-path="url(#clip442)" cx="1020.01" cy="1397.54" r="14.4" fill="#c271d2" fill-rule="evenodd" fill-opacity="1" stroke="#000000" stroke-opacity="1" stroke-width="3.2"/>
<circle clip-path="url(#clip442)" cx="1102.52" cy="1397.54" r="14.4" fill="#c271d2" fill-rule="evenodd" fill-opacity="1" stroke="#000000" stroke-opacity="1" stroke-width="3.2"/>
<circle clip-path="url(#clip442)" cx="1185.03" cy="1397.54" r="14.4" fill="#c271d2" fill-rule="evenodd" fill-opacity="1" stroke="#000000" stroke-opacity="1" stroke-width="3.2"/>
<circle clip-path="url(#clip442)" cx="1267.54" cy="1397.54" r="14.4" fill="#c271d2" fill-rule="evenodd" fill-opacity="1" stroke="#000000" stroke-opacity="1" stroke-width="3.2"/>
<circle clip-path="url(#clip442)" cx="1350.06" cy="1397.54" r="14.4" fill="#c271d2" fill-rule="evenodd" fill-opacity="1" stroke="#000000" stroke-opacity="1" stroke-width="3.2"/>
<circle clip-path="url(#clip442)" cx="1432.57" cy="1397.54" r="14.4" fill="#c271d2" fill-rule="evenodd" fill-opacity="1" stroke="#000000" stroke-opacity="1" stroke-width="3.2"/>
<circle clip-path="url(#clip442)" cx="1515.08" cy="1397.54" r="14.4" fill="#c271d2" fill-rule="evenodd" fill-opacity="1" stroke="#000000" stroke-opacity="1" stroke-width="3.2"/>
<circle clip-path="url(#clip442)" cx="1597.59" cy="1397.54" r="14.4" fill="#c271d2" fill-rule="evenodd" fill-opacity="1" stroke="#000000" stroke-opacity="1" stroke-width="3.2"/>
<circle clip-path="url(#clip442)" cx="1680.1" cy="1397.54" r="14.4" fill="#c271d2" fill-rule="evenodd" fill-opacity="1" stroke="#000000" stroke-opacity="1" stroke-width="3.2"/>
<circle clip-path="url(#clip442)" cx="1762.61" cy="1397.54" r="14.4" fill="#c271d2" fill-rule="evenodd" fill-opacity="1" stroke="#000000" stroke-opacity="1" stroke-width="3.2"/>
<circle clip-path="url(#clip442)" cx="1845.13" cy="1397.54" r="14.4" fill="#c271d2" fill-rule="evenodd" fill-opacity="1" stroke="#000000" stroke-opacity="1" stroke-width="3.2"/>
<circle clip-path="url(#clip442)" cx="1927.64" cy="1397.54" r="14.4" fill="#c271d2" fill-rule="evenodd" fill-opacity="1" stroke="#000000" stroke-opacity="1" stroke-width="3.2"/>
<circle clip-path="url(#clip442)" cx="2010.15" cy="1397.54" r="14.4" fill="#c271d2" fill-rule="evenodd" fill-opacity="1" stroke="#000000" stroke-opacity="1" stroke-width="3.2"/>
<circle clip-path="url(#clip442)" cx="2092.66" cy="1397.54" r="14.4" fill="#c271d2" fill-rule="evenodd" fill-opacity="1" stroke="#000000" stroke-opacity="1" stroke-width="3.2"/>
<circle clip-path="url(#clip442)" cx="2175.17" cy="1397.54" r="14.4" fill="#c271d2" fill-rule="evenodd" fill-opacity="1" stroke="#000000" stroke-opacity="1" stroke-width="3.2"/>
<circle clip-path="url(#clip442)" cx="2257.69" cy="1397.54" r="14.4" fill="#c271d2" fill-rule="evenodd" fill-opacity="1" stroke="#000000" stroke-opacity="1" stroke-width="3.2"/>
<circle clip-path="url(#clip442)" cx="2340.2" cy="1397.54" r="14.4" fill="#c271d2" fill-rule="evenodd" fill-opacity="1" stroke="#000000" stroke-opacity="1" stroke-width="3.2"/>
<circle clip-path="url(#clip442)" cx="2422.71" cy="1397.54" r="14.4" fill="#c271d2" fill-rule="evenodd" fill-opacity="1" stroke="#000000" stroke-opacity="1" stroke-width="3.2"/>
<circle clip-path="url(#clip442)" cx="2505.22" cy="1397.54" r="14.4" fill="#c271d2" fill-rule="evenodd" fill-opacity="1" stroke="#000000" stroke-opacity="1" stroke-width="3.2"/>
<circle clip-path="url(#clip442)" cx="2587.73" cy="1397.54" r="14.4" fill="#c271d2" fill-rule="evenodd" fill-opacity="1" stroke="#000000" stroke-opacity="1" stroke-width="3.2"/>
<circle clip-path="url(#clip442)" cx="2670.24" cy="1397.54" r="14.4" fill="#c271d2" fill-rule="evenodd" fill-opacity="1" stroke="#000000" stroke-opacity="1" stroke-width="3.2"/>
<path clip-path="url(#clip440)" d="M2224.12 418.035 L2670.24 418.035 L2670.24 158.835 L2224.12 158.835  Z" fill="#ffffff" fill-rule="evenodd" fill-opacity="1"/>
<polyline clip-path="url(#clip440)" style="stroke:#000000; stroke-linecap:round; stroke-linejoin:round; stroke-width:4; stroke-opacity:1; fill:none" points="2224.12,418.035 2670.24,418.035 2670.24,158.835 2224.12,158.835 2224.12,418.035 "/>
<polyline clip-path="url(#clip440)" style="stroke:#009af9; stroke-linecap:round; stroke-linejoin:round; stroke-width:4; stroke-opacity:1; fill:none" points="2251.63,210.675 2416.65,210.675 "/>
<circle clip-path="url(#clip440)" cx="2334.14" cy="210.675" r="20.48" fill="#009af9" fill-rule="evenodd" fill-opacity="1" stroke="#000000" stroke-opacity="1" stroke-width="4.55111"/>
<path clip-path="url(#clip440)" d="M2451.77 206.103 L2457.44 222.121 L2465.54 202.029 L2470.06 202.029 L2459.57 227.955 L2459.57 237.816 L2455.31 237.816 L2455.31 227.955 L2448.51 208.603 Q2447.49 205.686 2445.29 205.686 L2444.15 205.686 L2444.15 202.029 L2445.77 202.029 Q2450.33 202.029 2451.77 206.103 Z" fill="#000000" fill-rule="nonzero" fill-opacity="1" /><path clip-path="url(#clip440)" d="M2491.56 206.427 L2521.24 206.427 L2521.24 210.316 L2491.56 210.316 L2491.56 206.427 M2491.56 215.871 L2521.24 215.871 L2521.24 219.806 L2491.56 219.806 L2491.56 215.871 Z" fill="#000000" fill-rule="nonzero" fill-opacity="1" /><path clip-path="url(#clip440)" d="M2556.4 196.473 Q2552.79 196.473 2550.96 200.038 Q2549.15 203.58 2549.15 210.709 Q2549.15 217.816 2550.96 221.381 Q2552.79 224.922 2556.4 224.922 Q2560.03 224.922 2561.84 221.381 Q2563.67 217.816 2563.67 210.709 Q2563.67 203.58 2561.84 200.038 Q2560.03 196.473 2556.4 196.473 M2556.4 192.77 Q2562.21 192.77 2565.26 197.376 Q2568.34 201.959 2568.34 210.709 Q2568.34 219.436 2565.26 224.043 Q2562.21 228.626 2556.4 228.626 Q2550.59 228.626 2547.51 224.043 Q2544.45 219.436 2544.45 210.709 Q2544.45 201.959 2547.51 197.376 Q2550.59 192.77 2556.4 192.77 Z" fill="#000000" fill-rule="nonzero" fill-opacity="1" /><path clip-path="url(#clip440)" d="M2576.56 222.075 L2581.44 222.075 L2581.44 227.955 L2576.56 227.955 L2576.56 222.075 Z" fill="#000000" fill-rule="nonzero" fill-opacity="1" /><path clip-path="url(#clip440)" d="M2595.66 224.019 L2611.98 224.019 L2611.98 227.955 L2590.03 227.955 L2590.03 224.019 Q2592.69 221.265 2597.28 216.635 Q2601.88 211.982 2603.06 210.64 Q2605.31 208.117 2606.19 206.381 Q2607.09 204.621 2607.09 202.932 Q2607.09 200.177 2605.15 198.441 Q2603.23 196.705 2600.12 196.705 Q2597.93 196.705 2595.47 197.469 Q2593.04 198.233 2590.26 199.783 L2590.26 195.061 Q2593.09 193.927 2595.54 193.348 Q2598 192.77 2600.03 192.77 Q2605.4 192.77 2608.6 195.455 Q2611.79 198.14 2611.79 202.631 Q2611.79 204.76 2610.98 206.682 Q2610.19 208.58 2608.09 211.172 Q2607.51 211.844 2604.41 215.061 Q2601.31 218.256 2595.66 224.019 Z" fill="#000000" fill-rule="nonzero" fill-opacity="1" /><polyline clip-path="url(#clip440)" style="stroke:#e26f46; stroke-linecap:round; stroke-linejoin:round; stroke-width:4; stroke-opacity:1; fill:none" points="2251.63,262.515 2416.65,262.515 "/>
<path clip-path="url(#clip440)" d="M2334.14 239.759 L2311.38 262.515 L2334.14 285.27 L2356.89 262.515 L2334.14 239.759 Z" fill="#e26f46" fill-rule="evenodd" fill-opacity="1" stroke="#000000" stroke-opacity="1" stroke-width="4.55111"/>
<path clip-path="url(#clip440)" d="M2451.77 257.943 L2457.44 273.961 L2465.54 253.869 L2470.06 253.869 L2459.57 279.795 L2459.57 289.656 L2455.31 289.656 L2455.31 279.795 L2448.51 260.443 Q2447.49 257.526 2445.29 257.526 L2444.15 257.526 L2444.15 253.869 L2445.77 253.869 Q2450.33 253.869 2451.77 257.943 Z" fill="#000000" fill-rule="nonzero" fill-opacity="1" /><path clip-path="url(#clip440)" d="M2491.56 258.267 L2521.24 258.267 L2521.24 262.156 L2491.56 262.156 L2491.56 258.267 M2491.56 267.711 L2521.24 267.711 L2521.24 271.646 L2491.56 271.646 L2491.56 267.711 Z" fill="#000000" fill-rule="nonzero" fill-opacity="1" /><path clip-path="url(#clip440)" d="M2556.4 248.313 Q2552.79 248.313 2550.96 251.878 Q2549.15 255.42 2549.15 262.549 Q2549.15 269.656 2550.96 273.221 Q2552.79 276.762 2556.4 276.762 Q2560.03 276.762 2561.84 273.221 Q2563.67 269.656 2563.67 262.549 Q2563.67 255.42 2561.84 251.878 Q2560.03 248.313 2556.4 248.313 M2556.4 244.61 Q2562.21 244.61 2565.26 249.216 Q2568.34 253.799 2568.34 262.549 Q2568.34 271.276 2565.26 275.883 Q2562.21 280.466 2556.4 280.466 Q2550.59 280.466 2547.51 275.883 Q2544.45 271.276 2544.45 262.549 Q2544.45 253.799 2547.51 249.216 Q2550.59 244.61 2556.4 244.61 Z" fill="#000000" fill-rule="nonzero" fill-opacity="1" /><path clip-path="url(#clip440)" d="M2576.56 273.915 L2581.44 273.915 L2581.44 279.795 L2576.56 279.795 L2576.56 273.915 Z" fill="#000000" fill-rule="nonzero" fill-opacity="1" /><path clip-path="url(#clip440)" d="M2592.44 275.859 L2600.08 275.859 L2600.08 249.494 L2591.77 251.16 L2591.77 246.901 L2600.03 245.235 L2604.71 245.235 L2604.71 275.859 L2612.35 275.859 L2612.35 279.795 L2592.44 279.795 L2592.44 275.859 Z" fill="#000000" fill-rule="nonzero" fill-opacity="1" /><path clip-path="url(#clip440)" d="M2621.84 245.235 L2640.19 245.235 L2640.19 249.17 L2626.12 249.17 L2626.12 257.642 Q2627.14 257.295 2628.16 257.133 Q2629.18 256.947 2630.19 256.947 Q2635.98 256.947 2639.36 260.119 Q2642.74 263.29 2642.74 268.707 Q2642.74 274.285 2639.27 277.387 Q2635.8 280.466 2629.48 280.466 Q2627.3 280.466 2625.03 280.095 Q2622.79 279.725 2620.38 278.984 L2620.38 274.285 Q2622.46 275.42 2624.68 275.975 Q2626.91 276.531 2629.38 276.531 Q2633.39 276.531 2635.73 274.424 Q2638.06 272.318 2638.06 268.707 Q2638.06 265.096 2635.73 262.989 Q2633.39 260.883 2629.38 260.883 Q2627.51 260.883 2625.63 261.299 Q2623.78 261.716 2621.84 262.596 L2621.84 245.235 Z" fill="#000000" fill-rule="nonzero" fill-opacity="1" /><polyline clip-path="url(#clip440)" style="stroke:#3da44d; stroke-linecap:round; stroke-linejoin:round; stroke-width:4; stroke-opacity:1; fill:none" points="2251.63,314.355 2416.65,314.355 "/>
<path clip-path="url(#clip440)" d="M2334.14 291.599 L2328.79 306.982 L2312.5 307.323 L2325.49 317.176 L2320.76 332.764 L2334.14 323.457 L2347.52 332.764 L2342.78 317.176 L2355.78 307.323 L2339.49 306.982 L2334.14 291.599 Z" fill="#3da44d" fill-rule="evenodd" fill-opacity="1" stroke="#000000" stroke-opacity="1" stroke-width="4.55111"/>
<path clip-path="url(#clip440)" d="M2451.77 309.783 L2457.44 325.801 L2465.54 305.709 L2470.06 305.709 L2459.57 331.635 L2459.57 341.496 L2455.31 341.496 L2455.31 331.635 L2448.51 312.283 Q2447.49 309.366 2445.29 309.366 L2444.15 309.366 L2444.15 305.709 L2445.77 305.709 Q2450.33 305.709 2451.77 309.783 Z" fill="#000000" fill-rule="nonzero" fill-opacity="1" /><path clip-path="url(#clip440)" d="M2491.56 310.107 L2521.24 310.107 L2521.24 313.996 L2491.56 313.996 L2491.56 310.107 M2491.56 319.551 L2521.24 319.551 L2521.24 323.486 L2491.56 323.486 L2491.56 319.551 Z" fill="#000000" fill-rule="nonzero" fill-opacity="1" /><path clip-path="url(#clip440)" d="M2556.4 300.153 Q2552.79 300.153 2550.96 303.718 Q2549.15 307.26 2549.15 314.389 Q2549.15 321.496 2550.96 325.061 Q2552.79 328.602 2556.4 328.602 Q2560.03 328.602 2561.84 325.061 Q2563.67 321.496 2563.67 314.389 Q2563.67 307.26 2561.84 303.718 Q2560.03 300.153 2556.4 300.153 M2556.4 296.45 Q2562.21 296.45 2565.26 301.056 Q2568.34 305.639 2568.34 314.389 Q2568.34 323.116 2565.26 327.723 Q2562.21 332.306 2556.4 332.306 Q2550.59 332.306 2547.51 327.723 Q2544.45 323.116 2544.45 314.389 Q2544.45 305.639 2547.51 301.056 Q2550.59 296.45 2556.4 296.45 Z" fill="#000000" fill-rule="nonzero" fill-opacity="1" /><path clip-path="url(#clip440)" d="M2576.56 325.755 L2581.44 325.755 L2581.44 331.635 L2576.56 331.635 L2576.56 325.755 Z" fill="#000000" fill-rule="nonzero" fill-opacity="1" /><path clip-path="url(#clip440)" d="M2592.44 327.699 L2600.08 327.699 L2600.08 301.334 L2591.77 303 L2591.77 298.741 L2600.03 297.075 L2604.71 297.075 L2604.71 327.699 L2612.35 327.699 L2612.35 331.635 L2592.44 331.635 L2592.44 327.699 Z" fill="#000000" fill-rule="nonzero" fill-opacity="1" /><polyline clip-path="url(#clip440)" style="stroke:#c271d2; stroke-linecap:round; stroke-linejoin:round; stroke-width:4; stroke-opacity:1; fill:none" points="2251.63,366.195 2416.65,366.195 "/>
<circle clip-path="url(#clip440)" cx="2334.14" cy="366.195" r="20.48" fill="#c271d2" fill-rule="evenodd" fill-opacity="1" stroke="#000000" stroke-opacity="1" stroke-width="4.55111"/>
<path clip-path="url(#clip440)" d="M2451.77 361.623 L2457.44 377.641 L2465.54 357.549 L2470.06 357.549 L2459.57 383.475 L2459.57 393.336 L2455.31 393.336 L2455.31 383.475 L2448.51 364.123 Q2447.49 361.206 2445.29 361.206 L2444.15 361.206 L2444.15 357.549 L2445.77 357.549 Q2450.33 357.549 2451.77 361.623 Z" fill="#000000" fill-rule="nonzero" fill-opacity="1" /><path clip-path="url(#clip440)" d="M2491.56 361.947 L2521.24 361.947 L2521.24 365.836 L2491.56 365.836 L2491.56 361.947 M2491.56 371.391 L2521.24 371.391 L2521.24 375.326 L2491.56 375.326 L2491.56 371.391 Z" fill="#000000" fill-rule="nonzero" fill-opacity="1" /><path clip-path="url(#clip440)" d="M2556.4 351.993 Q2552.79 351.993 2550.96 355.558 Q2549.15 359.1 2549.15 366.229 Q2549.15 373.336 2550.96 376.901 Q2552.79 380.442 2556.4 380.442 Q2560.03 380.442 2561.84 376.901 Q2563.67 373.336 2563.67 366.229 Q2563.67 359.1 2561.84 355.558 Q2560.03 351.993 2556.4 351.993 M2556.4 348.29 Q2562.21 348.29 2565.26 352.896 Q2568.34 357.479 2568.34 366.229 Q2568.34 374.956 2565.26 379.563 Q2562.21 384.146 2556.4 384.146 Q2550.59 384.146 2547.51 379.563 Q2544.45 374.956 2544.45 366.229 Q2544.45 357.479 2547.51 352.896 Q2550.59 348.29 2556.4 348.29 Z" fill="#000000" fill-rule="nonzero" fill-opacity="1" /><path clip-path="url(#clip440)" d="M2576.56 377.595 L2581.44 377.595 L2581.44 383.475 L2576.56 383.475 L2576.56 377.595 Z" fill="#000000" fill-rule="nonzero" fill-opacity="1" /><path clip-path="url(#clip440)" d="M2601.63 351.993 Q2598.02 351.993 2596.19 355.558 Q2594.38 359.1 2594.38 366.229 Q2594.38 373.336 2596.19 376.901 Q2598.02 380.442 2601.63 380.442 Q2605.26 380.442 2607.07 376.901 Q2608.9 373.336 2608.9 366.229 Q2608.9 359.1 2607.07 355.558 Q2605.26 351.993 2601.63 351.993 M2601.63 348.29 Q2607.44 348.29 2610.49 352.896 Q2613.57 357.479 2613.57 366.229 Q2613.57 374.956 2610.49 379.563 Q2607.44 384.146 2601.63 384.146 Q2595.82 384.146 2592.74 379.563 Q2589.68 374.956 2589.68 366.229 Q2589.68 357.479 2592.74 352.896 Q2595.82 348.29 2601.63 348.29 Z" fill="#000000" fill-rule="nonzero" fill-opacity="1" /></svg>
