<?xml version="1.0" encoding="utf-8"?>
<svg xmlns="http://www.w3.org/2000/svg" xmlns:xlink="http://www.w3.org/1999/xlink" width="700" height="400" viewBox="0 0 2800 1600">
<defs>
  <clipPath id="clip530">
    <rect x="0" y="0" width="2800" height="1600"/>
  </clipPath>
</defs>
<path clip-path="url(#clip530)" d="M0 1600 L2800 1600 L2800 8.88178e-14 L0 8.88178e-14  Z" fill="#ffffff" fill-rule="evenodd" fill-opacity="1"/>
<defs>
  <clipPath id="clip531">
    <rect x="560" y="0" width="1961" height="1600"/>
  </clipPath>
</defs>
<path clip-path="url(#clip530)" d="M307.077 1434.91 L2752.76 1434.91 L2752.76 114.832 L307.077 114.832  Z" fill="#ffffff" fill-rule="evenodd" fill-opacity="1"/>
<defs>
  <clipPath id="clip532">
    <rect x="307" y="114" width="2447" height="1321"/>
  </clipPath>
</defs>
<polyline clip-path="url(#clip532)" style="stroke:#000000; stroke-linecap:round; stroke-linejoin:round; stroke-width:2; stroke-opacity:0.1; fill:none" points="632.655,1434.91 632.655,114.832 "/>
<polyline clip-path="url(#clip532)" style="stroke:#000000; stroke-linecap:round; stroke-linejoin:round; stroke-width:2; stroke-opacity:0.1; fill:none" points="1145.38,1434.91 1145.38,114.832 "/>
<polyline clip-path="url(#clip532)" style="stroke:#000000; stroke-linecap:round; stroke-linejoin:round; stroke-width:2; stroke-opacity:0.1; fill:none" points="1658.1,1434.91 1658.1,114.832 "/>
<polyline clip-path="url(#clip532)" style="stroke:#000000; stroke-linecap:round; stroke-linejoin:round; stroke-width:2; stroke-opacity:0.1; fill:none" points="2170.82,1434.91 2170.82,114.832 "/>
<polyline clip-path="url(#clip532)" style="stroke:#000000; stroke-linecap:round; stroke-linejoin:round; stroke-width:2; stroke-opacity:0.1; fill:none" points="2683.54,1434.91 2683.54,114.832 "/>
<polyline clip-path="url(#clip532)" style="stroke:#000000; stroke-linecap:round; stroke-linejoin:round; stroke-width:2; stroke-opacity:0.1; fill:none" points="307.077,1270.61 2752.76,1270.61 "/>
<polyline clip-path="url(#clip532)" style="stroke:#000000; stroke-linecap:round; stroke-linejoin:round; stroke-width:2; stroke-opacity:0.1; fill:none" points="307.077,914.89 2752.76,914.89 "/>
<polyline clip-path="url(#clip532)" style="stroke:#000000; stroke-linecap:round; stroke-linejoin:round; stroke-width:2; stroke-opacity:0.1; fill:none" points="307.077,559.168 2752.76,559.168 "/>
<polyline clip-path="url(#clip532)" style="stroke:#000000; stroke-linecap:round; stroke-linejoin:round; stroke-width:2; stroke-opacity:0.1; fill:none" points="307.077,203.445 2752.76,203.445 "/>
<polyline clip-path="url(#clip530)" style="stroke:#000000; stroke-linecap:round; stroke-linejoin:round; stroke-width:4; stroke-opacity:1; fill:none" points="307.077,1434.91 2752.76,1434.91 "/>
<polyline clip-path="url(#clip530)" style="stroke:#000000; stroke-linecap:round; stroke-linejoin:round; stroke-width:4; stroke-opacity:1; fill:none" points="632.655,1434.91 632.655,1416.01 "/>
<polyline clip-path="url(#clip530)" style="stroke:#000000; stroke-linecap:round; stroke-linejoin:round; stroke-width:4; stroke-opacity:1; fill:none" points="1145.38,1434.91 1145.38,1416.01 "/>
<polyline clip-path="url(#clip530)" style="stroke:#000000; stroke-linecap:round; stroke-linejoin:round; stroke-width:4; stroke-opacity:1; fill:none" points="1658.1,1434.91 1658.1,1416.01 "/>
<polyline clip-path="url(#clip530)" style="stroke:#000000; stroke-linecap:round; stroke-linejoin:round; stroke-width:4; stroke-opacity:1; fill:none" points="2170.82,1434.91 2170.82,1416.01 "/>
<polyline clip-path="url(#clip530)" style="stroke:#000000; stroke-linecap:round; stroke-linejoin:round; stroke-width:4; stroke-opacity:1; fill:none" points="2683.54,1434.91 2683.54,1416.01 "/>
<path clip-path="url(#clip530)" d="M627.308 1496.57 L643.627 1496.57 L643.627 1500.51 L621.683 1500.51 L621.683 1496.57 Q624.345 1493.82 628.928 1489.19 Q633.535 1484.53 634.715 1483.19 Q636.961 1480.67 637.84 1478.93 Q638.743 1477.17 638.743 1475.48 Q638.743 1472.73 636.798 1470.99 Q634.877 1469.26 631.775 1469.26 Q629.576 1469.26 627.123 1470.02 Q624.692 1470.78 621.914 1472.33 L621.914 1467.61 Q624.738 1466.48 627.192 1465.9 Q629.646 1465.32 631.683 1465.32 Q637.053 1465.32 640.248 1468.01 Q643.442 1470.69 643.442 1475.18 Q643.442 1477.31 642.632 1479.23 Q641.845 1481.13 639.738 1483.72 Q639.16 1484.39 636.058 1487.61 Q632.956 1490.81 627.308 1496.57 Z" fill="#000000" fill-rule="nonzero" fill-opacity="1" /><path clip-path="url(#clip530)" d="M1148.39 1470.02 L1136.58 1488.47 L1148.39 1488.47 L1148.39 1470.02 M1147.16 1465.95 L1153.04 1465.95 L1153.04 1488.47 L1157.97 1488.47 L1157.97 1492.36 L1153.04 1492.36 L1153.04 1500.51 L1148.39 1500.51 L1148.39 1492.36 L1132.78 1492.36 L1132.78 1487.84 L1147.16 1465.95 Z" fill="#000000" fill-rule="nonzero" fill-opacity="1" /><path clip-path="url(#clip530)" d="M1658.5 1481.36 Q1655.35 1481.36 1653.5 1483.51 Q1651.67 1485.67 1651.67 1489.42 Q1651.67 1493.14 1653.5 1495.32 Q1655.35 1497.47 1658.5 1497.47 Q1661.65 1497.47 1663.48 1495.32 Q1665.33 1493.14 1665.33 1489.42 Q1665.33 1485.67 1663.48 1483.51 Q1661.65 1481.36 1658.5 1481.36 M1667.78 1466.71 L1667.78 1470.97 Q1666.02 1470.14 1664.22 1469.7 Q1662.44 1469.26 1660.68 1469.26 Q1656.05 1469.26 1653.59 1472.38 Q1651.16 1475.51 1650.82 1481.83 Q1652.18 1479.81 1654.24 1478.75 Q1656.3 1477.66 1658.78 1477.66 Q1663.99 1477.66 1667 1480.83 Q1670.03 1483.98 1670.03 1489.42 Q1670.03 1494.74 1666.88 1497.96 Q1663.73 1501.18 1658.5 1501.18 Q1652.51 1501.18 1649.34 1496.59 Q1646.16 1491.99 1646.16 1483.26 Q1646.16 1475.07 1650.05 1470.2 Q1653.94 1465.32 1660.49 1465.32 Q1662.25 1465.32 1664.03 1465.67 Q1665.84 1466.02 1667.78 1466.71 Z" fill="#000000" fill-rule="nonzero" fill-opacity="1" /><path clip-path="url(#clip530)" d="M2170.82 1484.09 Q2167.48 1484.09 2165.56 1485.88 Q2163.66 1487.66 2163.66 1490.78 Q2163.66 1493.91 2165.56 1495.69 Q2167.48 1497.47 2170.82 1497.47 Q2174.15 1497.47 2176.07 1495.69 Q2177.99 1493.89 2177.99 1490.78 Q2177.99 1487.66 2176.07 1485.88 Q2174.17 1484.09 2170.82 1484.09 M2166.14 1482.1 Q2163.13 1481.36 2161.44 1479.3 Q2159.78 1477.24 2159.78 1474.28 Q2159.78 1470.14 2162.72 1467.73 Q2165.68 1465.32 2170.82 1465.32 Q2175.98 1465.32 2178.92 1467.73 Q2181.86 1470.14 2181.86 1474.28 Q2181.86 1477.24 2180.17 1479.3 Q2178.5 1481.36 2175.52 1482.1 Q2178.9 1482.89 2180.77 1485.18 Q2182.67 1487.47 2182.67 1490.78 Q2182.67 1495.81 2179.59 1498.49 Q2176.54 1501.18 2170.82 1501.18 Q2165.1 1501.18 2162.02 1498.49 Q2158.97 1495.81 2158.97 1490.78 Q2158.97 1487.47 2160.86 1485.18 Q2162.76 1482.89 2166.14 1482.1 M2164.43 1474.72 Q2164.43 1477.4 2166.1 1478.91 Q2167.79 1480.41 2170.82 1480.41 Q2173.83 1480.41 2175.52 1478.91 Q2177.23 1477.4 2177.23 1474.72 Q2177.23 1472.03 2175.52 1470.53 Q2173.83 1469.02 2170.82 1469.02 Q2167.79 1469.02 2166.1 1470.53 Q2164.43 1472.03 2164.43 1474.72 Z" fill="#000000" fill-rule="nonzero" fill-opacity="1" /><path clip-path="url(#clip530)" d="M2658.23 1496.57 L2665.87 1496.57 L2665.87 1470.2 L2657.55 1471.87 L2657.55 1467.61 L2665.82 1465.95 L2670.49 1465.95 L2670.49 1496.57 L2678.13 1496.57 L2678.13 1500.51 L2658.23 1500.51 L2658.23 1496.57 Z" fill="#000000" fill-rule="nonzero" fill-opacity="1" /><path clip-path="url(#clip530)" d="M2697.58 1469.02 Q2693.97 1469.02 2692.14 1472.59 Q2690.33 1476.13 2690.33 1483.26 Q2690.33 1490.37 2692.14 1493.93 Q2693.97 1497.47 2697.58 1497.47 Q2701.21 1497.47 2703.02 1493.93 Q2704.85 1490.37 2704.85 1483.26 Q2704.85 1476.13 2703.02 1472.59 Q2701.21 1469.02 2697.58 1469.02 M2697.58 1465.32 Q2703.39 1465.32 2706.44 1469.93 Q2709.52 1474.51 2709.52 1483.26 Q2709.52 1491.99 2706.44 1496.59 Q2703.39 1501.18 2697.58 1501.18 Q2691.77 1501.18 2688.69 1496.59 Q2685.63 1491.99 2685.63 1483.26 Q2685.63 1474.51 2688.69 1469.93 Q2691.77 1465.32 2697.58 1465.32 Z" fill="#000000" fill-rule="nonzero" fill-opacity="1" /><path clip-path="url(#clip530)" d="M1365.92 1542.61 Q1358.92 1542.61 1354.78 1547.83 Q1350.67 1553.05 1350.67 1562.06 Q1350.67 1571.03 1354.78 1576.25 Q1358.92 1581.47 1365.92 1581.47 Q1372.92 1581.47 1377 1576.25 Q1381.1 1571.03 1381.1 1562.06 Q1381.1 1553.05 1377 1547.83 Q1372.92 1542.61 1365.92 1542.61 M1374.93 1584.91 L1383.39 1594.17 L1375.63 1594.17 L1368.59 1586.57 Q1367.54 1586.63 1366.97 1586.66 Q1366.43 1586.69 1365.92 1586.69 Q1355.89 1586.69 1349.88 1580.01 Q1343.89 1573.29 1343.89 1562.06 Q1343.89 1550.79 1349.88 1544.11 Q1355.89 1537.39 1365.92 1537.39 Q1375.91 1537.39 1381.9 1544.11 Q1387.88 1550.79 1387.88 1562.06 Q1387.88 1570.33 1384.54 1576.22 Q1381.23 1582.11 1374.93 1584.91 Z" fill="#000000" fill-rule="nonzero" fill-opacity="1" /><path clip-path="url(#clip530)" d="M1397.08 1571.7 L1397.08 1550.12 L1402.94 1550.12 L1402.94 1571.48 Q1402.94 1576.54 1404.91 1579.09 Q1406.88 1581.6 1410.83 1581.6 Q1415.57 1581.6 1418.31 1578.58 Q1421.08 1575.55 1421.08 1570.33 L1421.08 1550.12 L1426.94 1550.12 L1426.94 1585.77 L1421.08 1585.77 L1421.08 1580.3 Q1418.95 1583.54 1416.11 1585.13 Q1413.31 1586.69 1409.59 1586.69 Q1403.45 1586.69 1400.26 1582.87 Q1397.08 1579.05 1397.08 1571.7 M1411.82 1549.26 L1411.82 1549.26 Z" fill="#000000" fill-rule="nonzero" fill-opacity="1" /><path clip-path="url(#clip530)" d="M1464.59 1567.98 Q1464.59 1561.52 1461.91 1557.86 Q1459.27 1554.16 1454.63 1554.16 Q1449.98 1554.16 1447.31 1557.86 Q1444.66 1561.52 1444.66 1567.98 Q1444.66 1574.44 1447.31 1578.13 Q1449.98 1581.79 1454.63 1581.79 Q1459.27 1581.79 1461.91 1578.13 Q1464.59 1574.44 1464.59 1567.98 M1444.66 1555.53 Q1446.51 1552.35 1449.31 1550.82 Q1452.14 1549.26 1456.06 1549.26 Q1462.55 1549.26 1466.59 1554.42 Q1470.67 1559.57 1470.67 1567.98 Q1470.67 1576.38 1466.59 1581.54 Q1462.55 1586.69 1456.06 1586.69 Q1452.14 1586.69 1449.31 1585.16 Q1446.51 1583.61 1444.66 1580.42 L1444.66 1585.77 L1438.78 1585.77 L1438.78 1536.24 L1444.66 1536.24 L1444.66 1555.53 Z" fill="#000000" fill-rule="nonzero" fill-opacity="1" /><path clip-path="url(#clip530)" d="M1480.38 1550.12 L1486.23 1550.12 L1486.23 1585.77 L1480.38 1585.77 L1480.38 1550.12 M1480.38 1536.24 L1486.23 1536.24 L1486.23 1543.66 L1480.38 1543.66 L1480.38 1536.24 Z" fill="#000000" fill-rule="nonzero" fill-opacity="1" /><path clip-path="url(#clip530)" d="M1504.28 1540 L1504.28 1550.12 L1516.34 1550.12 L1516.34 1554.67 L1504.28 1554.67 L1504.28 1574.02 Q1504.28 1578.39 1505.46 1579.63 Q1506.67 1580.87 1510.33 1580.87 L1516.34 1580.87 L1516.34 1585.77 L1510.33 1585.77 Q1503.55 1585.77 1500.97 1583.26 Q1498.39 1580.71 1498.39 1574.02 L1498.39 1554.67 L1494.09 1554.67 L1494.09 1550.12 L1498.39 1550.12 L1498.39 1540 L1504.28 1540 Z" fill="#000000" fill-rule="nonzero" fill-opacity="1" /><path clip-path="url(#clip530)" d="M1545.02 1538.25 L1551.45 1538.25 L1551.45 1585.77 L1545.02 1585.77 L1545.02 1538.25 Z" fill="#000000" fill-rule="nonzero" fill-opacity="1" /><path clip-path="url(#clip530)" d="M1593.62 1564.25 L1593.62 1585.77 L1587.76 1585.77 L1587.76 1564.44 Q1587.76 1559.38 1585.79 1556.87 Q1583.82 1554.35 1579.87 1554.35 Q1575.13 1554.35 1572.39 1557.38 Q1569.65 1560.4 1569.65 1565.62 L1569.65 1585.77 L1563.77 1585.77 L1563.77 1550.12 L1569.65 1550.12 L1569.65 1555.66 Q1571.76 1552.45 1574.59 1550.85 Q1577.45 1549.26 1581.18 1549.26 Q1587.32 1549.26 1590.47 1553.08 Q1593.62 1556.87 1593.62 1564.25 Z" fill="#000000" fill-rule="nonzero" fill-opacity="1" /><path clip-path="url(#clip530)" d="M1628.76 1555.53 L1628.76 1536.24 L1634.62 1536.24 L1634.62 1585.77 L1628.76 1585.77 L1628.76 1580.42 Q1626.91 1583.61 1624.08 1585.16 Q1621.28 1586.69 1617.33 1586.69 Q1610.87 1586.69 1606.8 1581.54 Q1602.76 1576.38 1602.76 1567.98 Q1602.76 1559.57 1606.8 1554.42 Q1610.87 1549.26 1617.33 1549.26 Q1621.28 1549.26 1624.08 1550.82 Q1626.91 1552.35 1628.76 1555.53 M1608.8 1567.98 Q1608.8 1574.44 1611.45 1578.13 Q1614.12 1581.79 1618.77 1581.79 Q1623.41 1581.79 1626.09 1578.13 Q1628.76 1574.44 1628.76 1567.98 Q1628.76 1561.52 1626.09 1557.86 Q1623.41 1554.16 1618.77 1554.16 Q1614.12 1554.16 1611.45 1557.86 Q1608.8 1561.52 1608.8 1567.98 Z" fill="#000000" fill-rule="nonzero" fill-opacity="1" /><path clip-path="url(#clip530)" d="M1677.17 1566.48 L1677.17 1569.35 L1650.24 1569.35 Q1650.63 1575.39 1653.87 1578.58 Q1657.15 1581.73 1662.98 1581.73 Q1666.35 1581.73 1669.5 1580.9 Q1672.68 1580.07 1675.8 1578.42 L1675.8 1583.96 Q1672.65 1585.29 1669.34 1585.99 Q1666.03 1586.69 1662.63 1586.69 Q1654.1 1586.69 1649.1 1581.73 Q1644.13 1576.76 1644.13 1568.3 Q1644.13 1559.54 1648.84 1554.42 Q1653.59 1549.26 1661.61 1549.26 Q1668.8 1549.26 1672.97 1553.91 Q1677.17 1558.52 1677.17 1566.48 M1671.31 1564.76 Q1671.25 1559.96 1668.61 1557.09 Q1666 1554.23 1661.67 1554.23 Q1656.77 1554.23 1653.81 1557 Q1650.88 1559.77 1650.44 1564.79 L1671.31 1564.76 Z" fill="#000000" fill-rule="nonzero" fill-opacity="1" /><path clip-path="url(#clip530)" d="M1715.27 1550.12 L1702.38 1567.47 L1715.94 1585.77 L1709.03 1585.77 L1698.66 1571.77 L1688.28 1585.77 L1681.37 1585.77 L1695.22 1567.12 L1682.55 1550.12 L1689.46 1550.12 L1698.91 1562.82 L1708.36 1550.12 L1715.27 1550.12 Z" fill="#000000" fill-rule="nonzero" fill-opacity="1" /><polyline clip-path="url(#clip530)" style="stroke:#000000; stroke-linecap:round; stroke-linejoin:round; stroke-width:4; stroke-opacity:1; fill:none" points="307.077,1434.91 307.077,114.832 "/>
<polyline clip-path="url(#clip530)" style="stroke:#000000; stroke-linecap:round; stroke-linejoin:round; stroke-width:4; stroke-opacity:1; fill:none" points="307.077,1270.61 325.975,1270.61 "/>
<polyline clip-path="url(#clip530)" style="stroke:#000000; stroke-linecap:round; stroke-linejoin:round; stroke-width:4; stroke-opacity:1; fill:none" points="307.077,914.89 325.975,914.89 "/>
<polyline clip-path="url(#clip530)" style="stroke:#000000; stroke-linecap:round; stroke-linejoin:round; stroke-width:4; stroke-opacity:1; fill:none" points="307.077,559.168 325.975,559.168 "/>
<polyline clip-path="url(#clip530)" style="stroke:#000000; stroke-linecap:round; stroke-linejoin:round; stroke-width:4; stroke-opacity:1; fill:none" points="307.077,203.445 325.975,203.445 "/>
<path clip-path="url(#clip530)" d="M118.411 1256.41 Q114.8 1256.41 112.972 1259.98 Q111.166 1263.52 111.166 1270.65 Q111.166 1277.75 112.972 1281.32 Q114.8 1284.86 118.411 1284.86 Q122.046 1284.86 123.851 1281.32 Q125.68 1277.75 125.68 1270.65 Q125.68 1263.52 123.851 1259.98 Q122.046 1256.41 118.411 1256.41 M118.411 1252.71 Q124.221 1252.71 127.277 1257.31 Q130.356 1261.9 130.356 1270.65 Q130.356 1279.37 127.277 1283.98 Q124.221 1288.56 118.411 1288.56 Q112.601 1288.56 109.522 1283.98 Q106.467 1279.37 106.467 1270.65 Q106.467 1261.9 109.522 1257.31 Q112.601 1252.71 118.411 1252.71 Z" fill="#000000" fill-rule="nonzero" fill-opacity="1" /><path clip-path="url(#clip530)" d="M138.573 1282.01 L143.457 1282.01 L143.457 1287.89 L138.573 1287.89 L138.573 1282.01 Z" fill="#000000" fill-rule="nonzero" fill-opacity="1" /><path clip-path="url(#clip530)" d="M154.453 1283.96 L162.092 1283.96 L162.092 1257.59 L153.782 1259.26 L153.782 1255 L162.045 1253.33 L166.721 1253.33 L166.721 1283.96 L174.36 1283.96 L174.36 1287.89 L154.453 1287.89 L154.453 1283.96 Z" fill="#000000" fill-rule="nonzero" fill-opacity="1" /><path clip-path="url(#clip530)" d="M193.804 1256.41 Q190.193 1256.41 188.365 1259.98 Q186.559 1263.52 186.559 1270.65 Q186.559 1277.75 188.365 1281.32 Q190.193 1284.86 193.804 1284.86 Q197.439 1284.86 199.244 1281.32 Q201.073 1277.75 201.073 1270.65 Q201.073 1263.52 199.244 1259.98 Q197.439 1256.41 193.804 1256.41 M193.804 1252.71 Q199.615 1252.71 202.67 1257.31 Q205.749 1261.9 205.749 1270.65 Q205.749 1279.37 202.67 1283.98 Q199.615 1288.56 193.804 1288.56 Q187.994 1288.56 184.916 1283.98 Q181.86 1279.37 181.86 1270.65 Q181.86 1261.9 184.916 1257.31 Q187.994 1252.71 193.804 1252.71 Z" fill="#000000" fill-rule="nonzero" fill-opacity="1" /><path clip-path="url(#clip530)" d="M214.777 1283.96 L222.415 1283.96 L222.415 1257.59 L214.105 1259.26 L214.105 1255 L222.369 1253.33 L227.045 1253.33 L227.045 1283.96 L234.684 1283.96 L234.684 1287.89 L214.777 1287.89 L214.777 1283.96 Z" fill="#000000" fill-rule="nonzero" fill-opacity="1" /><path clip-path="url(#clip530)" d="M244.175 1253.33 L262.531 1253.33 L262.531 1257.27 L248.457 1257.27 L248.457 1265.74 Q249.475 1265.39 250.494 1265.23 Q251.512 1265.05 252.531 1265.05 Q258.318 1265.05 261.698 1268.22 Q265.077 1271.39 265.077 1276.81 Q265.077 1282.38 261.605 1285.49 Q258.133 1288.56 251.813 1288.56 Q249.637 1288.56 247.369 1288.19 Q245.124 1287.82 242.716 1287.08 L242.716 1282.38 Q244.8 1283.52 247.022 1284.07 Q249.244 1284.63 251.721 1284.63 Q255.725 1284.63 258.063 1282.52 Q260.401 1280.42 260.401 1276.81 Q260.401 1273.19 258.063 1271.09 Q255.725 1268.98 251.721 1268.98 Q249.846 1268.98 247.971 1269.4 Q246.119 1269.81 244.175 1270.69 L244.175 1253.33 Z" fill="#000000" fill-rule="nonzero" fill-opacity="1" /><path clip-path="url(#clip530)" d="M117.416 900.689 Q113.805 900.689 111.976 904.254 Q110.171 907.795 110.171 914.925 Q110.171 922.031 111.976 925.596 Q113.805 929.138 117.416 929.138 Q121.05 929.138 122.856 925.596 Q124.684 922.031 124.684 914.925 Q124.684 907.795 122.856 904.254 Q121.05 900.689 117.416 900.689 M117.416 896.985 Q123.226 896.985 126.282 901.592 Q129.36 906.175 129.36 914.925 Q129.36 923.652 126.282 928.258 Q123.226 932.842 117.416 932.842 Q111.606 932.842 108.527 928.258 Q105.472 923.652 105.472 914.925 Q105.472 906.175 108.527 901.592 Q111.606 896.985 117.416 896.985 Z" fill="#000000" fill-rule="nonzero" fill-opacity="1" /><path clip-path="url(#clip530)" d="M137.578 926.291 L142.462 926.291 L142.462 932.17 L137.578 932.17 L137.578 926.291 Z" fill="#000000" fill-rule="nonzero" fill-opacity="1" /><path clip-path="url(#clip530)" d="M153.457 928.235 L161.096 928.235 L161.096 901.87 L152.786 903.536 L152.786 899.277 L161.05 897.61 L165.726 897.61 L165.726 928.235 L173.365 928.235 L173.365 932.17 L153.457 932.17 L153.457 928.235 Z" fill="#000000" fill-rule="nonzero" fill-opacity="1" /><path clip-path="url(#clip530)" d="M192.809 900.689 Q189.198 900.689 187.369 904.254 Q185.564 907.795 185.564 914.925 Q185.564 922.031 187.369 925.596 Q189.198 929.138 192.809 929.138 Q196.443 929.138 198.249 925.596 Q200.078 922.031 200.078 914.925 Q200.078 907.795 198.249 904.254 Q196.443 900.689 192.809 900.689 M192.809 896.985 Q198.619 896.985 201.675 901.592 Q204.753 906.175 204.753 914.925 Q204.753 923.652 201.675 928.258 Q198.619 932.842 192.809 932.842 Q186.999 932.842 183.92 928.258 Q180.865 923.652 180.865 914.925 Q180.865 906.175 183.92 901.592 Q186.999 896.985 192.809 896.985 Z" fill="#000000" fill-rule="nonzero" fill-opacity="1" /><path clip-path="url(#clip530)" d="M216.999 928.235 L233.318 928.235 L233.318 932.17 L211.374 932.17 L211.374 928.235 Q214.036 925.481 218.619 920.851 Q223.226 916.198 224.406 914.856 Q226.651 912.332 227.531 910.596 Q228.434 908.837 228.434 907.147 Q228.434 904.393 226.489 902.657 Q224.568 900.92 221.466 900.92 Q219.267 900.92 216.814 901.684 Q214.383 902.448 211.605 903.999 L211.605 899.277 Q214.429 898.143 216.883 897.564 Q219.337 896.985 221.374 896.985 Q226.744 896.985 229.939 899.67 Q233.133 902.356 233.133 906.846 Q233.133 908.976 232.323 910.897 Q231.536 912.795 229.429 915.388 Q228.851 916.059 225.749 919.277 Q222.647 922.471 216.999 928.235 Z" fill="#000000" fill-rule="nonzero" fill-opacity="1" /><path clip-path="url(#clip530)" d="M253.133 900.689 Q249.522 900.689 247.693 904.254 Q245.888 907.795 245.888 914.925 Q245.888 922.031 247.693 925.596 Q249.522 929.138 253.133 929.138 Q256.767 929.138 258.573 925.596 Q260.401 922.031 260.401 914.925 Q260.401 907.795 258.573 904.254 Q256.767 900.689 253.133 900.689 M253.133 896.985 Q258.943 896.985 261.999 901.592 Q265.077 906.175 265.077 914.925 Q265.077 923.652 261.999 928.258 Q258.943 932.842 253.133 932.842 Q247.323 932.842 244.244 928.258 Q241.188 923.652 241.188 914.925 Q241.188 906.175 244.244 901.592 Q247.323 896.985 253.133 896.985 Z" fill="#000000" fill-rule="nonzero" fill-opacity="1" /><path clip-path="url(#clip530)" d="M118.411 544.966 Q114.8 544.966 112.972 548.531 Q111.166 552.073 111.166 559.202 Q111.166 566.309 112.972 569.874 Q114.8 573.415 118.411 573.415 Q122.046 573.415 123.851 569.874 Q125.68 566.309 125.68 559.202 Q125.68 552.073 123.851 548.531 Q122.046 544.966 118.411 544.966 M118.411 541.263 Q124.221 541.263 127.277 545.869 Q130.356 550.452 130.356 559.202 Q130.356 567.929 127.277 572.536 Q124.221 577.119 118.411 577.119 Q112.601 577.119 109.522 572.536 Q106.467 567.929 106.467 559.202 Q106.467 550.452 109.522 545.869 Q112.601 541.263 118.411 541.263 Z" fill="#000000" fill-rule="nonzero" fill-opacity="1" /><path clip-path="url(#clip530)" d="M138.573 570.568 L143.457 570.568 L143.457 576.448 L138.573 576.448 L138.573 570.568 Z" fill="#000000" fill-rule="nonzero" fill-opacity="1" /><path clip-path="url(#clip530)" d="M154.453 572.512 L162.092 572.512 L162.092 546.147 L153.782 547.813 L153.782 543.554 L162.045 541.888 L166.721 541.888 L166.721 572.512 L174.36 572.512 L174.36 576.448 L154.453 576.448 L154.453 572.512 Z" fill="#000000" fill-rule="nonzero" fill-opacity="1" /><path clip-path="url(#clip530)" d="M193.804 544.966 Q190.193 544.966 188.365 548.531 Q186.559 552.073 186.559 559.202 Q186.559 566.309 188.365 569.874 Q190.193 573.415 193.804 573.415 Q197.439 573.415 199.244 569.874 Q201.073 566.309 201.073 559.202 Q201.073 552.073 199.244 548.531 Q197.439 544.966 193.804 544.966 M193.804 541.263 Q199.615 541.263 202.67 545.869 Q205.749 550.452 205.749 559.202 Q205.749 567.929 202.67 572.536 Q199.615 577.119 193.804 577.119 Q187.994 577.119 184.916 572.536 Q181.86 567.929 181.86 559.202 Q181.86 550.452 184.916 545.869 Q187.994 541.263 193.804 541.263 Z" fill="#000000" fill-rule="nonzero" fill-opacity="1" /><path clip-path="url(#clip530)" d="M217.994 572.512 L234.313 572.512 L234.313 576.448 L212.369 576.448 L212.369 572.512 Q215.031 569.758 219.614 565.128 Q224.221 560.475 225.401 559.133 Q227.647 556.61 228.526 554.874 Q229.429 553.114 229.429 551.425 Q229.429 548.67 227.485 546.934 Q225.564 545.198 222.462 545.198 Q220.263 545.198 217.809 545.962 Q215.378 546.725 212.601 548.276 L212.601 543.554 Q215.425 542.42 217.878 541.841 Q220.332 541.263 222.369 541.263 Q227.739 541.263 230.934 543.948 Q234.128 546.633 234.128 551.124 Q234.128 553.253 233.318 555.175 Q232.531 557.073 230.425 559.665 Q229.846 560.337 226.744 563.554 Q223.642 566.749 217.994 572.512 Z" fill="#000000" fill-rule="nonzero" fill-opacity="1" /><path clip-path="url(#clip530)" d="M244.175 541.888 L262.531 541.888 L262.531 545.823 L248.457 545.823 L248.457 554.295 Q249.475 553.948 250.494 553.786 Q251.512 553.6 252.531 553.6 Q258.318 553.6 261.698 556.772 Q265.077 559.943 265.077 565.36 Q265.077 570.938 261.605 574.04 Q258.133 577.119 251.813 577.119 Q249.637 577.119 247.369 576.748 Q245.124 576.378 242.716 575.637 L242.716 570.938 Q244.8 572.073 247.022 572.628 Q249.244 573.184 251.721 573.184 Q255.725 573.184 258.063 571.077 Q260.401 568.971 260.401 565.36 Q260.401 561.749 258.063 559.642 Q255.725 557.536 251.721 557.536 Q249.846 557.536 247.971 557.952 Q246.119 558.369 244.175 559.249 L244.175 541.888 Z" fill="#000000" fill-rule="nonzero" fill-opacity="1" /><path clip-path="url(#clip530)" d="M117.416 189.243 Q113.805 189.243 111.976 192.808 Q110.171 196.35 110.171 203.479 Q110.171 210.586 111.976 214.151 Q113.805 217.692 117.416 217.692 Q121.05 217.692 122.856 214.151 Q124.684 210.586 124.684 203.479 Q124.684 196.35 122.856 192.808 Q121.05 189.243 117.416 189.243 M117.416 185.54 Q123.226 185.54 126.282 190.146 Q129.36 194.73 129.36 203.479 Q129.36 212.206 126.282 216.813 Q123.226 221.396 117.416 221.396 Q111.606 221.396 108.527 216.813 Q105.472 212.206 105.472 203.479 Q105.472 194.73 108.527 190.146 Q111.606 185.54 117.416 185.54 Z" fill="#000000" fill-rule="nonzero" fill-opacity="1" /><path clip-path="url(#clip530)" d="M137.578 214.845 L142.462 214.845 L142.462 220.725 L137.578 220.725 L137.578 214.845 Z" fill="#000000" fill-rule="nonzero" fill-opacity="1" /><path clip-path="url(#clip530)" d="M153.457 216.79 L161.096 216.79 L161.096 190.424 L152.786 192.091 L152.786 187.831 L161.05 186.165 L165.726 186.165 L165.726 216.79 L173.365 216.79 L173.365 220.725 L153.457 220.725 L153.457 216.79 Z" fill="#000000" fill-rule="nonzero" fill-opacity="1" /><path clip-path="url(#clip530)" d="M192.809 189.243 Q189.198 189.243 187.369 192.808 Q185.564 196.35 185.564 203.479 Q185.564 210.586 187.369 214.151 Q189.198 217.692 192.809 217.692 Q196.443 217.692 198.249 214.151 Q200.078 210.586 200.078 203.479 Q200.078 196.35 198.249 192.808 Q196.443 189.243 192.809 189.243 M192.809 185.54 Q198.619 185.54 201.675 190.146 Q204.753 194.73 204.753 203.479 Q204.753 212.206 201.675 216.813 Q198.619 221.396 192.809 221.396 Q186.999 221.396 183.92 216.813 Q180.865 212.206 180.865 203.479 Q180.865 194.73 183.92 190.146 Q186.999 185.54 192.809 185.54 Z" fill="#000000" fill-rule="nonzero" fill-opacity="1" /><path clip-path="url(#clip530)" d="M227.138 202.091 Q230.494 202.808 232.369 205.077 Q234.267 207.345 234.267 210.679 Q234.267 215.794 230.749 218.595 Q227.23 221.396 220.749 221.396 Q218.573 221.396 216.258 220.956 Q213.966 220.54 211.513 219.683 L211.513 215.169 Q213.457 216.304 215.772 216.882 Q218.087 217.461 220.61 217.461 Q225.008 217.461 227.3 215.725 Q229.614 213.989 229.614 210.679 Q229.614 207.623 227.462 205.91 Q225.332 204.174 221.513 204.174 L217.485 204.174 L217.485 200.331 L221.698 200.331 Q225.147 200.331 226.976 198.966 Q228.804 197.577 228.804 194.984 Q228.804 192.322 226.906 190.91 Q225.031 189.475 221.513 189.475 Q219.591 189.475 217.392 189.892 Q215.193 190.308 212.554 191.188 L212.554 187.021 Q215.216 186.281 217.531 185.91 Q219.869 185.54 221.929 185.54 Q227.253 185.54 230.355 187.97 Q233.457 190.378 233.457 194.498 Q233.457 197.368 231.814 199.359 Q230.17 201.327 227.138 202.091 Z" fill="#000000" fill-rule="nonzero" fill-opacity="1" /><path clip-path="url(#clip530)" d="M253.133 189.243 Q249.522 189.243 247.693 192.808 Q245.888 196.35 245.888 203.479 Q245.888 210.586 247.693 214.151 Q249.522 217.692 253.133 217.692 Q256.767 217.692 258.573 214.151 Q260.401 210.586 260.401 203.479 Q260.401 196.35 258.573 192.808 Q256.767 189.243 253.133 189.243 M253.133 185.54 Q258.943 185.54 261.999 190.146 Q265.077 194.73 265.077 203.479 Q265.077 212.206 261.999 216.813 Q258.943 221.396 253.133 221.396 Q247.323 221.396 244.244 216.813 Q241.188 212.206 241.188 203.479 Q241.188 194.73 244.244 190.146 Q247.323 185.54 253.133 185.54 Z" fill="#000000" fill-rule="nonzero" fill-opacity="1" /><path clip-path="url(#clip530)" d="M6.97912 936.558 L24.8349 936.558 L24.8349 928.473 Q24.8349 923.986 22.5114 921.535 Q20.188 919.084 15.8911 919.084 Q11.6261 919.084 9.30261 921.535 Q6.97912 923.986 6.97912 928.473 L6.97912 936.558 M1.69559 942.987 L1.69559 928.473 Q1.69559 920.484 5.32404 916.41 Q8.92066 912.304 15.8911 912.304 Q22.9252 912.304 26.5218 916.41 Q30.1185 920.484 30.1185 928.473 L30.1185 936.558 L49.2156 936.558 L49.2156 942.987 L1.69559 942.987 Z" fill="#000000" fill-rule="nonzero" fill-opacity="1" /><path clip-path="url(#clip530)" d="M19.0421 884.423 Q18.4692 885.409 18.2146 886.587 Q17.9281 887.733 17.9281 889.133 Q17.9281 894.099 21.1746 896.772 Q24.3893 899.414 30.4368 899.414 L49.2156 899.414 L49.2156 905.302 L13.5676 905.302 L13.5676 899.414 L19.1058 899.414 Q15.8593 897.568 14.2997 894.608 Q12.7083 891.648 12.7083 887.415 Q12.7083 886.81 12.8037 886.078 Q12.8674 885.346 13.0265 884.454 L19.0421 884.423 Z" fill="#000000" fill-rule="nonzero" fill-opacity="1" /><path clip-path="url(#clip530)" d="M17.6735 865.898 Q17.6735 870.609 21.3656 873.346 Q25.0259 876.084 31.4234 876.084 Q37.821 876.084 41.5131 873.378 Q45.1734 870.641 45.1734 865.898 Q45.1734 861.22 41.4813 858.482 Q37.7891 855.745 31.4234 855.745 Q25.0896 855.745 21.3974 858.482 Q17.6735 861.22 17.6735 865.898 M12.7083 865.898 Q12.7083 858.26 17.6735 853.899 Q22.6388 849.539 31.4234 849.539 Q40.1763 849.539 45.1734 853.899 Q50.1386 858.26 50.1386 865.898 Q50.1386 873.569 45.1734 877.93 Q40.1763 882.258 31.4234 882.258 Q22.6388 882.258 17.6735 877.93 Q12.7083 873.569 12.7083 865.898 Z" fill="#000000" fill-rule="nonzero" fill-opacity="1" /><path clip-path="url(#clip530)" d="M31.4234 814.241 Q24.9622 814.241 21.302 816.914 Q17.6099 819.556 17.6099 824.203 Q17.6099 828.85 21.302 831.524 Q24.9622 834.165 31.4234 834.165 Q37.8846 834.165 41.5767 831.524 Q45.237 828.85 45.237 824.203 Q45.237 819.556 41.5767 816.914 Q37.8846 814.241 31.4234 814.241 M18.9785 834.165 Q15.7956 832.319 14.2679 829.518 Q12.7083 826.686 12.7083 822.771 Q12.7083 816.278 17.8645 812.236 Q23.0207 808.161 31.4234 808.161 Q39.8262 808.161 44.9824 812.236 Q50.1386 816.278 50.1386 822.771 Q50.1386 826.686 48.6108 829.518 Q47.0512 832.319 43.8684 834.165 L49.2156 834.165 L49.2156 840.054 L-0.309612 840.054 L-0.309612 834.165 L18.9785 834.165 Z" fill="#000000" fill-rule="nonzero" fill-opacity="1" /><path clip-path="url(#clip530)" d="M31.2961 782.253 Q31.2961 789.351 32.9194 792.088 Q34.5426 794.825 38.4575 794.825 Q41.5767 794.825 43.4228 792.788 Q45.237 790.719 45.237 787.186 Q45.237 782.317 41.7995 779.388 Q38.3302 776.428 32.6011 776.428 L31.2961 776.428 L31.2961 782.253 M28.8772 770.572 L49.2156 770.572 L49.2156 776.428 L43.8047 776.428 Q47.0512 778.434 48.6108 781.426 Q50.1386 784.417 50.1386 788.746 Q50.1386 794.221 47.0831 797.467 Q43.9957 800.682 38.8395 800.682 Q32.8239 800.682 29.7684 796.671 Q26.7128 792.629 26.7128 784.64 L26.7128 776.428 L26.1399 776.428 Q22.0977 776.428 19.9015 779.102 Q17.6735 781.744 17.6735 786.55 Q17.6735 789.605 18.4056 792.502 Q19.1376 795.398 20.6017 798.072 L15.1909 798.072 Q13.9496 794.857 13.3448 791.833 Q12.7083 788.81 12.7083 785.945 Q12.7083 778.211 16.7187 774.391 Q20.729 770.572 28.8772 770.572 Z" fill="#000000" fill-rule="nonzero" fill-opacity="1" /><path clip-path="url(#clip530)" d="M31.4234 732.919 Q24.9622 732.919 21.302 735.592 Q17.6099 738.234 17.6099 742.881 Q17.6099 747.528 21.302 750.202 Q24.9622 752.843 31.4234 752.843 Q37.8846 752.843 41.5767 750.202 Q45.237 747.528 45.237 742.881 Q45.237 738.234 41.5767 735.592 Q37.8846 732.919 31.4234 732.919 M18.9785 752.843 Q15.7956 750.997 14.2679 748.197 Q12.7083 745.364 12.7083 741.449 Q12.7083 734.956 17.8645 730.914 Q23.0207 726.84 31.4234 726.84 Q39.8262 726.84 44.9824 730.914 Q50.1386 734.956 50.1386 741.449 Q50.1386 745.364 48.6108 748.197 Q47.0512 750.997 43.8684 752.843 L49.2156 752.843 L49.2156 758.732 L-0.309612 758.732 L-0.309612 752.843 L18.9785 752.843 Z" fill="#000000" fill-rule="nonzero" fill-opacity="1" /><path clip-path="url(#clip530)" d="M13.5676 717.132 L13.5676 711.275 L49.2156 711.275 L49.2156 717.132 L13.5676 717.132 M-0.309612 717.132 L-0.309612 711.275 L7.10644 711.275 L7.10644 717.132 L-0.309612 717.132 Z" fill="#000000" fill-rule="nonzero" fill-opacity="1" /><path clip-path="url(#clip530)" d="M-0.309612 699.021 L-0.309612 693.165 L49.2156 693.165 L49.2156 699.021 L-0.309612 699.021 Z" fill="#000000" fill-rule="nonzero" fill-opacity="1" /><path clip-path="url(#clip530)" d="M13.5676 680.911 L13.5676 675.055 L49.2156 675.055 L49.2156 680.911 L13.5676 680.911 M-0.309612 680.911 L-0.309612 675.055 L7.10644 675.055 L7.10644 680.911 L-0.309612 680.911 Z" fill="#000000" fill-rule="nonzero" fill-opacity="1" /><path clip-path="url(#clip530)" d="M3.44616 657.008 L13.5676 657.008 L13.5676 644.945 L18.1191 644.945 L18.1191 657.008 L37.4709 657.008 Q41.8314 657.008 43.0727 655.83 Q44.314 654.621 44.314 650.96 L44.314 644.945 L49.2156 644.945 L49.2156 650.96 Q49.2156 657.74 46.7011 660.318 Q44.1548 662.896 37.4709 662.896 L18.1191 662.896 L18.1191 667.193 L13.5676 667.193 L13.5676 662.896 L3.44616 662.896 L3.44616 657.008 Z" fill="#000000" fill-rule="nonzero" fill-opacity="1" /><path clip-path="url(#clip530)" d="M52.5258 622.41 Q58.8915 624.893 60.833 627.248 Q62.7745 629.603 62.7745 633.55 L62.7745 638.229 L57.8729 638.229 L57.8729 634.791 Q57.8729 632.372 56.7271 631.036 Q55.5813 629.699 51.3163 628.076 L48.6427 627.025 L13.5676 641.444 L13.5676 635.237 L41.4494 624.097 L13.5676 612.957 L13.5676 606.751 L52.5258 622.41 Z" fill="#000000" fill-rule="nonzero" fill-opacity="1" /><path clip-path="url(#clip530)" d="M670.537 14.0809 L670.537 22.0612 Q665.879 19.8332 661.747 18.7395 Q657.615 17.6457 653.767 17.6457 Q647.083 17.6457 643.437 20.2383 Q639.832 22.8309 639.832 27.611 Q639.832 31.6214 642.222 33.6873 Q644.652 35.7128 651.377 36.9686 L656.319 37.9813 Q665.474 39.7232 669.808 44.1387 Q674.183 48.5136 674.183 55.8863 Q674.183 64.6767 668.269 69.2137 Q662.395 73.7508 651.012 73.7508 Q646.718 73.7508 641.857 72.7785 Q637.037 71.8063 631.851 69.9024 L631.851 61.4765 Q636.834 64.2716 641.614 65.6895 Q646.394 67.1073 651.012 67.1073 Q658.02 67.1073 661.828 64.3527 Q665.636 61.598 665.636 56.4939 Q665.636 52.0379 662.881 49.5264 Q660.167 47.0148 653.929 45.759 L648.946 44.7868 Q639.791 42.9639 635.7 39.075 Q631.608 35.1862 631.608 28.2591 Q631.608 20.2383 637.239 15.6203 Q642.91 11.0023 652.835 11.0023 Q657.088 11.0023 661.504 11.7719 Q665.919 12.5416 670.537 14.0809 Z" fill="#000000" fill-rule="nonzero" fill-opacity="1" /><path clip-path="url(#clip530)" d="M693.992 14.324 L693.992 27.2059 L709.345 27.2059 L709.345 32.9987 L693.992 32.9987 L693.992 57.6282 Q693.992 63.1779 695.491 64.7578 Q697.03 66.3376 701.689 66.3376 L709.345 66.3376 L709.345 72.576 L701.689 72.576 Q693.061 72.576 689.779 69.3758 Q686.498 66.1351 686.498 57.6282 L686.498 32.9987 L681.029 32.9987 L681.029 27.2059 L686.498 27.2059 L686.498 14.324 L693.992 14.324 Z" fill="#000000" fill-rule="nonzero" fill-opacity="1" /><path clip-path="url(#clip530)" d="M739.767 49.7694 Q730.734 49.7694 727.25 51.8354 Q723.766 53.9013 723.766 58.8839 Q723.766 62.8538 726.359 65.2034 Q728.992 67.5124 733.489 67.5124 Q739.686 67.5124 743.413 63.1374 Q747.181 58.7219 747.181 51.4303 L747.181 49.7694 L739.767 49.7694 M754.634 46.6907 L754.634 72.576 L747.181 72.576 L747.181 65.6895 Q744.629 69.8214 740.821 71.8063 Q737.013 73.7508 731.504 73.7508 Q724.536 73.7508 720.404 69.8619 Q716.313 65.9325 716.313 59.3701 Q716.313 51.7138 721.417 47.825 Q726.561 43.9361 736.729 43.9361 L747.181 43.9361 L747.181 43.2069 Q747.181 38.0623 743.778 35.2672 Q740.416 32.4315 734.299 32.4315 Q730.41 32.4315 726.724 33.3632 Q723.037 34.295 719.634 36.1584 L719.634 29.2718 Q723.726 27.692 727.574 26.9223 Q731.423 26.1121 735.068 26.1121 Q744.912 26.1121 749.773 31.2163 Q754.634 36.3204 754.634 46.6907 Z" fill="#000000" fill-rule="nonzero" fill-opacity="1" /><path clip-path="url(#clip530)" d="M802.556 49.9314 Q802.556 41.7081 799.154 37.0496 Q795.791 32.3505 789.877 32.3505 Q783.963 32.3505 780.56 37.0496 Q777.198 41.7081 777.198 49.9314 Q777.198 58.1548 780.56 62.8538 Q783.963 67.5124 789.877 67.5124 Q795.791 67.5124 799.154 62.8538 Q802.556 58.1548 802.556 49.9314 M777.198 34.0924 Q779.547 30.0415 783.112 28.0971 Q786.717 26.1121 791.7 26.1121 Q799.964 26.1121 805.109 32.6746 Q810.294 39.2371 810.294 49.9314 Q810.294 60.6258 805.109 67.1883 Q799.964 73.7508 791.7 73.7508 Q786.717 73.7508 783.112 71.8063 Q779.547 69.8214 777.198 65.7705 L777.198 72.576 L769.704 72.576 L769.704 9.54393 L777.198 9.54393 L777.198 34.0924 Z" fill="#000000" fill-rule="nonzero" fill-opacity="1" /><path clip-path="url(#clip530)" d="M822.649 27.2059 L830.103 27.2059 L830.103 72.576 L822.649 72.576 L822.649 27.2059 M822.649 9.54393 L830.103 9.54393 L830.103 18.9825 L822.649 18.9825 L822.649 9.54393 Z" fill="#000000" fill-rule="nonzero" fill-opacity="1" /><path clip-path="url(#clip530)" d="M845.699 9.54393 L853.152 9.54393 L853.152 72.576 L845.699 72.576 L845.699 9.54393 Z" fill="#000000" fill-rule="nonzero" fill-opacity="1" /><path clip-path="url(#clip530)" d="M868.748 27.2059 L876.202 27.2059 L876.202 72.576 L868.748 72.576 L868.748 27.2059 M868.748 9.54393 L876.202 9.54393 L876.202 18.9825 L868.748 18.9825 L868.748 9.54393 Z" fill="#000000" fill-rule="nonzero" fill-opacity="1" /><path clip-path="url(#clip530)" d="M920.721 28.5427 L920.721 35.5912 Q917.562 33.9709 914.159 33.1607 Q910.756 32.3505 907.11 32.3505 Q901.561 32.3505 898.765 34.0519 Q896.011 35.7533 896.011 39.156 Q896.011 41.7486 897.996 43.2475 Q899.981 44.7058 905.976 46.0426 L908.528 46.6097 Q916.468 48.3111 919.79 51.4303 Q923.152 54.509 923.152 60.0587 Q923.152 66.3781 918.129 70.0644 Q913.146 73.7508 904.396 73.7508 Q900.75 73.7508 896.78 73.0216 Q892.851 72.3329 888.476 70.9151 L888.476 63.2184 Q892.608 65.3654 896.618 66.4591 Q900.629 67.5124 904.558 67.5124 Q909.824 67.5124 912.66 65.73 Q915.496 63.9071 915.496 60.6258 Q915.496 57.5877 913.43 55.9673 Q911.404 54.3469 904.477 52.8481 L901.885 52.2405 Q894.958 50.7821 891.879 47.7845 Q888.8 44.7463 888.8 39.4801 Q888.8 33.0797 893.337 29.5959 Q897.874 26.1121 906.219 26.1121 Q910.351 26.1121 913.997 26.7198 Q917.643 27.3274 920.721 28.5427 Z" fill="#000000" fill-rule="nonzero" fill-opacity="1" /><path clip-path="url(#clip530)" d="M973.829 48.0275 L973.829 51.6733 L939.558 51.6733 Q940.044 59.3701 944.176 63.421 Q948.348 67.4314 955.762 67.4314 Q960.056 67.4314 964.066 66.3781 Q968.117 65.3249 972.087 63.2184 L972.087 70.267 Q968.076 71.9684 963.863 72.8596 Q959.651 73.7508 955.316 73.7508 Q944.46 73.7508 938.1 67.4314 Q931.78 61.1119 931.78 50.3365 Q931.78 39.1965 937.776 32.6746 Q943.811 26.1121 954.02 26.1121 Q963.175 26.1121 968.481 32.0264 Q973.829 37.9003 973.829 48.0275 M966.375 45.84 Q966.294 39.7232 962.932 36.0774 Q959.61 32.4315 954.101 32.4315 Q947.862 32.4315 944.095 35.9558 Q940.368 39.4801 939.801 45.8805 L966.375 45.84 Z" fill="#000000" fill-rule="nonzero" fill-opacity="1" /><path clip-path="url(#clip530)" d="M1012.35 34.1734 Q1011.1 33.4443 1009.6 33.1202 Q1008.14 32.7556 1006.36 32.7556 Q1000.04 32.7556 996.635 36.8875 Q993.273 40.9789 993.273 48.6757 L993.273 72.576 L985.779 72.576 L985.779 27.2059 L993.273 27.2059 L993.273 34.2544 Q995.623 30.1225 999.39 28.1376 Q1003.16 26.1121 1008.54 26.1121 Q1009.31 26.1121 1010.25 26.2337 Q1011.18 26.3147 1012.31 26.5172 L1012.35 34.1734 Z" fill="#000000" fill-rule="nonzero" fill-opacity="1" /><path clip-path="url(#clip530)" d="M1092.16 16.7545 L1092.16 25.383 Q1088.02 21.5346 1083.32 19.6307 Q1078.67 17.7268 1073.4 17.7268 Q1063.03 17.7268 1057.52 24.0867 Q1052.01 30.4061 1052.01 42.3968 Q1052.01 54.3469 1057.52 60.7069 Q1063.03 67.0263 1073.4 67.0263 Q1078.67 67.0263 1083.32 65.1223 Q1088.02 63.2184 1092.16 59.3701 L1092.16 67.9175 Q1087.86 70.8341 1083.04 72.2924 Q1078.26 73.7508 1072.91 73.7508 Q1059.18 73.7508 1051.28 65.3654 Q1043.38 56.9395 1043.38 42.3968 Q1043.38 27.8135 1051.28 19.4281 Q1059.18 11.0023 1072.91 11.0023 Q1078.34 11.0023 1083.12 12.4606 Q1087.94 13.8784 1092.16 16.7545 Z" fill="#000000" fill-rule="nonzero" fill-opacity="1" /><path clip-path="url(#clip530)" d="M1122.05 32.4315 Q1116.06 32.4315 1112.57 37.1306 Q1109.09 41.7891 1109.09 49.9314 Q1109.09 58.0738 1112.53 62.7728 Q1116.02 67.4314 1122.05 67.4314 Q1128.01 67.4314 1131.49 62.7323 Q1134.97 58.0333 1134.97 49.9314 Q1134.97 41.8701 1131.49 37.1711 Q1128.01 32.4315 1122.05 32.4315 M1122.05 26.1121 Q1131.77 26.1121 1137.32 32.4315 Q1142.87 38.7509 1142.87 49.9314 Q1142.87 61.0714 1137.32 67.4314 Q1131.77 73.7508 1122.05 73.7508 Q1112.29 73.7508 1106.74 67.4314 Q1101.23 61.0714 1101.23 49.9314 Q1101.23 38.7509 1106.74 32.4315 Q1112.29 26.1121 1122.05 26.1121 Z" fill="#000000" fill-rule="nonzero" fill-opacity="1" /><path clip-path="url(#clip530)" d="M1185.08 34.0924 L1185.08 9.54393 L1192.54 9.54393 L1192.54 72.576 L1185.08 72.576 L1185.08 65.7705 Q1182.73 69.8214 1179.13 71.8063 Q1175.56 73.7508 1170.54 73.7508 Q1162.32 73.7508 1157.13 67.1883 Q1151.99 60.6258 1151.99 49.9314 Q1151.99 39.2371 1157.13 32.6746 Q1162.32 26.1121 1170.54 26.1121 Q1175.56 26.1121 1179.13 28.0971 Q1182.73 30.0415 1185.08 34.0924 M1159.68 49.9314 Q1159.68 58.1548 1163.05 62.8538 Q1166.45 67.5124 1172.36 67.5124 Q1178.28 67.5124 1181.68 62.8538 Q1185.08 58.1548 1185.08 49.9314 Q1185.08 41.7081 1181.68 37.0496 Q1178.28 32.3505 1172.36 32.3505 Q1166.45 32.3505 1163.05 37.0496 Q1159.68 41.7081 1159.68 49.9314 Z" fill="#000000" fill-rule="nonzero" fill-opacity="1" /><path clip-path="url(#clip530)" d="M1246.7 48.0275 L1246.7 51.6733 L1212.43 51.6733 Q1212.91 59.3701 1217.04 63.421 Q1221.22 67.4314 1228.63 67.4314 Q1232.92 67.4314 1236.93 66.3781 Q1240.99 65.3249 1244.96 63.2184 L1244.96 70.267 Q1240.95 71.9684 1236.73 72.8596 Q1232.52 73.7508 1228.18 73.7508 Q1217.33 73.7508 1210.97 67.4314 Q1204.65 61.1119 1204.65 50.3365 Q1204.65 39.1965 1210.64 32.6746 Q1216.68 26.1121 1226.89 26.1121 Q1236.04 26.1121 1241.35 32.0264 Q1246.7 37.9003 1246.7 48.0275 M1239.24 45.84 Q1239.16 39.7232 1235.8 36.0774 Q1232.48 32.4315 1226.97 32.4315 Q1220.73 32.4315 1216.96 35.9558 Q1213.24 39.4801 1212.67 45.8805 L1239.24 45.84 Z" fill="#000000" fill-rule="nonzero" fill-opacity="1" /><path clip-path="url(#clip530)" d="M1285.63 12.096 L1323.87 12.096 L1323.87 18.9825 L1293.81 18.9825 L1293.81 36.8875 L1322.61 36.8875 L1322.61 43.7741 L1293.81 43.7741 L1293.81 65.6895 L1324.6 65.6895 L1324.6 72.576 L1285.63 72.576 L1285.63 12.096 Z" fill="#000000" fill-rule="nonzero" fill-opacity="1" /><path clip-path="url(#clip530)" d="M1364.01 34.1734 Q1362.76 33.4443 1361.26 33.1202 Q1359.8 32.7556 1358.02 32.7556 Q1351.7 32.7556 1348.29 36.8875 Q1344.93 40.9789 1344.93 48.6757 L1344.93 72.576 L1337.44 72.576 L1337.44 27.2059 L1344.93 27.2059 L1344.93 34.2544 Q1347.28 30.1225 1351.05 28.1376 Q1354.82 26.1121 1360.2 26.1121 Q1360.97 26.1121 1361.91 26.2337 Q1362.84 26.3147 1363.97 26.5172 L1364.01 34.1734 Z" fill="#000000" fill-rule="nonzero" fill-opacity="1" /><path clip-path="url(#clip530)" d="M1396.66 34.1734 Q1395.41 33.4443 1393.91 33.1202 Q1392.45 32.7556 1390.67 32.7556 Q1384.35 32.7556 1380.94 36.8875 Q1377.58 40.9789 1377.58 48.6757 L1377.58 72.576 L1370.09 72.576 L1370.09 27.2059 L1377.58 27.2059 L1377.58 34.2544 Q1379.93 30.1225 1383.7 28.1376 Q1387.47 26.1121 1392.85 26.1121 Q1393.62 26.1121 1394.56 26.2337 Q1395.49 26.3147 1396.62 26.5172 L1396.66 34.1734 Z" fill="#000000" fill-rule="nonzero" fill-opacity="1" /><path clip-path="url(#clip530)" d="M1420.24 32.4315 Q1414.24 32.4315 1410.76 37.1306 Q1407.28 41.7891 1407.28 49.9314 Q1407.28 58.0738 1410.72 62.7728 Q1414.2 67.4314 1420.24 67.4314 Q1426.19 67.4314 1429.68 62.7323 Q1433.16 58.0333 1433.16 49.9314 Q1433.16 41.8701 1429.68 37.1711 Q1426.19 32.4315 1420.24 32.4315 M1420.24 26.1121 Q1429.96 26.1121 1435.51 32.4315 Q1441.06 38.7509 1441.06 49.9314 Q1441.06 61.0714 1435.51 67.4314 Q1429.96 73.7508 1420.24 73.7508 Q1410.48 73.7508 1404.93 67.4314 Q1399.42 61.0714 1399.42 49.9314 Q1399.42 38.7509 1404.93 32.4315 Q1410.48 26.1121 1420.24 26.1121 Z" fill="#000000" fill-rule="nonzero" fill-opacity="1" /><path clip-path="url(#clip530)" d="M1479.71 34.1734 Q1478.45 33.4443 1476.95 33.1202 Q1475.49 32.7556 1473.71 32.7556 Q1467.39 32.7556 1463.99 36.8875 Q1460.63 40.9789 1460.63 48.6757 L1460.63 72.576 L1453.13 72.576 L1453.13 27.2059 L1460.63 27.2059 L1460.63 34.2544 Q1462.98 30.1225 1466.74 28.1376 Q1470.51 26.1121 1475.9 26.1121 Q1476.67 26.1121 1477.6 26.2337 Q1478.53 26.3147 1479.67 26.5172 L1479.71 34.1734 Z" fill="#000000" fill-rule="nonzero" fill-opacity="1" /><path clip-path="url(#clip530)" d="M1516.45 28.5427 L1516.45 35.5912 Q1513.29 33.9709 1509.88 33.1607 Q1506.48 32.3505 1502.84 32.3505 Q1497.29 32.3505 1494.49 34.0519 Q1491.74 35.7533 1491.74 39.156 Q1491.74 41.7486 1493.72 43.2475 Q1495.71 44.7058 1501.7 46.0426 L1504.25 46.6097 Q1512.19 48.3111 1515.52 51.4303 Q1518.88 54.509 1518.88 60.0587 Q1518.88 66.3781 1513.85 70.0644 Q1508.87 73.7508 1500.12 73.7508 Q1496.48 73.7508 1492.51 73.0216 Q1488.58 72.3329 1484.2 70.9151 L1484.2 63.2184 Q1488.33 65.3654 1492.34 66.4591 Q1496.35 67.5124 1500.28 67.5124 Q1505.55 67.5124 1508.39 65.73 Q1511.22 63.9071 1511.22 60.6258 Q1511.22 57.5877 1509.16 55.9673 Q1507.13 54.3469 1500.2 52.8481 L1497.61 52.2405 Q1490.68 50.7821 1487.6 47.7845 Q1484.53 44.7463 1484.53 39.4801 Q1484.53 33.0797 1489.06 29.5959 Q1493.6 26.1121 1501.95 26.1121 Q1506.08 26.1121 1509.72 26.7198 Q1513.37 27.3274 1516.45 28.5427 Z" fill="#000000" fill-rule="nonzero" fill-opacity="1" /><path clip-path="url(#clip530)" d="M1532.65 62.2867 L1541.2 62.2867 L1541.2 72.576 L1532.65 72.576 L1532.65 62.2867 M1532.65 29.6769 L1541.2 29.6769 L1541.2 39.9662 L1532.65 39.9662 L1532.65 29.6769 Z" fill="#000000" fill-rule="nonzero" fill-opacity="1" /><path clip-path="url(#clip530)" d="M1591.88 34.3355 L1601.8 62.3677 L1615.98 27.2059 L1623.88 27.2059 L1605.53 72.576 L1605.53 89.8329 L1598.07 89.8329 L1598.07 72.576 L1586.16 38.7104 Q1584.38 33.6063 1580.53 33.6063 L1578.55 33.6063 L1578.55 27.2059 L1581.38 27.2059 Q1589.36 27.2059 1591.88 34.3355 Z" fill="#000000" fill-rule="nonzero" fill-opacity="1" /><path clip-path="url(#clip530)" d="M1635.14 34.9026 L1687.07 34.9026 L1687.07 41.7081 L1635.14 41.7081 L1635.14 34.9026 M1635.14 51.4303 L1687.07 51.4303 L1687.07 58.3168 L1635.14 58.3168 L1635.14 51.4303 Z" fill="#000000" fill-rule="nonzero" fill-opacity="1" /><path clip-path="url(#clip530)" d="M1722.23 17.4837 Q1715.91 17.4837 1712.71 23.7221 Q1709.55 29.92 1709.55 42.3968 Q1709.55 54.833 1712.71 61.0714 Q1715.91 67.2693 1722.23 67.2693 Q1728.59 67.2693 1731.75 61.0714 Q1734.95 54.833 1734.95 42.3968 Q1734.95 29.92 1731.75 23.7221 Q1728.59 17.4837 1722.23 17.4837 M1722.23 11.0023 Q1732.4 11.0023 1737.75 19.0636 Q1743.14 27.0843 1743.14 42.3968 Q1743.14 57.6687 1737.75 65.73 Q1732.4 73.7508 1722.23 73.7508 Q1712.07 73.7508 1706.68 65.73 Q1701.33 57.6687 1701.33 42.3968 Q1701.33 27.0843 1706.68 19.0636 Q1712.07 11.0023 1722.23 11.0023 Z" fill="#000000" fill-rule="nonzero" fill-opacity="1" /><path clip-path="url(#clip530)" d="M1757.52 62.2867 L1766.06 62.2867 L1766.06 72.576 L1757.52 72.576 L1757.52 62.2867 Z" fill="#000000" fill-rule="nonzero" fill-opacity="1" /><path clip-path="url(#clip530)" d="M1790.94 65.6895 L1819.5 65.6895 L1819.5 72.576 L1781.09 72.576 L1781.09 65.6895 Q1785.75 60.8689 1793.77 52.7671 Q1801.83 44.6248 1803.9 42.2752 Q1807.83 37.8598 1809.37 34.8216 Q1810.95 31.7429 1810.95 28.7857 Q1810.95 23.9651 1807.55 20.927 Q1804.18 17.8888 1798.75 17.8888 Q1794.91 17.8888 1790.61 19.2256 Q1786.36 20.5624 1781.5 23.2765 L1781.5 15.0127 Q1786.44 13.0277 1790.73 12.015 Q1795.03 11.0023 1798.59 11.0023 Q1807.99 11.0023 1813.58 15.7013 Q1819.17 20.4004 1819.17 28.2591 Q1819.17 31.9859 1817.75 35.3482 Q1816.38 38.6699 1812.69 43.2069 Q1811.68 44.3817 1806.25 50.0125 Q1800.82 55.6027 1790.94 65.6895 Z" fill="#000000" fill-rule="nonzero" fill-opacity="1" /><path clip-path="url(#clip530)" d="M1837.52 62.2867 L1846.07 62.2867 L1846.07 69.2543 L1839.43 82.2172 L1834.2 82.2172 L1837.52 69.2543 L1837.52 62.2867 Z" fill="#000000" fill-rule="nonzero" fill-opacity="1" /><path clip-path="url(#clip530)" d="M1926.07 45.1919 L1926.07 89.8329 L1918.62 89.8329 L1918.62 45.4349 Q1918.62 38.994 1916.11 35.7938 Q1913.6 32.5936 1908.57 32.5936 Q1902.54 32.5936 1899.06 36.4419 Q1895.57 40.2903 1895.57 46.9338 L1895.57 72.576 L1888.08 72.576 L1888.08 27.2059 L1895.57 27.2059 L1895.57 34.2544 Q1898.25 30.163 1901.85 28.1376 Q1905.5 26.1121 1910.24 26.1121 Q1918.05 26.1121 1922.06 30.9327 Q1926.07 35.7938 1926.07 45.1919 Z" fill="#000000" fill-rule="nonzero" fill-opacity="1" /><path clip-path="url(#clip530)" d="M1941.91 34.9026 L1993.85 34.9026 L1993.85 41.7081 L1941.91 41.7081 L1941.91 34.9026 M1941.91 51.4303 L1993.85 51.4303 L1993.85 58.3168 L1941.91 58.3168 L1941.91 51.4303 Z" fill="#000000" fill-rule="nonzero" fill-opacity="1" /><path clip-path="url(#clip530)" d="M2029.01 17.4837 Q2022.69 17.4837 2019.49 23.7221 Q2016.33 29.92 2016.33 42.3968 Q2016.33 54.833 2019.49 61.0714 Q2022.69 67.2693 2029.01 67.2693 Q2035.37 67.2693 2038.53 61.0714 Q2041.73 54.833 2041.73 42.3968 Q2041.73 29.92 2038.53 23.7221 Q2035.37 17.4837 2029.01 17.4837 M2029.01 11.0023 Q2039.18 11.0023 2044.52 19.0636 Q2049.91 27.0843 2049.91 42.3968 Q2049.91 57.6687 2044.52 65.73 Q2039.18 73.7508 2029.01 73.7508 Q2018.84 73.7508 2013.45 65.73 Q2008.11 57.6687 2008.11 42.3968 Q2008.11 27.0843 2013.45 19.0636 Q2018.84 11.0023 2029.01 11.0023 Z" fill="#000000" fill-rule="nonzero" fill-opacity="1" /><path clip-path="url(#clip530)" d="M2064.29 62.2867 L2072.84 62.2867 L2072.84 72.576 L2064.29 72.576 L2064.29 62.2867 Z" fill="#000000" fill-rule="nonzero" fill-opacity="1" /><path clip-path="url(#clip530)" d="M2090.91 71.3202 L2090.91 63.8666 Q2093.98 65.3249 2097.14 66.0946 Q2100.3 66.8642 2103.34 66.8642 Q2111.44 66.8642 2115.7 61.436 Q2119.99 55.9673 2120.6 44.8678 Q2118.25 48.3516 2114.64 50.215 Q2111.04 52.0784 2106.66 52.0784 Q2097.59 52.0784 2092.28 46.6097 Q2087.02 41.1005 2087.02 31.5808 Q2087.02 22.2638 2092.53 16.633 Q2098.04 11.0023 2107.19 11.0023 Q2117.68 11.0023 2123.19 19.0636 Q2128.74 27.0843 2128.74 42.3968 Q2128.74 56.6965 2121.94 65.2439 Q2115.17 73.7508 2103.71 73.7508 Q2100.63 73.7508 2097.47 73.1431 Q2094.31 72.5355 2090.91 71.3202 M2107.19 45.678 Q2112.7 45.678 2115.9 41.9107 Q2119.14 38.1433 2119.14 31.5808 Q2119.14 25.0589 2115.9 21.2916 Q2112.7 17.4837 2107.19 17.4837 Q2101.68 17.4837 2098.44 21.2916 Q2095.24 25.0589 2095.24 31.5808 Q2095.24 38.1433 2098.44 41.9107 Q2101.68 45.678 2107.19 45.678 Z" fill="#000000" fill-rule="nonzero" fill-opacity="1" /><path clip-path="url(#clip530)" d="M2144.3 62.2867 L2152.84 62.2867 L2152.84 69.2543 L2146.2 82.2172 L2140.98 82.2172 L2144.3 69.2543 L2144.3 62.2867 Z" fill="#000000" fill-rule="nonzero" fill-opacity="1" /><path clip-path="url(#clip530)" d="M2216.24 67.4314 Q2221.59 67.4719 2224.79 70.51 Q2228.19 73.7103 2228.19 78.5713 Q2228.19 83.2299 2225.19 86.4706 Q2221.95 89.9949 2215.35 89.9949 Q2215.35 86.9567 2215.35 83.878 Q2218.14 84.0806 2219.85 82.2982 Q2221.14 80.8804 2221.14 79.3815 Q2221.14 77.2345 2219.85 75.4521 Q2218.59 73.7508 2216.24 73.7508 Q2191.69 73.7508 2191.65 50.9442 Q2191.65 31.0137 2214.78 17.0381 L2193.23 17.0381 L2193.23 9.54393 L2228.47 9.54393 L2228.47 17.0381 Q2199.15 31.7834 2199.15 50.9442 Q2199.15 67.4314 2216.24 67.4314 Z" fill="#000000" fill-rule="nonzero" fill-opacity="1" /><path clip-path="url(#clip530)" d="M2241.24 34.9026 L2293.17 34.9026 L2293.17 41.7081 L2241.24 41.7081 L2241.24 34.9026 M2241.24 51.4303 L2293.17 51.4303 L2293.17 58.3168 L2241.24 58.3168 L2241.24 51.4303 Z" fill="#000000" fill-rule="nonzero" fill-opacity="1" /><path clip-path="url(#clip530)" d="M2328.33 17.4837 Q2322.01 17.4837 2318.81 23.7221 Q2315.65 29.92 2315.65 42.3968 Q2315.65 54.833 2318.81 61.0714 Q2322.01 67.2693 2328.33 67.2693 Q2334.69 67.2693 2337.85 61.0714 Q2341.05 54.833 2341.05 42.3968 Q2341.05 29.92 2337.85 23.7221 Q2334.69 17.4837 2328.33 17.4837 M2328.33 11.0023 Q2338.5 11.0023 2343.84 19.0636 Q2349.23 27.0843 2349.23 42.3968 Q2349.23 57.6687 2343.84 65.73 Q2338.5 73.7508 2328.33 73.7508 Q2318.16 73.7508 2312.77 65.73 Q2307.43 57.6687 2307.43 42.3968 Q2307.43 27.0843 2312.77 19.0636 Q2318.16 11.0023 2328.33 11.0023 Z" fill="#000000" fill-rule="nonzero" fill-opacity="1" /><path clip-path="url(#clip530)" d="M2363.61 62.2867 L2372.16 62.2867 L2372.16 72.576 L2363.61 72.576 L2363.61 62.2867 Z" fill="#000000" fill-rule="nonzero" fill-opacity="1" /><path clip-path="url(#clip530)" d="M2407.48 43.8551 Q2401.65 43.8551 2398.29 46.9743 Q2394.97 50.0935 2394.97 55.5622 Q2394.97 61.0309 2398.29 64.1501 Q2401.65 67.2693 2407.48 67.2693 Q2413.32 67.2693 2416.68 64.1501 Q2420.04 60.9904 2420.04 55.5622 Q2420.04 50.0935 2416.68 46.9743 Q2413.36 43.8551 2407.48 43.8551 M2399.3 40.3713 Q2394.04 39.075 2391.08 35.4697 Q2388.16 31.8644 2388.16 26.6793 Q2388.16 19.4281 2393.31 15.2152 Q2398.49 11.0023 2407.48 11.0023 Q2416.52 11.0023 2421.66 15.2152 Q2426.81 19.4281 2426.81 26.6793 Q2426.81 31.8644 2423.85 35.4697 Q2420.93 39.075 2415.71 40.3713 Q2421.62 41.7486 2424.9 45.759 Q2428.22 49.7694 2428.22 55.5622 Q2428.22 64.3527 2422.84 69.0517 Q2417.49 73.7508 2407.48 73.7508 Q2397.48 73.7508 2392.09 69.0517 Q2386.74 64.3527 2386.74 55.5622 Q2386.74 49.7694 2390.07 45.759 Q2393.39 41.7486 2399.3 40.3713 M2396.3 27.4489 Q2396.3 32.148 2399.22 34.7811 Q2402.18 37.4142 2407.48 37.4142 Q2412.75 37.4142 2415.71 34.7811 Q2418.71 32.148 2418.71 27.4489 Q2418.71 22.7499 2415.71 20.1168 Q2412.75 17.4837 2407.48 17.4837 Q2402.18 17.4837 2399.22 20.1168 Q2396.3 22.7499 2396.3 27.4489 Z" fill="#000000" fill-rule="nonzero" fill-opacity="1" /><polyline clip-path="url(#clip532)" style="stroke:#009af9; stroke-linecap:round; stroke-linejoin:round; stroke-width:4; stroke-opacity:1; fill:none" points="376.295,1081.36 632.655,152.193 889.015,1397.54 1145.38,1397.54 1401.74,1397.54 1658.1,1397.54 1914.46,1397.54 2170.82,1397.54 2427.18,152.193 2683.54,1081.36 "/>
<circle clip-path="url(#clip532)" cx="376.295" cy="1081.36" r="14.4" fill="#009af9" fill-rule="evenodd" fill-opacity="1" stroke="#000000" stroke-opacity="1" stroke-width="3.2"/>
<circle clip-path="url(#clip532)" cx="632.655" cy="152.193" r="14.4" fill="#009af9" fill-rule="evenodd" fill-opacity="1" stroke="#000000" stroke-opacity="1" stroke-width="3.2"/>
<circle clip-path="url(#clip532)" cx="889.015" cy="1397.54" r="14.4" fill="#009af9" fill-rule="evenodd" fill-opacity="1" stroke="#000000" stroke-opacity="1" stroke-width="3.2"/>
<circle clip-path="url(#clip532)" cx="1145.38" cy="1397.54" r="14.4" fill="#009af9" fill-rule="evenodd" fill-opacity="1" stroke="#000000" stroke-opacity="1" stroke-width="3.2"/>
<circle clip-path="url(#clip532)" cx="1401.74" cy="1397.54" r="14.4" fill="#009af9" fill-rule="evenodd" fill-opacity="1" stroke="#000000" stroke-opacity="1" stroke-width="3.2"/>
<circle clip-path="url(#clip532)" cx="1658.1" cy="1397.54" r="14.4" fill="#009af9" fill-rule="evenodd" fill-opacity="1" stroke="#000000" stroke-opacity="1" stroke-width="3.2"/>
<circle clip-path="url(#clip532)" cx="1914.46" cy="1397.54" r="14.4" fill="#009af9" fill-rule="evenodd" fill-opacity="1" stroke="#000000" stroke-opacity="1" stroke-width="3.2"/>
<circle clip-path="url(#clip532)" cx="2170.82" cy="1397.54" r="14.4" fill="#009af9" fill-rule="evenodd" fill-opacity="1" stroke="#000000" stroke-opacity="1" stroke-width="3.2"/>
<circle clip-path="url(#clip532)" cx="2427.18" cy="152.193" r="14.4" fill="#009af9" fill-rule="evenodd" fill-opacity="1" stroke="#000000" stroke-opacity="1" stroke-width="3.2"/>
<circle clip-path="url(#clip532)" cx="2683.54" cy="1081.36" r="14.4" fill="#009af9" fill-rule="evenodd" fill-opacity="1" stroke="#000000" stroke-opacity="1" stroke-width="3.2"/>
<path clip-path="url(#clip530)" d="M2243.31 1390.9 L2671.23 1390.9 L2671.23 1287.22 L2243.31 1287.22  Z" fill="#ffffff" fill-rule="evenodd" fill-opacity="1"/>
<polyline clip-path="url(#clip530)" style="stroke:#000000; stroke-linecap:round; stroke-linejoin:round; stroke-width:4; stroke-opacity:1; fill:none" points="2243.31,1390.9 2671.23,1390.9 2671.23,1287.22 2243.31,1287.22 2243.31,1390.9 "/>
<polyline clip-path="url(#clip530)" style="stroke:#009af9; stroke-linecap:round; stroke-linejoin:round; stroke-width:4; stroke-opacity:1; fill:none" points="2270.48,1339.06 2433.53,1339.06 "/>
<circle clip-path="url(#clip530)" cx="2352.01" cy="1339.06" r="20.48" fill="#009af9" fill-rule="evenodd" fill-opacity="1" stroke="#000000" stroke-opacity="1" stroke-width="4.55111"/>
<path clip-path="url(#clip530)" d="M2461.24 1321.78 L2488.39 1321.78 L2488.39 1325.35 L2466.54 1352.41 L2488.92 1352.41 L2488.92 1356.34 L2460.7 1356.34 L2460.7 1352.78 L2482.56 1325.72 L2461.24 1325.72 L2461.24 1321.78 Z" fill="#000000" fill-rule="nonzero" fill-opacity="1" /><path clip-path="url(#clip530)" d="M2510.77 1321.78 L2532.62 1321.78 L2532.62 1325.72 L2515.45 1325.72 L2515.45 1335.95 L2531.91 1335.95 L2531.91 1339.88 L2515.45 1339.88 L2515.45 1352.41 L2533.04 1352.41 L2533.04 1356.34 L2510.77 1356.34 L2510.77 1321.78 Z" fill="#000000" fill-rule="nonzero" fill-opacity="1" /><path clip-path="url(#clip530)" d="M2555.56 1334.4 Q2554.85 1333.98 2553.99 1333.8 Q2553.16 1333.59 2552.14 1333.59 Q2548.53 1333.59 2546.58 1335.95 Q2544.66 1338.29 2544.66 1342.69 L2544.66 1356.34 L2540.38 1356.34 L2540.38 1330.42 L2544.66 1330.42 L2544.66 1334.45 Q2546 1332.08 2548.16 1330.95 Q2550.31 1329.79 2553.39 1329.79 Q2553.83 1329.79 2554.36 1329.86 Q2554.89 1329.91 2555.54 1330.02 L2555.56 1334.4 Z" fill="#000000" fill-rule="nonzero" fill-opacity="1" /><path clip-path="url(#clip530)" d="M2574.22 1334.4 Q2573.5 1333.98 2572.65 1333.8 Q2571.81 1333.59 2570.8 1333.59 Q2567.18 1333.59 2565.24 1335.95 Q2563.32 1338.29 2563.32 1342.69 L2563.32 1356.34 L2559.04 1356.34 L2559.04 1330.42 L2563.32 1330.42 L2563.32 1334.45 Q2564.66 1332.08 2566.81 1330.95 Q2568.97 1329.79 2572.05 1329.79 Q2572.49 1329.79 2573.02 1329.86 Q2573.55 1329.91 2574.2 1330.02 L2574.22 1334.4 Z" fill="#000000" fill-rule="nonzero" fill-opacity="1" /><path clip-path="url(#clip530)" d="M2587.69 1333.4 Q2584.27 1333.4 2582.28 1336.09 Q2580.29 1338.75 2580.29 1343.4 Q2580.29 1348.06 2582.25 1350.74 Q2584.24 1353.4 2587.69 1353.4 Q2591.1 1353.4 2593.09 1350.72 Q2595.08 1348.03 2595.08 1343.4 Q2595.08 1338.8 2593.09 1336.11 Q2591.1 1333.4 2587.69 1333.4 M2587.69 1329.79 Q2593.25 1329.79 2596.42 1333.4 Q2599.59 1337.01 2599.59 1343.4 Q2599.59 1349.77 2596.42 1353.4 Q2593.25 1357.01 2587.69 1357.01 Q2582.11 1357.01 2578.94 1353.4 Q2575.8 1349.77 2575.8 1343.4 Q2575.8 1337.01 2578.94 1333.4 Q2582.11 1329.79 2587.69 1329.79 Z" fill="#000000" fill-rule="nonzero" fill-opacity="1" /><path clip-path="url(#clip530)" d="M2621.67 1334.4 Q2620.96 1333.98 2620.1 1333.8 Q2619.27 1333.59 2618.25 1333.59 Q2614.64 1333.59 2612.69 1335.95 Q2610.77 1338.29 2610.77 1342.69 L2610.77 1356.34 L2606.49 1356.34 L2606.49 1330.42 L2610.77 1330.42 L2610.77 1334.45 Q2612.11 1332.08 2614.27 1330.95 Q2616.42 1329.79 2619.5 1329.79 Q2619.94 1329.79 2620.47 1329.86 Q2621 1329.91 2621.65 1330.02 L2621.67 1334.4 Z" fill="#000000" fill-rule="nonzero" fill-opacity="1" /><path clip-path="url(#clip530)" d="M2642.67 1331.18 L2642.67 1335.21 Q2640.86 1334.28 2638.92 1333.82 Q2636.98 1333.36 2634.89 1333.36 Q2631.72 1333.36 2630.12 1334.33 Q2628.55 1335.3 2628.55 1337.25 Q2628.55 1338.73 2629.68 1339.58 Q2630.82 1340.42 2634.24 1341.18 L2635.7 1341.51 Q2640.24 1342.48 2642.14 1344.26 Q2644.06 1346.02 2644.06 1349.19 Q2644.06 1352.8 2641.19 1354.91 Q2638.34 1357.01 2633.34 1357.01 Q2631.26 1357.01 2628.99 1356.6 Q2626.74 1356.2 2624.24 1355.39 L2624.24 1351 Q2626.61 1352.22 2628.9 1352.85 Q2631.19 1353.45 2633.43 1353.45 Q2636.44 1353.45 2638.06 1352.43 Q2639.68 1351.39 2639.68 1349.51 Q2639.68 1347.78 2638.5 1346.85 Q2637.35 1345.93 2633.39 1345.07 L2631.91 1344.72 Q2627.95 1343.89 2626.19 1342.18 Q2624.43 1340.44 2624.43 1337.43 Q2624.43 1333.77 2627.02 1331.78 Q2629.61 1329.79 2634.38 1329.79 Q2636.74 1329.79 2638.83 1330.14 Q2640.91 1330.49 2642.67 1331.18 Z" fill="#000000" fill-rule="nonzero" fill-opacity="1" /></svg>
