<?xml version="1.0" encoding="utf-8"?>
<svg xmlns="http://www.w3.org/2000/svg" xmlns:xlink="http://www.w3.org/1999/xlink" width="700" height="400" viewBox="0 0 2800 1600">
<defs>
  <clipPath id="clip470">
    <rect x="0" y="0" width="2800" height="1600"/>
  </clipPath>
</defs>
<path clip-path="url(#clip470)" d="M0 1600 L2800 1600 L2800 8.88178e-14 L0 8.88178e-14  Z" fill="#ffffff" fill-rule="evenodd" fill-opacity="1"/>
<defs>
  <clipPath id="clip471">
    <rect x="560" y="0" width="1961" height="1600"/>
  </clipPath>
</defs>
<path clip-path="url(#clip470)" d="M249.975 1434.91 L2752.76 1434.91 L2752.76 114.832 L249.975 114.832  Z" fill="#ffffff" fill-rule="evenodd" fill-opacity="1"/>
<defs>
  <clipPath id="clip472">
    <rect x="249" y="114" width="2504" height="1321"/>
  </clipPath>
</defs>
<polyline clip-path="url(#clip472)" style="stroke:#000000; stroke-linecap:round; stroke-linejoin:round; stroke-width:2; stroke-opacity:0.1; fill:none" points="249.975,1434.91 249.975,114.832 "/>
<polyline clip-path="url(#clip472)" style="stroke:#000000; stroke-linecap:round; stroke-linejoin:round; stroke-width:2; stroke-opacity:0.1; fill:none" points="667.105,1434.91 667.105,114.832 "/>
<polyline clip-path="url(#clip472)" style="stroke:#000000; stroke-linecap:round; stroke-linejoin:round; stroke-width:2; stroke-opacity:0.1; fill:none" points="1084.24,1434.91 1084.24,114.832 "/>
<polyline clip-path="url(#clip472)" style="stroke:#000000; stroke-linecap:round; stroke-linejoin:round; stroke-width:2; stroke-opacity:0.1; fill:none" points="1501.37,1434.91 1501.37,114.832 "/>
<polyline clip-path="url(#clip472)" style="stroke:#000000; stroke-linecap:round; stroke-linejoin:round; stroke-width:2; stroke-opacity:0.1; fill:none" points="1918.5,1434.91 1918.5,114.832 "/>
<polyline clip-path="url(#clip472)" style="stroke:#000000; stroke-linecap:round; stroke-linejoin:round; stroke-width:2; stroke-opacity:0.1; fill:none" points="2335.63,1434.91 2335.63,114.832 "/>
<polyline clip-path="url(#clip472)" style="stroke:#000000; stroke-linecap:round; stroke-linejoin:round; stroke-width:2; stroke-opacity:0.1; fill:none" points="249.975,1230.71 2752.76,1230.71 "/>
<polyline clip-path="url(#clip472)" style="stroke:#000000; stroke-linecap:round; stroke-linejoin:round; stroke-width:2; stroke-opacity:0.1; fill:none" points="249.975,668.519 2752.76,668.519 "/>
<polyline clip-path="url(#clip470)" style="stroke:#000000; stroke-linecap:round; stroke-linejoin:round; stroke-width:4; stroke-opacity:1; fill:none" points="249.975,1434.91 2752.76,1434.91 "/>
<polyline clip-path="url(#clip470)" style="stroke:#000000; stroke-linecap:round; stroke-linejoin:round; stroke-width:4; stroke-opacity:1; fill:none" points="249.975,1434.91 249.975,1416.01 "/>
<polyline clip-path="url(#clip470)" style="stroke:#000000; stroke-linecap:round; stroke-linejoin:round; stroke-width:4; stroke-opacity:1; fill:none" points="667.105,1434.91 667.105,1416.01 "/>
<polyline clip-path="url(#clip470)" style="stroke:#000000; stroke-linecap:round; stroke-linejoin:round; stroke-width:4; stroke-opacity:1; fill:none" points="1084.24,1434.91 1084.24,1416.01 "/>
<polyline clip-path="url(#clip470)" style="stroke:#000000; stroke-linecap:round; stroke-linejoin:round; stroke-width:4; stroke-opacity:1; fill:none" points="1501.37,1434.91 1501.37,1416.01 "/>
<polyline clip-path="url(#clip470)" style="stroke:#000000; stroke-linecap:round; stroke-linejoin:round; stroke-width:4; stroke-opacity:1; fill:none" points="1918.5,1434.91 1918.5,1416.01 "/>
<polyline clip-path="url(#clip470)" style="stroke:#000000; stroke-linecap:round; stroke-linejoin:round; stroke-width:4; stroke-opacity:1; fill:none" points="2335.63,1434.91 2335.63,1416.01 "/>
<path clip-path="url(#clip470)" d="M212.279 1469.02 Q208.668 1469.02 206.839 1472.59 Q205.033 1476.13 205.033 1483.26 Q205.033 1490.37 206.839 1493.93 Q208.668 1497.47 212.279 1497.47 Q215.913 1497.47 217.719 1493.93 Q219.547 1490.37 219.547 1483.26 Q219.547 1476.13 217.719 1472.59 Q215.913 1469.02 212.279 1469.02 M212.279 1465.32 Q218.089 1465.32 221.145 1469.93 Q224.223 1474.51 224.223 1483.26 Q224.223 1491.99 221.145 1496.59 Q218.089 1501.18 212.279 1501.18 Q206.469 1501.18 203.39 1496.59 Q200.334 1491.99 200.334 1483.26 Q200.334 1474.51 203.39 1469.93 Q206.469 1465.32 212.279 1465.32 Z" fill="#000000" fill-rule="nonzero" fill-opacity="1" /><path clip-path="url(#clip470)" d="M232.441 1494.63 L237.325 1494.63 L237.325 1500.51 L232.441 1500.51 L232.441 1494.63 Z" fill="#000000" fill-rule="nonzero" fill-opacity="1" /><path clip-path="url(#clip470)" d="M246.33 1465.95 L268.552 1465.95 L268.552 1467.94 L256.005 1500.51 L251.121 1500.51 L262.927 1469.88 L246.33 1469.88 L246.33 1465.95 Z" fill="#000000" fill-rule="nonzero" fill-opacity="1" /><path clip-path="url(#clip470)" d="M287.672 1469.02 Q284.061 1469.02 282.232 1472.59 Q280.427 1476.13 280.427 1483.26 Q280.427 1490.37 282.232 1493.93 Q284.061 1497.47 287.672 1497.47 Q291.306 1497.47 293.112 1493.93 Q294.94 1490.37 294.94 1483.26 Q294.94 1476.13 293.112 1472.59 Q291.306 1469.02 287.672 1469.02 M287.672 1465.32 Q293.482 1465.32 296.538 1469.93 Q299.616 1474.51 299.616 1483.26 Q299.616 1491.99 296.538 1496.59 Q293.482 1501.18 287.672 1501.18 Q281.862 1501.18 278.783 1496.59 Q275.728 1491.99 275.728 1483.26 Q275.728 1474.51 278.783 1469.93 Q281.862 1465.32 287.672 1465.32 Z" fill="#000000" fill-rule="nonzero" fill-opacity="1" /><path clip-path="url(#clip470)" d="M629.907 1469.02 Q626.295 1469.02 624.467 1472.59 Q622.661 1476.13 622.661 1483.26 Q622.661 1490.37 624.467 1493.93 Q626.295 1497.47 629.907 1497.47 Q633.541 1497.47 635.346 1493.93 Q637.175 1490.37 637.175 1483.26 Q637.175 1476.13 635.346 1472.59 Q633.541 1469.02 629.907 1469.02 M629.907 1465.32 Q635.717 1465.32 638.772 1469.93 Q641.851 1474.51 641.851 1483.26 Q641.851 1491.99 638.772 1496.59 Q635.717 1501.18 629.907 1501.18 Q624.096 1501.18 621.018 1496.59 Q617.962 1491.99 617.962 1483.26 Q617.962 1474.51 621.018 1469.93 Q624.096 1465.32 629.907 1465.32 Z" fill="#000000" fill-rule="nonzero" fill-opacity="1" /><path clip-path="url(#clip470)" d="M650.069 1494.63 L654.953 1494.63 L654.953 1500.51 L650.069 1500.51 L650.069 1494.63 Z" fill="#000000" fill-rule="nonzero" fill-opacity="1" /><path clip-path="url(#clip470)" d="M663.957 1465.95 L686.179 1465.95 L686.179 1467.94 L673.633 1500.51 L668.749 1500.51 L680.554 1469.88 L663.957 1469.88 L663.957 1465.95 Z" fill="#000000" fill-rule="nonzero" fill-opacity="1" /><path clip-path="url(#clip470)" d="M695.346 1465.95 L713.702 1465.95 L713.702 1469.88 L699.628 1469.88 L699.628 1478.35 Q700.647 1478.01 701.665 1477.84 Q702.684 1477.66 703.702 1477.66 Q709.489 1477.66 712.869 1480.83 Q716.249 1484 716.249 1489.42 Q716.249 1495 712.777 1498.1 Q709.304 1501.18 702.985 1501.18 Q700.809 1501.18 698.54 1500.81 Q696.295 1500.44 693.888 1499.7 L693.888 1495 Q695.971 1496.13 698.193 1496.69 Q700.415 1497.24 702.892 1497.24 Q706.897 1497.24 709.235 1495.14 Q711.573 1493.03 711.573 1489.42 Q711.573 1485.81 709.235 1483.7 Q706.897 1481.59 702.892 1481.59 Q701.017 1481.59 699.142 1482.01 Q697.29 1482.43 695.346 1483.31 L695.346 1465.95 Z" fill="#000000" fill-rule="nonzero" fill-opacity="1" /><path clip-path="url(#clip470)" d="M1046.54 1469.02 Q1042.93 1469.02 1041.1 1472.59 Q1039.29 1476.13 1039.29 1483.26 Q1039.29 1490.37 1041.1 1493.93 Q1042.93 1497.47 1046.54 1497.47 Q1050.17 1497.47 1051.98 1493.93 Q1053.81 1490.37 1053.81 1483.26 Q1053.81 1476.13 1051.98 1472.59 Q1050.17 1469.02 1046.54 1469.02 M1046.54 1465.32 Q1052.35 1465.32 1055.4 1469.93 Q1058.48 1474.51 1058.48 1483.26 Q1058.48 1491.99 1055.4 1496.59 Q1052.35 1501.18 1046.54 1501.18 Q1040.73 1501.18 1037.65 1496.59 Q1034.59 1491.99 1034.59 1483.26 Q1034.59 1474.51 1037.65 1469.93 Q1040.73 1465.32 1046.54 1465.32 Z" fill="#000000" fill-rule="nonzero" fill-opacity="1" /><path clip-path="url(#clip470)" d="M1066.7 1494.63 L1071.59 1494.63 L1071.59 1500.51 L1066.7 1500.51 L1066.7 1494.63 Z" fill="#000000" fill-rule="nonzero" fill-opacity="1" /><path clip-path="url(#clip470)" d="M1091.77 1484.09 Q1088.44 1484.09 1086.52 1485.88 Q1084.62 1487.66 1084.62 1490.78 Q1084.62 1493.91 1086.52 1495.69 Q1088.44 1497.47 1091.77 1497.47 Q1095.1 1497.47 1097.02 1495.69 Q1098.95 1493.89 1098.95 1490.78 Q1098.95 1487.66 1097.02 1485.88 Q1095.13 1484.09 1091.77 1484.09 M1087.09 1482.1 Q1084.09 1481.36 1082.4 1479.3 Q1080.73 1477.24 1080.73 1474.28 Q1080.73 1470.14 1083.67 1467.73 Q1086.63 1465.32 1091.77 1465.32 Q1096.93 1465.32 1099.87 1467.73 Q1102.81 1470.14 1102.81 1474.28 Q1102.81 1477.24 1101.12 1479.3 Q1099.46 1481.36 1096.47 1482.1 Q1099.85 1482.89 1101.72 1485.18 Q1103.62 1487.47 1103.62 1490.78 Q1103.62 1495.81 1100.54 1498.49 Q1097.49 1501.18 1091.77 1501.18 Q1086.05 1501.18 1082.97 1498.49 Q1079.92 1495.81 1079.92 1490.78 Q1079.92 1487.47 1081.82 1485.18 Q1083.71 1482.89 1087.09 1482.1 M1085.38 1474.72 Q1085.38 1477.4 1087.05 1478.91 Q1088.74 1480.41 1091.77 1480.41 Q1094.78 1480.41 1096.47 1478.91 Q1098.18 1477.4 1098.18 1474.72 Q1098.18 1472.03 1096.47 1470.53 Q1094.78 1469.02 1091.77 1469.02 Q1088.74 1469.02 1087.05 1470.53 Q1085.38 1472.03 1085.38 1474.72 Z" fill="#000000" fill-rule="nonzero" fill-opacity="1" /><path clip-path="url(#clip470)" d="M1121.93 1469.02 Q1118.32 1469.02 1116.49 1472.59 Q1114.69 1476.13 1114.69 1483.26 Q1114.69 1490.37 1116.49 1493.93 Q1118.32 1497.47 1121.93 1497.47 Q1125.57 1497.47 1127.37 1493.93 Q1129.2 1490.37 1129.2 1483.26 Q1129.2 1476.13 1127.37 1472.59 Q1125.57 1469.02 1121.93 1469.02 M1121.93 1465.32 Q1127.74 1465.32 1130.8 1469.93 Q1133.88 1474.51 1133.88 1483.26 Q1133.88 1491.99 1130.8 1496.59 Q1127.74 1501.18 1121.93 1501.18 Q1116.12 1501.18 1113.04 1496.59 Q1109.99 1491.99 1109.99 1483.26 Q1109.99 1474.51 1113.04 1469.93 Q1116.12 1465.32 1121.93 1465.32 Z" fill="#000000" fill-rule="nonzero" fill-opacity="1" /><path clip-path="url(#clip470)" d="M1464.17 1469.02 Q1460.56 1469.02 1458.73 1472.59 Q1456.92 1476.13 1456.92 1483.26 Q1456.92 1490.37 1458.73 1493.93 Q1460.56 1497.47 1464.17 1497.47 Q1467.8 1497.47 1469.61 1493.93 Q1471.44 1490.37 1471.44 1483.26 Q1471.44 1476.13 1469.61 1472.59 Q1467.8 1469.02 1464.17 1469.02 M1464.17 1465.32 Q1469.98 1465.32 1473.03 1469.93 Q1476.11 1474.51 1476.11 1483.26 Q1476.11 1491.99 1473.03 1496.59 Q1469.98 1501.18 1464.17 1501.18 Q1458.36 1501.18 1455.28 1496.59 Q1452.22 1491.99 1452.22 1483.26 Q1452.22 1474.51 1455.28 1469.93 Q1458.36 1465.32 1464.17 1465.32 Z" fill="#000000" fill-rule="nonzero" fill-opacity="1" /><path clip-path="url(#clip470)" d="M1484.33 1494.63 L1489.21 1494.63 L1489.21 1500.51 L1484.33 1500.51 L1484.33 1494.63 Z" fill="#000000" fill-rule="nonzero" fill-opacity="1" /><path clip-path="url(#clip470)" d="M1509.4 1484.09 Q1506.06 1484.09 1504.14 1485.88 Q1502.25 1487.66 1502.25 1490.78 Q1502.25 1493.91 1504.14 1495.69 Q1506.06 1497.47 1509.4 1497.47 Q1512.73 1497.47 1514.65 1495.69 Q1516.57 1493.89 1516.57 1490.78 Q1516.57 1487.66 1514.65 1485.88 Q1512.75 1484.09 1509.4 1484.09 M1504.72 1482.1 Q1501.71 1481.36 1500.02 1479.3 Q1498.36 1477.24 1498.36 1474.28 Q1498.36 1470.14 1501.3 1467.73 Q1504.26 1465.32 1509.4 1465.32 Q1514.56 1465.32 1517.5 1467.73 Q1520.44 1470.14 1520.44 1474.28 Q1520.44 1477.24 1518.75 1479.3 Q1517.08 1481.36 1514.1 1482.1 Q1517.48 1482.89 1519.35 1485.18 Q1521.25 1487.47 1521.25 1490.78 Q1521.25 1495.81 1518.17 1498.49 Q1515.12 1501.18 1509.4 1501.18 Q1503.68 1501.18 1500.6 1498.49 Q1497.55 1495.81 1497.55 1490.78 Q1497.55 1487.47 1499.44 1485.18 Q1501.34 1482.89 1504.72 1482.1 M1503.01 1474.72 Q1503.01 1477.4 1504.68 1478.91 Q1506.37 1480.41 1509.4 1480.41 Q1512.41 1480.41 1514.1 1478.91 Q1515.81 1477.4 1515.81 1474.72 Q1515.81 1472.03 1514.1 1470.53 Q1512.41 1469.02 1509.4 1469.02 Q1506.37 1469.02 1504.68 1470.53 Q1503.01 1472.03 1503.01 1474.72 Z" fill="#000000" fill-rule="nonzero" fill-opacity="1" /><path clip-path="url(#clip470)" d="M1529.61 1465.95 L1547.96 1465.95 L1547.96 1469.88 L1533.89 1469.88 L1533.89 1478.35 Q1534.91 1478.01 1535.93 1477.84 Q1536.94 1477.66 1537.96 1477.66 Q1543.75 1477.66 1547.13 1480.83 Q1550.51 1484 1550.51 1489.42 Q1550.51 1495 1547.04 1498.1 Q1543.56 1501.18 1537.25 1501.18 Q1535.07 1501.18 1532.8 1500.81 Q1530.56 1500.44 1528.15 1499.7 L1528.15 1495 Q1530.23 1496.13 1532.45 1496.69 Q1534.68 1497.24 1537.15 1497.24 Q1541.16 1497.24 1543.5 1495.14 Q1545.83 1493.03 1545.83 1489.42 Q1545.83 1485.81 1543.5 1483.7 Q1541.16 1481.59 1537.15 1481.59 Q1535.28 1481.59 1533.4 1482.01 Q1531.55 1482.43 1529.61 1483.31 L1529.61 1465.95 Z" fill="#000000" fill-rule="nonzero" fill-opacity="1" /><path clip-path="url(#clip470)" d="M1880.8 1469.02 Q1877.19 1469.02 1875.36 1472.59 Q1873.55 1476.13 1873.55 1483.26 Q1873.55 1490.37 1875.36 1493.93 Q1877.19 1497.47 1880.8 1497.47 Q1884.43 1497.47 1886.24 1493.93 Q1888.07 1490.37 1888.07 1483.26 Q1888.07 1476.13 1886.24 1472.59 Q1884.43 1469.02 1880.8 1469.02 M1880.8 1465.32 Q1886.61 1465.32 1889.66 1469.93 Q1892.74 1474.51 1892.74 1483.26 Q1892.74 1491.99 1889.66 1496.59 Q1886.61 1501.18 1880.8 1501.18 Q1874.99 1501.18 1871.91 1496.59 Q1868.85 1491.99 1868.85 1483.26 Q1868.85 1474.51 1871.91 1469.93 Q1874.99 1465.32 1880.8 1465.32 Z" fill="#000000" fill-rule="nonzero" fill-opacity="1" /><path clip-path="url(#clip470)" d="M1900.96 1494.63 L1905.85 1494.63 L1905.85 1500.51 L1900.96 1500.51 L1900.96 1494.63 Z" fill="#000000" fill-rule="nonzero" fill-opacity="1" /><path clip-path="url(#clip470)" d="M1916.17 1499.79 L1916.17 1495.53 Q1917.93 1496.36 1919.73 1496.8 Q1921.54 1497.24 1923.28 1497.24 Q1927.91 1497.24 1930.34 1494.14 Q1932.79 1491.01 1933.14 1484.67 Q1931.79 1486.66 1929.73 1487.73 Q1927.67 1488.79 1925.17 1488.79 Q1919.99 1488.79 1916.96 1485.67 Q1913.95 1482.52 1913.95 1477.08 Q1913.95 1471.76 1917.1 1468.54 Q1920.24 1465.32 1925.47 1465.32 Q1931.47 1465.32 1934.62 1469.93 Q1937.79 1474.51 1937.79 1483.26 Q1937.79 1491.43 1933.9 1496.32 Q1930.04 1501.18 1923.48 1501.18 Q1921.72 1501.18 1919.92 1500.83 Q1918.11 1500.48 1916.17 1499.79 M1925.47 1485.14 Q1928.62 1485.14 1930.45 1482.98 Q1932.3 1480.83 1932.3 1477.08 Q1932.3 1473.35 1930.45 1471.2 Q1928.62 1469.02 1925.47 1469.02 Q1922.33 1469.02 1920.47 1471.2 Q1918.65 1473.35 1918.65 1477.08 Q1918.65 1480.83 1920.47 1482.98 Q1922.33 1485.14 1925.47 1485.14 Z" fill="#000000" fill-rule="nonzero" fill-opacity="1" /><path clip-path="url(#clip470)" d="M1956.19 1469.02 Q1952.58 1469.02 1950.75 1472.59 Q1948.95 1476.13 1948.95 1483.26 Q1948.95 1490.37 1950.75 1493.93 Q1952.58 1497.47 1956.19 1497.47 Q1959.83 1497.47 1961.63 1493.93 Q1963.46 1490.37 1963.46 1483.26 Q1963.46 1476.13 1961.63 1472.59 Q1959.83 1469.02 1956.19 1469.02 M1956.19 1465.32 Q1962 1465.32 1965.06 1469.93 Q1968.14 1474.51 1968.14 1483.26 Q1968.14 1491.99 1965.06 1496.59 Q1962 1501.18 1956.19 1501.18 Q1950.38 1501.18 1947.3 1496.59 Q1944.25 1491.99 1944.25 1483.26 Q1944.25 1474.51 1947.3 1469.93 Q1950.38 1465.32 1956.19 1465.32 Z" fill="#000000" fill-rule="nonzero" fill-opacity="1" /><path clip-path="url(#clip470)" d="M2298.43 1469.02 Q2294.82 1469.02 2292.99 1472.59 Q2291.18 1476.13 2291.18 1483.26 Q2291.18 1490.37 2292.99 1493.93 Q2294.82 1497.47 2298.43 1497.47 Q2302.06 1497.47 2303.87 1493.93 Q2305.7 1490.37 2305.7 1483.26 Q2305.7 1476.13 2303.87 1472.59 Q2302.06 1469.02 2298.43 1469.02 M2298.43 1465.32 Q2304.24 1465.32 2307.29 1469.93 Q2310.37 1474.51 2310.37 1483.26 Q2310.37 1491.99 2307.29 1496.59 Q2304.24 1501.18 2298.43 1501.18 Q2292.62 1501.18 2289.54 1496.59 Q2286.48 1491.99 2286.48 1483.26 Q2286.48 1474.51 2289.54 1469.93 Q2292.62 1465.32 2298.43 1465.32 Z" fill="#000000" fill-rule="nonzero" fill-opacity="1" /><path clip-path="url(#clip470)" d="M2318.59 1494.63 L2323.47 1494.63 L2323.47 1500.51 L2318.59 1500.51 L2318.59 1494.63 Z" fill="#000000" fill-rule="nonzero" fill-opacity="1" /><path clip-path="url(#clip470)" d="M2333.8 1499.79 L2333.8 1495.53 Q2335.56 1496.36 2337.36 1496.8 Q2339.17 1497.24 2340.9 1497.24 Q2345.53 1497.24 2347.96 1494.14 Q2350.42 1491.01 2350.76 1484.67 Q2349.42 1486.66 2347.36 1487.73 Q2345.3 1488.79 2342.8 1488.79 Q2337.62 1488.79 2334.58 1485.67 Q2331.57 1482.52 2331.57 1477.08 Q2331.57 1471.76 2334.72 1468.54 Q2337.87 1465.32 2343.1 1465.32 Q2349.1 1465.32 2352.25 1469.93 Q2355.42 1474.51 2355.42 1483.26 Q2355.42 1491.43 2351.53 1496.32 Q2347.66 1501.18 2341.11 1501.18 Q2339.35 1501.18 2337.55 1500.83 Q2335.74 1500.48 2333.8 1499.79 M2343.1 1485.14 Q2346.25 1485.14 2348.08 1482.98 Q2349.93 1480.83 2349.93 1477.08 Q2349.93 1473.35 2348.08 1471.2 Q2346.25 1469.02 2343.1 1469.02 Q2339.95 1469.02 2338.1 1471.2 Q2336.27 1473.35 2336.27 1477.08 Q2336.27 1480.83 2338.1 1482.98 Q2339.95 1485.14 2343.1 1485.14 Z" fill="#000000" fill-rule="nonzero" fill-opacity="1" /><path clip-path="url(#clip470)" d="M2363.87 1465.95 L2382.22 1465.95 L2382.22 1469.88 L2368.15 1469.88 L2368.15 1478.35 Q2369.17 1478.01 2370.19 1477.84 Q2371.2 1477.66 2372.22 1477.66 Q2378.01 1477.66 2381.39 1480.83 Q2384.77 1484 2384.77 1489.42 Q2384.77 1495 2381.3 1498.1 Q2377.82 1501.18 2371.51 1501.18 Q2369.33 1501.18 2367.06 1500.81 Q2364.82 1500.44 2362.41 1499.7 L2362.41 1495 Q2364.49 1496.13 2366.71 1496.69 Q2368.94 1497.24 2371.41 1497.24 Q2375.42 1497.24 2377.76 1495.14 Q2380.09 1493.03 2380.09 1489.42 Q2380.09 1485.81 2377.76 1483.7 Q2375.42 1481.59 2371.41 1481.59 Q2369.54 1481.59 2367.66 1482.01 Q2365.81 1482.43 2363.87 1483.31 L2363.87 1465.95 Z" fill="#000000" fill-rule="nonzero" fill-opacity="1" /><path clip-path="url(#clip470)" d="M1516.29 1564.25 L1516.29 1599.33 L1510.44 1599.33 L1510.44 1564.44 Q1510.44 1559.38 1508.46 1556.87 Q1506.49 1554.35 1502.54 1554.35 Q1497.8 1554.35 1495.06 1557.38 Q1492.33 1560.4 1492.33 1565.62 L1492.33 1585.77 L1486.44 1585.77 L1486.44 1550.12 L1492.33 1550.12 L1492.33 1555.66 Q1494.43 1552.45 1497.26 1550.85 Q1500.12 1549.26 1503.85 1549.26 Q1509.99 1549.26 1513.14 1553.05 Q1516.29 1556.87 1516.29 1564.25 Z" fill="#000000" fill-rule="nonzero" fill-opacity="1" /><polyline clip-path="url(#clip470)" style="stroke:#000000; stroke-linecap:round; stroke-linejoin:round; stroke-width:4; stroke-opacity:1; fill:none" points="249.975,1434.91 249.975,114.832 "/>
<polyline clip-path="url(#clip470)" style="stroke:#000000; stroke-linecap:round; stroke-linejoin:round; stroke-width:4; stroke-opacity:1; fill:none" points="249.975,1230.71 268.873,1230.71 "/>
<polyline clip-path="url(#clip470)" style="stroke:#000000; stroke-linecap:round; stroke-linejoin:round; stroke-width:4; stroke-opacity:1; fill:none" points="249.975,668.519 268.873,668.519 "/>
<path clip-path="url(#clip470)" d="M106.143 1250.5 L113.782 1250.5 L113.782 1224.14 L105.472 1225.81 L105.472 1221.55 L113.735 1219.88 L118.411 1219.88 L118.411 1250.5 L126.05 1250.5 L126.05 1254.44 L106.143 1254.44 L106.143 1250.5 Z" fill="#000000" fill-rule="nonzero" fill-opacity="1" /><path clip-path="url(#clip470)" d="M145.495 1222.96 Q141.883 1222.96 140.055 1226.52 Q138.249 1230.07 138.249 1237.19 Q138.249 1244.3 140.055 1247.87 Q141.883 1251.41 145.495 1251.41 Q149.129 1251.41 150.934 1247.87 Q152.763 1244.3 152.763 1237.19 Q152.763 1230.07 150.934 1226.52 Q149.129 1222.96 145.495 1222.96 M145.495 1219.25 Q151.305 1219.25 154.36 1223.86 Q157.439 1228.44 157.439 1237.19 Q157.439 1245.92 154.36 1250.53 Q151.305 1255.11 145.495 1255.11 Q139.684 1255.11 136.606 1250.53 Q133.55 1245.92 133.55 1237.19 Q133.55 1228.44 136.606 1223.86 Q139.684 1219.25 145.495 1219.25 Z" fill="#000000" fill-rule="nonzero" fill-opacity="1" /><path clip-path="url(#clip470)" d="M157.439 1213.36 L181.55 1213.36 L181.55 1216.55 L157.439 1216.55 L157.439 1213.36 Z" fill="#000000" fill-rule="nonzero" fill-opacity="1" /><path clip-path="url(#clip470)" d="M200.189 1202.26 L190.597 1217.25 L200.189 1217.25 L200.189 1202.26 M199.192 1198.95 L203.969 1198.95 L203.969 1217.25 L207.975 1217.25 L207.975 1220.41 L203.969 1220.41 L203.969 1227.03 L200.189 1227.03 L200.189 1220.41 L187.513 1220.41 L187.513 1216.74 L199.192 1198.95 Z" fill="#000000" fill-rule="nonzero" fill-opacity="1" /><path clip-path="url(#clip470)" d="M107.064 688.311 L114.703 688.311 L114.703 661.945 L106.393 663.612 L106.393 659.353 L114.657 657.686 L119.333 657.686 L119.333 688.311 L126.972 688.311 L126.972 692.246 L107.064 692.246 L107.064 688.311 Z" fill="#000000" fill-rule="nonzero" fill-opacity="1" /><path clip-path="url(#clip470)" d="M146.416 660.765 Q142.805 660.765 140.976 664.33 Q139.171 667.871 139.171 675.001 Q139.171 682.107 140.976 685.672 Q142.805 689.214 146.416 689.214 Q150.05 689.214 151.856 685.672 Q153.685 682.107 153.685 675.001 Q153.685 667.871 151.856 664.33 Q150.05 660.765 146.416 660.765 M146.416 657.061 Q152.226 657.061 155.282 661.668 Q158.36 666.251 158.36 675.001 Q158.36 683.728 155.282 688.334 Q152.226 692.917 146.416 692.917 Q140.606 692.917 137.527 688.334 Q134.472 683.728 134.472 675.001 Q134.472 666.251 137.527 661.668 Q140.606 657.061 146.416 657.061 Z" fill="#000000" fill-rule="nonzero" fill-opacity="1" /><path clip-path="url(#clip470)" d="M158.36 651.163 L182.472 651.163 L182.472 654.36 L158.36 654.36 L158.36 651.163 Z" fill="#000000" fill-rule="nonzero" fill-opacity="1" /><path clip-path="url(#clip470)" d="M202.183 649.696 Q204.91 650.279 206.433 652.122 Q207.975 653.965 207.975 656.673 Q207.975 660.83 205.117 663.105 Q202.258 665.381 196.992 665.381 Q195.224 665.381 193.343 665.024 Q191.481 664.685 189.487 663.989 L189.487 660.322 Q191.067 661.243 192.948 661.714 Q194.829 662.184 196.879 662.184 Q200.452 662.184 202.314 660.773 Q204.195 659.363 204.195 656.673 Q204.195 654.191 202.446 652.799 Q200.716 651.388 197.612 651.388 L194.34 651.388 L194.34 648.266 L197.763 648.266 Q200.565 648.266 202.051 647.156 Q203.537 646.028 203.537 643.922 Q203.537 641.759 201.995 640.611 Q200.471 639.445 197.612 639.445 Q196.051 639.445 194.265 639.784 Q192.478 640.122 190.334 640.837 L190.334 637.452 Q192.497 636.85 194.377 636.549 Q196.277 636.248 197.951 636.248 Q202.277 636.248 204.797 638.223 Q207.317 640.179 207.317 643.527 Q207.317 645.859 205.982 647.476 Q204.646 649.075 202.183 649.696 Z" fill="#000000" fill-rule="nonzero" fill-opacity="1" /><path clip-path="url(#clip470)" d="M6.97912 936.558 L24.8349 936.558 L24.8349 928.473 Q24.8349 923.986 22.5114 921.535 Q20.188 919.084 15.8911 919.084 Q11.6261 919.084 9.30261 921.535 Q6.97912 923.986 6.97912 928.473 L6.97912 936.558 M1.69559 942.987 L1.69559 928.473 Q1.69559 920.484 5.32404 916.41 Q8.92066 912.304 15.8911 912.304 Q22.9252 912.304 26.5218 916.41 Q30.1185 920.484 30.1185 928.473 L30.1185 936.558 L49.2156 936.558 L49.2156 942.987 L1.69559 942.987 Z" fill="#000000" fill-rule="nonzero" fill-opacity="1" /><path clip-path="url(#clip470)" d="M19.0421 884.423 Q18.4692 885.409 18.2146 886.587 Q17.9281 887.733 17.9281 889.133 Q17.9281 894.099 21.1746 896.772 Q24.3893 899.414 30.4368 899.414 L49.2156 899.414 L49.2156 905.302 L13.5676 905.302 L13.5676 899.414 L19.1058 899.414 Q15.8593 897.568 14.2997 894.608 Q12.7083 891.648 12.7083 887.415 Q12.7083 886.81 12.8037 886.078 Q12.8674 885.346 13.0265 884.454 L19.0421 884.423 Z" fill="#000000" fill-rule="nonzero" fill-opacity="1" /><path clip-path="url(#clip470)" d="M17.6735 865.898 Q17.6735 870.609 21.3656 873.346 Q25.0259 876.084 31.4234 876.084 Q37.821 876.084 41.5131 873.378 Q45.1734 870.641 45.1734 865.898 Q45.1734 861.22 41.4813 858.482 Q37.7891 855.745 31.4234 855.745 Q25.0896 855.745 21.3974 858.482 Q17.6735 861.22 17.6735 865.898 M12.7083 865.898 Q12.7083 858.26 17.6735 853.899 Q22.6388 849.539 31.4234 849.539 Q40.1763 849.539 45.1734 853.899 Q50.1386 858.26 50.1386 865.898 Q50.1386 873.569 45.1734 877.93 Q40.1763 882.258 31.4234 882.258 Q22.6388 882.258 17.6735 877.93 Q12.7083 873.569 12.7083 865.898 Z" fill="#000000" fill-rule="nonzero" fill-opacity="1" /><path clip-path="url(#clip470)" d="M31.4234 814.241 Q24.9622 814.241 21.302 816.914 Q17.6099 819.556 17.6099 824.203 Q17.6099 828.85 21.302 831.524 Q24.9622 834.165 31.4234 834.165 Q37.8846 834.165 41.5767 831.524 Q45.237 828.85 45.237 824.203 Q45.237 819.556 41.5767 816.914 Q37.8846 814.241 31.4234 814.241 M18.9785 834.165 Q15.7956 832.319 14.2679 829.518 Q12.7083 826.686 12.7083 822.771 Q12.7083 816.278 17.8645 812.236 Q23.0207 808.161 31.4234 808.161 Q39.8262 808.161 44.9824 812.236 Q50.1386 816.278 50.1386 822.771 Q50.1386 826.686 48.6108 829.518 Q47.0512 832.319 43.8684 834.165 L49.2156 834.165 L49.2156 840.054 L-0.309612 840.054 L-0.309612 834.165 L18.9785 834.165 Z" fill="#000000" fill-rule="nonzero" fill-opacity="1" /><path clip-path="url(#clip470)" d="M31.2961 782.253 Q31.2961 789.351 32.9194 792.088 Q34.5426 794.825 38.4575 794.825 Q41.5767 794.825 43.4228 792.788 Q45.237 790.719 45.237 787.186 Q45.237 782.317 41.7995 779.388 Q38.3302 776.428 32.6011 776.428 L31.2961 776.428 L31.2961 782.253 M28.8772 770.572 L49.2156 770.572 L49.2156 776.428 L43.8047 776.428 Q47.0512 778.434 48.6108 781.426 Q50.1386 784.417 50.1386 788.746 Q50.1386 794.221 47.0831 797.467 Q43.9957 800.682 38.8395 800.682 Q32.8239 800.682 29.7684 796.671 Q26.7128 792.629 26.7128 784.64 L26.7128 776.428 L26.1399 776.428 Q22.0977 776.428 19.9015 779.102 Q17.6735 781.744 17.6735 786.55 Q17.6735 789.605 18.4056 792.502 Q19.1376 795.398 20.6017 798.072 L15.1909 798.072 Q13.9496 794.857 13.3448 791.833 Q12.7083 788.81 12.7083 785.945 Q12.7083 778.211 16.7187 774.391 Q20.729 770.572 28.8772 770.572 Z" fill="#000000" fill-rule="nonzero" fill-opacity="1" /><path clip-path="url(#clip470)" d="M31.4234 732.919 Q24.9622 732.919 21.302 735.592 Q17.6099 738.234 17.6099 742.881 Q17.6099 747.528 21.302 750.202 Q24.9622 752.843 31.4234 752.843 Q37.8846 752.843 41.5767 750.202 Q45.237 747.528 45.237 742.881 Q45.237 738.234 41.5767 735.592 Q37.8846 732.919 31.4234 732.919 M18.9785 752.843 Q15.7956 750.997 14.2679 748.197 Q12.7083 745.364 12.7083 741.449 Q12.7083 734.956 17.8645 730.914 Q23.0207 726.84 31.4234 726.84 Q39.8262 726.84 44.9824 730.914 Q50.1386 734.956 50.1386 741.449 Q50.1386 745.364 48.6108 748.197 Q47.0512 750.997 43.8684 752.843 L49.2156 752.843 L49.2156 758.732 L-0.309612 758.732 L-0.309612 752.843 L18.9785 752.843 Z" fill="#000000" fill-rule="nonzero" fill-opacity="1" /><path clip-path="url(#clip470)" d="M13.5676 717.132 L13.5676 711.275 L49.2156 711.275 L49.2156 717.132 L13.5676 717.132 M-0.309612 717.132 L-0.309612 711.275 L7.10644 711.275 L7.10644 717.132 L-0.309612 717.132 Z" fill="#000000" fill-rule="nonzero" fill-opacity="1" /><path clip-path="url(#clip470)" d="M-0.309612 699.021 L-0.309612 693.165 L49.2156 693.165 L49.2156 699.021 L-0.309612 699.021 Z" fill="#000000" fill-rule="nonzero" fill-opacity="1" /><path clip-path="url(#clip470)" d="M13.5676 680.911 L13.5676 675.055 L49.2156 675.055 L49.2156 680.911 L13.5676 680.911 M-0.309612 680.911 L-0.309612 675.055 L7.10644 675.055 L7.10644 680.911 L-0.309612 680.911 Z" fill="#000000" fill-rule="nonzero" fill-opacity="1" /><path clip-path="url(#clip470)" d="M3.44616 657.008 L13.5676 657.008 L13.5676 644.945 L18.1191 644.945 L18.1191 657.008 L37.4709 657.008 Q41.8314 657.008 43.0727 655.83 Q44.314 654.621 44.314 650.96 L44.314 644.945 L49.2156 644.945 L49.2156 650.96 Q49.2156 657.74 46.7011 660.318 Q44.1548 662.896 37.4709 662.896 L18.1191 662.896 L18.1191 667.193 L13.5676 667.193 L13.5676 662.896 L3.44616 662.896 L3.44616 657.008 Z" fill="#000000" fill-rule="nonzero" fill-opacity="1" /><path clip-path="url(#clip470)" d="M52.5258 622.41 Q58.8915 624.893 60.833 627.248 Q62.7745 629.603 62.7745 633.55 L62.7745 638.229 L57.8729 638.229 L57.8729 634.791 Q57.8729 632.372 56.7271 631.036 Q55.5813 629.699 51.3163 628.076 L48.6427 627.025 L13.5676 641.444 L13.5676 635.237 L41.4494 624.097 L13.5676 612.957 L13.5676 606.751 L52.5258 622.41 Z" fill="#000000" fill-rule="nonzero" fill-opacity="1" /><path clip-path="url(#clip470)" d="M1104.9 16.7545 L1104.9 25.383 Q1100.77 21.5346 1096.07 19.6307 Q1091.41 17.7268 1086.15 17.7268 Q1075.78 17.7268 1070.27 24.0867 Q1064.76 30.4061 1064.76 42.3968 Q1064.76 54.3469 1070.27 60.7069 Q1075.78 67.0263 1086.15 67.0263 Q1091.41 67.0263 1096.07 65.1223 Q1100.77 63.2184 1104.9 59.3701 L1104.9 67.9175 Q1100.61 70.8341 1095.79 72.2924 Q1091.01 73.7508 1085.66 73.7508 Q1071.93 73.7508 1064.03 65.3654 Q1056.13 56.9395 1056.13 42.3968 Q1056.13 27.8135 1064.03 19.4281 Q1071.93 11.0023 1085.66 11.0023 Q1091.09 11.0023 1095.87 12.4606 Q1100.69 13.8784 1104.9 16.7545 Z" fill="#000000" fill-rule="nonzero" fill-opacity="1" /><path clip-path="url(#clip470)" d="M1154.93 45.1919 L1154.93 72.576 L1147.48 72.576 L1147.48 45.4349 Q1147.48 38.994 1144.97 35.7938 Q1142.46 32.5936 1137.43 32.5936 Q1131.4 32.5936 1127.91 36.4419 Q1124.43 40.2903 1124.43 46.9338 L1124.43 72.576 L1116.93 72.576 L1116.93 9.54393 L1124.43 9.54393 L1124.43 34.2544 Q1127.1 30.163 1130.71 28.1376 Q1134.35 26.1121 1139.09 26.1121 Q1146.91 26.1121 1150.92 30.9732 Q1154.93 35.7938 1154.93 45.1919 Z" fill="#000000" fill-rule="nonzero" fill-opacity="1" /><path clip-path="url(#clip470)" d="M1190.42 49.7694 Q1181.38 49.7694 1177.9 51.8354 Q1174.42 53.9013 1174.42 58.8839 Q1174.42 62.8538 1177.01 65.2034 Q1179.64 67.5124 1184.14 67.5124 Q1190.34 67.5124 1194.06 63.1374 Q1197.83 58.7219 1197.83 51.4303 L1197.83 49.7694 L1190.42 49.7694 M1205.29 46.6907 L1205.29 72.576 L1197.83 72.576 L1197.83 65.6895 Q1195.28 69.8214 1191.47 71.8063 Q1187.66 73.7508 1182.15 73.7508 Q1175.19 73.7508 1171.05 69.8619 Q1166.96 65.9325 1166.96 59.3701 Q1166.96 51.7138 1172.07 47.825 Q1177.21 43.9361 1187.38 43.9361 L1197.83 43.9361 L1197.83 43.2069 Q1197.83 38.0623 1194.43 35.2672 Q1191.07 32.4315 1184.95 32.4315 Q1181.06 32.4315 1177.37 33.3632 Q1173.69 34.295 1170.29 36.1584 L1170.29 29.2718 Q1174.38 27.692 1178.23 26.9223 Q1182.07 26.1121 1185.72 26.1121 Q1195.56 26.1121 1200.42 31.2163 Q1205.29 36.3204 1205.29 46.6907 Z" fill="#000000" fill-rule="nonzero" fill-opacity="1" /><path clip-path="url(#clip470)" d="M1220.64 27.2059 L1228.09 27.2059 L1228.09 72.576 L1220.64 72.576 L1220.64 27.2059 M1220.64 9.54393 L1228.09 9.54393 L1228.09 18.9825 L1220.64 18.9825 L1220.64 9.54393 Z" fill="#000000" fill-rule="nonzero" fill-opacity="1" /><path clip-path="url(#clip470)" d="M1281.4 45.1919 L1281.4 72.576 L1273.95 72.576 L1273.95 45.4349 Q1273.95 38.994 1271.44 35.7938 Q1268.92 32.5936 1263.9 32.5936 Q1257.87 32.5936 1254.38 36.4419 Q1250.9 40.2903 1250.9 46.9338 L1250.9 72.576 L1243.4 72.576 L1243.4 27.2059 L1250.9 27.2059 L1250.9 34.2544 Q1253.57 30.163 1257.18 28.1376 Q1260.82 26.1121 1265.56 26.1121 Q1273.38 26.1121 1277.39 30.9732 Q1281.4 35.7938 1281.4 45.1919 Z" fill="#000000" fill-rule="nonzero" fill-opacity="1" /><path clip-path="url(#clip470)" d="M1320.05 12.096 L1328.84 12.096 L1343.87 34.5785 L1358.98 12.096 L1367.77 12.096 L1348.32 41.141 L1369.06 72.576 L1360.27 72.576 L1343.26 46.8528 L1326.12 72.576 L1317.29 72.576 L1338.88 40.2903 L1320.05 12.096 Z" fill="#000000" fill-rule="nonzero" fill-opacity="1" /><path clip-path="url(#clip470)" d="M1406.17 12.096 L1444.41 12.096 L1444.41 18.9825 L1414.35 18.9825 L1414.35 36.8875 L1443.15 36.8875 L1443.15 43.7741 L1414.35 43.7741 L1414.35 65.6895 L1445.14 65.6895 L1445.14 72.576 L1406.17 72.576 L1406.17 12.096 Z" fill="#000000" fill-rule="nonzero" fill-opacity="1" /><path clip-path="url(#clip470)" d="M1484.55 34.1734 Q1483.3 33.4443 1481.8 33.1202 Q1480.34 32.7556 1478.56 32.7556 Q1472.24 32.7556 1468.84 36.8875 Q1465.47 40.9789 1465.47 48.6757 L1465.47 72.576 L1457.98 72.576 L1457.98 27.2059 L1465.47 27.2059 L1465.47 34.2544 Q1467.82 30.1225 1471.59 28.1376 Q1475.36 26.1121 1480.75 26.1121 Q1481.52 26.1121 1482.45 26.2337 Q1483.38 26.3147 1484.51 26.5172 L1484.55 34.1734 Z" fill="#000000" fill-rule="nonzero" fill-opacity="1" /><path clip-path="url(#clip470)" d="M1517.2 34.1734 Q1515.95 33.4443 1514.45 33.1202 Q1512.99 32.7556 1511.21 32.7556 Q1504.89 32.7556 1501.49 36.8875 Q1498.12 40.9789 1498.12 48.6757 L1498.12 72.576 L1490.63 72.576 L1490.63 27.2059 L1498.12 27.2059 L1498.12 34.2544 Q1500.47 30.1225 1504.24 28.1376 Q1508.01 26.1121 1513.4 26.1121 Q1514.17 26.1121 1515.1 26.2337 Q1516.03 26.3147 1517.16 26.5172 L1517.2 34.1734 Z" fill="#000000" fill-rule="nonzero" fill-opacity="1" /><path clip-path="url(#clip470)" d="M1540.78 32.4315 Q1534.79 32.4315 1531.3 37.1306 Q1527.82 41.7891 1527.82 49.9314 Q1527.82 58.0738 1531.26 62.7728 Q1534.75 67.4314 1540.78 67.4314 Q1546.74 67.4314 1550.22 62.7323 Q1553.7 58.0333 1553.7 49.9314 Q1553.7 41.8701 1550.22 37.1711 Q1546.74 32.4315 1540.78 32.4315 M1540.78 26.1121 Q1550.5 26.1121 1556.05 32.4315 Q1561.6 38.7509 1561.6 49.9314 Q1561.6 61.0714 1556.05 67.4314 Q1550.5 73.7508 1540.78 73.7508 Q1531.02 73.7508 1525.47 67.4314 Q1519.96 61.0714 1519.96 49.9314 Q1519.96 38.7509 1525.47 32.4315 Q1531.02 26.1121 1540.78 26.1121 Z" fill="#000000" fill-rule="nonzero" fill-opacity="1" /><path clip-path="url(#clip470)" d="M1600.25 34.1734 Q1598.99 33.4443 1597.49 33.1202 Q1596.04 32.7556 1594.25 32.7556 Q1587.93 32.7556 1584.53 36.8875 Q1581.17 40.9789 1581.17 48.6757 L1581.17 72.576 L1573.67 72.576 L1573.67 27.2059 L1581.17 27.2059 L1581.17 34.2544 Q1583.52 30.1225 1587.29 28.1376 Q1591.05 26.1121 1596.44 26.1121 Q1597.21 26.1121 1598.14 26.2337 Q1599.07 26.3147 1600.21 26.5172 L1600.25 34.1734 Z" fill="#000000" fill-rule="nonzero" fill-opacity="1" /><path clip-path="url(#clip470)" d="M1608.51 62.2867 L1617.06 62.2867 L1617.06 72.576 L1608.51 72.576 L1608.51 62.2867 M1608.51 29.6769 L1617.06 29.6769 L1617.06 39.9662 L1608.51 39.9662 L1608.51 29.6769 Z" fill="#000000" fill-rule="nonzero" fill-opacity="1" /><path clip-path="url(#clip470)" d="M1682.04 67.4314 Q1687.38 67.4719 1690.58 70.51 Q1693.99 73.7103 1693.99 78.5713 Q1693.99 83.2299 1690.99 86.4706 Q1687.75 89.9949 1681.14 89.9949 Q1681.14 86.9567 1681.14 83.878 Q1683.94 84.0806 1685.64 82.2982 Q1686.94 80.8804 1686.94 79.3815 Q1686.94 77.2345 1685.64 75.4521 Q1684.39 73.7508 1682.04 73.7508 Q1657.49 73.7508 1657.45 50.9442 Q1657.45 31.0137 1680.58 17.0381 L1659.03 17.0381 L1659.03 9.54393 L1694.27 9.54393 L1694.27 17.0381 Q1664.94 31.7834 1664.94 50.9442 Q1664.94 67.4314 1682.04 67.4314 Z" fill="#000000" fill-rule="nonzero" fill-opacity="1" /><path clip-path="url(#clip470)" d="M1733.4 34.9026 L1785.33 34.9026 L1785.33 41.7081 L1733.4 41.7081 L1733.4 34.9026 M1733.4 51.4303 L1785.33 51.4303 L1785.33 58.3168 L1733.4 58.3168 L1733.4 51.4303 Z" fill="#000000" fill-rule="nonzero" fill-opacity="1" /><path clip-path="url(#clip470)" d="M1846.87 17.4837 Q1840.55 17.4837 1837.35 23.7221 Q1834.19 29.92 1834.19 42.3968 Q1834.19 54.833 1837.35 61.0714 Q1840.55 67.2693 1846.87 67.2693 Q1853.23 67.2693 1856.39 61.0714 Q1859.59 54.833 1859.59 42.3968 Q1859.59 29.92 1856.39 23.7221 Q1853.23 17.4837 1846.87 17.4837 M1846.87 11.0023 Q1857.04 11.0023 1862.38 19.0636 Q1867.77 27.0843 1867.77 42.3968 Q1867.77 57.6687 1862.38 65.73 Q1857.04 73.7508 1846.87 73.7508 Q1836.7 73.7508 1831.31 65.73 Q1825.96 57.6687 1825.96 42.3968 Q1825.96 27.0843 1831.31 19.0636 Q1836.7 11.0023 1846.87 11.0023 Z" fill="#000000" fill-rule="nonzero" fill-opacity="1" /><path clip-path="url(#clip470)" d="M1882.15 62.2867 L1890.7 62.2867 L1890.7 72.576 L1882.15 72.576 L1882.15 62.2867 Z" fill="#000000" fill-rule="nonzero" fill-opacity="1" /><path clip-path="url(#clip470)" d="M1908.77 71.3202 L1908.77 63.8666 Q1911.84 65.3249 1915 66.0946 Q1918.16 66.8642 1921.2 66.8642 Q1929.3 66.8642 1933.56 61.436 Q1937.85 55.9673 1938.46 44.8678 Q1936.11 48.3516 1932.5 50.215 Q1928.9 52.0784 1924.52 52.0784 Q1915.45 52.0784 1910.14 46.6097 Q1904.88 41.1005 1904.88 31.5808 Q1904.88 22.2638 1910.39 16.633 Q1915.89 11.0023 1925.05 11.0023 Q1935.54 11.0023 1941.05 19.0636 Q1946.6 27.0843 1946.6 42.3968 Q1946.6 56.6965 1939.8 65.2439 Q1933.03 73.7508 1921.57 73.7508 Q1918.49 73.7508 1915.33 73.1431 Q1912.17 72.5355 1908.77 71.3202 M1925.05 45.678 Q1930.56 45.678 1933.76 41.9107 Q1937 38.1433 1937 31.5808 Q1937 25.0589 1933.76 21.2916 Q1930.56 17.4837 1925.05 17.4837 Q1919.54 17.4837 1916.3 21.2916 Q1913.1 25.0589 1913.1 31.5808 Q1913.1 38.1433 1916.3 41.9107 Q1919.54 45.678 1925.05 45.678 Z" fill="#000000" fill-rule="nonzero" fill-opacity="1" /><polyline clip-path="url(#clip472)" style="stroke:#009af9; stroke-linecap:round; stroke-linejoin:round; stroke-width:4; stroke-opacity:1; fill:none" points="249.975,152.193 333.401,163.553 416.827,175.165 500.253,187.052 583.679,199.237 667.105,211.748 750.531,224.615 833.958,237.872 917.384,251.558 1000.81,265.716 1084.24,280.397 1167.66,295.658 1251.09,311.566 1334.51,328.199 1417.94,345.649 1501.37,364.027 1584.79,383.464 1668.22,404.123 1751.64,426.204 1835.07,449.96 1918.5,475.718 2001.92,503.903 2085.35,535.098 2168.77,570.113 2252.2,610.14 2335.63,657.021 2419.05,713.846 2502.48,786.407 2585.9,887.704 2669.33,1059.22 "/>
<circle clip-path="url(#clip472)" cx="249.975" cy="152.193" r="14.4" fill="#009af9" fill-rule="evenodd" fill-opacity="1" stroke="#000000" stroke-opacity="1" stroke-width="3.2"/>
<circle clip-path="url(#clip472)" cx="333.401" cy="163.553" r="14.4" fill="#009af9" fill-rule="evenodd" fill-opacity="1" stroke="#000000" stroke-opacity="1" stroke-width="3.2"/>
<circle clip-path="url(#clip472)" cx="416.827" cy="175.165" r="14.4" fill="#009af9" fill-rule="evenodd" fill-opacity="1" stroke="#000000" stroke-opacity="1" stroke-width="3.2"/>
<circle clip-path="url(#clip472)" cx="500.253" cy="187.052" r="14.4" fill="#009af9" fill-rule="evenodd" fill-opacity="1" stroke="#000000" stroke-opacity="1" stroke-width="3.2"/>
<circle clip-path="url(#clip472)" cx="583.679" cy="199.237" r="14.4" fill="#009af9" fill-rule="evenodd" fill-opacity="1" stroke="#000000" stroke-opacity="1" stroke-width="3.2"/>
<circle clip-path="url(#clip472)" cx="667.105" cy="211.748" r="14.4" fill="#009af9" fill-rule="evenodd" fill-opacity="1" stroke="#000000" stroke-opacity="1" stroke-width="3.2"/>
<circle clip-path="url(#clip472)" cx="750.531" cy="224.615" r="14.4" fill="#009af9" fill-rule="evenodd" fill-opacity="1" stroke="#000000" stroke-opacity="1" stroke-width="3.2"/>
<circle clip-path="url(#clip472)" cx="833.958" cy="237.872" r="14.4" fill="#009af9" fill-rule="evenodd" fill-opacity="1" stroke="#000000" stroke-opacity="1" stroke-width="3.2"/>
<circle clip-path="url(#clip472)" cx="917.384" cy="251.558" r="14.4" fill="#009af9" fill-rule="evenodd" fill-opacity="1" stroke="#000000" stroke-opacity="1" stroke-width="3.2"/>
<circle clip-path="url(#clip472)" cx="1000.81" cy="265.716" r="14.4" fill="#009af9" fill-rule="evenodd" fill-opacity="1" stroke="#000000" stroke-opacity="1" stroke-width="3.2"/>
<circle clip-path="url(#clip472)" cx="1084.24" cy="280.397" r="14.4" fill="#009af9" fill-rule="evenodd" fill-opacity="1" stroke="#000000" stroke-opacity="1" stroke-width="3.2"/>
<circle clip-path="url(#clip472)" cx="1167.66" cy="295.658" r="14.4" fill="#009af9" fill-rule="evenodd" fill-opacity="1" stroke="#000000" stroke-opacity="1" stroke-width="3.2"/>
<circle clip-path="url(#clip472)" cx="1251.09" cy="311.566" r="14.4" fill="#009af9" fill-rule="evenodd" fill-opacity="1" stroke="#000000" stroke-opacity="1" stroke-width="3.2"/>
<circle clip-path="url(#clip472)" cx="1334.51" cy="328.199" r="14.4" fill="#009af9" fill-rule="evenodd" fill-opacity="1" stroke="#000000" stroke-opacity="1" stroke-width="3.2"/>
<circle clip-path="url(#clip472)" cx="1417.94" cy="345.649" r="14.4" fill="#009af9" fill-rule="evenodd" fill-opacity="1" stroke="#000000" stroke-opacity="1" stroke-width="3.2"/>
<circle clip-path="url(#clip472)" cx="1501.37" cy="364.027" r="14.4" fill="#009af9" fill-rule="evenodd" fill-opacity="1" stroke="#000000" stroke-opacity="1" stroke-width="3.2"/>
<circle clip-path="url(#clip472)" cx="1584.79" cy="383.464" r="14.4" fill="#009af9" fill-rule="evenodd" fill-opacity="1" stroke="#000000" stroke-opacity="1" stroke-width="3.2"/>
<circle clip-path="url(#clip472)" cx="1668.22" cy="404.123" r="14.4" fill="#009af9" fill-rule="evenodd" fill-opacity="1" stroke="#000000" stroke-opacity="1" stroke-width="3.2"/>
<circle clip-path="url(#clip472)" cx="1751.64" cy="426.204" r="14.4" fill="#009af9" fill-rule="evenodd" fill-opacity="1" stroke="#000000" stroke-opacity="1" stroke-width="3.2"/>
<circle clip-path="url(#clip472)" cx="1835.07" cy="449.96" r="14.4" fill="#009af9" fill-rule="evenodd" fill-opacity="1" stroke="#000000" stroke-opacity="1" stroke-width="3.2"/>
<circle clip-path="url(#clip472)" cx="1918.5" cy="475.718" r="14.4" fill="#009af9" fill-rule="evenodd" fill-opacity="1" stroke="#000000" stroke-opacity="1" stroke-width="3.2"/>
<circle clip-path="url(#clip472)" cx="2001.92" cy="503.903" r="14.4" fill="#009af9" fill-rule="evenodd" fill-opacity="1" stroke="#000000" stroke-opacity="1" stroke-width="3.2"/>
<circle clip-path="url(#clip472)" cx="2085.35" cy="535.098" r="14.4" fill="#009af9" fill-rule="evenodd" fill-opacity="1" stroke="#000000" stroke-opacity="1" stroke-width="3.2"/>
<circle clip-path="url(#clip472)" cx="2168.77" cy="570.113" r="14.4" fill="#009af9" fill-rule="evenodd" fill-opacity="1" stroke="#000000" stroke-opacity="1" stroke-width="3.2"/>
<circle clip-path="url(#clip472)" cx="2252.2" cy="610.14" r="14.4" fill="#009af9" fill-rule="evenodd" fill-opacity="1" stroke="#000000" stroke-opacity="1" stroke-width="3.2"/>
<circle clip-path="url(#clip472)" cx="2335.63" cy="657.021" r="14.4" fill="#009af9" fill-rule="evenodd" fill-opacity="1" stroke="#000000" stroke-opacity="1" stroke-width="3.2"/>
<circle clip-path="url(#clip472)" cx="2419.05" cy="713.846" r="14.4" fill="#009af9" fill-rule="evenodd" fill-opacity="1" stroke="#000000" stroke-opacity="1" stroke-width="3.2"/>
<circle clip-path="url(#clip472)" cx="2502.48" cy="786.407" r="14.4" fill="#009af9" fill-rule="evenodd" fill-opacity="1" stroke="#000000" stroke-opacity="1" stroke-width="3.2"/>
<circle clip-path="url(#clip472)" cx="2585.9" cy="887.704" r="14.4" fill="#009af9" fill-rule="evenodd" fill-opacity="1" stroke="#000000" stroke-opacity="1" stroke-width="3.2"/>
<circle clip-path="url(#clip472)" cx="2669.33" cy="1059.22" r="14.4" fill="#009af9" fill-rule="evenodd" fill-opacity="1" stroke="#000000" stroke-opacity="1" stroke-width="3.2"/>
<polyline clip-path="url(#clip472)" style="stroke:#e26f46; stroke-linecap:round; stroke-linejoin:round; stroke-width:4; stroke-opacity:1; fill:none" points="249.975,289.105 333.401,300.629 416.827,312.401 500.253,324.442 583.679,336.779 667.105,349.437 750.531,362.448 833.958,375.846 917.384,389.669 1000.81,403.961 1084.24,418.773 1167.66,434.162 1251.09,450.195 1334.51,466.95 1417.94,484.52 1501.37,503.015 1584.79,522.566 1668.22,543.337 1751.64,565.528 1835.07,589.392 1918.5,615.254 2001.92,643.543 2085.35,674.838 2168.77,709.953 2252.2,750.076 2335.63,797.052 2419.05,853.971 2502.48,926.623 2585.9,1028.01 2669.33,1199.61 "/>
<path clip-path="url(#clip472)" d="M249.975 273.105 L233.975 289.105 L249.975 305.105 L265.975 289.105 L249.975 273.105 Z" fill="#e26f46" fill-rule="evenodd" fill-opacity="1" stroke="#000000" stroke-opacity="1" stroke-width="3.2"/>
<path clip-path="url(#clip472)" d="M333.401 284.629 L317.401 300.629 L333.401 316.629 L349.401 300.629 L333.401 284.629 Z" fill="#e26f46" fill-rule="evenodd" fill-opacity="1" stroke="#000000" stroke-opacity="1" stroke-width="3.2"/>
<path clip-path="url(#clip472)" d="M416.827 296.401 L400.827 312.401 L416.827 328.401 L432.827 312.401 L416.827 296.401 Z" fill="#e26f46" fill-rule="evenodd" fill-opacity="1" stroke="#000000" stroke-opacity="1" stroke-width="3.2"/>
<path clip-path="url(#clip472)" d="M500.253 308.442 L484.253 324.442 L500.253 340.442 L516.253 324.442 L500.253 308.442 Z" fill="#e26f46" fill-rule="evenodd" fill-opacity="1" stroke="#000000" stroke-opacity="1" stroke-width="3.2"/>
<path clip-path="url(#clip472)" d="M583.679 320.779 L567.679 336.779 L583.679 352.779 L599.679 336.779 L583.679 320.779 Z" fill="#e26f46" fill-rule="evenodd" fill-opacity="1" stroke="#000000" stroke-opacity="1" stroke-width="3.2"/>
<path clip-path="url(#clip472)" d="M667.105 333.437 L651.105 349.437 L667.105 365.437 L683.105 349.437 L667.105 333.437 Z" fill="#e26f46" fill-rule="evenodd" fill-opacity="1" stroke="#000000" stroke-opacity="1" stroke-width="3.2"/>
<path clip-path="url(#clip472)" d="M750.531 346.448 L734.531 362.448 L750.531 378.448 L766.531 362.448 L750.531 346.448 Z" fill="#e26f46" fill-rule="evenodd" fill-opacity="1" stroke="#000000" stroke-opacity="1" stroke-width="3.2"/>
<path clip-path="url(#clip472)" d="M833.958 359.846 L817.958 375.846 L833.958 391.846 L849.958 375.846 L833.958 359.846 Z" fill="#e26f46" fill-rule="evenodd" fill-opacity="1" stroke="#000000" stroke-opacity="1" stroke-width="3.2"/>
<path clip-path="url(#clip472)" d="M917.384 373.669 L901.384 389.669 L917.384 405.669 L933.384 389.669 L917.384 373.669 Z" fill="#e26f46" fill-rule="evenodd" fill-opacity="1" stroke="#000000" stroke-opacity="1" stroke-width="3.2"/>
<path clip-path="url(#clip472)" d="M1000.81 387.961 L984.81 403.961 L1000.81 419.961 L1016.81 403.961 L1000.81 387.961 Z" fill="#e26f46" fill-rule="evenodd" fill-opacity="1" stroke="#000000" stroke-opacity="1" stroke-width="3.2"/>
<path clip-path="url(#clip472)" d="M1084.24 402.773 L1068.24 418.773 L1084.24 434.773 L1100.24 418.773 L1084.24 402.773 Z" fill="#e26f46" fill-rule="evenodd" fill-opacity="1" stroke="#000000" stroke-opacity="1" stroke-width="3.2"/>
<path clip-path="url(#clip472)" d="M1167.66 418.162 L1151.66 434.162 L1167.66 450.162 L1183.66 434.162 L1167.66 418.162 Z" fill="#e26f46" fill-rule="evenodd" fill-opacity="1" stroke="#000000" stroke-opacity="1" stroke-width="3.2"/>
<path clip-path="url(#clip472)" d="M1251.09 434.195 L1235.09 450.195 L1251.09 466.195 L1267.09 450.195 L1251.09 434.195 Z" fill="#e26f46" fill-rule="evenodd" fill-opacity="1" stroke="#000000" stroke-opacity="1" stroke-width="3.2"/>
<path clip-path="url(#clip472)" d="M1334.51 450.95 L1318.51 466.95 L1334.51 482.95 L1350.51 466.95 L1334.51 450.95 Z" fill="#e26f46" fill-rule="evenodd" fill-opacity="1" stroke="#000000" stroke-opacity="1" stroke-width="3.2"/>
<path clip-path="url(#clip472)" d="M1417.94 468.52 L1401.94 484.52 L1417.94 500.52 L1433.94 484.52 L1417.94 468.52 Z" fill="#e26f46" fill-rule="evenodd" fill-opacity="1" stroke="#000000" stroke-opacity="1" stroke-width="3.2"/>
<path clip-path="url(#clip472)" d="M1501.37 487.015 L1485.37 503.015 L1501.37 519.015 L1517.37 503.015 L1501.37 487.015 Z" fill="#e26f46" fill-rule="evenodd" fill-opacity="1" stroke="#000000" stroke-opacity="1" stroke-width="3.2"/>
<path clip-path="url(#clip472)" d="M1584.79 506.566 L1568.79 522.566 L1584.79 538.566 L1600.79 522.566 L1584.79 506.566 Z" fill="#e26f46" fill-rule="evenodd" fill-opacity="1" stroke="#000000" stroke-opacity="1" stroke-width="3.2"/>
<path clip-path="url(#clip472)" d="M1668.22 527.337 L1652.22 543.337 L1668.22 559.337 L1684.22 543.337 L1668.22 527.337 Z" fill="#e26f46" fill-rule="evenodd" fill-opacity="1" stroke="#000000" stroke-opacity="1" stroke-width="3.2"/>
<path clip-path="url(#clip472)" d="M1751.64 549.528 L1735.64 565.528 L1751.64 581.528 L1767.64 565.528 L1751.64 549.528 Z" fill="#e26f46" fill-rule="evenodd" fill-opacity="1" stroke="#000000" stroke-opacity="1" stroke-width="3.2"/>
<path clip-path="url(#clip472)" d="M1835.07 573.392 L1819.07 589.392 L1835.07 605.392 L1851.07 589.392 L1835.07 573.392 Z" fill="#e26f46" fill-rule="evenodd" fill-opacity="1" stroke="#000000" stroke-opacity="1" stroke-width="3.2"/>
<path clip-path="url(#clip472)" d="M1918.5 599.254 L1902.5 615.254 L1918.5 631.254 L1934.5 615.254 L1918.5 599.254 Z" fill="#e26f46" fill-rule="evenodd" fill-opacity="1" stroke="#000000" stroke-opacity="1" stroke-width="3.2"/>
<path clip-path="url(#clip472)" d="M2001.92 627.543 L1985.92 643.543 L2001.92 659.543 L2017.92 643.543 L2001.92 627.543 Z" fill="#e26f46" fill-rule="evenodd" fill-opacity="1" stroke="#000000" stroke-opacity="1" stroke-width="3.2"/>
<path clip-path="url(#clip472)" d="M2085.35 658.838 L2069.35 674.838 L2085.35 690.838 L2101.35 674.838 L2085.35 658.838 Z" fill="#e26f46" fill-rule="evenodd" fill-opacity="1" stroke="#000000" stroke-opacity="1" stroke-width="3.2"/>
<path clip-path="url(#clip472)" d="M2168.77 693.953 L2152.77 709.953 L2168.77 725.953 L2184.77 709.953 L2168.77 693.953 Z" fill="#e26f46" fill-rule="evenodd" fill-opacity="1" stroke="#000000" stroke-opacity="1" stroke-width="3.2"/>
<path clip-path="url(#clip472)" d="M2252.2 734.076 L2236.2 750.076 L2252.2 766.076 L2268.2 750.076 L2252.2 734.076 Z" fill="#e26f46" fill-rule="evenodd" fill-opacity="1" stroke="#000000" stroke-opacity="1" stroke-width="3.2"/>
<path clip-path="url(#clip472)" d="M2335.63 781.052 L2319.63 797.052 L2335.63 813.052 L2351.63 797.052 L2335.63 781.052 Z" fill="#e26f46" fill-rule="evenodd" fill-opacity="1" stroke="#000000" stroke-opacity="1" stroke-width="3.2"/>
<path clip-path="url(#clip472)" d="M2419.05 837.971 L2403.05 853.971 L2419.05 869.971 L2435.05 853.971 L2419.05 837.971 Z" fill="#e26f46" fill-rule="evenodd" fill-opacity="1" stroke="#000000" stroke-opacity="1" stroke-width="3.2"/>
<path clip-path="url(#clip472)" d="M2502.48 910.623 L2486.48 926.623 L2502.48 942.623 L2518.48 926.623 L2502.48 910.623 Z" fill="#e26f46" fill-rule="evenodd" fill-opacity="1" stroke="#000000" stroke-opacity="1" stroke-width="3.2"/>
<path clip-path="url(#clip472)" d="M2585.9 1012.01 L2569.9 1028.01 L2585.9 1044.01 L2601.9 1028.01 L2585.9 1012.01 Z" fill="#e26f46" fill-rule="evenodd" fill-opacity="1" stroke="#000000" stroke-opacity="1" stroke-width="3.2"/>
<path clip-path="url(#clip472)" d="M2669.33 1183.61 L2653.33 1199.61 L2669.33 1215.61 L2685.33 1199.61 L2669.33 1183.61 Z" fill="#e26f46" fill-rule="evenodd" fill-opacity="1" stroke="#000000" stroke-opacity="1" stroke-width="3.2"/>
<polyline clip-path="url(#clip472)" style="stroke:#3da44d; stroke-linecap:round; stroke-linejoin:round; stroke-width:4; stroke-opacity:1; fill:none" points="249.975,484.52 333.401,496.163 416.827,508.051 500.253,520.206 583.679,532.653 667.105,545.419 750.531,558.535 833.958,572.035 917.384,585.958 1000.81,600.347 1084.24,615.254 1167.66,630.736 1251.09,646.859 1334.51,663.703 1417.94,681.359 1501.37,699.938 1584.79,719.573 1668.22,740.424 1751.64,762.694 1835.07,786.635 1918.5,812.573 2001.92,840.936 2085.35,872.304 2168.77,907.489 2252.2,947.682 2335.63,994.726 2419.05,1051.71 2502.48,1124.43 2585.9,1225.88 2669.33,1397.54 "/>
<path clip-path="url(#clip472)" d="M249.975 468.52 L246.215 479.336 L234.759 479.576 L243.895 486.504 L240.567 497.464 L249.975 490.92 L259.383 497.464 L256.055 486.504 L265.191 479.576 L253.735 479.336 L249.975 468.52 Z" fill="#3da44d" fill-rule="evenodd" fill-opacity="1" stroke="#000000" stroke-opacity="1" stroke-width="3.2"/>
<path clip-path="url(#clip472)" d="M333.401 480.163 L329.641 490.979 L318.185 491.219 L327.321 498.147 L323.993 509.107 L333.401 502.563 L342.809 509.107 L339.481 498.147 L348.617 491.219 L337.161 490.979 L333.401 480.163 Z" fill="#3da44d" fill-rule="evenodd" fill-opacity="1" stroke="#000000" stroke-opacity="1" stroke-width="3.2"/>
<path clip-path="url(#clip472)" d="M416.827 492.051 L413.067 502.867 L401.611 503.107 L410.747 510.035 L407.419 520.995 L416.827 514.451 L426.235 520.995 L422.907 510.035 L432.043 503.107 L420.587 502.867 L416.827 492.051 Z" fill="#3da44d" fill-rule="evenodd" fill-opacity="1" stroke="#000000" stroke-opacity="1" stroke-width="3.2"/>
<path clip-path="url(#clip472)" d="M500.253 504.206 L496.493 515.022 L485.037 515.262 L494.173 522.19 L490.845 533.15 L500.253 526.606 L509.661 533.15 L506.333 522.19 L515.469 515.262 L504.013 515.022 L500.253 504.206 Z" fill="#3da44d" fill-rule="evenodd" fill-opacity="1" stroke="#000000" stroke-opacity="1" stroke-width="3.2"/>
<path clip-path="url(#clip472)" d="M583.679 516.653 L579.919 527.469 L568.463 527.709 L577.599 534.637 L574.271 545.597 L583.679 539.053 L593.087 545.597 L589.759 534.637 L598.895 527.709 L587.439 527.469 L583.679 516.653 Z" fill="#3da44d" fill-rule="evenodd" fill-opacity="1" stroke="#000000" stroke-opacity="1" stroke-width="3.2"/>
<path clip-path="url(#clip472)" d="M667.105 529.419 L663.345 540.235 L651.889 540.475 L661.025 547.403 L657.697 558.363 L667.105 551.819 L676.513 558.363 L673.185 547.403 L682.321 540.475 L670.865 540.235 L667.105 529.419 Z" fill="#3da44d" fill-rule="evenodd" fill-opacity="1" stroke="#000000" stroke-opacity="1" stroke-width="3.2"/>
<path clip-path="url(#clip472)" d="M750.531 542.535 L746.771 553.351 L735.315 553.591 L744.451 560.519 L741.123 571.479 L750.531 564.935 L759.939 571.479 L756.611 560.519 L765.747 553.591 L754.291 553.351 L750.531 542.535 Z" fill="#3da44d" fill-rule="evenodd" fill-opacity="1" stroke="#000000" stroke-opacity="1" stroke-width="3.2"/>
<path clip-path="url(#clip472)" d="M833.958 556.035 L830.198 566.851 L818.742 567.091 L827.878 574.019 L824.55 584.979 L833.958 578.435 L843.366 584.979 L840.038 574.019 L849.174 567.091 L837.718 566.851 L833.958 556.035 Z" fill="#3da44d" fill-rule="evenodd" fill-opacity="1" stroke="#000000" stroke-opacity="1" stroke-width="3.2"/>
<path clip-path="url(#clip472)" d="M917.384 569.958 L913.624 580.774 L902.168 581.014 L911.304 587.942 L907.976 598.902 L917.384 592.358 L926.792 598.902 L923.464 587.942 L932.6 581.014 L921.144 580.774 L917.384 569.958 Z" fill="#3da44d" fill-rule="evenodd" fill-opacity="1" stroke="#000000" stroke-opacity="1" stroke-width="3.2"/>
<path clip-path="url(#clip472)" d="M1000.81 584.347 L997.05 595.163 L985.594 595.403 L994.73 602.331 L991.402 613.291 L1000.81 606.747 L1010.22 613.291 L1006.89 602.331 L1016.03 595.403 L1004.57 595.163 L1000.81 584.347 Z" fill="#3da44d" fill-rule="evenodd" fill-opacity="1" stroke="#000000" stroke-opacity="1" stroke-width="3.2"/>
<path clip-path="url(#clip472)" d="M1084.24 599.254 L1080.48 610.07 L1069.02 610.31 L1078.16 617.238 L1074.83 628.198 L1084.24 621.654 L1093.64 628.198 L1090.32 617.238 L1099.45 610.31 L1088 610.07 L1084.24 599.254 Z" fill="#3da44d" fill-rule="evenodd" fill-opacity="1" stroke="#000000" stroke-opacity="1" stroke-width="3.2"/>
<path clip-path="url(#clip472)" d="M1167.66 614.736 L1163.9 625.552 L1152.45 625.792 L1161.58 632.72 L1158.25 643.68 L1167.66 637.136 L1177.07 643.68 L1173.74 632.72 L1182.88 625.792 L1171.42 625.552 L1167.66 614.736 Z" fill="#3da44d" fill-rule="evenodd" fill-opacity="1" stroke="#000000" stroke-opacity="1" stroke-width="3.2"/>
<path clip-path="url(#clip472)" d="M1251.09 630.859 L1247.33 641.675 L1235.87 641.915 L1245.01 648.843 L1241.68 659.803 L1251.09 653.259 L1260.5 659.803 L1257.17 648.843 L1266.3 641.915 L1254.85 641.675 L1251.09 630.859 Z" fill="#3da44d" fill-rule="evenodd" fill-opacity="1" stroke="#000000" stroke-opacity="1" stroke-width="3.2"/>
<path clip-path="url(#clip472)" d="M1334.51 647.703 L1330.75 658.519 L1319.3 658.759 L1328.43 665.687 L1325.11 676.647 L1334.51 670.103 L1343.92 676.647 L1340.59 665.687 L1349.73 658.759 L1338.27 658.519 L1334.51 647.703 Z" fill="#3da44d" fill-rule="evenodd" fill-opacity="1" stroke="#000000" stroke-opacity="1" stroke-width="3.2"/>
<path clip-path="url(#clip472)" d="M1417.94 665.359 L1414.18 676.175 L1402.72 676.415 L1411.86 683.343 L1408.53 694.303 L1417.94 687.759 L1427.35 694.303 L1424.02 683.343 L1433.16 676.415 L1421.7 676.175 L1417.94 665.359 Z" fill="#3da44d" fill-rule="evenodd" fill-opacity="1" stroke="#000000" stroke-opacity="1" stroke-width="3.2"/>
<path clip-path="url(#clip472)" d="M1501.37 683.938 L1497.61 694.754 L1486.15 694.994 L1495.29 701.922 L1491.96 712.882 L1501.37 706.338 L1510.77 712.882 L1507.45 701.922 L1516.58 694.994 L1505.13 694.754 L1501.37 683.938 Z" fill="#3da44d" fill-rule="evenodd" fill-opacity="1" stroke="#000000" stroke-opacity="1" stroke-width="3.2"/>
<path clip-path="url(#clip472)" d="M1584.79 703.573 L1581.03 714.389 L1569.58 714.629 L1578.71 721.557 L1575.38 732.517 L1584.79 725.973 L1594.2 732.517 L1590.87 721.557 L1600.01 714.629 L1588.55 714.389 L1584.79 703.573 Z" fill="#3da44d" fill-rule="evenodd" fill-opacity="1" stroke="#000000" stroke-opacity="1" stroke-width="3.2"/>
<path clip-path="url(#clip472)" d="M1668.22 724.424 L1664.46 735.24 L1653 735.48 L1662.14 742.408 L1658.81 753.368 L1668.22 746.824 L1677.63 753.368 L1674.3 742.408 L1683.43 735.48 L1671.98 735.24 L1668.22 724.424 Z" fill="#3da44d" fill-rule="evenodd" fill-opacity="1" stroke="#000000" stroke-opacity="1" stroke-width="3.2"/>
<path clip-path="url(#clip472)" d="M1751.64 746.694 L1747.88 757.51 L1736.43 757.75 L1745.56 764.678 L1742.24 775.638 L1751.64 769.094 L1761.05 775.638 L1757.72 764.678 L1766.86 757.75 L1755.4 757.51 L1751.64 746.694 Z" fill="#3da44d" fill-rule="evenodd" fill-opacity="1" stroke="#000000" stroke-opacity="1" stroke-width="3.2"/>
<path clip-path="url(#clip472)" d="M1835.07 770.635 L1831.31 781.451 L1819.85 781.691 L1828.99 788.619 L1825.66 799.579 L1835.07 793.035 L1844.48 799.579 L1841.15 788.619 L1850.29 781.691 L1838.83 781.451 L1835.07 770.635 Z" fill="#3da44d" fill-rule="evenodd" fill-opacity="1" stroke="#000000" stroke-opacity="1" stroke-width="3.2"/>
<path clip-path="url(#clip472)" d="M1918.5 796.573 L1914.74 807.389 L1903.28 807.629 L1912.42 814.557 L1909.09 825.517 L1918.5 818.973 L1927.9 825.517 L1924.58 814.557 L1933.71 807.629 L1922.26 807.389 L1918.5 796.573 Z" fill="#3da44d" fill-rule="evenodd" fill-opacity="1" stroke="#000000" stroke-opacity="1" stroke-width="3.2"/>
<path clip-path="url(#clip472)" d="M2001.92 824.936 L1998.16 835.752 L1986.71 835.992 L1995.84 842.92 L1992.51 853.88 L2001.92 847.336 L2011.33 853.88 L2008 842.92 L2017.14 835.992 L2005.68 835.752 L2001.92 824.936 Z" fill="#3da44d" fill-rule="evenodd" fill-opacity="1" stroke="#000000" stroke-opacity="1" stroke-width="3.2"/>
<path clip-path="url(#clip472)" d="M2085.35 856.304 L2081.59 867.12 L2070.13 867.36 L2079.27 874.288 L2075.94 885.248 L2085.35 878.704 L2094.76 885.248 L2091.43 874.288 L2100.56 867.36 L2089.11 867.12 L2085.35 856.304 Z" fill="#3da44d" fill-rule="evenodd" fill-opacity="1" stroke="#000000" stroke-opacity="1" stroke-width="3.2"/>
<path clip-path="url(#clip472)" d="M2168.77 891.489 L2165.01 902.305 L2153.56 902.545 L2162.69 909.473 L2159.37 920.433 L2168.77 913.889 L2178.18 920.433 L2174.85 909.473 L2183.99 902.545 L2172.53 902.305 L2168.77 891.489 Z" fill="#3da44d" fill-rule="evenodd" fill-opacity="1" stroke="#000000" stroke-opacity="1" stroke-width="3.2"/>
<path clip-path="url(#clip472)" d="M2252.2 931.682 L2248.44 942.498 L2236.98 942.738 L2246.12 949.666 L2242.79 960.626 L2252.2 954.082 L2261.61 960.626 L2258.28 949.666 L2267.42 942.738 L2255.96 942.498 L2252.2 931.682 Z" fill="#3da44d" fill-rule="evenodd" fill-opacity="1" stroke="#000000" stroke-opacity="1" stroke-width="3.2"/>
<path clip-path="url(#clip472)" d="M2335.63 978.726 L2331.87 989.542 L2320.41 989.782 L2329.55 996.71 L2326.22 1007.67 L2335.63 1001.13 L2345.03 1007.67 L2341.71 996.71 L2350.84 989.782 L2339.39 989.542 L2335.63 978.726 Z" fill="#3da44d" fill-rule="evenodd" fill-opacity="1" stroke="#000000" stroke-opacity="1" stroke-width="3.2"/>
<path clip-path="url(#clip472)" d="M2419.05 1035.71 L2415.29 1046.53 L2403.84 1046.77 L2412.97 1053.7 L2409.64 1064.66 L2419.05 1058.11 L2428.46 1064.66 L2425.13 1053.7 L2434.27 1046.77 L2422.81 1046.53 L2419.05 1035.71 Z" fill="#3da44d" fill-rule="evenodd" fill-opacity="1" stroke="#000000" stroke-opacity="1" stroke-width="3.2"/>
<path clip-path="url(#clip472)" d="M2502.48 1108.43 L2498.72 1119.25 L2487.26 1119.49 L2496.4 1126.41 L2493.07 1137.37 L2502.48 1130.83 L2511.89 1137.37 L2508.56 1126.41 L2517.69 1119.49 L2506.24 1119.25 L2502.48 1108.43 Z" fill="#3da44d" fill-rule="evenodd" fill-opacity="1" stroke="#000000" stroke-opacity="1" stroke-width="3.2"/>
<path clip-path="url(#clip472)" d="M2585.9 1209.88 L2582.14 1220.7 L2570.69 1220.94 L2579.82 1227.86 L2576.5 1238.82 L2585.9 1232.28 L2595.31 1238.82 L2591.98 1227.86 L2601.12 1220.94 L2589.66 1220.7 L2585.9 1209.88 Z" fill="#3da44d" fill-rule="evenodd" fill-opacity="1" stroke="#000000" stroke-opacity="1" stroke-width="3.2"/>
<path clip-path="url(#clip472)" d="M2669.33 1381.54 L2665.57 1392.36 L2654.11 1392.6 L2663.25 1399.53 L2659.92 1410.49 L2669.33 1403.94 L2678.74 1410.49 L2675.41 1399.53 L2684.55 1392.6 L2673.09 1392.36 L2669.33 1381.54 Z" fill="#3da44d" fill-rule="evenodd" fill-opacity="1" stroke="#000000" stroke-opacity="1" stroke-width="3.2"/>
<path clip-path="url(#clip470)" d="M2220.46 366.195 L2669.33 366.195 L2669.33 158.835 L2220.46 158.835  Z" fill="#ffffff" fill-rule="evenodd" fill-opacity="1"/>
<polyline clip-path="url(#clip470)" style="stroke:#000000; stroke-linecap:round; stroke-linejoin:round; stroke-width:4; stroke-opacity:1; fill:none" points="2220.46,366.195 2669.33,366.195 2669.33,158.835 2220.46,158.835 2220.46,366.195 "/>
<polyline clip-path="url(#clip470)" style="stroke:#009af9; stroke-linecap:round; stroke-linejoin:round; stroke-width:4; stroke-opacity:1; fill:none" points="2248.27,210.675 2415.13,210.675 "/>
<circle clip-path="url(#clip470)" cx="2331.7" cy="210.675" r="20.48" fill="#009af9" fill-rule="evenodd" fill-opacity="1" stroke="#000000" stroke-opacity="1" stroke-width="4.55111"/>
<path clip-path="url(#clip470)" d="M2450.55 206.103 L2456.22 222.121 L2464.32 202.029 L2468.84 202.029 L2458.35 227.955 L2458.35 237.816 L2454.09 237.816 L2454.09 227.955 L2447.29 208.603 Q2446.27 205.686 2444.07 205.686 L2442.93 205.686 L2442.93 202.029 L2444.55 202.029 Q2449.11 202.029 2450.55 206.103 Z" fill="#000000" fill-rule="nonzero" fill-opacity="1" /><path clip-path="url(#clip470)" d="M2490.34 206.427 L2520.02 206.427 L2520.02 210.316 L2490.34 210.316 L2490.34 206.427 M2490.34 215.871 L2520.02 215.871 L2520.02 219.806 L2490.34 219.806 L2490.34 215.871 Z" fill="#000000" fill-rule="nonzero" fill-opacity="1" /><path clip-path="url(#clip470)" d="M2555.18 196.473 Q2551.57 196.473 2549.74 200.038 Q2547.93 203.58 2547.93 210.709 Q2547.93 217.816 2549.74 221.381 Q2551.57 224.922 2555.18 224.922 Q2558.81 224.922 2560.62 221.381 Q2562.45 217.816 2562.45 210.709 Q2562.45 203.58 2560.62 200.038 Q2558.81 196.473 2555.18 196.473 M2555.18 192.77 Q2560.99 192.77 2564.04 197.376 Q2567.12 201.959 2567.12 210.709 Q2567.12 219.436 2564.04 224.043 Q2560.99 228.626 2555.18 228.626 Q2549.37 228.626 2546.29 224.043 Q2543.23 219.436 2543.23 210.709 Q2543.23 201.959 2546.29 197.376 Q2549.37 192.77 2555.18 192.77 Z" fill="#000000" fill-rule="nonzero" fill-opacity="1" /><path clip-path="url(#clip470)" d="M2575.34 222.075 L2580.23 222.075 L2580.23 227.955 L2575.34 227.955 L2575.34 222.075 Z" fill="#000000" fill-rule="nonzero" fill-opacity="1" /><path clip-path="url(#clip470)" d="M2594.44 224.019 L2610.76 224.019 L2610.76 227.955 L2588.81 227.955 L2588.81 224.019 Q2591.48 221.265 2596.06 216.635 Q2600.66 211.982 2601.85 210.64 Q2604.09 208.117 2604.97 206.381 Q2605.87 204.621 2605.87 202.932 Q2605.87 200.177 2603.93 198.441 Q2602.01 196.705 2598.91 196.705 Q2596.71 196.705 2594.25 197.469 Q2591.82 198.233 2589.04 199.783 L2589.04 195.061 Q2591.87 193.927 2594.32 193.348 Q2596.78 192.77 2598.81 192.77 Q2604.18 192.77 2607.38 195.455 Q2610.57 198.14 2610.57 202.631 Q2610.57 204.76 2609.76 206.682 Q2608.98 208.58 2606.87 211.172 Q2606.29 211.844 2603.19 215.061 Q2600.09 218.256 2594.44 224.019 Z" fill="#000000" fill-rule="nonzero" fill-opacity="1" /><polyline clip-path="url(#clip470)" style="stroke:#e26f46; stroke-linecap:round; stroke-linejoin:round; stroke-width:4; stroke-opacity:1; fill:none" points="2248.27,262.515 2415.13,262.515 "/>
<path clip-path="url(#clip470)" d="M2331.7 239.759 L2308.94 262.515 L2331.7 285.27 L2354.46 262.515 L2331.7 239.759 Z" fill="#e26f46" fill-rule="evenodd" fill-opacity="1" stroke="#000000" stroke-opacity="1" stroke-width="4.55111"/>
<path clip-path="url(#clip470)" d="M2450.55 257.943 L2456.22 273.961 L2464.32 253.869 L2468.84 253.869 L2458.35 279.795 L2458.35 289.656 L2454.09 289.656 L2454.09 279.795 L2447.29 260.443 Q2446.27 257.526 2444.07 257.526 L2442.93 257.526 L2442.93 253.869 L2444.55 253.869 Q2449.11 253.869 2450.55 257.943 Z" fill="#000000" fill-rule="nonzero" fill-opacity="1" /><path clip-path="url(#clip470)" d="M2490.34 258.267 L2520.02 258.267 L2520.02 262.156 L2490.34 262.156 L2490.34 258.267 M2490.34 267.711 L2520.02 267.711 L2520.02 271.646 L2490.34 271.646 L2490.34 267.711 Z" fill="#000000" fill-rule="nonzero" fill-opacity="1" /><path clip-path="url(#clip470)" d="M2555.18 248.313 Q2551.57 248.313 2549.74 251.878 Q2547.93 255.42 2547.93 262.549 Q2547.93 269.656 2549.74 273.221 Q2551.57 276.762 2555.18 276.762 Q2558.81 276.762 2560.62 273.221 Q2562.45 269.656 2562.45 262.549 Q2562.45 255.42 2560.62 251.878 Q2558.81 248.313 2555.18 248.313 M2555.18 244.61 Q2560.99 244.61 2564.04 249.216 Q2567.12 253.799 2567.12 262.549 Q2567.12 271.276 2564.04 275.883 Q2560.99 280.466 2555.18 280.466 Q2549.37 280.466 2546.29 275.883 Q2543.23 271.276 2543.23 262.549 Q2543.23 253.799 2546.29 249.216 Q2549.37 244.61 2555.18 244.61 Z" fill="#000000" fill-rule="nonzero" fill-opacity="1" /><path clip-path="url(#clip470)" d="M2575.34 273.915 L2580.23 273.915 L2580.23 279.795 L2575.34 279.795 L2575.34 273.915 Z" fill="#000000" fill-rule="nonzero" fill-opacity="1" /><path clip-path="url(#clip470)" d="M2591.22 275.859 L2598.86 275.859 L2598.86 249.494 L2590.55 251.16 L2590.55 246.901 L2598.81 245.235 L2603.49 245.235 L2603.49 275.859 L2611.13 275.859 L2611.13 279.795 L2591.22 279.795 L2591.22 275.859 Z" fill="#000000" fill-rule="nonzero" fill-opacity="1" /><path clip-path="url(#clip470)" d="M2620.62 245.235 L2638.97 245.235 L2638.97 249.17 L2624.9 249.17 L2624.9 257.642 Q2625.92 257.295 2626.94 257.133 Q2627.96 256.947 2628.97 256.947 Q2634.76 256.947 2638.14 260.119 Q2641.52 263.29 2641.52 268.707 Q2641.52 274.285 2638.05 277.387 Q2634.58 280.466 2628.26 280.466 Q2626.08 280.466 2623.81 280.095 Q2621.57 279.725 2619.16 278.984 L2619.16 274.285 Q2621.24 275.42 2623.47 275.975 Q2625.69 276.531 2628.16 276.531 Q2632.17 276.531 2634.51 274.424 Q2636.85 272.318 2636.85 268.707 Q2636.85 265.096 2634.51 262.989 Q2632.17 260.883 2628.16 260.883 Q2626.29 260.883 2624.41 261.299 Q2622.56 261.716 2620.62 262.596 L2620.62 245.235 Z" fill="#000000" fill-rule="nonzero" fill-opacity="1" /><polyline clip-path="url(#clip470)" style="stroke:#3da44d; stroke-linecap:round; stroke-linejoin:round; stroke-width:4; stroke-opacity:1; fill:none" points="2248.27,314.355 2415.13,314.355 "/>
<path clip-path="url(#clip470)" d="M2331.7 291.599 L2326.35 306.982 L2310.06 307.323 L2323.05 317.176 L2318.32 332.764 L2331.7 323.457 L2345.08 332.764 L2340.35 317.176 L2353.34 307.323 L2337.05 306.982 L2331.7 291.599 Z" fill="#3da44d" fill-rule="evenodd" fill-opacity="1" stroke="#000000" stroke-opacity="1" stroke-width="4.55111"/>
<path clip-path="url(#clip470)" d="M2450.55 309.783 L2456.22 325.801 L2464.32 305.709 L2468.84 305.709 L2458.35 331.635 L2458.35 341.496 L2454.09 341.496 L2454.09 331.635 L2447.29 312.283 Q2446.27 309.366 2444.07 309.366 L2442.93 309.366 L2442.93 305.709 L2444.55 305.709 Q2449.11 305.709 2450.55 309.783 Z" fill="#000000" fill-rule="nonzero" fill-opacity="1" /><path clip-path="url(#clip470)" d="M2490.34 310.107 L2520.02 310.107 L2520.02 313.996 L2490.34 313.996 L2490.34 310.107 M2490.34 319.551 L2520.02 319.551 L2520.02 323.486 L2490.34 323.486 L2490.34 319.551 Z" fill="#000000" fill-rule="nonzero" fill-opacity="1" /><path clip-path="url(#clip470)" d="M2555.18 300.153 Q2551.57 300.153 2549.74 303.718 Q2547.93 307.26 2547.93 314.389 Q2547.93 321.496 2549.74 325.061 Q2551.57 328.602 2555.18 328.602 Q2558.81 328.602 2560.62 325.061 Q2562.45 321.496 2562.45 314.389 Q2562.45 307.26 2560.62 303.718 Q2558.81 300.153 2555.18 300.153 M2555.18 296.45 Q2560.99 296.45 2564.04 301.056 Q2567.12 305.639 2567.12 314.389 Q2567.12 323.116 2564.04 327.723 Q2560.99 332.306 2555.18 332.306 Q2549.37 332.306 2546.29 327.723 Q2543.23 323.116 2543.23 314.389 Q2543.23 305.639 2546.29 301.056 Q2549.37 296.45 2555.18 296.45 Z" fill="#000000" fill-rule="nonzero" fill-opacity="1" /><path clip-path="url(#clip470)" d="M2575.34 325.755 L2580.23 325.755 L2580.23 331.635 L2575.34 331.635 L2575.34 325.755 Z" fill="#000000" fill-rule="nonzero" fill-opacity="1" /><path clip-path="url(#clip470)" d="M2591.22 327.699 L2598.86 327.699 L2598.86 301.334 L2590.55 303 L2590.55 298.741 L2598.81 297.075 L2603.49 297.075 L2603.49 327.699 L2611.13 327.699 L2611.13 331.635 L2591.22 331.635 L2591.22 327.699 Z" fill="#000000" fill-rule="nonzero" fill-opacity="1" /></svg>
