<?xml version="1.0" encoding="utf-8"?>
<svg xmlns="http://www.w3.org/2000/svg" xmlns:xlink="http://www.w3.org/1999/xlink" width="700" height="400" viewBox="0 0 2800 1600">
<defs>
  <clipPath id="clip560">
    <rect x="0" y="0" width="2800" height="1600"/>
  </clipPath>
</defs>
<path clip-path="url(#clip560)" d="M0 1600 L2800 1600 L2800 8.88178e-14 L0 8.88178e-14  Z" fill="#ffffff" fill-rule="evenodd" fill-opacity="1"/>
<defs>
  <clipPath id="clip561">
    <rect x="560" y="0" width="1961" height="1600"/>
  </clipPath>
</defs>
<path clip-path="url(#clip560)" d="M248.584 1424.38 L2752.76 1424.38 L2752.76 114.832 L248.584 114.832  Z" fill="#ffffff" fill-rule="evenodd" fill-opacity="1"/>
<defs>
  <clipPath id="clip562">
    <rect x="248" y="114" width="2505" height="1311"/>
  </clipPath>
</defs>
<polyline clip-path="url(#clip562)" style="stroke:#000000; stroke-linecap:round; stroke-linejoin:round; stroke-width:2; stroke-opacity:0.1; fill:none" points="319.456,1424.38 319.456,114.832 "/>
<polyline clip-path="url(#clip562)" style="stroke:#000000; stroke-linecap:round; stroke-linejoin:round; stroke-width:2; stroke-opacity:0.1; fill:none" points="1918.8,1424.38 1918.8,114.832 "/>
<polyline clip-path="url(#clip562)" style="stroke:#000000; stroke-linecap:round; stroke-linejoin:round; stroke-width:2; stroke-opacity:0.1; fill:none" points="248.584,1387.31 2752.76,1387.31 "/>
<polyline clip-path="url(#clip562)" style="stroke:#000000; stroke-linecap:round; stroke-linejoin:round; stroke-width:2; stroke-opacity:0.1; fill:none" points="248.584,552.559 2752.76,552.559 "/>
<polyline clip-path="url(#clip560)" style="stroke:#000000; stroke-linecap:round; stroke-linejoin:round; stroke-width:4; stroke-opacity:1; fill:none" points="248.584,1424.38 2752.76,1424.38 "/>
<polyline clip-path="url(#clip560)" style="stroke:#000000; stroke-linecap:round; stroke-linejoin:round; stroke-width:4; stroke-opacity:1; fill:none" points="319.456,1424.38 319.456,1405.48 "/>
<polyline clip-path="url(#clip560)" style="stroke:#000000; stroke-linecap:round; stroke-linejoin:round; stroke-width:4; stroke-opacity:1; fill:none" points="1918.8,1424.38 1918.8,1405.48 "/>
<path clip-path="url(#clip560)" d="M269.722 1501.7 L277.361 1501.7 L277.361 1475.34 L269.051 1477 L269.051 1472.74 L277.315 1471.08 L281.991 1471.08 L281.991 1501.7 L289.629 1501.7 L289.629 1505.64 L269.722 1505.64 L269.722 1501.7 Z" fill="#000000" fill-rule="nonzero" fill-opacity="1" /><path clip-path="url(#clip560)" d="M309.074 1474.16 Q305.463 1474.16 303.634 1477.72 Q301.828 1481.26 301.828 1488.39 Q301.828 1495.5 303.634 1499.06 Q305.463 1502.6 309.074 1502.6 Q312.708 1502.6 314.514 1499.06 Q316.342 1495.5 316.342 1488.39 Q316.342 1481.26 314.514 1477.72 Q312.708 1474.16 309.074 1474.16 M309.074 1470.45 Q314.884 1470.45 317.939 1475.06 Q321.018 1479.64 321.018 1488.39 Q321.018 1497.12 317.939 1501.73 Q314.884 1506.31 309.074 1506.31 Q303.264 1506.31 300.185 1501.73 Q297.129 1497.12 297.129 1488.39 Q297.129 1479.64 300.185 1475.06 Q303.264 1470.45 309.074 1470.45 Z" fill="#000000" fill-rule="nonzero" fill-opacity="1" /><path clip-path="url(#clip560)" d="M321.018 1464.55 L345.13 1464.55 L345.13 1467.75 L321.018 1467.75 L321.018 1464.55 Z" fill="#000000" fill-rule="nonzero" fill-opacity="1" /><path clip-path="url(#clip560)" d="M356.602 1475.03 L369.862 1475.03 L369.862 1478.23 L352.032 1478.23 L352.032 1475.03 Q354.195 1472.79 357.919 1469.03 Q361.662 1465.25 362.621 1464.16 Q364.445 1462.11 365.16 1460.7 Q365.894 1459.27 365.894 1457.9 Q365.894 1455.66 364.314 1454.25 Q362.753 1452.84 360.232 1452.84 Q358.446 1452.84 356.452 1453.46 Q354.477 1454.08 352.22 1455.34 L352.22 1451.5 Q354.515 1450.58 356.508 1450.11 Q358.502 1449.64 360.157 1449.64 Q364.521 1449.64 367.116 1451.82 Q369.711 1454 369.711 1457.65 Q369.711 1459.38 369.053 1460.94 Q368.414 1462.48 366.702 1464.59 Q366.232 1465.14 363.712 1467.75 Q361.192 1470.35 356.602 1475.03 Z" fill="#000000" fill-rule="nonzero" fill-opacity="1" /><path clip-path="url(#clip560)" d="M1868.92 1501.7 L1876.56 1501.7 L1876.56 1475.34 L1868.25 1477 L1868.25 1472.74 L1876.51 1471.08 L1881.19 1471.08 L1881.19 1501.7 L1888.82 1501.7 L1888.82 1505.64 L1868.92 1505.64 L1868.92 1501.7 Z" fill="#000000" fill-rule="nonzero" fill-opacity="1" /><path clip-path="url(#clip560)" d="M1908.27 1474.16 Q1904.66 1474.16 1902.83 1477.72 Q1901.02 1481.26 1901.02 1488.39 Q1901.02 1495.5 1902.83 1499.06 Q1904.66 1502.6 1908.27 1502.6 Q1911.9 1502.6 1913.71 1499.06 Q1915.54 1495.5 1915.54 1488.39 Q1915.54 1481.26 1913.71 1477.72 Q1911.9 1474.16 1908.27 1474.16 M1908.27 1470.45 Q1914.08 1470.45 1917.13 1475.06 Q1920.21 1479.64 1920.21 1488.39 Q1920.21 1497.12 1917.13 1501.73 Q1914.08 1506.31 1908.27 1506.31 Q1902.46 1506.31 1899.38 1501.73 Q1896.32 1497.12 1896.32 1488.39 Q1896.32 1479.64 1899.38 1475.06 Q1902.46 1470.45 1908.27 1470.45 Z" fill="#000000" fill-rule="nonzero" fill-opacity="1" /><path clip-path="url(#clip560)" d="M1920.21 1464.55 L1944.32 1464.55 L1944.32 1467.75 L1920.21 1467.75 L1920.21 1464.55 Z" fill="#000000" fill-rule="nonzero" fill-opacity="1" /><path clip-path="url(#clip560)" d="M1953.18 1475.03 L1959.39 1475.03 L1959.39 1453.61 L1952.64 1454.96 L1952.64 1451.5 L1959.35 1450.15 L1963.15 1450.15 L1963.15 1475.03 L1969.36 1475.03 L1969.36 1478.23 L1953.18 1478.23 L1953.18 1475.03 Z" fill="#000000" fill-rule="nonzero" fill-opacity="1" /><path clip-path="url(#clip560)" d="M1449.51 1588.26 L1460.01 1588.26 L1460.01 1552 L1448.58 1554.29 L1448.58 1548.44 L1459.95 1546.15 L1466.37 1546.15 L1466.37 1588.26 L1476.88 1588.26 L1476.88 1593.67 L1449.51 1593.67 L1449.51 1588.26 Z" fill="#000000" fill-rule="nonzero" fill-opacity="1" /><path clip-path="url(#clip560)" d="M1486.08 1573.2 L1503.23 1573.2 L1503.23 1578.42 L1486.08 1578.42 L1486.08 1573.2 Z" fill="#000000" fill-rule="nonzero" fill-opacity="1" /><path clip-path="url(#clip560)" d="M1519.24 1551.43 L1519.24 1588.38 L1527.01 1588.38 Q1536.84 1588.38 1541.39 1583.93 Q1545.98 1579.47 1545.98 1569.86 Q1545.98 1560.31 1541.39 1555.89 Q1536.84 1551.43 1527.01 1551.43 L1519.24 1551.43 M1512.81 1546.15 L1526.02 1546.15 Q1539.83 1546.15 1546.3 1551.91 Q1552.76 1557.64 1552.76 1569.86 Q1552.76 1582.14 1546.26 1587.9 Q1539.77 1593.67 1526.02 1593.67 L1512.81 1593.67 L1512.81 1546.15 Z" fill="#000000" fill-rule="nonzero" fill-opacity="1" /><polyline clip-path="url(#clip560)" style="stroke:#000000; stroke-linecap:round; stroke-linejoin:round; stroke-width:4; stroke-opacity:1; fill:none" points="248.584,1424.38 248.584,114.832 "/>
<polyline clip-path="url(#clip560)" style="stroke:#000000; stroke-linecap:round; stroke-linejoin:round; stroke-width:4; stroke-opacity:1; fill:none" points="248.584,1387.31 267.481,1387.31 "/>
<polyline clip-path="url(#clip560)" style="stroke:#000000; stroke-linecap:round; stroke-linejoin:round; stroke-width:4; stroke-opacity:1; fill:none" points="248.584,552.559 267.481,552.559 "/>
<path clip-path="url(#clip560)" d="M106.444 1407.11 L114.083 1407.11 L114.083 1380.74 L105.773 1382.41 L105.773 1378.15 L114.036 1376.48 L118.712 1376.48 L118.712 1407.11 L126.351 1407.11 L126.351 1411.04 L106.444 1411.04 L106.444 1407.11 Z" fill="#000000" fill-rule="nonzero" fill-opacity="1" /><path clip-path="url(#clip560)" d="M145.795 1379.56 Q142.184 1379.56 140.356 1383.13 Q138.55 1386.67 138.55 1393.8 Q138.55 1400.9 140.356 1404.47 Q142.184 1408.01 145.795 1408.01 Q149.43 1408.01 151.235 1404.47 Q153.064 1400.9 153.064 1393.8 Q153.064 1386.67 151.235 1383.13 Q149.43 1379.56 145.795 1379.56 M145.795 1375.86 Q151.606 1375.86 154.661 1380.46 Q157.74 1385.05 157.74 1393.8 Q157.74 1402.52 154.661 1407.13 Q151.606 1411.71 145.795 1411.71 Q139.985 1411.71 136.907 1407.13 Q133.851 1402.52 133.851 1393.8 Q133.851 1385.05 136.907 1380.46 Q139.985 1375.86 145.795 1375.86 Z" fill="#000000" fill-rule="nonzero" fill-opacity="1" /><path clip-path="url(#clip560)" d="M157.74 1369.96 L181.851 1369.96 L181.851 1373.16 L157.74 1373.16 L157.74 1369.96 Z" fill="#000000" fill-rule="nonzero" fill-opacity="1" /><path clip-path="url(#clip560)" d="M193.324 1380.43 L206.584 1380.43 L206.584 1383.63 L188.754 1383.63 L188.754 1380.43 Q190.917 1378.2 194.641 1374.43 Q198.383 1370.65 199.343 1369.56 Q201.167 1367.51 201.882 1366.1 Q202.615 1364.67 202.615 1363.3 Q202.615 1361.06 201.035 1359.65 Q199.474 1358.24 196.954 1358.24 Q195.167 1358.24 193.174 1358.86 Q191.199 1359.48 188.942 1360.74 L188.942 1356.91 Q191.236 1355.98 193.23 1355.51 Q195.224 1355.04 196.879 1355.04 Q201.242 1355.04 203.838 1357.23 Q206.433 1359.41 206.433 1363.06 Q206.433 1364.79 205.775 1366.35 Q205.135 1367.89 203.424 1370 Q202.954 1370.54 200.433 1373.16 Q197.913 1375.75 193.324 1380.43 Z" fill="#000000" fill-rule="nonzero" fill-opacity="1" /><path clip-path="url(#clip560)" d="M106.143 572.352 L113.782 572.352 L113.782 545.986 L105.472 547.653 L105.472 543.394 L113.735 541.727 L118.411 541.727 L118.411 572.352 L126.05 572.352 L126.05 576.287 L106.143 576.287 L106.143 572.352 Z" fill="#000000" fill-rule="nonzero" fill-opacity="1" /><path clip-path="url(#clip560)" d="M145.495 544.806 Q141.883 544.806 140.055 548.37 Q138.249 551.912 138.249 559.042 Q138.249 566.148 140.055 569.713 Q141.883 573.254 145.495 573.254 Q149.129 573.254 150.934 569.713 Q152.763 566.148 152.763 559.042 Q152.763 551.912 150.934 548.37 Q149.129 544.806 145.495 544.806 M145.495 541.102 Q151.305 541.102 154.36 545.708 Q157.439 550.292 157.439 559.042 Q157.439 567.768 154.36 572.375 Q151.305 576.958 145.495 576.958 Q139.684 576.958 136.606 572.375 Q133.55 567.768 133.55 559.042 Q133.55 550.292 136.606 545.708 Q139.684 541.102 145.495 541.102 Z" fill="#000000" fill-rule="nonzero" fill-opacity="1" /><path clip-path="url(#clip560)" d="M157.439 535.203 L181.55 535.203 L181.55 538.401 L157.439 538.401 L157.439 535.203 Z" fill="#000000" fill-rule="nonzero" fill-opacity="1" /><path clip-path="url(#clip560)" d="M190.409 545.679 L196.615 545.679 L196.615 524.257 L189.863 525.611 L189.863 522.151 L196.578 520.796 L200.377 520.796 L200.377 545.679 L206.584 545.679 L206.584 548.876 L190.409 548.876 L190.409 545.679 Z" fill="#000000" fill-rule="nonzero" fill-opacity="1" /><path clip-path="url(#clip560)" d="M6.97912 931.294 L24.8349 931.294 L24.8349 923.209 Q24.8349 918.721 22.5114 916.27 Q20.188 913.82 15.8911 913.82 Q11.6261 913.82 9.30261 916.27 Q6.97912 918.721 6.97912 923.209 L6.97912 931.294 M1.69559 937.723 L1.69559 923.209 Q1.69559 915.22 5.32404 911.146 Q8.92066 907.04 15.8911 907.04 Q22.9252 907.04 26.5218 911.146 Q30.1185 915.22 30.1185 923.209 L30.1185 931.294 L49.2156 931.294 L49.2156 937.723 L1.69559 937.723 Z" fill="#000000" fill-rule="nonzero" fill-opacity="1" /><path clip-path="url(#clip560)" d="M19.0421 879.158 Q18.4692 880.145 18.2146 881.323 Q17.9281 882.469 17.9281 883.869 Q17.9281 888.834 21.1746 891.508 Q24.3893 894.15 30.4368 894.15 L49.2156 894.15 L49.2156 900.038 L13.5676 900.038 L13.5676 894.15 L19.1058 894.15 Q15.8593 892.304 14.2997 889.344 Q12.7083 886.384 12.7083 882.15 Q12.7083 881.546 12.8037 880.814 Q12.8674 880.081 13.0265 879.19 L19.0421 879.158 Z" fill="#000000" fill-rule="nonzero" fill-opacity="1" /><path clip-path="url(#clip560)" d="M17.6735 860.634 Q17.6735 865.345 21.3656 868.082 Q25.0259 870.819 31.4234 870.819 Q37.821 870.819 41.5131 868.114 Q45.1734 865.377 45.1734 860.634 Q45.1734 855.955 41.4813 853.218 Q37.7891 850.481 31.4234 850.481 Q25.0896 850.481 21.3974 853.218 Q17.6735 855.955 17.6735 860.634 M12.7083 860.634 Q12.7083 852.995 17.6735 848.635 Q22.6388 844.274 31.4234 844.274 Q40.1763 844.274 45.1734 848.635 Q50.1386 852.995 50.1386 860.634 Q50.1386 868.305 45.1734 872.665 Q40.1763 876.994 31.4234 876.994 Q22.6388 876.994 17.6735 872.665 Q12.7083 868.305 12.7083 860.634 Z" fill="#000000" fill-rule="nonzero" fill-opacity="1" /><path clip-path="url(#clip560)" d="M31.4234 808.977 Q24.9622 808.977 21.302 811.65 Q17.6099 814.292 17.6099 818.939 Q17.6099 823.586 21.302 826.259 Q24.9622 828.901 31.4234 828.901 Q37.8846 828.901 41.5767 826.259 Q45.237 823.586 45.237 818.939 Q45.237 814.292 41.5767 811.65 Q37.8846 808.977 31.4234 808.977 M18.9785 828.901 Q15.7956 827.055 14.2679 824.254 Q12.7083 821.421 12.7083 817.507 Q12.7083 811.014 17.8645 806.971 Q23.0207 802.897 31.4234 802.897 Q39.8262 802.897 44.9824 806.971 Q50.1386 811.014 50.1386 817.507 Q50.1386 821.421 48.6108 824.254 Q47.0512 827.055 43.8684 828.901 L49.2156 828.901 L49.2156 834.789 L-0.309612 834.789 L-0.309612 828.901 L18.9785 828.901 Z" fill="#000000" fill-rule="nonzero" fill-opacity="1" /><path clip-path="url(#clip560)" d="M31.2961 776.989 Q31.2961 784.087 32.9194 786.824 Q34.5426 789.561 38.4575 789.561 Q41.5767 789.561 43.4228 787.524 Q45.237 785.455 45.237 781.922 Q45.237 777.052 41.7995 774.124 Q38.3302 771.164 32.6011 771.164 L31.2961 771.164 L31.2961 776.989 M28.8772 765.308 L49.2156 765.308 L49.2156 771.164 L43.8047 771.164 Q47.0512 773.169 48.6108 776.161 Q50.1386 779.153 50.1386 783.482 Q50.1386 788.956 47.0831 792.203 Q43.9957 795.418 38.8395 795.418 Q32.8239 795.418 29.7684 791.407 Q26.7128 787.365 26.7128 779.376 L26.7128 771.164 L26.1399 771.164 Q22.0977 771.164 19.9015 773.838 Q17.6735 776.48 17.6735 781.286 Q17.6735 784.341 18.4056 787.238 Q19.1376 790.134 20.6017 792.808 L15.1909 792.808 Q13.9496 789.593 13.3448 786.569 Q12.7083 783.546 12.7083 780.681 Q12.7083 772.947 16.7187 769.127 Q20.729 765.308 28.8772 765.308 Z" fill="#000000" fill-rule="nonzero" fill-opacity="1" /><path clip-path="url(#clip560)" d="M31.4234 727.655 Q24.9622 727.655 21.302 730.328 Q17.6099 732.97 17.6099 737.617 Q17.6099 742.264 21.302 744.937 Q24.9622 747.579 31.4234 747.579 Q37.8846 747.579 41.5767 744.937 Q45.237 742.264 45.237 737.617 Q45.237 732.97 41.5767 730.328 Q37.8846 727.655 31.4234 727.655 M18.9785 747.579 Q15.7956 745.733 14.2679 742.932 Q12.7083 740.1 12.7083 736.185 Q12.7083 729.692 17.8645 725.649 Q23.0207 721.575 31.4234 721.575 Q39.8262 721.575 44.9824 725.649 Q50.1386 729.692 50.1386 736.185 Q50.1386 740.1 48.6108 742.932 Q47.0512 745.733 43.8684 747.579 L49.2156 747.579 L49.2156 753.468 L-0.309612 753.468 L-0.309612 747.579 L18.9785 747.579 Z" fill="#000000" fill-rule="nonzero" fill-opacity="1" /><path clip-path="url(#clip560)" d="M13.5676 711.868 L13.5676 706.011 L49.2156 706.011 L49.2156 711.868 L13.5676 711.868 M-0.309612 711.868 L-0.309612 706.011 L7.10644 706.011 L7.10644 711.868 L-0.309612 711.868 Z" fill="#000000" fill-rule="nonzero" fill-opacity="1" /><path clip-path="url(#clip560)" d="M-0.309612 693.757 L-0.309612 687.901 L49.2156 687.901 L49.2156 693.757 L-0.309612 693.757 Z" fill="#000000" fill-rule="nonzero" fill-opacity="1" /><path clip-path="url(#clip560)" d="M13.5676 675.647 L13.5676 669.79 L49.2156 669.79 L49.2156 675.647 L13.5676 675.647 M-0.309612 675.647 L-0.309612 669.79 L7.10644 669.79 L7.10644 675.647 L-0.309612 675.647 Z" fill="#000000" fill-rule="nonzero" fill-opacity="1" /><path clip-path="url(#clip560)" d="M3.44616 651.744 L13.5676 651.744 L13.5676 639.681 L18.1191 639.681 L18.1191 651.744 L37.4709 651.744 Q41.8314 651.744 43.0727 650.566 Q44.314 649.356 44.314 645.696 L44.314 639.681 L49.2156 639.681 L49.2156 645.696 Q49.2156 652.476 46.7011 655.054 Q44.1548 657.632 37.4709 657.632 L18.1191 657.632 L18.1191 661.929 L13.5676 661.929 L13.5676 657.632 L3.44616 657.632 L3.44616 651.744 Z" fill="#000000" fill-rule="nonzero" fill-opacity="1" /><path clip-path="url(#clip560)" d="M52.5258 617.146 Q58.8915 619.629 60.833 621.984 Q62.7745 624.339 62.7745 628.286 L62.7745 632.965 L57.8729 632.965 L57.8729 629.527 Q57.8729 627.108 56.7271 625.771 Q55.5813 624.435 51.3163 622.811 L48.6427 621.761 L13.5676 636.179 L13.5676 629.973 L41.4494 618.833 L13.5676 607.693 L13.5676 601.486 L52.5258 617.146 Z" fill="#000000" fill-rule="nonzero" fill-opacity="1" /><path clip-path="url(#clip560)" d="M905.45 19.2256 L884.791 51.5113 L905.45 51.5113 L905.45 19.2256 M903.303 12.096 L913.592 12.096 L913.592 51.5113 L922.221 51.5113 L922.221 58.3168 L913.592 58.3168 L913.592 72.576 L905.45 72.576 L905.45 58.3168 L878.147 58.3168 L878.147 50.4176 L903.303 12.096 Z" fill="#000000" fill-rule="nonzero" fill-opacity="1" /><path clip-path="url(#clip560)" d="M935.022 12.096 L943.205 12.096 L943.205 65.6895 L972.655 65.6895 L972.655 72.576 L935.022 72.576 L935.022 12.096 Z" fill="#000000" fill-rule="nonzero" fill-opacity="1" /><path clip-path="url(#clip560)" d="M1018.27 48.0275 L1018.27 51.6733 L983.997 51.6733 Q984.483 59.3701 988.615 63.421 Q992.788 67.4314 1000.2 67.4314 Q1004.49 67.4314 1008.51 66.3781 Q1012.56 65.3249 1016.53 63.2184 L1016.53 70.267 Q1012.52 71.9684 1008.3 72.8596 Q1004.09 73.7508 999.755 73.7508 Q988.899 73.7508 982.539 67.4314 Q976.219 61.1119 976.219 50.3365 Q976.219 39.1965 982.215 32.6746 Q988.251 26.1121 998.459 26.1121 Q1007.61 26.1121 1012.92 32.0264 Q1018.27 37.9003 1018.27 48.0275 M1010.81 45.84 Q1010.73 39.7232 1007.37 36.0774 Q1004.05 32.4315 998.54 32.4315 Q992.302 32.4315 988.534 35.9558 Q984.807 39.4801 984.24 45.8805 L1010.81 45.84 Z" fill="#000000" fill-rule="nonzero" fill-opacity="1" /><path clip-path="url(#clip560)" d="M1025.15 27.2059 L1033.05 27.2059 L1047.23 65.2844 L1061.41 27.2059 L1069.31 27.2059 L1052.3 72.576 L1042.17 72.576 L1025.15 27.2059 Z" fill="#000000" fill-rule="nonzero" fill-opacity="1" /><path clip-path="url(#clip560)" d="M1118.41 48.0275 L1118.41 51.6733 L1084.14 51.6733 Q1084.62 59.3701 1088.75 63.421 Q1092.93 67.4314 1100.34 67.4314 Q1104.63 67.4314 1108.64 66.3781 Q1112.69 65.3249 1116.66 63.2184 L1116.66 70.267 Q1112.65 71.9684 1108.44 72.8596 Q1104.23 73.7508 1099.89 73.7508 Q1089.04 73.7508 1082.68 67.4314 Q1076.36 61.1119 1076.36 50.3365 Q1076.36 39.1965 1082.35 32.6746 Q1088.39 26.1121 1098.6 26.1121 Q1107.75 26.1121 1113.06 32.0264 Q1118.41 37.9003 1118.41 48.0275 M1110.95 45.84 Q1110.87 39.7232 1107.51 36.0774 Q1104.19 32.4315 1098.68 32.4315 Q1092.44 32.4315 1088.67 35.9558 Q1084.95 39.4801 1084.38 45.8805 L1110.95 45.84 Z" fill="#000000" fill-rule="nonzero" fill-opacity="1" /><path clip-path="url(#clip560)" d="M1130.64 9.54393 L1138.09 9.54393 L1138.09 72.576 L1130.64 72.576 L1130.64 9.54393 Z" fill="#000000" fill-rule="nonzero" fill-opacity="1" /><path clip-path="url(#clip560)" d="M1181.96 62.2867 L1190.51 62.2867 L1190.51 72.576 L1181.96 72.576 L1181.96 62.2867 M1181.96 29.6769 L1190.51 29.6769 L1190.51 39.9662 L1181.96 39.9662 L1181.96 29.6769 Z" fill="#000000" fill-rule="nonzero" fill-opacity="1" /><path clip-path="url(#clip560)" d="M1280 16.7545 L1280 25.383 Q1275.86 21.5346 1271.17 19.6307 Q1266.51 17.7268 1261.24 17.7268 Q1250.87 17.7268 1245.36 24.0867 Q1239.85 30.4061 1239.85 42.3968 Q1239.85 54.3469 1245.36 60.7069 Q1250.87 67.0263 1261.24 67.0263 Q1266.51 67.0263 1271.17 65.1223 Q1275.86 63.2184 1280 59.3701 L1280 67.9175 Q1275.7 70.8341 1270.88 72.2924 Q1266.1 73.7508 1260.75 73.7508 Q1247.02 73.7508 1239.12 65.3654 Q1231.22 56.9395 1231.22 42.3968 Q1231.22 27.8135 1239.12 19.4281 Q1247.02 11.0023 1260.75 11.0023 Q1266.18 11.0023 1270.96 12.4606 Q1275.78 13.8784 1280 16.7545 Z" fill="#000000" fill-rule="nonzero" fill-opacity="1" /><path clip-path="url(#clip560)" d="M1330.03 45.1919 L1330.03 72.576 L1322.57 72.576 L1322.57 45.4349 Q1322.57 38.994 1320.06 35.7938 Q1317.55 32.5936 1312.53 32.5936 Q1306.49 32.5936 1303.01 36.4419 Q1299.52 40.2903 1299.52 46.9338 L1299.52 72.576 L1292.03 72.576 L1292.03 9.54393 L1299.52 9.54393 L1299.52 34.2544 Q1302.2 30.163 1305.8 28.1376 Q1309.45 26.1121 1314.19 26.1121 Q1322 26.1121 1326.02 30.9732 Q1330.03 35.7938 1330.03 45.1919 Z" fill="#000000" fill-rule="nonzero" fill-opacity="1" /><path clip-path="url(#clip560)" d="M1365.51 49.7694 Q1356.48 49.7694 1352.99 51.8354 Q1349.51 53.9013 1349.51 58.8839 Q1349.51 62.8538 1352.1 65.2034 Q1354.74 67.5124 1359.23 67.5124 Q1365.43 67.5124 1369.16 63.1374 Q1372.92 58.7219 1372.92 51.4303 L1372.92 49.7694 L1365.51 49.7694 M1380.38 46.6907 L1380.38 72.576 L1372.92 72.576 L1372.92 65.6895 Q1370.37 69.8214 1366.56 71.8063 Q1362.76 73.7508 1357.25 73.7508 Q1350.28 73.7508 1346.15 69.8619 Q1342.06 65.9325 1342.06 59.3701 Q1342.06 51.7138 1347.16 47.825 Q1352.31 43.9361 1362.47 43.9361 L1372.92 43.9361 L1372.92 43.2069 Q1372.92 38.0623 1369.52 35.2672 Q1366.16 32.4315 1360.04 32.4315 Q1356.15 32.4315 1352.47 33.3632 Q1348.78 34.295 1345.38 36.1584 L1345.38 29.2718 Q1349.47 27.692 1353.32 26.9223 Q1357.17 26.1121 1360.81 26.1121 Q1370.66 26.1121 1375.52 31.2163 Q1380.38 36.3204 1380.38 46.6907 Z" fill="#000000" fill-rule="nonzero" fill-opacity="1" /><path clip-path="url(#clip560)" d="M1395.73 27.2059 L1403.18 27.2059 L1403.18 72.576 L1395.73 72.576 L1395.73 27.2059 M1395.73 9.54393 L1403.18 9.54393 L1403.18 18.9825 L1395.73 18.9825 L1395.73 9.54393 Z" fill="#000000" fill-rule="nonzero" fill-opacity="1" /><path clip-path="url(#clip560)" d="M1456.49 45.1919 L1456.49 72.576 L1449.04 72.576 L1449.04 45.4349 Q1449.04 38.994 1446.53 35.7938 Q1444.02 32.5936 1438.99 32.5936 Q1432.96 32.5936 1429.48 36.4419 Q1425.99 40.2903 1425.99 46.9338 L1425.99 72.576 L1418.5 72.576 L1418.5 27.2059 L1425.99 27.2059 L1425.99 34.2544 Q1428.66 30.163 1432.27 28.1376 Q1435.92 26.1121 1440.66 26.1121 Q1448.47 26.1121 1452.48 30.9732 Q1456.49 35.7938 1456.49 45.1919 Z" fill="#000000" fill-rule="nonzero" fill-opacity="1" /><path clip-path="url(#clip560)" d="M1494.57 12.096 L1542.09 12.096 L1542.09 18.3344 L1503.85 65.6895 L1543.02 65.6895 L1543.02 72.576 L1493.64 72.576 L1493.64 66.3376 L1531.88 18.9825 L1494.57 18.9825 L1494.57 12.096 Z" fill="#000000" fill-rule="nonzero" fill-opacity="1" /><path clip-path="url(#clip560)" d="M1581.26 12.096 L1619.5 12.096 L1619.5 18.9825 L1589.45 18.9825 L1589.45 36.8875 L1618.25 36.8875 L1618.25 43.7741 L1589.45 43.7741 L1589.45 65.6895 L1620.23 65.6895 L1620.23 72.576 L1581.26 72.576 L1581.26 12.096 Z" fill="#000000" fill-rule="nonzero" fill-opacity="1" /><path clip-path="url(#clip560)" d="M1659.65 34.1734 Q1658.39 33.4443 1656.89 33.1202 Q1655.43 32.7556 1653.65 32.7556 Q1647.33 32.7556 1643.93 36.8875 Q1640.57 40.9789 1640.57 48.6757 L1640.57 72.576 L1633.07 72.576 L1633.07 27.2059 L1640.57 27.2059 L1640.57 34.2544 Q1642.92 30.1225 1646.68 28.1376 Q1650.45 26.1121 1655.84 26.1121 Q1656.61 26.1121 1657.54 26.2337 Q1658.47 26.3147 1659.61 26.5172 L1659.65 34.1734 Z" fill="#000000" fill-rule="nonzero" fill-opacity="1" /><path clip-path="url(#clip560)" d="M1692.3 34.1734 Q1691.04 33.4443 1689.54 33.1202 Q1688.08 32.7556 1686.3 32.7556 Q1679.98 32.7556 1676.58 36.8875 Q1673.22 40.9789 1673.22 48.6757 L1673.22 72.576 L1665.72 72.576 L1665.72 27.2059 L1673.22 27.2059 L1673.22 34.2544 Q1675.57 30.1225 1679.33 28.1376 Q1683.1 26.1121 1688.49 26.1121 Q1689.26 26.1121 1690.19 26.2337 Q1691.12 26.3147 1692.26 26.5172 L1692.3 34.1734 Z" fill="#000000" fill-rule="nonzero" fill-opacity="1" /><path clip-path="url(#clip560)" d="M1715.87 32.4315 Q1709.88 32.4315 1706.39 37.1306 Q1702.91 41.7891 1702.91 49.9314 Q1702.91 58.0738 1706.35 62.7728 Q1709.84 67.4314 1715.87 67.4314 Q1721.83 67.4314 1725.31 62.7323 Q1728.8 58.0333 1728.8 49.9314 Q1728.8 41.8701 1725.31 37.1711 Q1721.83 32.4315 1715.87 32.4315 M1715.87 26.1121 Q1725.6 26.1121 1731.15 32.4315 Q1736.7 38.7509 1736.7 49.9314 Q1736.7 61.0714 1731.15 67.4314 Q1725.6 73.7508 1715.87 73.7508 Q1706.11 73.7508 1700.56 67.4314 Q1695.05 61.0714 1695.05 49.9314 Q1695.05 38.7509 1700.56 32.4315 Q1706.11 26.1121 1715.87 26.1121 Z" fill="#000000" fill-rule="nonzero" fill-opacity="1" /><path clip-path="url(#clip560)" d="M1775.34 34.1734 Q1774.09 33.4443 1772.59 33.1202 Q1771.13 32.7556 1769.35 32.7556 Q1763.03 32.7556 1759.62 36.8875 Q1756.26 40.9789 1756.26 48.6757 L1756.26 72.576 L1748.77 72.576 L1748.77 27.2059 L1756.26 27.2059 L1756.26 34.2544 Q1758.61 30.1225 1762.38 28.1376 Q1766.15 26.1121 1771.53 26.1121 Q1772.3 26.1121 1773.23 26.2337 Q1774.17 26.3147 1775.3 26.5172 L1775.34 34.1734 Z" fill="#000000" fill-rule="nonzero" fill-opacity="1" /><path clip-path="url(#clip560)" d="M1783.61 62.2867 L1792.15 62.2867 L1792.15 72.576 L1783.61 72.576 L1783.61 62.2867 M1783.61 29.6769 L1792.15 29.6769 L1792.15 39.9662 L1783.61 39.9662 L1783.61 29.6769 Z" fill="#000000" fill-rule="nonzero" fill-opacity="1" /><path clip-path="url(#clip560)" d="M1842.83 34.3355 L1852.75 62.3677 L1866.93 27.2059 L1874.83 27.2059 L1856.48 72.576 L1856.48 89.8329 L1849.03 89.8329 L1849.03 72.576 L1837.12 38.7104 Q1835.34 33.6063 1831.49 33.6063 L1829.5 33.6063 L1829.5 27.2059 L1832.34 27.2059 Q1840.32 27.2059 1842.83 34.3355 Z" fill="#000000" fill-rule="nonzero" fill-opacity="1" /><path clip-path="url(#clip560)" d="M1912.46 34.9026 L1964.4 34.9026 L1964.4 41.7081 L1912.46 41.7081 L1912.46 34.9026 M1912.46 51.4303 L1964.4 51.4303 L1964.4 58.3168 L1912.46 58.3168 L1912.46 51.4303 Z" fill="#000000" fill-rule="nonzero" fill-opacity="1" /><path clip-path="url(#clip560)" d="M2025.93 17.4837 Q2019.61 17.4837 2016.41 23.7221 Q2013.25 29.92 2013.25 42.3968 Q2013.25 54.833 2016.41 61.0714 Q2019.61 67.2693 2025.93 67.2693 Q2032.29 67.2693 2035.45 61.0714 Q2038.65 54.833 2038.65 42.3968 Q2038.65 29.92 2035.45 23.7221 Q2032.29 17.4837 2025.93 17.4837 M2025.93 11.0023 Q2036.1 11.0023 2041.45 19.0636 Q2046.83 27.0843 2046.83 42.3968 Q2046.83 57.6687 2041.45 65.73 Q2036.1 73.7508 2025.93 73.7508 Q2015.76 73.7508 2010.37 65.73 Q2005.03 57.6687 2005.03 42.3968 Q2005.03 27.0843 2010.37 19.0636 Q2015.76 11.0023 2025.93 11.0023 Z" fill="#000000" fill-rule="nonzero" fill-opacity="1" /><path clip-path="url(#clip560)" d="M2061.21 62.2867 L2069.76 62.2867 L2069.76 72.576 L2061.21 72.576 L2061.21 62.2867 Z" fill="#000000" fill-rule="nonzero" fill-opacity="1" /><path clip-path="url(#clip560)" d="M2094.63 65.6895 L2123.19 65.6895 L2123.19 72.576 L2084.79 72.576 L2084.79 65.6895 Q2089.45 60.8689 2097.47 52.7671 Q2105.53 44.6248 2107.6 42.2752 Q2111.53 37.8598 2113.07 34.8216 Q2114.65 31.7429 2114.65 28.7857 Q2114.65 23.9651 2111.24 20.927 Q2107.88 17.8888 2102.45 17.8888 Q2098.6 17.8888 2094.31 19.2256 Q2090.06 20.5624 2085.19 23.2765 L2085.19 15.0127 Q2090.14 13.0277 2094.43 12.015 Q2098.72 11.0023 2102.29 11.0023 Q2111.69 11.0023 2117.28 15.7013 Q2122.87 20.4004 2122.87 28.2591 Q2122.87 31.9859 2121.45 35.3482 Q2120.07 38.6699 2116.39 43.2069 Q2115.37 44.3817 2109.95 50.0125 Q2104.52 55.6027 2094.63 65.6895 Z" fill="#000000" fill-rule="nonzero" fill-opacity="1" /><polyline clip-path="url(#clip562)" style="stroke:#009af9; stroke-linecap:round; stroke-linejoin:round; stroke-width:4; stroke-opacity:1; fill:none" points="2681.88,151.895 2658.34,163.98 2633.96,176.482 2608.7,189.431 2582.49,202.86 2555.24,216.805 2526.89,231.308 2497.33,246.416 2466.45,262.18 2434.14,278.662 2400.25,295.928 2364.62,314.059 2327.07,333.144 2287.37,353.289 2245.26,374.621 2200.43,397.286 2152.51,421.464 2101.04,447.37 2045.44,475.27 1985,505.499 1918.8,538.479 1845.62,574.762 1763.81,615.084 1671.06,660.46 1563.99,712.338 1437.35,772.9 1282.36,845.649 1082.54,936.758 800.907,1058.74 319.456,1243.93 "/>
<circle clip-path="url(#clip562)" cx="2681.88" cy="151.895" r="14.4" fill="#009af9" fill-rule="evenodd" fill-opacity="1" stroke="#000000" stroke-opacity="1" stroke-width="3.2"/>
<circle clip-path="url(#clip562)" cx="2658.34" cy="163.98" r="14.4" fill="#009af9" fill-rule="evenodd" fill-opacity="1" stroke="#000000" stroke-opacity="1" stroke-width="3.2"/>
<circle clip-path="url(#clip562)" cx="2633.96" cy="176.482" r="14.4" fill="#009af9" fill-rule="evenodd" fill-opacity="1" stroke="#000000" stroke-opacity="1" stroke-width="3.2"/>
<circle clip-path="url(#clip562)" cx="2608.7" cy="189.431" r="14.4" fill="#009af9" fill-rule="evenodd" fill-opacity="1" stroke="#000000" stroke-opacity="1" stroke-width="3.2"/>
<circle clip-path="url(#clip562)" cx="2582.49" cy="202.86" r="14.4" fill="#009af9" fill-rule="evenodd" fill-opacity="1" stroke="#000000" stroke-opacity="1" stroke-width="3.2"/>
<circle clip-path="url(#clip562)" cx="2555.24" cy="216.805" r="14.4" fill="#009af9" fill-rule="evenodd" fill-opacity="1" stroke="#000000" stroke-opacity="1" stroke-width="3.2"/>
<circle clip-path="url(#clip562)" cx="2526.89" cy="231.308" r="14.4" fill="#009af9" fill-rule="evenodd" fill-opacity="1" stroke="#000000" stroke-opacity="1" stroke-width="3.2"/>
<circle clip-path="url(#clip562)" cx="2497.33" cy="246.416" r="14.4" fill="#009af9" fill-rule="evenodd" fill-opacity="1" stroke="#000000" stroke-opacity="1" stroke-width="3.2"/>
<circle clip-path="url(#clip562)" cx="2466.45" cy="262.18" r="14.4" fill="#009af9" fill-rule="evenodd" fill-opacity="1" stroke="#000000" stroke-opacity="1" stroke-width="3.2"/>
<circle clip-path="url(#clip562)" cx="2434.14" cy="278.662" r="14.4" fill="#009af9" fill-rule="evenodd" fill-opacity="1" stroke="#000000" stroke-opacity="1" stroke-width="3.2"/>
<circle clip-path="url(#clip562)" cx="2400.25" cy="295.928" r="14.4" fill="#009af9" fill-rule="evenodd" fill-opacity="1" stroke="#000000" stroke-opacity="1" stroke-width="3.2"/>
<circle clip-path="url(#clip562)" cx="2364.62" cy="314.059" r="14.4" fill="#009af9" fill-rule="evenodd" fill-opacity="1" stroke="#000000" stroke-opacity="1" stroke-width="3.2"/>
<circle clip-path="url(#clip562)" cx="2327.07" cy="333.144" r="14.4" fill="#009af9" fill-rule="evenodd" fill-opacity="1" stroke="#000000" stroke-opacity="1" stroke-width="3.2"/>
<circle clip-path="url(#clip562)" cx="2287.37" cy="353.289" r="14.4" fill="#009af9" fill-rule="evenodd" fill-opacity="1" stroke="#000000" stroke-opacity="1" stroke-width="3.2"/>
<circle clip-path="url(#clip562)" cx="2245.26" cy="374.621" r="14.4" fill="#009af9" fill-rule="evenodd" fill-opacity="1" stroke="#000000" stroke-opacity="1" stroke-width="3.2"/>
<circle clip-path="url(#clip562)" cx="2200.43" cy="397.286" r="14.4" fill="#009af9" fill-rule="evenodd" fill-opacity="1" stroke="#000000" stroke-opacity="1" stroke-width="3.2"/>
<circle clip-path="url(#clip562)" cx="2152.51" cy="421.464" r="14.4" fill="#009af9" fill-rule="evenodd" fill-opacity="1" stroke="#000000" stroke-opacity="1" stroke-width="3.2"/>
<circle clip-path="url(#clip562)" cx="2101.04" cy="447.37" r="14.4" fill="#009af9" fill-rule="evenodd" fill-opacity="1" stroke="#000000" stroke-opacity="1" stroke-width="3.2"/>
<circle clip-path="url(#clip562)" cx="2045.44" cy="475.27" r="14.4" fill="#009af9" fill-rule="evenodd" fill-opacity="1" stroke="#000000" stroke-opacity="1" stroke-width="3.2"/>
<circle clip-path="url(#clip562)" cx="1985" cy="505.499" r="14.4" fill="#009af9" fill-rule="evenodd" fill-opacity="1" stroke="#000000" stroke-opacity="1" stroke-width="3.2"/>
<circle clip-path="url(#clip562)" cx="1918.8" cy="538.479" r="14.4" fill="#009af9" fill-rule="evenodd" fill-opacity="1" stroke="#000000" stroke-opacity="1" stroke-width="3.2"/>
<circle clip-path="url(#clip562)" cx="1845.62" cy="574.762" r="14.4" fill="#009af9" fill-rule="evenodd" fill-opacity="1" stroke="#000000" stroke-opacity="1" stroke-width="3.2"/>
<circle clip-path="url(#clip562)" cx="1763.81" cy="615.084" r="14.4" fill="#009af9" fill-rule="evenodd" fill-opacity="1" stroke="#000000" stroke-opacity="1" stroke-width="3.2"/>
<circle clip-path="url(#clip562)" cx="1671.06" cy="660.46" r="14.4" fill="#009af9" fill-rule="evenodd" fill-opacity="1" stroke="#000000" stroke-opacity="1" stroke-width="3.2"/>
<circle clip-path="url(#clip562)" cx="1563.99" cy="712.338" r="14.4" fill="#009af9" fill-rule="evenodd" fill-opacity="1" stroke="#000000" stroke-opacity="1" stroke-width="3.2"/>
<circle clip-path="url(#clip562)" cx="1437.35" cy="772.9" r="14.4" fill="#009af9" fill-rule="evenodd" fill-opacity="1" stroke="#000000" stroke-opacity="1" stroke-width="3.2"/>
<circle clip-path="url(#clip562)" cx="1282.36" cy="845.649" r="14.4" fill="#009af9" fill-rule="evenodd" fill-opacity="1" stroke="#000000" stroke-opacity="1" stroke-width="3.2"/>
<circle clip-path="url(#clip562)" cx="1082.54" cy="936.758" r="14.4" fill="#009af9" fill-rule="evenodd" fill-opacity="1" stroke="#000000" stroke-opacity="1" stroke-width="3.2"/>
<circle clip-path="url(#clip562)" cx="800.907" cy="1058.74" r="14.4" fill="#009af9" fill-rule="evenodd" fill-opacity="1" stroke="#000000" stroke-opacity="1" stroke-width="3.2"/>
<circle clip-path="url(#clip562)" cx="319.456" cy="1243.93" r="14.4" fill="#009af9" fill-rule="evenodd" fill-opacity="1" stroke="#000000" stroke-opacity="1" stroke-width="3.2"/>
<polyline clip-path="url(#clip562)" style="stroke:#e26f46; stroke-linecap:round; stroke-linejoin:round; stroke-width:4; stroke-opacity:1; fill:none" points="2681.88,153.212 2658.34,165.41 2633.96,178.034 2608.7,191.112 2582.49,204.68 2555.24,218.776 2526.89,233.442 2497.33,248.727 2466.45,264.684 2434.14,281.377 2400.25,298.875 2364.62,317.26 2327.07,336.629 2287.37,357.09 2245.26,378.776 2200.43,401.842 2152.51,426.477 2101.04,452.907 2045.44,481.418 1985,512.363 1918.8,546.199 1845.62,583.521 1763.81,625.13 1671.06,672.142 1563.99,726.172 1437.35,789.689 1282.36,866.748 1082.54,964.737 800.907,1099.44 319.456,1316.17 "/>
<path clip-path="url(#clip562)" d="M2681.88 137.212 L2665.88 153.212 L2681.88 169.212 L2697.88 153.212 L2681.88 137.212 Z" fill="#e26f46" fill-rule="evenodd" fill-opacity="1" stroke="#000000" stroke-opacity="1" stroke-width="3.2"/>
<path clip-path="url(#clip562)" d="M2658.34 149.41 L2642.34 165.41 L2658.34 181.41 L2674.34 165.41 L2658.34 149.41 Z" fill="#e26f46" fill-rule="evenodd" fill-opacity="1" stroke="#000000" stroke-opacity="1" stroke-width="3.2"/>
<path clip-path="url(#clip562)" d="M2633.96 162.034 L2617.96 178.034 L2633.96 194.034 L2649.96 178.034 L2633.96 162.034 Z" fill="#e26f46" fill-rule="evenodd" fill-opacity="1" stroke="#000000" stroke-opacity="1" stroke-width="3.2"/>
<path clip-path="url(#clip562)" d="M2608.7 175.112 L2592.7 191.112 L2608.7 207.112 L2624.7 191.112 L2608.7 175.112 Z" fill="#e26f46" fill-rule="evenodd" fill-opacity="1" stroke="#000000" stroke-opacity="1" stroke-width="3.2"/>
<path clip-path="url(#clip562)" d="M2582.49 188.68 L2566.49 204.68 L2582.49 220.68 L2598.49 204.68 L2582.49 188.68 Z" fill="#e26f46" fill-rule="evenodd" fill-opacity="1" stroke="#000000" stroke-opacity="1" stroke-width="3.2"/>
<path clip-path="url(#clip562)" d="M2555.24 202.776 L2539.24 218.776 L2555.24 234.776 L2571.24 218.776 L2555.24 202.776 Z" fill="#e26f46" fill-rule="evenodd" fill-opacity="1" stroke="#000000" stroke-opacity="1" stroke-width="3.2"/>
<path clip-path="url(#clip562)" d="M2526.89 217.442 L2510.89 233.442 L2526.89 249.442 L2542.89 233.442 L2526.89 217.442 Z" fill="#e26f46" fill-rule="evenodd" fill-opacity="1" stroke="#000000" stroke-opacity="1" stroke-width="3.2"/>
<path clip-path="url(#clip562)" d="M2497.33 232.727 L2481.33 248.727 L2497.33 264.727 L2513.33 248.727 L2497.33 232.727 Z" fill="#e26f46" fill-rule="evenodd" fill-opacity="1" stroke="#000000" stroke-opacity="1" stroke-width="3.2"/>
<path clip-path="url(#clip562)" d="M2466.45 248.684 L2450.45 264.684 L2466.45 280.684 L2482.45 264.684 L2466.45 248.684 Z" fill="#e26f46" fill-rule="evenodd" fill-opacity="1" stroke="#000000" stroke-opacity="1" stroke-width="3.2"/>
<path clip-path="url(#clip562)" d="M2434.14 265.377 L2418.14 281.377 L2434.14 297.377 L2450.14 281.377 L2434.14 265.377 Z" fill="#e26f46" fill-rule="evenodd" fill-opacity="1" stroke="#000000" stroke-opacity="1" stroke-width="3.2"/>
<path clip-path="url(#clip562)" d="M2400.25 282.875 L2384.25 298.875 L2400.25 314.875 L2416.25 298.875 L2400.25 282.875 Z" fill="#e26f46" fill-rule="evenodd" fill-opacity="1" stroke="#000000" stroke-opacity="1" stroke-width="3.2"/>
<path clip-path="url(#clip562)" d="M2364.62 301.26 L2348.62 317.26 L2364.62 333.26 L2380.62 317.26 L2364.62 301.26 Z" fill="#e26f46" fill-rule="evenodd" fill-opacity="1" stroke="#000000" stroke-opacity="1" stroke-width="3.2"/>
<path clip-path="url(#clip562)" d="M2327.07 320.629 L2311.07 336.629 L2327.07 352.629 L2343.07 336.629 L2327.07 320.629 Z" fill="#e26f46" fill-rule="evenodd" fill-opacity="1" stroke="#000000" stroke-opacity="1" stroke-width="3.2"/>
<path clip-path="url(#clip562)" d="M2287.37 341.09 L2271.37 357.09 L2287.37 373.09 L2303.37 357.09 L2287.37 341.09 Z" fill="#e26f46" fill-rule="evenodd" fill-opacity="1" stroke="#000000" stroke-opacity="1" stroke-width="3.2"/>
<path clip-path="url(#clip562)" d="M2245.26 362.776 L2229.26 378.776 L2245.26 394.776 L2261.26 378.776 L2245.26 362.776 Z" fill="#e26f46" fill-rule="evenodd" fill-opacity="1" stroke="#000000" stroke-opacity="1" stroke-width="3.2"/>
<path clip-path="url(#clip562)" d="M2200.43 385.842 L2184.43 401.842 L2200.43 417.842 L2216.43 401.842 L2200.43 385.842 Z" fill="#e26f46" fill-rule="evenodd" fill-opacity="1" stroke="#000000" stroke-opacity="1" stroke-width="3.2"/>
<path clip-path="url(#clip562)" d="M2152.51 410.477 L2136.51 426.477 L2152.51 442.477 L2168.51 426.477 L2152.51 410.477 Z" fill="#e26f46" fill-rule="evenodd" fill-opacity="1" stroke="#000000" stroke-opacity="1" stroke-width="3.2"/>
<path clip-path="url(#clip562)" d="M2101.04 436.907 L2085.04 452.907 L2101.04 468.907 L2117.04 452.907 L2101.04 436.907 Z" fill="#e26f46" fill-rule="evenodd" fill-opacity="1" stroke="#000000" stroke-opacity="1" stroke-width="3.2"/>
<path clip-path="url(#clip562)" d="M2045.44 465.418 L2029.44 481.418 L2045.44 497.418 L2061.44 481.418 L2045.44 465.418 Z" fill="#e26f46" fill-rule="evenodd" fill-opacity="1" stroke="#000000" stroke-opacity="1" stroke-width="3.2"/>
<path clip-path="url(#clip562)" d="M1985 496.363 L1969 512.363 L1985 528.363 L2001 512.363 L1985 496.363 Z" fill="#e26f46" fill-rule="evenodd" fill-opacity="1" stroke="#000000" stroke-opacity="1" stroke-width="3.2"/>
<path clip-path="url(#clip562)" d="M1918.8 530.199 L1902.8 546.199 L1918.8 562.199 L1934.8 546.199 L1918.8 530.199 Z" fill="#e26f46" fill-rule="evenodd" fill-opacity="1" stroke="#000000" stroke-opacity="1" stroke-width="3.2"/>
<path clip-path="url(#clip562)" d="M1845.62 567.521 L1829.62 583.521 L1845.62 599.521 L1861.62 583.521 L1845.62 567.521 Z" fill="#e26f46" fill-rule="evenodd" fill-opacity="1" stroke="#000000" stroke-opacity="1" stroke-width="3.2"/>
<path clip-path="url(#clip562)" d="M1763.81 609.13 L1747.81 625.13 L1763.81 641.13 L1779.81 625.13 L1763.81 609.13 Z" fill="#e26f46" fill-rule="evenodd" fill-opacity="1" stroke="#000000" stroke-opacity="1" stroke-width="3.2"/>
<path clip-path="url(#clip562)" d="M1671.06 656.142 L1655.06 672.142 L1671.06 688.142 L1687.06 672.142 L1671.06 656.142 Z" fill="#e26f46" fill-rule="evenodd" fill-opacity="1" stroke="#000000" stroke-opacity="1" stroke-width="3.2"/>
<path clip-path="url(#clip562)" d="M1563.99 710.172 L1547.99 726.172 L1563.99 742.172 L1579.99 726.172 L1563.99 710.172 Z" fill="#e26f46" fill-rule="evenodd" fill-opacity="1" stroke="#000000" stroke-opacity="1" stroke-width="3.2"/>
<path clip-path="url(#clip562)" d="M1437.35 773.689 L1421.35 789.689 L1437.35 805.689 L1453.35 789.689 L1437.35 773.689 Z" fill="#e26f46" fill-rule="evenodd" fill-opacity="1" stroke="#000000" stroke-opacity="1" stroke-width="3.2"/>
<path clip-path="url(#clip562)" d="M1282.36 850.748 L1266.36 866.748 L1282.36 882.748 L1298.36 866.748 L1282.36 850.748 Z" fill="#e26f46" fill-rule="evenodd" fill-opacity="1" stroke="#000000" stroke-opacity="1" stroke-width="3.2"/>
<path clip-path="url(#clip562)" d="M1082.54 948.737 L1066.54 964.737 L1082.54 980.737 L1098.54 964.737 L1082.54 948.737 Z" fill="#e26f46" fill-rule="evenodd" fill-opacity="1" stroke="#000000" stroke-opacity="1" stroke-width="3.2"/>
<path clip-path="url(#clip562)" d="M800.907 1083.44 L784.907 1099.44 L800.907 1115.44 L816.907 1099.44 L800.907 1083.44 Z" fill="#e26f46" fill-rule="evenodd" fill-opacity="1" stroke="#000000" stroke-opacity="1" stroke-width="3.2"/>
<path clip-path="url(#clip562)" d="M319.456 1300.17 L303.456 1316.17 L319.456 1332.17 L335.456 1316.17 L319.456 1300.17 Z" fill="#e26f46" fill-rule="evenodd" fill-opacity="1" stroke="#000000" stroke-opacity="1" stroke-width="3.2"/>
<polyline clip-path="url(#clip562)" style="stroke:#3da44d; stroke-linecap:round; stroke-linejoin:round; stroke-width:4; stroke-opacity:1; fill:none" points="2681.88,154.28 2658.34,166.57 2633.96,179.292 2608.7,192.476 2582.49,206.158 2555.24,220.377 2526.89,235.176 2497.33,250.605 2466.45,266.72 2434.14,283.585 2400.25,301.273 2364.62,319.868 2327.07,339.469 2287.37,360.191 2245.26,382.169 2200.43,405.566 2152.51,430.578 2101.04,457.444 2045.44,486.462 1985,518.007 1918.8,552.559 1845.62,590.756 1763.81,633.455 1671.06,681.864 1563.99,737.749 1437.35,803.846 1282.36,884.742 1082.54,989.035 800.907,1136.03 319.456,1387.31 "/>
<path clip-path="url(#clip562)" d="M2681.88 138.28 L2678.12 149.096 L2666.67 149.336 L2675.8 156.264 L2672.48 167.224 L2681.88 160.68 L2691.29 167.224 L2687.96 156.264 L2697.1 149.336 L2685.64 149.096 L2681.88 138.28 Z" fill="#3da44d" fill-rule="evenodd" fill-opacity="1" stroke="#000000" stroke-opacity="1" stroke-width="3.2"/>
<path clip-path="url(#clip562)" d="M2658.34 150.57 L2654.58 161.386 L2643.12 161.626 L2652.26 168.554 L2648.93 179.514 L2658.34 172.97 L2667.74 179.514 L2664.42 168.554 L2673.55 161.626 L2662.1 161.386 L2658.34 150.57 Z" fill="#3da44d" fill-rule="evenodd" fill-opacity="1" stroke="#000000" stroke-opacity="1" stroke-width="3.2"/>
<path clip-path="url(#clip562)" d="M2633.96 163.292 L2630.2 174.108 L2618.75 174.348 L2627.88 181.276 L2624.55 192.236 L2633.96 185.692 L2643.37 192.236 L2640.04 181.276 L2649.18 174.348 L2637.72 174.108 L2633.96 163.292 Z" fill="#3da44d" fill-rule="evenodd" fill-opacity="1" stroke="#000000" stroke-opacity="1" stroke-width="3.2"/>
<path clip-path="url(#clip562)" d="M2608.7 176.476 L2604.94 187.292 L2593.49 187.532 L2602.62 194.46 L2599.29 205.42 L2608.7 198.876 L2618.11 205.42 L2614.78 194.46 L2623.92 187.532 L2612.46 187.292 L2608.7 176.476 Z" fill="#3da44d" fill-rule="evenodd" fill-opacity="1" stroke="#000000" stroke-opacity="1" stroke-width="3.2"/>
<path clip-path="url(#clip562)" d="M2582.49 190.158 L2578.73 200.974 L2567.27 201.214 L2576.41 208.142 L2573.08 219.102 L2582.49 212.558 L2591.9 219.102 L2588.57 208.142 L2597.7 201.214 L2586.25 200.974 L2582.49 190.158 Z" fill="#3da44d" fill-rule="evenodd" fill-opacity="1" stroke="#000000" stroke-opacity="1" stroke-width="3.2"/>
<path clip-path="url(#clip562)" d="M2555.24 204.377 L2551.48 215.193 L2540.03 215.433 L2549.16 222.361 L2545.84 233.321 L2555.24 226.777 L2564.65 233.321 L2561.32 222.361 L2570.46 215.433 L2559 215.193 L2555.24 204.377 Z" fill="#3da44d" fill-rule="evenodd" fill-opacity="1" stroke="#000000" stroke-opacity="1" stroke-width="3.2"/>
<path clip-path="url(#clip562)" d="M2526.89 219.176 L2523.13 229.992 L2511.67 230.232 L2520.81 237.16 L2517.48 248.12 L2526.89 241.576 L2536.3 248.12 L2532.97 237.16 L2542.11 230.232 L2530.65 229.992 L2526.89 219.176 Z" fill="#3da44d" fill-rule="evenodd" fill-opacity="1" stroke="#000000" stroke-opacity="1" stroke-width="3.2"/>
<path clip-path="url(#clip562)" d="M2497.33 234.605 L2493.57 245.421 L2482.11 245.661 L2491.25 252.589 L2487.92 263.549 L2497.33 257.005 L2506.74 263.549 L2503.41 252.589 L2512.55 245.661 L2501.09 245.421 L2497.33 234.605 Z" fill="#3da44d" fill-rule="evenodd" fill-opacity="1" stroke="#000000" stroke-opacity="1" stroke-width="3.2"/>
<path clip-path="url(#clip562)" d="M2466.45 250.72 L2462.69 261.536 L2451.24 261.776 L2460.37 268.704 L2457.05 279.664 L2466.45 273.12 L2475.86 279.664 L2472.53 268.704 L2481.67 261.776 L2470.21 261.536 L2466.45 250.72 Z" fill="#3da44d" fill-rule="evenodd" fill-opacity="1" stroke="#000000" stroke-opacity="1" stroke-width="3.2"/>
<path clip-path="url(#clip562)" d="M2434.14 267.585 L2430.38 278.401 L2418.93 278.641 L2428.06 285.569 L2424.73 296.529 L2434.14 289.985 L2443.55 296.529 L2440.22 285.569 L2449.36 278.641 L2437.9 278.401 L2434.14 267.585 Z" fill="#3da44d" fill-rule="evenodd" fill-opacity="1" stroke="#000000" stroke-opacity="1" stroke-width="3.2"/>
<path clip-path="url(#clip562)" d="M2400.25 285.273 L2396.49 296.089 L2385.04 296.329 L2394.17 303.257 L2390.84 314.217 L2400.25 307.673 L2409.66 314.217 L2406.33 303.257 L2415.47 296.329 L2404.01 296.089 L2400.25 285.273 Z" fill="#3da44d" fill-rule="evenodd" fill-opacity="1" stroke="#000000" stroke-opacity="1" stroke-width="3.2"/>
<path clip-path="url(#clip562)" d="M2364.62 303.868 L2360.86 314.684 L2349.41 314.924 L2358.54 321.852 L2355.22 332.812 L2364.62 326.268 L2374.03 332.812 L2370.7 321.852 L2379.84 314.924 L2368.38 314.684 L2364.62 303.868 Z" fill="#3da44d" fill-rule="evenodd" fill-opacity="1" stroke="#000000" stroke-opacity="1" stroke-width="3.2"/>
<path clip-path="url(#clip562)" d="M2327.07 323.469 L2323.31 334.285 L2311.85 334.525 L2320.99 341.453 L2317.66 352.413 L2327.07 345.869 L2336.48 352.413 L2333.15 341.453 L2342.29 334.525 L2330.83 334.285 L2327.07 323.469 Z" fill="#3da44d" fill-rule="evenodd" fill-opacity="1" stroke="#000000" stroke-opacity="1" stroke-width="3.2"/>
<path clip-path="url(#clip562)" d="M2287.37 344.191 L2283.61 355.007 L2272.15 355.247 L2281.29 362.175 L2277.96 373.135 L2287.37 366.591 L2296.78 373.135 L2293.45 362.175 L2302.58 355.247 L2291.13 355.007 L2287.37 344.191 Z" fill="#3da44d" fill-rule="evenodd" fill-opacity="1" stroke="#000000" stroke-opacity="1" stroke-width="3.2"/>
<path clip-path="url(#clip562)" d="M2245.26 366.169 L2241.5 376.985 L2230.04 377.225 L2239.18 384.153 L2235.85 395.113 L2245.26 388.569 L2254.67 395.113 L2251.34 384.153 L2260.48 377.225 L2249.02 376.985 L2245.26 366.169 Z" fill="#3da44d" fill-rule="evenodd" fill-opacity="1" stroke="#000000" stroke-opacity="1" stroke-width="3.2"/>
<path clip-path="url(#clip562)" d="M2200.43 389.566 L2196.67 400.382 L2185.22 400.622 L2194.35 407.55 L2191.02 418.51 L2200.43 411.966 L2209.84 418.51 L2206.51 407.55 L2215.65 400.622 L2204.19 400.382 L2200.43 389.566 Z" fill="#3da44d" fill-rule="evenodd" fill-opacity="1" stroke="#000000" stroke-opacity="1" stroke-width="3.2"/>
<path clip-path="url(#clip562)" d="M2152.51 414.578 L2148.75 425.394 L2137.29 425.634 L2146.43 432.562 L2143.1 443.522 L2152.51 436.978 L2161.92 443.522 L2158.59 432.562 L2167.73 425.634 L2156.27 425.394 L2152.51 414.578 Z" fill="#3da44d" fill-rule="evenodd" fill-opacity="1" stroke="#000000" stroke-opacity="1" stroke-width="3.2"/>
<path clip-path="url(#clip562)" d="M2101.04 441.444 L2097.28 452.26 L2085.82 452.5 L2094.96 459.428 L2091.63 470.388 L2101.04 463.844 L2110.44 470.388 L2107.12 459.428 L2116.25 452.5 L2104.8 452.26 L2101.04 441.444 Z" fill="#3da44d" fill-rule="evenodd" fill-opacity="1" stroke="#000000" stroke-opacity="1" stroke-width="3.2"/>
<path clip-path="url(#clip562)" d="M2045.44 470.462 L2041.68 481.278 L2030.22 481.518 L2039.36 488.446 L2036.03 499.406 L2045.44 492.862 L2054.85 499.406 L2051.52 488.446 L2060.66 481.518 L2049.2 481.278 L2045.44 470.462 Z" fill="#3da44d" fill-rule="evenodd" fill-opacity="1" stroke="#000000" stroke-opacity="1" stroke-width="3.2"/>
<path clip-path="url(#clip562)" d="M1985 502.007 L1981.24 512.823 L1969.79 513.063 L1978.92 519.991 L1975.59 530.951 L1985 524.407 L1994.41 530.951 L1991.08 519.991 L2000.22 513.063 L1988.76 512.823 L1985 502.007 Z" fill="#3da44d" fill-rule="evenodd" fill-opacity="1" stroke="#000000" stroke-opacity="1" stroke-width="3.2"/>
<path clip-path="url(#clip562)" d="M1918.8 536.559 L1915.04 547.375 L1903.59 547.615 L1912.72 554.543 L1909.39 565.503 L1918.8 558.959 L1928.21 565.503 L1924.88 554.543 L1934.02 547.615 L1922.56 547.375 L1918.8 536.559 Z" fill="#3da44d" fill-rule="evenodd" fill-opacity="1" stroke="#000000" stroke-opacity="1" stroke-width="3.2"/>
<path clip-path="url(#clip562)" d="M1845.62 574.756 L1841.86 585.572 L1830.4 585.812 L1839.54 592.74 L1836.21 603.7 L1845.62 597.156 L1855.03 603.7 L1851.7 592.74 L1860.84 585.812 L1849.38 585.572 L1845.62 574.756 Z" fill="#3da44d" fill-rule="evenodd" fill-opacity="1" stroke="#000000" stroke-opacity="1" stroke-width="3.2"/>
<path clip-path="url(#clip562)" d="M1763.81 617.455 L1760.05 628.271 L1748.59 628.511 L1757.73 635.439 L1754.4 646.399 L1763.81 639.855 L1773.22 646.399 L1769.89 635.439 L1779.02 628.511 L1767.57 628.271 L1763.81 617.455 Z" fill="#3da44d" fill-rule="evenodd" fill-opacity="1" stroke="#000000" stroke-opacity="1" stroke-width="3.2"/>
<path clip-path="url(#clip562)" d="M1671.06 665.864 L1667.3 676.68 L1655.84 676.92 L1664.98 683.848 L1661.65 694.808 L1671.06 688.264 L1680.47 694.808 L1677.14 683.848 L1686.28 676.92 L1674.82 676.68 L1671.06 665.864 Z" fill="#3da44d" fill-rule="evenodd" fill-opacity="1" stroke="#000000" stroke-opacity="1" stroke-width="3.2"/>
<path clip-path="url(#clip562)" d="M1563.99 721.749 L1560.23 732.565 L1548.77 732.805 L1557.91 739.733 L1554.58 750.693 L1563.99 744.149 L1573.4 750.693 L1570.07 739.733 L1579.2 732.805 L1567.75 732.565 L1563.99 721.749 Z" fill="#3da44d" fill-rule="evenodd" fill-opacity="1" stroke="#000000" stroke-opacity="1" stroke-width="3.2"/>
<path clip-path="url(#clip562)" d="M1437.35 787.846 L1433.59 798.662 L1422.13 798.902 L1431.27 805.83 L1427.94 816.79 L1437.35 810.246 L1446.76 816.79 L1443.43 805.83 L1452.57 798.902 L1441.11 798.662 L1437.35 787.846 Z" fill="#3da44d" fill-rule="evenodd" fill-opacity="1" stroke="#000000" stroke-opacity="1" stroke-width="3.2"/>
<path clip-path="url(#clip562)" d="M1282.36 868.742 L1278.6 879.558 L1267.14 879.798 L1276.28 886.726 L1272.95 897.686 L1282.36 891.142 L1291.77 897.686 L1288.44 886.726 L1297.57 879.798 L1286.12 879.558 L1282.36 868.742 Z" fill="#3da44d" fill-rule="evenodd" fill-opacity="1" stroke="#000000" stroke-opacity="1" stroke-width="3.2"/>
<path clip-path="url(#clip562)" d="M1082.54 973.035 L1078.78 983.851 L1067.32 984.091 L1076.46 991.019 L1073.13 1001.98 L1082.54 995.435 L1091.95 1001.98 L1088.62 991.019 L1097.75 984.091 L1086.3 983.851 L1082.54 973.035 Z" fill="#3da44d" fill-rule="evenodd" fill-opacity="1" stroke="#000000" stroke-opacity="1" stroke-width="3.2"/>
<path clip-path="url(#clip562)" d="M800.907 1120.03 L797.147 1130.84 L785.691 1131.08 L794.827 1138.01 L791.499 1148.97 L800.907 1142.43 L810.315 1148.97 L806.987 1138.01 L816.123 1131.08 L804.667 1130.84 L800.907 1120.03 Z" fill="#3da44d" fill-rule="evenodd" fill-opacity="1" stroke="#000000" stroke-opacity="1" stroke-width="3.2"/>
<path clip-path="url(#clip562)" d="M319.456 1371.31 L315.696 1382.13 L304.24 1382.37 L313.376 1389.3 L310.048 1400.26 L319.456 1393.71 L328.864 1400.26 L325.536 1389.3 L334.672 1382.37 L323.216 1382.13 L319.456 1371.31 Z" fill="#3da44d" fill-rule="evenodd" fill-opacity="1" stroke="#000000" stroke-opacity="1" stroke-width="3.2"/>
<path clip-path="url(#clip560)" d="M332.056 365.844 L750.32 365.844 L750.32 158.484 L332.056 158.484  Z" fill="#ffffff" fill-rule="evenodd" fill-opacity="1"/>
<polyline clip-path="url(#clip560)" style="stroke:#000000; stroke-linecap:round; stroke-linejoin:round; stroke-width:4; stroke-opacity:1; fill:none" points="332.056,365.844 750.32,365.844 750.32,158.484 332.056,158.484 332.056,365.844 "/>
<polyline clip-path="url(#clip560)" style="stroke:#009af9; stroke-linecap:round; stroke-linejoin:round; stroke-width:4; stroke-opacity:1; fill:none" points="359.88,210.324 526.825,210.324 "/>
<circle clip-path="url(#clip560)" cx="443.353" cy="210.324" r="20.48" fill="#009af9" fill-rule="evenodd" fill-opacity="1" stroke="#000000" stroke-opacity="1" stroke-width="4.55111"/>
<path clip-path="url(#clip560)" d="M576.362 211.956 L576.362 237.465 L572.103 237.465 L572.103 212.094 Q572.103 208.414 570.668 206.585 Q569.232 204.757 566.362 204.757 Q562.913 204.757 560.922 206.956 Q558.931 209.155 558.931 212.951 L558.931 227.604 L554.649 227.604 L554.649 201.678 L558.931 201.678 L558.931 205.706 Q560.459 203.368 562.519 202.21 Q564.603 201.053 567.311 201.053 Q571.779 201.053 574.07 203.807 Q576.362 206.585 576.362 211.956 Z" fill="#000000" fill-rule="nonzero" fill-opacity="1" /><path clip-path="url(#clip560)" d="M600.482 206.076 L630.158 206.076 L630.158 209.965 L600.482 209.965 L600.482 206.076 M600.482 215.52 L630.158 215.52 L630.158 219.456 L600.482 219.456 L600.482 215.52 Z" fill="#000000" fill-rule="nonzero" fill-opacity="1" /><path clip-path="url(#clip560)" d="M665.32 196.122 Q661.709 196.122 659.88 199.687 Q658.074 203.229 658.074 210.358 Q658.074 217.465 659.88 221.03 Q661.709 224.571 665.32 224.571 Q668.954 224.571 670.76 221.03 Q672.588 217.465 672.588 210.358 Q672.588 203.229 670.76 199.687 Q668.954 196.122 665.32 196.122 M665.32 192.419 Q671.13 192.419 674.186 197.025 Q677.264 201.608 677.264 210.358 Q677.264 219.085 674.186 223.692 Q671.13 228.275 665.32 228.275 Q659.51 228.275 656.431 223.692 Q653.375 219.085 653.375 210.358 Q653.375 201.608 656.431 197.025 Q659.51 192.419 665.32 192.419 Z" fill="#000000" fill-rule="nonzero" fill-opacity="1" /><path clip-path="url(#clip560)" d="M685.482 221.724 L690.366 221.724 L690.366 227.604 L685.482 227.604 L685.482 221.724 Z" fill="#000000" fill-rule="nonzero" fill-opacity="1" /><path clip-path="url(#clip560)" d="M710.551 211.192 Q707.218 211.192 705.296 212.974 Q703.398 214.756 703.398 217.881 Q703.398 221.006 705.296 222.789 Q707.218 224.571 710.551 224.571 Q713.884 224.571 715.806 222.789 Q717.727 220.983 717.727 217.881 Q717.727 214.756 715.806 212.974 Q713.908 211.192 710.551 211.192 M705.875 209.201 Q702.866 208.46 701.176 206.4 Q699.509 204.34 699.509 201.377 Q699.509 197.233 702.449 194.826 Q705.412 192.419 710.551 192.419 Q715.713 192.419 718.653 194.826 Q721.593 197.233 721.593 201.377 Q721.593 204.34 719.903 206.4 Q718.236 208.46 715.25 209.201 Q718.63 209.988 720.505 212.28 Q722.403 214.571 722.403 217.881 Q722.403 222.905 719.324 225.59 Q716.269 228.275 710.551 228.275 Q704.833 228.275 701.755 225.59 Q698.699 222.905 698.699 217.881 Q698.699 214.571 700.597 212.28 Q702.496 209.988 705.875 209.201 M704.162 201.817 Q704.162 204.502 705.829 206.007 Q707.519 207.511 710.551 207.511 Q713.56 207.511 715.25 206.007 Q716.963 204.502 716.963 201.817 Q716.963 199.132 715.25 197.627 Q713.56 196.122 710.551 196.122 Q707.519 196.122 705.829 197.627 Q704.162 199.132 704.162 201.817 Z" fill="#000000" fill-rule="nonzero" fill-opacity="1" /><polyline clip-path="url(#clip560)" style="stroke:#e26f46; stroke-linecap:round; stroke-linejoin:round; stroke-width:4; stroke-opacity:1; fill:none" points="359.88,262.164 526.825,262.164 "/>
<path clip-path="url(#clip560)" d="M443.353 239.408 L420.597 262.164 L443.353 284.919 L466.108 262.164 L443.353 239.408 Z" fill="#e26f46" fill-rule="evenodd" fill-opacity="1" stroke="#000000" stroke-opacity="1" stroke-width="4.55111"/>
<path clip-path="url(#clip560)" d="M576.362 263.796 L576.362 289.305 L572.103 289.305 L572.103 263.934 Q572.103 260.254 570.668 258.425 Q569.232 256.597 566.362 256.597 Q562.913 256.597 560.922 258.796 Q558.931 260.995 558.931 264.791 L558.931 279.444 L554.649 279.444 L554.649 253.518 L558.931 253.518 L558.931 257.546 Q560.459 255.208 562.519 254.05 Q564.603 252.893 567.311 252.893 Q571.779 252.893 574.07 255.647 Q576.362 258.425 576.362 263.796 Z" fill="#000000" fill-rule="nonzero" fill-opacity="1" /><path clip-path="url(#clip560)" d="M600.482 257.916 L630.158 257.916 L630.158 261.805 L600.482 261.805 L600.482 257.916 M600.482 267.36 L630.158 267.36 L630.158 271.296 L600.482 271.296 L600.482 267.36 Z" fill="#000000" fill-rule="nonzero" fill-opacity="1" /><path clip-path="url(#clip560)" d="M665.32 247.962 Q661.709 247.962 659.88 251.527 Q658.074 255.069 658.074 262.198 Q658.074 269.305 659.88 272.87 Q661.709 276.411 665.32 276.411 Q668.954 276.411 670.76 272.87 Q672.588 269.305 672.588 262.198 Q672.588 255.069 670.76 251.527 Q668.954 247.962 665.32 247.962 M665.32 244.259 Q671.13 244.259 674.186 248.865 Q677.264 253.448 677.264 262.198 Q677.264 270.925 674.186 275.532 Q671.13 280.115 665.32 280.115 Q659.51 280.115 656.431 275.532 Q653.375 270.925 653.375 262.198 Q653.375 253.448 656.431 248.865 Q659.51 244.259 665.32 244.259 Z" fill="#000000" fill-rule="nonzero" fill-opacity="1" /><path clip-path="url(#clip560)" d="M685.482 273.564 L690.366 273.564 L690.366 279.444 L685.482 279.444 L685.482 273.564 Z" fill="#000000" fill-rule="nonzero" fill-opacity="1" /><path clip-path="url(#clip560)" d="M700.69 278.726 L700.69 274.467 Q702.449 275.3 704.255 275.74 Q706.06 276.18 707.796 276.18 Q712.426 276.18 714.857 273.078 Q717.31 269.953 717.657 263.61 Q716.315 265.601 714.255 266.666 Q712.195 267.731 709.695 267.731 Q704.509 267.731 701.477 264.606 Q698.468 261.458 698.468 256.018 Q698.468 250.694 701.616 247.476 Q704.764 244.259 709.995 244.259 Q715.991 244.259 719.139 248.865 Q722.31 253.448 722.31 262.198 Q722.31 270.37 718.421 275.254 Q714.556 280.115 708.005 280.115 Q706.246 280.115 704.44 279.768 Q702.634 279.42 700.69 278.726 M709.995 264.073 Q713.144 264.073 714.972 261.921 Q716.824 259.768 716.824 256.018 Q716.824 252.291 714.972 250.138 Q713.144 247.962 709.995 247.962 Q706.847 247.962 704.996 250.138 Q703.167 252.291 703.167 256.018 Q703.167 259.768 704.996 261.921 Q706.847 264.073 709.995 264.073 Z" fill="#000000" fill-rule="nonzero" fill-opacity="1" /><polyline clip-path="url(#clip560)" style="stroke:#3da44d; stroke-linecap:round; stroke-linejoin:round; stroke-width:4; stroke-opacity:1; fill:none" points="359.88,314.004 526.825,314.004 "/>
<path clip-path="url(#clip560)" d="M443.353 291.248 L438.005 306.631 L421.712 306.972 L434.705 316.825 L429.972 332.413 L443.353 323.106 L456.733 332.413 L452 316.825 L464.993 306.972 L448.7 306.631 L443.353 291.248 Z" fill="#3da44d" fill-rule="evenodd" fill-opacity="1" stroke="#000000" stroke-opacity="1" stroke-width="4.55111"/>
<path clip-path="url(#clip560)" d="M576.362 315.636 L576.362 341.145 L572.103 341.145 L572.103 315.774 Q572.103 312.094 570.668 310.265 Q569.232 308.437 566.362 308.437 Q562.913 308.437 560.922 310.636 Q558.931 312.835 558.931 316.631 L558.931 331.284 L554.649 331.284 L554.649 305.358 L558.931 305.358 L558.931 309.386 Q560.459 307.048 562.519 305.89 Q564.603 304.733 567.311 304.733 Q571.779 304.733 574.07 307.487 Q576.362 310.265 576.362 315.636 Z" fill="#000000" fill-rule="nonzero" fill-opacity="1" /><path clip-path="url(#clip560)" d="M600.482 309.756 L630.158 309.756 L630.158 313.645 L600.482 313.645 L600.482 309.756 M600.482 319.2 L630.158 319.2 L630.158 323.136 L600.482 323.136 L600.482 319.2 Z" fill="#000000" fill-rule="nonzero" fill-opacity="1" /><path clip-path="url(#clip560)" d="M656.13 327.348 L663.769 327.348 L663.769 300.983 L655.459 302.65 L655.459 298.39 L663.723 296.724 L668.398 296.724 L668.398 327.348 L676.037 327.348 L676.037 331.284 L656.13 331.284 L656.13 327.348 Z" fill="#000000" fill-rule="nonzero" fill-opacity="1" /><path clip-path="url(#clip560)" d="M685.482 325.404 L690.366 325.404 L690.366 331.284 L685.482 331.284 L685.482 325.404 Z" fill="#000000" fill-rule="nonzero" fill-opacity="1" /><path clip-path="url(#clip560)" d="M710.551 299.802 Q706.94 299.802 705.111 303.367 Q703.306 306.909 703.306 314.038 Q703.306 321.145 705.111 324.71 Q706.94 328.251 710.551 328.251 Q714.185 328.251 715.991 324.71 Q717.82 321.145 717.82 314.038 Q717.82 306.909 715.991 303.367 Q714.185 299.802 710.551 299.802 M710.551 296.099 Q716.361 296.099 719.417 300.705 Q722.495 305.288 722.495 314.038 Q722.495 322.765 719.417 327.372 Q716.361 331.955 710.551 331.955 Q704.741 331.955 701.662 327.372 Q698.607 322.765 698.607 314.038 Q698.607 305.288 701.662 300.705 Q704.741 296.099 710.551 296.099 Z" fill="#000000" fill-rule="nonzero" fill-opacity="1" /></svg>
