<?xml version="1.0" encoding="utf-8"?>
<svg xmlns="http://www.w3.org/2000/svg" xmlns:xlink="http://www.w3.org/1999/xlink" width="700" height="400" viewBox="0 0 2800 1600">
<defs>
  <clipPath id="clip500">
    <rect x="0" y="0" width="2800" height="1600"/>
  </clipPath>
</defs>
<path clip-path="url(#clip500)" d="M0 1600 L2800 1600 L2800 8.88178e-14 L0 8.88178e-14  Z" fill="#ffffff" fill-rule="evenodd" fill-opacity="1"/>
<defs>
  <clipPath id="clip501">
    <rect x="560" y="0" width="1961" height="1600"/>
  </clipPath>
</defs>
<path clip-path="url(#clip500)" d="M249.975 1424.38 L2752.76 1424.38 L2752.76 114.832 L249.975 114.832  Z" fill="#ffffff" fill-rule="evenodd" fill-opacity="1"/>
<defs>
  <clipPath id="clip502">
    <rect x="249" y="114" width="2504" height="1311"/>
  </clipPath>
</defs>
<polyline clip-path="url(#clip502)" style="stroke:#000000; stroke-linecap:round; stroke-linejoin:round; stroke-width:2; stroke-opacity:0.1; fill:none" points="320.809,1424.38 320.809,114.832 "/>
<polyline clip-path="url(#clip502)" style="stroke:#000000; stroke-linecap:round; stroke-linejoin:round; stroke-width:2; stroke-opacity:0.1; fill:none" points="1919.27,1424.38 1919.27,114.832 "/>
<polyline clip-path="url(#clip502)" style="stroke:#000000; stroke-linecap:round; stroke-linejoin:round; stroke-width:2; stroke-opacity:0.1; fill:none" points="249.975,1221.81 2752.76,1221.81 "/>
<polyline clip-path="url(#clip502)" style="stroke:#000000; stroke-linecap:round; stroke-linejoin:round; stroke-width:2; stroke-opacity:0.1; fill:none" points="249.975,664.103 2752.76,664.103 "/>
<polyline clip-path="url(#clip500)" style="stroke:#000000; stroke-linecap:round; stroke-linejoin:round; stroke-width:4; stroke-opacity:1; fill:none" points="249.975,1424.38 2752.76,1424.38 "/>
<polyline clip-path="url(#clip500)" style="stroke:#000000; stroke-linecap:round; stroke-linejoin:round; stroke-width:4; stroke-opacity:1; fill:none" points="320.809,1424.38 320.809,1405.48 "/>
<polyline clip-path="url(#clip500)" style="stroke:#000000; stroke-linecap:round; stroke-linejoin:round; stroke-width:4; stroke-opacity:1; fill:none" points="1919.27,1424.38 1919.27,1405.48 "/>
<path clip-path="url(#clip500)" d="M271.075 1501.7 L278.713 1501.7 L278.713 1475.34 L270.403 1477 L270.403 1472.74 L278.667 1471.08 L283.343 1471.08 L283.343 1501.7 L290.982 1501.7 L290.982 1505.64 L271.075 1505.64 L271.075 1501.7 Z" fill="#000000" fill-rule="nonzero" fill-opacity="1" /><path clip-path="url(#clip500)" d="M310.426 1474.16 Q306.815 1474.16 304.986 1477.72 Q303.181 1481.26 303.181 1488.39 Q303.181 1495.5 304.986 1499.06 Q306.815 1502.6 310.426 1502.6 Q314.06 1502.6 315.866 1499.06 Q317.695 1495.5 317.695 1488.39 Q317.695 1481.26 315.866 1477.72 Q314.06 1474.16 310.426 1474.16 M310.426 1470.45 Q316.236 1470.45 319.292 1475.06 Q322.371 1479.64 322.371 1488.39 Q322.371 1497.12 319.292 1501.73 Q316.236 1506.31 310.426 1506.31 Q304.616 1506.31 301.537 1501.73 Q298.482 1497.12 298.482 1488.39 Q298.482 1479.64 301.537 1475.06 Q304.616 1470.45 310.426 1470.45 Z" fill="#000000" fill-rule="nonzero" fill-opacity="1" /><path clip-path="url(#clip500)" d="M322.371 1464.55 L346.482 1464.55 L346.482 1467.75 L322.371 1467.75 L322.371 1464.55 Z" fill="#000000" fill-rule="nonzero" fill-opacity="1" /><path clip-path="url(#clip500)" d="M357.955 1475.03 L371.214 1475.03 L371.214 1478.23 L353.385 1478.23 L353.385 1475.03 Q355.547 1472.79 359.271 1469.03 Q363.014 1465.25 363.973 1464.16 Q365.798 1462.11 366.512 1460.7 Q367.246 1459.27 367.246 1457.9 Q367.246 1455.66 365.666 1454.25 Q364.105 1452.84 361.585 1452.84 Q359.798 1452.84 357.804 1453.46 Q355.83 1454.08 353.573 1455.34 L353.573 1451.5 Q355.867 1450.58 357.861 1450.11 Q359.854 1449.64 361.51 1449.64 Q365.873 1449.64 368.468 1451.82 Q371.064 1454 371.064 1457.65 Q371.064 1459.38 370.406 1460.94 Q369.766 1462.48 368.055 1464.59 Q367.584 1465.14 365.064 1467.75 Q362.544 1470.35 357.955 1475.03 Z" fill="#000000" fill-rule="nonzero" fill-opacity="1" /><path clip-path="url(#clip500)" d="M1869.38 1501.7 L1877.02 1501.7 L1877.02 1475.34 L1868.71 1477 L1868.71 1472.74 L1876.97 1471.08 L1881.65 1471.08 L1881.65 1501.7 L1889.29 1501.7 L1889.29 1505.64 L1869.38 1505.64 L1869.38 1501.7 Z" fill="#000000" fill-rule="nonzero" fill-opacity="1" /><path clip-path="url(#clip500)" d="M1908.73 1474.16 Q1905.12 1474.16 1903.29 1477.72 Q1901.49 1481.26 1901.49 1488.39 Q1901.49 1495.5 1903.29 1499.06 Q1905.12 1502.6 1908.73 1502.6 Q1912.37 1502.6 1914.17 1499.06 Q1916 1495.5 1916 1488.39 Q1916 1481.26 1914.17 1477.72 Q1912.37 1474.16 1908.73 1474.16 M1908.73 1470.45 Q1914.54 1470.45 1917.6 1475.06 Q1920.68 1479.64 1920.68 1488.39 Q1920.68 1497.12 1917.6 1501.73 Q1914.54 1506.31 1908.73 1506.31 Q1902.92 1506.31 1899.84 1501.73 Q1896.79 1497.12 1896.79 1488.39 Q1896.79 1479.64 1899.84 1475.06 Q1902.92 1470.45 1908.73 1470.45 Z" fill="#000000" fill-rule="nonzero" fill-opacity="1" /><path clip-path="url(#clip500)" d="M1920.68 1464.55 L1944.79 1464.55 L1944.79 1467.75 L1920.68 1467.75 L1920.68 1464.55 Z" fill="#000000" fill-rule="nonzero" fill-opacity="1" /><path clip-path="url(#clip500)" d="M1953.65 1475.03 L1959.85 1475.03 L1959.85 1453.61 L1953.1 1454.96 L1953.1 1451.5 L1959.82 1450.15 L1963.61 1450.15 L1963.61 1475.03 L1969.82 1475.03 L1969.82 1478.23 L1953.65 1478.23 L1953.65 1475.03 Z" fill="#000000" fill-rule="nonzero" fill-opacity="1" /><path clip-path="url(#clip500)" d="M1434.76 1588.26 L1445.27 1588.26 L1445.27 1552 L1433.84 1554.29 L1433.84 1548.44 L1445.2 1546.15 L1451.63 1546.15 L1451.63 1588.26 L1462.14 1588.26 L1462.14 1593.67 L1434.76 1593.67 L1434.76 1588.26 Z" fill="#000000" fill-rule="nonzero" fill-opacity="1" /><path clip-path="url(#clip500)" d="M1492.06 1573.2 L1509.21 1573.2 L1509.21 1578.42 L1492.06 1578.42 L1492.06 1573.2 Z" fill="#000000" fill-rule="nonzero" fill-opacity="1" /><path clip-path="url(#clip500)" d="M1568.89 1572.15 L1568.89 1607.22 L1563.03 1607.22 L1563.03 1572.34 Q1563.03 1567.28 1561.06 1564.77 Q1559.09 1562.25 1555.14 1562.25 Q1550.4 1562.25 1547.66 1565.27 Q1544.92 1568.3 1544.92 1573.52 L1544.92 1593.67 L1539.03 1593.67 L1539.03 1558.02 L1544.92 1558.02 L1544.92 1563.56 Q1547.02 1560.34 1549.86 1558.75 Q1552.72 1557.16 1556.44 1557.16 Q1562.59 1557.16 1565.74 1560.95 Q1568.89 1564.77 1568.89 1572.15 Z" fill="#000000" fill-rule="nonzero" fill-opacity="1" /><polyline clip-path="url(#clip500)" style="stroke:#000000; stroke-linecap:round; stroke-linejoin:round; stroke-width:4; stroke-opacity:1; fill:none" points="249.975,1424.38 249.975,114.832 "/>
<polyline clip-path="url(#clip500)" style="stroke:#000000; stroke-linecap:round; stroke-linejoin:round; stroke-width:4; stroke-opacity:1; fill:none" points="249.975,1221.81 268.873,1221.81 "/>
<polyline clip-path="url(#clip500)" style="stroke:#000000; stroke-linecap:round; stroke-linejoin:round; stroke-width:4; stroke-opacity:1; fill:none" points="249.975,664.103 268.873,664.103 "/>
<path clip-path="url(#clip500)" d="M106.143 1241.6 L113.782 1241.6 L113.782 1215.24 L105.472 1216.91 L105.472 1212.65 L113.735 1210.98 L118.411 1210.98 L118.411 1241.6 L126.05 1241.6 L126.05 1245.54 L106.143 1245.54 L106.143 1241.6 Z" fill="#000000" fill-rule="nonzero" fill-opacity="1" /><path clip-path="url(#clip500)" d="M145.495 1214.06 Q141.883 1214.06 140.055 1217.62 Q138.249 1221.17 138.249 1228.29 Q138.249 1235.4 140.055 1238.97 Q141.883 1242.51 145.495 1242.51 Q149.129 1242.51 150.934 1238.97 Q152.763 1235.4 152.763 1228.29 Q152.763 1221.17 150.934 1217.62 Q149.129 1214.06 145.495 1214.06 M145.495 1210.36 Q151.305 1210.36 154.36 1214.96 Q157.439 1219.54 157.439 1228.29 Q157.439 1237.02 154.36 1241.63 Q151.305 1246.21 145.495 1246.21 Q139.684 1246.21 136.606 1241.63 Q133.55 1237.02 133.55 1228.29 Q133.55 1219.54 136.606 1214.96 Q139.684 1210.36 145.495 1210.36 Z" fill="#000000" fill-rule="nonzero" fill-opacity="1" /><path clip-path="url(#clip500)" d="M157.439 1204.46 L181.55 1204.46 L181.55 1207.65 L157.439 1207.65 L157.439 1204.46 Z" fill="#000000" fill-rule="nonzero" fill-opacity="1" /><path clip-path="url(#clip500)" d="M200.189 1193.36 L190.597 1208.35 L200.189 1208.35 L200.189 1193.36 M199.192 1190.05 L203.969 1190.05 L203.969 1208.35 L207.975 1208.35 L207.975 1211.51 L203.969 1211.51 L203.969 1218.13 L200.189 1218.13 L200.189 1211.51 L187.513 1211.51 L187.513 1207.84 L199.192 1190.05 Z" fill="#000000" fill-rule="nonzero" fill-opacity="1" /><path clip-path="url(#clip500)" d="M107.064 683.895 L114.703 683.895 L114.703 657.529 L106.393 659.196 L106.393 654.937 L114.657 653.27 L119.333 653.27 L119.333 683.895 L126.972 683.895 L126.972 687.83 L107.064 687.83 L107.064 683.895 Z" fill="#000000" fill-rule="nonzero" fill-opacity="1" /><path clip-path="url(#clip500)" d="M146.416 656.349 Q142.805 656.349 140.976 659.914 Q139.171 663.455 139.171 670.585 Q139.171 677.691 140.976 681.256 Q142.805 684.798 146.416 684.798 Q150.05 684.798 151.856 681.256 Q153.685 677.691 153.685 670.585 Q153.685 663.455 151.856 659.914 Q150.05 656.349 146.416 656.349 M146.416 652.645 Q152.226 652.645 155.282 657.252 Q158.36 661.835 158.36 670.585 Q158.36 679.312 155.282 683.918 Q152.226 688.501 146.416 688.501 Q140.606 688.501 137.527 683.918 Q134.472 679.312 134.472 670.585 Q134.472 661.835 137.527 657.252 Q140.606 652.645 146.416 652.645 Z" fill="#000000" fill-rule="nonzero" fill-opacity="1" /><path clip-path="url(#clip500)" d="M158.36 646.747 L182.472 646.747 L182.472 649.944 L158.36 649.944 L158.36 646.747 Z" fill="#000000" fill-rule="nonzero" fill-opacity="1" /><path clip-path="url(#clip500)" d="M202.183 645.28 Q204.91 645.863 206.433 647.706 Q207.975 649.549 207.975 652.257 Q207.975 656.414 205.117 658.689 Q202.258 660.965 196.992 660.965 Q195.224 660.965 193.343 660.608 Q191.481 660.269 189.487 659.573 L189.487 655.906 Q191.067 656.827 192.948 657.298 Q194.829 657.768 196.879 657.768 Q200.452 657.768 202.314 656.357 Q204.195 654.947 204.195 652.257 Q204.195 649.775 202.446 648.383 Q200.716 646.972 197.612 646.972 L194.34 646.972 L194.34 643.85 L197.763 643.85 Q200.565 643.85 202.051 642.74 Q203.537 641.612 203.537 639.506 Q203.537 637.343 201.995 636.195 Q200.471 635.029 197.612 635.029 Q196.051 635.029 194.265 635.368 Q192.478 635.706 190.334 636.421 L190.334 633.036 Q192.497 632.434 194.377 632.133 Q196.277 631.832 197.951 631.832 Q202.277 631.832 204.797 633.807 Q207.317 635.763 207.317 639.111 Q207.317 641.443 205.982 643.06 Q204.646 644.659 202.183 645.28 Z" fill="#000000" fill-rule="nonzero" fill-opacity="1" /><path clip-path="url(#clip500)" d="M6.97912 931.294 L24.8349 931.294 L24.8349 923.209 Q24.8349 918.721 22.5114 916.27 Q20.188 913.82 15.8911 913.82 Q11.6261 913.82 9.30261 916.27 Q6.97912 918.721 6.97912 923.209 L6.97912 931.294 M1.69559 937.723 L1.69559 923.209 Q1.69559 915.22 5.32404 911.146 Q8.92066 907.04 15.8911 907.04 Q22.9252 907.04 26.5218 911.146 Q30.1185 915.22 30.1185 923.209 L30.1185 931.294 L49.2156 931.294 L49.2156 937.723 L1.69559 937.723 Z" fill="#000000" fill-rule="nonzero" fill-opacity="1" /><path clip-path="url(#clip500)" d="M19.0421 879.158 Q18.4692 880.145 18.2146 881.323 Q17.9281 882.469 17.9281 883.869 Q17.9281 888.834 21.1746 891.508 Q24.3893 894.15 30.4368 894.15 L49.2156 894.15 L49.2156 900.038 L13.5676 900.038 L13.5676 894.15 L19.1058 894.15 Q15.8593 892.304 14.2997 889.344 Q12.7083 886.384 12.7083 882.15 Q12.7083 881.546 12.8037 880.814 Q12.8674 880.081 13.0265 879.19 L19.0421 879.158 Z" fill="#000000" fill-rule="nonzero" fill-opacity="1" /><path clip-path="url(#clip500)" d="M17.6735 860.634 Q17.6735 865.345 21.3656 868.082 Q25.0259 870.819 31.4234 870.819 Q37.821 870.819 41.5131 868.114 Q45.1734 865.377 45.1734 860.634 Q45.1734 855.955 41.4813 853.218 Q37.7891 850.481 31.4234 850.481 Q25.0896 850.481 21.3974 853.218 Q17.6735 855.955 17.6735 860.634 M12.7083 860.634 Q12.7083 852.995 17.6735 848.635 Q22.6388 844.274 31.4234 844.274 Q40.1763 844.274 45.1734 848.635 Q50.1386 852.995 50.1386 860.634 Q50.1386 868.305 45.1734 872.665 Q40.1763 876.994 31.4234 876.994 Q22.6388 876.994 17.6735 872.665 Q12.7083 868.305 12.7083 860.634 Z" fill="#000000" fill-rule="nonzero" fill-opacity="1" /><path clip-path="url(#clip500)" d="M31.4234 808.977 Q24.9622 808.977 21.302 811.65 Q17.6099 814.292 17.6099 818.939 Q17.6099 823.586 21.302 826.259 Q24.9622 828.901 31.4234 828.901 Q37.8846 828.901 41.5767 826.259 Q45.237 823.586 45.237 818.939 Q45.237 814.292 41.5767 811.65 Q37.8846 808.977 31.4234 808.977 M18.9785 828.901 Q15.7956 827.055 14.2679 824.254 Q12.7083 821.421 12.7083 817.507 Q12.7083 811.014 17.8645 806.971 Q23.0207 802.897 31.4234 802.897 Q39.8262 802.897 44.9824 806.971 Q50.1386 811.014 50.1386 817.507 Q50.1386 821.421 48.6108 824.254 Q47.0512 827.055 43.8684 828.901 L49.2156 828.901 L49.2156 834.789 L-0.309612 834.789 L-0.309612 828.901 L18.9785 828.901 Z" fill="#000000" fill-rule="nonzero" fill-opacity="1" /><path clip-path="url(#clip500)" d="M31.2961 776.989 Q31.2961 784.087 32.9194 786.824 Q34.5426 789.561 38.4575 789.561 Q41.5767 789.561 43.4228 787.524 Q45.237 785.455 45.237 781.922 Q45.237 777.052 41.7995 774.124 Q38.3302 771.164 32.6011 771.164 L31.2961 771.164 L31.2961 776.989 M28.8772 765.308 L49.2156 765.308 L49.2156 771.164 L43.8047 771.164 Q47.0512 773.169 48.6108 776.161 Q50.1386 779.153 50.1386 783.482 Q50.1386 788.956 47.0831 792.203 Q43.9957 795.418 38.8395 795.418 Q32.8239 795.418 29.7684 791.407 Q26.7128 787.365 26.7128 779.376 L26.7128 771.164 L26.1399 771.164 Q22.0977 771.164 19.9015 773.838 Q17.6735 776.48 17.6735 781.286 Q17.6735 784.341 18.4056 787.238 Q19.1376 790.134 20.6017 792.808 L15.1909 792.808 Q13.9496 789.593 13.3448 786.569 Q12.7083 783.546 12.7083 780.681 Q12.7083 772.947 16.7187 769.127 Q20.729 765.308 28.8772 765.308 Z" fill="#000000" fill-rule="nonzero" fill-opacity="1" /><path clip-path="url(#clip500)" d="M31.4234 727.655 Q24.9622 727.655 21.302 730.328 Q17.6099 732.97 17.6099 737.617 Q17.6099 742.264 21.302 744.937 Q24.9622 747.579 31.4234 747.579 Q37.8846 747.579 41.5767 744.937 Q45.237 742.264 45.237 737.617 Q45.237 732.97 41.5767 730.328 Q37.8846 727.655 31.4234 727.655 M18.9785 747.579 Q15.7956 745.733 14.2679 742.932 Q12.7083 740.1 12.7083 736.185 Q12.7083 729.692 17.8645 725.649 Q23.0207 721.575 31.4234 721.575 Q39.8262 721.575 44.9824 725.649 Q50.1386 729.692 50.1386 736.185 Q50.1386 740.1 48.6108 742.932 Q47.0512 745.733 43.8684 747.579 L49.2156 747.579 L49.2156 753.468 L-0.309612 753.468 L-0.309612 747.579 L18.9785 747.579 Z" fill="#000000" fill-rule="nonzero" fill-opacity="1" /><path clip-path="url(#clip500)" d="M13.5676 711.868 L13.5676 706.011 L49.2156 706.011 L49.2156 711.868 L13.5676 711.868 M-0.309612 711.868 L-0.309612 706.011 L7.10644 706.011 L7.10644 711.868 L-0.309612 711.868 Z" fill="#000000" fill-rule="nonzero" fill-opacity="1" /><path clip-path="url(#clip500)" d="M-0.309612 693.757 L-0.309612 687.901 L49.2156 687.901 L49.2156 693.757 L-0.309612 693.757 Z" fill="#000000" fill-rule="nonzero" fill-opacity="1" /><path clip-path="url(#clip500)" d="M13.5676 675.647 L13.5676 669.79 L49.2156 669.79 L49.2156 675.647 L13.5676 675.647 M-0.309612 675.647 L-0.309612 669.79 L7.10644 669.79 L7.10644 675.647 L-0.309612 675.647 Z" fill="#000000" fill-rule="nonzero" fill-opacity="1" /><path clip-path="url(#clip500)" d="M3.44616 651.744 L13.5676 651.744 L13.5676 639.681 L18.1191 639.681 L18.1191 651.744 L37.4709 651.744 Q41.8314 651.744 43.0727 650.566 Q44.314 649.356 44.314 645.696 L44.314 639.681 L49.2156 639.681 L49.2156 645.696 Q49.2156 652.476 46.7011 655.054 Q44.1548 657.632 37.4709 657.632 L18.1191 657.632 L18.1191 661.929 L13.5676 661.929 L13.5676 657.632 L3.44616 657.632 L3.44616 651.744 Z" fill="#000000" fill-rule="nonzero" fill-opacity="1" /><path clip-path="url(#clip500)" d="M52.5258 617.146 Q58.8915 619.629 60.833 621.984 Q62.7745 624.339 62.7745 628.286 L62.7745 632.965 L57.8729 632.965 L57.8729 629.527 Q57.8729 627.108 56.7271 625.771 Q55.5813 624.435 51.3163 622.811 L48.6427 621.761 L13.5676 636.179 L13.5676 629.973 L41.4494 618.833 L13.5676 607.693 L13.5676 601.486 L52.5258 617.146 Z" fill="#000000" fill-rule="nonzero" fill-opacity="1" /><path clip-path="url(#clip500)" d="M1104.9 16.7545 L1104.9 25.383 Q1100.77 21.5346 1096.07 19.6307 Q1091.41 17.7268 1086.15 17.7268 Q1075.78 17.7268 1070.27 24.0867 Q1064.76 30.4061 1064.76 42.3968 Q1064.76 54.3469 1070.27 60.7069 Q1075.78 67.0263 1086.15 67.0263 Q1091.41 67.0263 1096.07 65.1223 Q1100.77 63.2184 1104.9 59.3701 L1104.9 67.9175 Q1100.61 70.8341 1095.79 72.2924 Q1091.01 73.7508 1085.66 73.7508 Q1071.93 73.7508 1064.03 65.3654 Q1056.13 56.9395 1056.13 42.3968 Q1056.13 27.8135 1064.03 19.4281 Q1071.93 11.0023 1085.66 11.0023 Q1091.09 11.0023 1095.87 12.4606 Q1100.69 13.8784 1104.9 16.7545 Z" fill="#000000" fill-rule="nonzero" fill-opacity="1" /><path clip-path="url(#clip500)" d="M1154.93 45.1919 L1154.93 72.576 L1147.48 72.576 L1147.48 45.4349 Q1147.48 38.994 1144.97 35.7938 Q1142.46 32.5936 1137.43 32.5936 Q1131.4 32.5936 1127.91 36.4419 Q1124.43 40.2903 1124.43 46.9338 L1124.43 72.576 L1116.93 72.576 L1116.93 9.54393 L1124.43 9.54393 L1124.43 34.2544 Q1127.1 30.163 1130.71 28.1376 Q1134.35 26.1121 1139.09 26.1121 Q1146.91 26.1121 1150.92 30.9732 Q1154.93 35.7938 1154.93 45.1919 Z" fill="#000000" fill-rule="nonzero" fill-opacity="1" /><path clip-path="url(#clip500)" d="M1190.42 49.7694 Q1181.38 49.7694 1177.9 51.8354 Q1174.42 53.9013 1174.42 58.8839 Q1174.42 62.8538 1177.01 65.2034 Q1179.64 67.5124 1184.14 67.5124 Q1190.34 67.5124 1194.06 63.1374 Q1197.83 58.7219 1197.83 51.4303 L1197.83 49.7694 L1190.42 49.7694 M1205.29 46.6907 L1205.29 72.576 L1197.83 72.576 L1197.83 65.6895 Q1195.28 69.8214 1191.47 71.8063 Q1187.66 73.7508 1182.15 73.7508 Q1175.19 73.7508 1171.05 69.8619 Q1166.96 65.9325 1166.96 59.3701 Q1166.96 51.7138 1172.07 47.825 Q1177.21 43.9361 1187.38 43.9361 L1197.83 43.9361 L1197.83 43.2069 Q1197.83 38.0623 1194.43 35.2672 Q1191.07 32.4315 1184.95 32.4315 Q1181.06 32.4315 1177.37 33.3632 Q1173.69 34.295 1170.29 36.1584 L1170.29 29.2718 Q1174.38 27.692 1178.23 26.9223 Q1182.07 26.1121 1185.72 26.1121 Q1195.56 26.1121 1200.42 31.2163 Q1205.29 36.3204 1205.29 46.6907 Z" fill="#000000" fill-rule="nonzero" fill-opacity="1" /><path clip-path="url(#clip500)" d="M1220.64 27.2059 L1228.09 27.2059 L1228.09 72.576 L1220.64 72.576 L1220.64 27.2059 M1220.64 9.54393 L1228.09 9.54393 L1228.09 18.9825 L1220.64 18.9825 L1220.64 9.54393 Z" fill="#000000" fill-rule="nonzero" fill-opacity="1" /><path clip-path="url(#clip500)" d="M1281.4 45.1919 L1281.4 72.576 L1273.95 72.576 L1273.95 45.4349 Q1273.95 38.994 1271.44 35.7938 Q1268.92 32.5936 1263.9 32.5936 Q1257.87 32.5936 1254.38 36.4419 Q1250.9 40.2903 1250.9 46.9338 L1250.9 72.576 L1243.4 72.576 L1243.4 27.2059 L1250.9 27.2059 L1250.9 34.2544 Q1253.57 30.163 1257.18 28.1376 Q1260.82 26.1121 1265.56 26.1121 Q1273.38 26.1121 1277.39 30.9732 Q1281.4 35.7938 1281.4 45.1919 Z" fill="#000000" fill-rule="nonzero" fill-opacity="1" /><path clip-path="url(#clip500)" d="M1320.05 12.096 L1328.84 12.096 L1343.87 34.5785 L1358.98 12.096 L1367.77 12.096 L1348.32 41.141 L1369.06 72.576 L1360.27 72.576 L1343.26 46.8528 L1326.12 72.576 L1317.29 72.576 L1338.88 40.2903 L1320.05 12.096 Z" fill="#000000" fill-rule="nonzero" fill-opacity="1" /><path clip-path="url(#clip500)" d="M1406.17 12.096 L1444.41 12.096 L1444.41 18.9825 L1414.35 18.9825 L1414.35 36.8875 L1443.15 36.8875 L1443.15 43.7741 L1414.35 43.7741 L1414.35 65.6895 L1445.14 65.6895 L1445.14 72.576 L1406.17 72.576 L1406.17 12.096 Z" fill="#000000" fill-rule="nonzero" fill-opacity="1" /><path clip-path="url(#clip500)" d="M1484.55 34.1734 Q1483.3 33.4443 1481.8 33.1202 Q1480.34 32.7556 1478.56 32.7556 Q1472.24 32.7556 1468.84 36.8875 Q1465.47 40.9789 1465.47 48.6757 L1465.47 72.576 L1457.98 72.576 L1457.98 27.2059 L1465.47 27.2059 L1465.47 34.2544 Q1467.82 30.1225 1471.59 28.1376 Q1475.36 26.1121 1480.75 26.1121 Q1481.52 26.1121 1482.45 26.2337 Q1483.38 26.3147 1484.51 26.5172 L1484.55 34.1734 Z" fill="#000000" fill-rule="nonzero" fill-opacity="1" /><path clip-path="url(#clip500)" d="M1517.2 34.1734 Q1515.95 33.4443 1514.45 33.1202 Q1512.99 32.7556 1511.21 32.7556 Q1504.89 32.7556 1501.49 36.8875 Q1498.12 40.9789 1498.12 48.6757 L1498.12 72.576 L1490.63 72.576 L1490.63 27.2059 L1498.12 27.2059 L1498.12 34.2544 Q1500.47 30.1225 1504.24 28.1376 Q1508.01 26.1121 1513.4 26.1121 Q1514.17 26.1121 1515.1 26.2337 Q1516.03 26.3147 1517.16 26.5172 L1517.2 34.1734 Z" fill="#000000" fill-rule="nonzero" fill-opacity="1" /><path clip-path="url(#clip500)" d="M1540.78 32.4315 Q1534.79 32.4315 1531.3 37.1306 Q1527.82 41.7891 1527.82 49.9314 Q1527.82 58.0738 1531.26 62.7728 Q1534.75 67.4314 1540.78 67.4314 Q1546.74 67.4314 1550.22 62.7323 Q1553.7 58.0333 1553.7 49.9314 Q1553.7 41.8701 1550.22 37.1711 Q1546.74 32.4315 1540.78 32.4315 M1540.78 26.1121 Q1550.5 26.1121 1556.05 32.4315 Q1561.6 38.7509 1561.6 49.9314 Q1561.6 61.0714 1556.05 67.4314 Q1550.5 73.7508 1540.78 73.7508 Q1531.02 73.7508 1525.47 67.4314 Q1519.96 61.0714 1519.96 49.9314 Q1519.96 38.7509 1525.47 32.4315 Q1531.02 26.1121 1540.78 26.1121 Z" fill="#000000" fill-rule="nonzero" fill-opacity="1" /><path clip-path="url(#clip500)" d="M1600.25 34.1734 Q1598.99 33.4443 1597.49 33.1202 Q1596.04 32.7556 1594.25 32.7556 Q1587.93 32.7556 1584.53 36.8875 Q1581.17 40.9789 1581.17 48.6757 L1581.17 72.576 L1573.67 72.576 L1573.67 27.2059 L1581.17 27.2059 L1581.17 34.2544 Q1583.52 30.1225 1587.29 28.1376 Q1591.05 26.1121 1596.44 26.1121 Q1597.21 26.1121 1598.14 26.2337 Q1599.07 26.3147 1600.21 26.5172 L1600.25 34.1734 Z" fill="#000000" fill-rule="nonzero" fill-opacity="1" /><path clip-path="url(#clip500)" d="M1608.51 62.2867 L1617.06 62.2867 L1617.06 72.576 L1608.51 72.576 L1608.51 62.2867 M1608.51 29.6769 L1617.06 29.6769 L1617.06 39.9662 L1608.51 39.9662 L1608.51 29.6769 Z" fill="#000000" fill-rule="nonzero" fill-opacity="1" /><path clip-path="url(#clip500)" d="M1682.04 67.4314 Q1687.38 67.4719 1690.58 70.51 Q1693.99 73.7103 1693.99 78.5713 Q1693.99 83.2299 1690.99 86.4706 Q1687.75 89.9949 1681.14 89.9949 Q1681.14 86.9567 1681.14 83.878 Q1683.94 84.0806 1685.64 82.2982 Q1686.94 80.8804 1686.94 79.3815 Q1686.94 77.2345 1685.64 75.4521 Q1684.39 73.7508 1682.04 73.7508 Q1657.49 73.7508 1657.45 50.9442 Q1657.45 31.0137 1680.58 17.0381 L1659.03 17.0381 L1659.03 9.54393 L1694.27 9.54393 L1694.27 17.0381 Q1664.94 31.7834 1664.94 50.9442 Q1664.94 67.4314 1682.04 67.4314 Z" fill="#000000" fill-rule="nonzero" fill-opacity="1" /><path clip-path="url(#clip500)" d="M1733.4 34.9026 L1785.33 34.9026 L1785.33 41.7081 L1733.4 41.7081 L1733.4 34.9026 M1733.4 51.4303 L1785.33 51.4303 L1785.33 58.3168 L1733.4 58.3168 L1733.4 51.4303 Z" fill="#000000" fill-rule="nonzero" fill-opacity="1" /><path clip-path="url(#clip500)" d="M1846.87 17.4837 Q1840.55 17.4837 1837.35 23.7221 Q1834.19 29.92 1834.19 42.3968 Q1834.19 54.833 1837.35 61.0714 Q1840.55 67.2693 1846.87 67.2693 Q1853.23 67.2693 1856.39 61.0714 Q1859.59 54.833 1859.59 42.3968 Q1859.59 29.92 1856.39 23.7221 Q1853.23 17.4837 1846.87 17.4837 M1846.87 11.0023 Q1857.04 11.0023 1862.38 19.0636 Q1867.77 27.0843 1867.77 42.3968 Q1867.77 57.6687 1862.38 65.73 Q1857.04 73.7508 1846.87 73.7508 Q1836.7 73.7508 1831.31 65.73 Q1825.96 57.6687 1825.96 42.3968 Q1825.96 27.0843 1831.31 19.0636 Q1836.7 11.0023 1846.87 11.0023 Z" fill="#000000" fill-rule="nonzero" fill-opacity="1" /><path clip-path="url(#clip500)" d="M1882.15 62.2867 L1890.7 62.2867 L1890.7 72.576 L1882.15 72.576 L1882.15 62.2867 Z" fill="#000000" fill-rule="nonzero" fill-opacity="1" /><path clip-path="url(#clip500)" d="M1908.77 71.3202 L1908.77 63.8666 Q1911.84 65.3249 1915 66.0946 Q1918.16 66.8642 1921.2 66.8642 Q1929.3 66.8642 1933.56 61.436 Q1937.85 55.9673 1938.46 44.8678 Q1936.11 48.3516 1932.5 50.215 Q1928.9 52.0784 1924.52 52.0784 Q1915.45 52.0784 1910.14 46.6097 Q1904.88 41.1005 1904.88 31.5808 Q1904.88 22.2638 1910.39 16.633 Q1915.89 11.0023 1925.05 11.0023 Q1935.54 11.0023 1941.05 19.0636 Q1946.6 27.0843 1946.6 42.3968 Q1946.6 56.6965 1939.8 65.2439 Q1933.03 73.7508 1921.57 73.7508 Q1918.49 73.7508 1915.33 73.1431 Q1912.17 72.5355 1908.77 71.3202 M1925.05 45.678 Q1930.56 45.678 1933.76 41.9107 Q1937 38.1433 1937 31.5808 Q1937 25.0589 1933.76 21.2916 Q1930.56 17.4837 1925.05 17.4837 Q1919.54 17.4837 1916.3 21.2916 Q1913.1 25.0589 1913.1 31.5808 Q1913.1 38.1433 1916.3 41.9107 Q1919.54 45.678 1925.05 45.678 Z" fill="#000000" fill-rule="nonzero" fill-opacity="1" /><polyline clip-path="url(#clip502)" style="stroke:#009af9; stroke-linecap:round; stroke-linejoin:round; stroke-width:4; stroke-opacity:1; fill:none" points="2681.92,151.895 2658.39,163.164 2634.03,174.684 2608.78,186.476 2582.58,198.564 2555.35,210.975 2527.02,223.739 2497.47,236.891 2466.61,250.467 2434.32,264.513 2400.45,279.076 2364.84,294.216 2327.31,309.997 2287.63,326.497 2245.54,343.808 2200.74,362.039 2152.84,381.321 2101.4,401.815 2045.83,423.72 1985.43,447.287 1919.27,472.839 1846.12,500.8 1764.36,531.746 1671.66,566.482 1564.65,606.189 1438.08,652.696 1283.18,709.069 1083.47,781.051 801.992,881.539 320.809,1051.69 "/>
<circle clip-path="url(#clip502)" cx="2681.92" cy="151.895" r="14.4" fill="#009af9" fill-rule="evenodd" fill-opacity="1" stroke="#000000" stroke-opacity="1" stroke-width="3.2"/>
<circle clip-path="url(#clip502)" cx="2658.39" cy="163.164" r="14.4" fill="#009af9" fill-rule="evenodd" fill-opacity="1" stroke="#000000" stroke-opacity="1" stroke-width="3.2"/>
<circle clip-path="url(#clip502)" cx="2634.03" cy="174.684" r="14.4" fill="#009af9" fill-rule="evenodd" fill-opacity="1" stroke="#000000" stroke-opacity="1" stroke-width="3.2"/>
<circle clip-path="url(#clip502)" cx="2608.78" cy="186.476" r="14.4" fill="#009af9" fill-rule="evenodd" fill-opacity="1" stroke="#000000" stroke-opacity="1" stroke-width="3.2"/>
<circle clip-path="url(#clip502)" cx="2582.58" cy="198.564" r="14.4" fill="#009af9" fill-rule="evenodd" fill-opacity="1" stroke="#000000" stroke-opacity="1" stroke-width="3.2"/>
<circle clip-path="url(#clip502)" cx="2555.35" cy="210.975" r="14.4" fill="#009af9" fill-rule="evenodd" fill-opacity="1" stroke="#000000" stroke-opacity="1" stroke-width="3.2"/>
<circle clip-path="url(#clip502)" cx="2527.02" cy="223.739" r="14.4" fill="#009af9" fill-rule="evenodd" fill-opacity="1" stroke="#000000" stroke-opacity="1" stroke-width="3.2"/>
<circle clip-path="url(#clip502)" cx="2497.47" cy="236.891" r="14.4" fill="#009af9" fill-rule="evenodd" fill-opacity="1" stroke="#000000" stroke-opacity="1" stroke-width="3.2"/>
<circle clip-path="url(#clip502)" cx="2466.61" cy="250.467" r="14.4" fill="#009af9" fill-rule="evenodd" fill-opacity="1" stroke="#000000" stroke-opacity="1" stroke-width="3.2"/>
<circle clip-path="url(#clip502)" cx="2434.32" cy="264.513" r="14.4" fill="#009af9" fill-rule="evenodd" fill-opacity="1" stroke="#000000" stroke-opacity="1" stroke-width="3.2"/>
<circle clip-path="url(#clip502)" cx="2400.45" cy="279.076" r="14.4" fill="#009af9" fill-rule="evenodd" fill-opacity="1" stroke="#000000" stroke-opacity="1" stroke-width="3.2"/>
<circle clip-path="url(#clip502)" cx="2364.84" cy="294.216" r="14.4" fill="#009af9" fill-rule="evenodd" fill-opacity="1" stroke="#000000" stroke-opacity="1" stroke-width="3.2"/>
<circle clip-path="url(#clip502)" cx="2327.31" cy="309.997" r="14.4" fill="#009af9" fill-rule="evenodd" fill-opacity="1" stroke="#000000" stroke-opacity="1" stroke-width="3.2"/>
<circle clip-path="url(#clip502)" cx="2287.63" cy="326.497" r="14.4" fill="#009af9" fill-rule="evenodd" fill-opacity="1" stroke="#000000" stroke-opacity="1" stroke-width="3.2"/>
<circle clip-path="url(#clip502)" cx="2245.54" cy="343.808" r="14.4" fill="#009af9" fill-rule="evenodd" fill-opacity="1" stroke="#000000" stroke-opacity="1" stroke-width="3.2"/>
<circle clip-path="url(#clip502)" cx="2200.74" cy="362.039" r="14.4" fill="#009af9" fill-rule="evenodd" fill-opacity="1" stroke="#000000" stroke-opacity="1" stroke-width="3.2"/>
<circle clip-path="url(#clip502)" cx="2152.84" cy="381.321" r="14.4" fill="#009af9" fill-rule="evenodd" fill-opacity="1" stroke="#000000" stroke-opacity="1" stroke-width="3.2"/>
<circle clip-path="url(#clip502)" cx="2101.4" cy="401.815" r="14.4" fill="#009af9" fill-rule="evenodd" fill-opacity="1" stroke="#000000" stroke-opacity="1" stroke-width="3.2"/>
<circle clip-path="url(#clip502)" cx="2045.83" cy="423.72" r="14.4" fill="#009af9" fill-rule="evenodd" fill-opacity="1" stroke="#000000" stroke-opacity="1" stroke-width="3.2"/>
<circle clip-path="url(#clip502)" cx="1985.43" cy="447.287" r="14.4" fill="#009af9" fill-rule="evenodd" fill-opacity="1" stroke="#000000" stroke-opacity="1" stroke-width="3.2"/>
<circle clip-path="url(#clip502)" cx="1919.27" cy="472.839" r="14.4" fill="#009af9" fill-rule="evenodd" fill-opacity="1" stroke="#000000" stroke-opacity="1" stroke-width="3.2"/>
<circle clip-path="url(#clip502)" cx="1846.12" cy="500.8" r="14.4" fill="#009af9" fill-rule="evenodd" fill-opacity="1" stroke="#000000" stroke-opacity="1" stroke-width="3.2"/>
<circle clip-path="url(#clip502)" cx="1764.36" cy="531.746" r="14.4" fill="#009af9" fill-rule="evenodd" fill-opacity="1" stroke="#000000" stroke-opacity="1" stroke-width="3.2"/>
<circle clip-path="url(#clip502)" cx="1671.66" cy="566.482" r="14.4" fill="#009af9" fill-rule="evenodd" fill-opacity="1" stroke="#000000" stroke-opacity="1" stroke-width="3.2"/>
<circle clip-path="url(#clip502)" cx="1564.65" cy="606.189" r="14.4" fill="#009af9" fill-rule="evenodd" fill-opacity="1" stroke="#000000" stroke-opacity="1" stroke-width="3.2"/>
<circle clip-path="url(#clip502)" cx="1438.08" cy="652.696" r="14.4" fill="#009af9" fill-rule="evenodd" fill-opacity="1" stroke="#000000" stroke-opacity="1" stroke-width="3.2"/>
<circle clip-path="url(#clip502)" cx="1283.18" cy="709.069" r="14.4" fill="#009af9" fill-rule="evenodd" fill-opacity="1" stroke="#000000" stroke-opacity="1" stroke-width="3.2"/>
<circle clip-path="url(#clip502)" cx="1083.47" cy="781.051" r="14.4" fill="#009af9" fill-rule="evenodd" fill-opacity="1" stroke="#000000" stroke-opacity="1" stroke-width="3.2"/>
<circle clip-path="url(#clip502)" cx="801.992" cy="881.539" r="14.4" fill="#009af9" fill-rule="evenodd" fill-opacity="1" stroke="#000000" stroke-opacity="1" stroke-width="3.2"/>
<circle clip-path="url(#clip502)" cx="320.809" cy="1051.69" r="14.4" fill="#009af9" fill-rule="evenodd" fill-opacity="1" stroke="#000000" stroke-opacity="1" stroke-width="3.2"/>
<polyline clip-path="url(#clip502)" style="stroke:#e26f46; stroke-linecap:round; stroke-linejoin:round; stroke-width:4; stroke-opacity:1; fill:none" points="2681.92,287.715 2658.39,299.147 2634.03,310.825 2608.78,322.77 2582.58,335.008 2555.35,347.566 2527.02,360.473 2497.47,373.764 2466.61,387.477 2434.32,401.655 2400.45,416.349 2364.84,431.615 2327.31,447.52 2287.63,464.142 2245.54,481.572 2200.74,499.919 2152.84,519.314 2101.4,539.919 2045.83,561.933 1985.43,585.607 1919.27,611.263 1846.12,639.326 1764.36,670.372 1671.66,705.206 1564.65,745.009 1438.08,791.611 1283.18,848.076 1083.47,920.148 801.992,1020.73 320.809,1190.96 "/>
<path clip-path="url(#clip502)" d="M2681.92 271.715 L2665.92 287.715 L2681.92 303.715 L2697.92 287.715 L2681.92 271.715 Z" fill="#e26f46" fill-rule="evenodd" fill-opacity="1" stroke="#000000" stroke-opacity="1" stroke-width="3.2"/>
<path clip-path="url(#clip502)" d="M2658.39 283.147 L2642.39 299.147 L2658.39 315.147 L2674.39 299.147 L2658.39 283.147 Z" fill="#e26f46" fill-rule="evenodd" fill-opacity="1" stroke="#000000" stroke-opacity="1" stroke-width="3.2"/>
<path clip-path="url(#clip502)" d="M2634.03 294.825 L2618.03 310.825 L2634.03 326.825 L2650.03 310.825 L2634.03 294.825 Z" fill="#e26f46" fill-rule="evenodd" fill-opacity="1" stroke="#000000" stroke-opacity="1" stroke-width="3.2"/>
<path clip-path="url(#clip502)" d="M2608.78 306.77 L2592.78 322.77 L2608.78 338.77 L2624.78 322.77 L2608.78 306.77 Z" fill="#e26f46" fill-rule="evenodd" fill-opacity="1" stroke="#000000" stroke-opacity="1" stroke-width="3.2"/>
<path clip-path="url(#clip502)" d="M2582.58 319.008 L2566.58 335.008 L2582.58 351.008 L2598.58 335.008 L2582.58 319.008 Z" fill="#e26f46" fill-rule="evenodd" fill-opacity="1" stroke="#000000" stroke-opacity="1" stroke-width="3.2"/>
<path clip-path="url(#clip502)" d="M2555.35 331.566 L2539.35 347.566 L2555.35 363.566 L2571.35 347.566 L2555.35 331.566 Z" fill="#e26f46" fill-rule="evenodd" fill-opacity="1" stroke="#000000" stroke-opacity="1" stroke-width="3.2"/>
<path clip-path="url(#clip502)" d="M2527.02 344.473 L2511.02 360.473 L2527.02 376.473 L2543.02 360.473 L2527.02 344.473 Z" fill="#e26f46" fill-rule="evenodd" fill-opacity="1" stroke="#000000" stroke-opacity="1" stroke-width="3.2"/>
<path clip-path="url(#clip502)" d="M2497.47 357.764 L2481.47 373.764 L2497.47 389.764 L2513.47 373.764 L2497.47 357.764 Z" fill="#e26f46" fill-rule="evenodd" fill-opacity="1" stroke="#000000" stroke-opacity="1" stroke-width="3.2"/>
<path clip-path="url(#clip502)" d="M2466.61 371.477 L2450.61 387.477 L2466.61 403.477 L2482.61 387.477 L2466.61 371.477 Z" fill="#e26f46" fill-rule="evenodd" fill-opacity="1" stroke="#000000" stroke-opacity="1" stroke-width="3.2"/>
<path clip-path="url(#clip502)" d="M2434.32 385.655 L2418.32 401.655 L2434.32 417.655 L2450.32 401.655 L2434.32 385.655 Z" fill="#e26f46" fill-rule="evenodd" fill-opacity="1" stroke="#000000" stroke-opacity="1" stroke-width="3.2"/>
<path clip-path="url(#clip502)" d="M2400.45 400.349 L2384.45 416.349 L2400.45 432.349 L2416.45 416.349 L2400.45 400.349 Z" fill="#e26f46" fill-rule="evenodd" fill-opacity="1" stroke="#000000" stroke-opacity="1" stroke-width="3.2"/>
<path clip-path="url(#clip502)" d="M2364.84 415.615 L2348.84 431.615 L2364.84 447.615 L2380.84 431.615 L2364.84 415.615 Z" fill="#e26f46" fill-rule="evenodd" fill-opacity="1" stroke="#000000" stroke-opacity="1" stroke-width="3.2"/>
<path clip-path="url(#clip502)" d="M2327.31 431.52 L2311.31 447.52 L2327.31 463.52 L2343.31 447.52 L2327.31 431.52 Z" fill="#e26f46" fill-rule="evenodd" fill-opacity="1" stroke="#000000" stroke-opacity="1" stroke-width="3.2"/>
<path clip-path="url(#clip502)" d="M2287.63 448.142 L2271.63 464.142 L2287.63 480.142 L2303.63 464.142 L2287.63 448.142 Z" fill="#e26f46" fill-rule="evenodd" fill-opacity="1" stroke="#000000" stroke-opacity="1" stroke-width="3.2"/>
<path clip-path="url(#clip502)" d="M2245.54 465.572 L2229.54 481.572 L2245.54 497.572 L2261.54 481.572 L2245.54 465.572 Z" fill="#e26f46" fill-rule="evenodd" fill-opacity="1" stroke="#000000" stroke-opacity="1" stroke-width="3.2"/>
<path clip-path="url(#clip502)" d="M2200.74 483.919 L2184.74 499.919 L2200.74 515.919 L2216.74 499.919 L2200.74 483.919 Z" fill="#e26f46" fill-rule="evenodd" fill-opacity="1" stroke="#000000" stroke-opacity="1" stroke-width="3.2"/>
<path clip-path="url(#clip502)" d="M2152.84 503.314 L2136.84 519.314 L2152.84 535.314 L2168.84 519.314 L2152.84 503.314 Z" fill="#e26f46" fill-rule="evenodd" fill-opacity="1" stroke="#000000" stroke-opacity="1" stroke-width="3.2"/>
<path clip-path="url(#clip502)" d="M2101.4 523.919 L2085.4 539.919 L2101.4 555.919 L2117.4 539.919 L2101.4 523.919 Z" fill="#e26f46" fill-rule="evenodd" fill-opacity="1" stroke="#000000" stroke-opacity="1" stroke-width="3.2"/>
<path clip-path="url(#clip502)" d="M2045.83 545.933 L2029.83 561.933 L2045.83 577.933 L2061.83 561.933 L2045.83 545.933 Z" fill="#e26f46" fill-rule="evenodd" fill-opacity="1" stroke="#000000" stroke-opacity="1" stroke-width="3.2"/>
<path clip-path="url(#clip502)" d="M1985.43 569.607 L1969.43 585.607 L1985.43 601.607 L2001.43 585.607 L1985.43 569.607 Z" fill="#e26f46" fill-rule="evenodd" fill-opacity="1" stroke="#000000" stroke-opacity="1" stroke-width="3.2"/>
<path clip-path="url(#clip502)" d="M1919.27 595.263 L1903.27 611.263 L1919.27 627.263 L1935.27 611.263 L1919.27 595.263 Z" fill="#e26f46" fill-rule="evenodd" fill-opacity="1" stroke="#000000" stroke-opacity="1" stroke-width="3.2"/>
<path clip-path="url(#clip502)" d="M1846.12 623.326 L1830.12 639.326 L1846.12 655.326 L1862.12 639.326 L1846.12 623.326 Z" fill="#e26f46" fill-rule="evenodd" fill-opacity="1" stroke="#000000" stroke-opacity="1" stroke-width="3.2"/>
<path clip-path="url(#clip502)" d="M1764.36 654.372 L1748.36 670.372 L1764.36 686.372 L1780.36 670.372 L1764.36 654.372 Z" fill="#e26f46" fill-rule="evenodd" fill-opacity="1" stroke="#000000" stroke-opacity="1" stroke-width="3.2"/>
<path clip-path="url(#clip502)" d="M1671.66 689.206 L1655.66 705.206 L1671.66 721.206 L1687.66 705.206 L1671.66 689.206 Z" fill="#e26f46" fill-rule="evenodd" fill-opacity="1" stroke="#000000" stroke-opacity="1" stroke-width="3.2"/>
<path clip-path="url(#clip502)" d="M1564.65 729.009 L1548.65 745.009 L1564.65 761.009 L1580.65 745.009 L1564.65 729.009 Z" fill="#e26f46" fill-rule="evenodd" fill-opacity="1" stroke="#000000" stroke-opacity="1" stroke-width="3.2"/>
<path clip-path="url(#clip502)" d="M1438.08 775.611 L1422.08 791.611 L1438.08 807.611 L1454.08 791.611 L1438.08 775.611 Z" fill="#e26f46" fill-rule="evenodd" fill-opacity="1" stroke="#000000" stroke-opacity="1" stroke-width="3.2"/>
<path clip-path="url(#clip502)" d="M1283.18 832.076 L1267.18 848.076 L1283.18 864.076 L1299.18 848.076 L1283.18 832.076 Z" fill="#e26f46" fill-rule="evenodd" fill-opacity="1" stroke="#000000" stroke-opacity="1" stroke-width="3.2"/>
<path clip-path="url(#clip502)" d="M1083.47 904.148 L1067.47 920.148 L1083.47 936.148 L1099.47 920.148 L1083.47 904.148 Z" fill="#e26f46" fill-rule="evenodd" fill-opacity="1" stroke="#000000" stroke-opacity="1" stroke-width="3.2"/>
<path clip-path="url(#clip502)" d="M801.992 1004.73 L785.992 1020.73 L801.992 1036.73 L817.992 1020.73 L801.992 1004.73 Z" fill="#e26f46" fill-rule="evenodd" fill-opacity="1" stroke="#000000" stroke-opacity="1" stroke-width="3.2"/>
<path clip-path="url(#clip502)" d="M320.809 1174.96 L304.809 1190.96 L320.809 1206.96 L336.809 1190.96 L320.809 1174.96 Z" fill="#e26f46" fill-rule="evenodd" fill-opacity="1" stroke="#000000" stroke-opacity="1" stroke-width="3.2"/>
<polyline clip-path="url(#clip502)" style="stroke:#3da44d; stroke-linecap:round; stroke-linejoin:round; stroke-width:4; stroke-opacity:1; fill:none" points="2681.92,481.572 2658.39,493.122 2634.03,504.915 2608.78,516.973 2582.58,529.321 2555.35,541.985 2527.02,554.996 2497.47,568.388 2466.61,582.2 2434.32,596.475 2400.45,611.263 2364.84,626.621 2327.31,642.616 2287.63,659.326 2245.54,676.841 2200.74,695.272 2152.84,714.749 2101.4,735.435 2045.83,757.527 1985.43,781.277 1919.27,807.008 1846.12,835.145 1764.36,866.263 1671.66,901.167 1564.65,941.039 1438.08,987.708 1283.18,1044.24 1083.47,1116.38 801.992,1217.02 320.809,1387.31 "/>
<path clip-path="url(#clip502)" d="M2681.92 465.572 L2678.16 476.388 L2666.71 476.628 L2675.84 483.556 L2672.51 494.516 L2681.92 487.972 L2691.33 494.516 L2688 483.556 L2697.14 476.628 L2685.68 476.388 L2681.92 465.572 Z" fill="#3da44d" fill-rule="evenodd" fill-opacity="1" stroke="#000000" stroke-opacity="1" stroke-width="3.2"/>
<path clip-path="url(#clip502)" d="M2658.39 477.122 L2654.63 487.938 L2643.17 488.178 L2652.31 495.106 L2648.98 506.066 L2658.39 499.522 L2667.8 506.066 L2664.47 495.106 L2673.6 488.178 L2662.15 487.938 L2658.39 477.122 Z" fill="#3da44d" fill-rule="evenodd" fill-opacity="1" stroke="#000000" stroke-opacity="1" stroke-width="3.2"/>
<path clip-path="url(#clip502)" d="M2634.03 488.915 L2630.27 499.731 L2618.81 499.971 L2627.95 506.899 L2624.62 517.859 L2634.03 511.315 L2643.44 517.859 L2640.11 506.899 L2649.24 499.971 L2637.79 499.731 L2634.03 488.915 Z" fill="#3da44d" fill-rule="evenodd" fill-opacity="1" stroke="#000000" stroke-opacity="1" stroke-width="3.2"/>
<path clip-path="url(#clip502)" d="M2608.78 500.973 L2605.02 511.789 L2593.57 512.029 L2602.7 518.957 L2599.37 529.917 L2608.78 523.373 L2618.19 529.917 L2614.86 518.957 L2624 512.029 L2612.54 511.789 L2608.78 500.973 Z" fill="#3da44d" fill-rule="evenodd" fill-opacity="1" stroke="#000000" stroke-opacity="1" stroke-width="3.2"/>
<path clip-path="url(#clip502)" d="M2582.58 513.321 L2578.82 524.137 L2567.37 524.377 L2576.5 531.305 L2573.17 542.265 L2582.58 535.721 L2591.99 542.265 L2588.66 531.305 L2597.8 524.377 L2586.34 524.137 L2582.58 513.321 Z" fill="#3da44d" fill-rule="evenodd" fill-opacity="1" stroke="#000000" stroke-opacity="1" stroke-width="3.2"/>
<path clip-path="url(#clip502)" d="M2555.35 525.985 L2551.59 536.801 L2540.14 537.041 L2549.27 543.969 L2545.95 554.929 L2555.35 548.385 L2564.76 554.929 L2561.43 543.969 L2570.57 537.041 L2559.11 536.801 L2555.35 525.985 Z" fill="#3da44d" fill-rule="evenodd" fill-opacity="1" stroke="#000000" stroke-opacity="1" stroke-width="3.2"/>
<path clip-path="url(#clip502)" d="M2527.02 538.996 L2523.26 549.812 L2511.8 550.052 L2520.94 556.98 L2517.61 567.94 L2527.02 561.396 L2536.42 567.94 L2533.1 556.98 L2542.23 550.052 L2530.78 549.812 L2527.02 538.996 Z" fill="#3da44d" fill-rule="evenodd" fill-opacity="1" stroke="#000000" stroke-opacity="1" stroke-width="3.2"/>
<path clip-path="url(#clip502)" d="M2497.47 552.388 L2493.71 563.204 L2482.26 563.444 L2491.39 570.372 L2488.06 581.332 L2497.47 574.788 L2506.88 581.332 L2503.55 570.372 L2512.69 563.444 L2501.23 563.204 L2497.47 552.388 Z" fill="#3da44d" fill-rule="evenodd" fill-opacity="1" stroke="#000000" stroke-opacity="1" stroke-width="3.2"/>
<path clip-path="url(#clip502)" d="M2466.61 566.2 L2462.85 577.016 L2451.4 577.256 L2460.53 584.184 L2457.2 595.144 L2466.61 588.6 L2476.02 595.144 L2472.69 584.184 L2481.83 577.256 L2470.37 577.016 L2466.61 566.2 Z" fill="#3da44d" fill-rule="evenodd" fill-opacity="1" stroke="#000000" stroke-opacity="1" stroke-width="3.2"/>
<path clip-path="url(#clip502)" d="M2434.32 580.475 L2430.56 591.291 L2419.1 591.531 L2428.24 598.459 L2424.91 609.419 L2434.32 602.875 L2443.73 609.419 L2440.4 598.459 L2449.53 591.531 L2438.08 591.291 L2434.32 580.475 Z" fill="#3da44d" fill-rule="evenodd" fill-opacity="1" stroke="#000000" stroke-opacity="1" stroke-width="3.2"/>
<path clip-path="url(#clip502)" d="M2400.45 595.263 L2396.69 606.079 L2385.23 606.319 L2394.37 613.247 L2391.04 624.207 L2400.45 617.663 L2409.86 624.207 L2406.53 613.247 L2415.66 606.319 L2404.21 606.079 L2400.45 595.263 Z" fill="#3da44d" fill-rule="evenodd" fill-opacity="1" stroke="#000000" stroke-opacity="1" stroke-width="3.2"/>
<path clip-path="url(#clip502)" d="M2364.84 610.621 L2361.08 621.437 L2349.62 621.677 L2358.76 628.605 L2355.43 639.565 L2364.84 633.021 L2374.25 639.565 L2370.92 628.605 L2380.06 621.677 L2368.6 621.437 L2364.84 610.621 Z" fill="#3da44d" fill-rule="evenodd" fill-opacity="1" stroke="#000000" stroke-opacity="1" stroke-width="3.2"/>
<path clip-path="url(#clip502)" d="M2327.31 626.616 L2323.55 637.432 L2312.09 637.672 L2321.23 644.6 L2317.9 655.56 L2327.31 649.016 L2336.71 655.56 L2333.39 644.6 L2342.52 637.672 L2331.07 637.432 L2327.31 626.616 Z" fill="#3da44d" fill-rule="evenodd" fill-opacity="1" stroke="#000000" stroke-opacity="1" stroke-width="3.2"/>
<path clip-path="url(#clip502)" d="M2287.63 643.326 L2283.87 654.142 L2272.41 654.382 L2281.55 661.31 L2278.22 672.27 L2287.63 665.726 L2297.04 672.27 L2293.71 661.31 L2302.84 654.382 L2291.39 654.142 L2287.63 643.326 Z" fill="#3da44d" fill-rule="evenodd" fill-opacity="1" stroke="#000000" stroke-opacity="1" stroke-width="3.2"/>
<path clip-path="url(#clip502)" d="M2245.54 660.841 L2241.78 671.657 L2230.33 671.897 L2239.46 678.825 L2236.13 689.785 L2245.54 683.241 L2254.95 689.785 L2251.62 678.825 L2260.76 671.897 L2249.3 671.657 L2245.54 660.841 Z" fill="#3da44d" fill-rule="evenodd" fill-opacity="1" stroke="#000000" stroke-opacity="1" stroke-width="3.2"/>
<path clip-path="url(#clip502)" d="M2200.74 679.272 L2196.98 690.088 L2185.52 690.328 L2194.66 697.256 L2191.33 708.216 L2200.74 701.672 L2210.15 708.216 L2206.82 697.256 L2215.96 690.328 L2204.5 690.088 L2200.74 679.272 Z" fill="#3da44d" fill-rule="evenodd" fill-opacity="1" stroke="#000000" stroke-opacity="1" stroke-width="3.2"/>
<path clip-path="url(#clip502)" d="M2152.84 698.749 L2149.08 709.565 L2137.63 709.805 L2146.76 716.733 L2143.44 727.693 L2152.84 721.149 L2162.25 727.693 L2158.92 716.733 L2168.06 709.805 L2156.6 709.565 L2152.84 698.749 Z" fill="#3da44d" fill-rule="evenodd" fill-opacity="1" stroke="#000000" stroke-opacity="1" stroke-width="3.2"/>
<path clip-path="url(#clip502)" d="M2101.4 719.435 L2097.64 730.251 L2086.18 730.491 L2095.32 737.419 L2091.99 748.379 L2101.4 741.835 L2110.81 748.379 L2107.48 737.419 L2116.61 730.491 L2105.16 730.251 L2101.4 719.435 Z" fill="#3da44d" fill-rule="evenodd" fill-opacity="1" stroke="#000000" stroke-opacity="1" stroke-width="3.2"/>
<path clip-path="url(#clip502)" d="M2045.83 741.527 L2042.07 752.343 L2030.62 752.583 L2039.75 759.511 L2036.42 770.471 L2045.83 763.927 L2055.24 770.471 L2051.91 759.511 L2061.05 752.583 L2049.59 752.343 L2045.83 741.527 Z" fill="#3da44d" fill-rule="evenodd" fill-opacity="1" stroke="#000000" stroke-opacity="1" stroke-width="3.2"/>
<path clip-path="url(#clip502)" d="M1985.43 765.277 L1981.67 776.093 L1970.21 776.333 L1979.35 783.261 L1976.02 794.221 L1985.43 787.677 L1994.84 794.221 L1991.51 783.261 L2000.65 776.333 L1989.19 776.093 L1985.43 765.277 Z" fill="#3da44d" fill-rule="evenodd" fill-opacity="1" stroke="#000000" stroke-opacity="1" stroke-width="3.2"/>
<path clip-path="url(#clip502)" d="M1919.27 791.008 L1915.51 801.824 L1904.05 802.064 L1913.19 808.992 L1909.86 819.952 L1919.27 813.408 L1928.67 819.952 L1925.35 808.992 L1934.48 802.064 L1923.03 801.824 L1919.27 791.008 Z" fill="#3da44d" fill-rule="evenodd" fill-opacity="1" stroke="#000000" stroke-opacity="1" stroke-width="3.2"/>
<path clip-path="url(#clip502)" d="M1846.12 819.145 L1842.36 829.961 L1830.91 830.201 L1840.04 837.129 L1836.72 848.089 L1846.12 841.545 L1855.53 848.089 L1852.2 837.129 L1861.34 830.201 L1849.88 829.961 L1846.12 819.145 Z" fill="#3da44d" fill-rule="evenodd" fill-opacity="1" stroke="#000000" stroke-opacity="1" stroke-width="3.2"/>
<path clip-path="url(#clip502)" d="M1764.36 850.263 L1760.6 861.079 L1749.14 861.319 L1758.28 868.247 L1754.95 879.207 L1764.36 872.663 L1773.77 879.207 L1770.44 868.247 L1779.57 861.319 L1768.12 861.079 L1764.36 850.263 Z" fill="#3da44d" fill-rule="evenodd" fill-opacity="1" stroke="#000000" stroke-opacity="1" stroke-width="3.2"/>
<path clip-path="url(#clip502)" d="M1671.66 885.167 L1667.9 895.983 L1656.45 896.223 L1665.58 903.151 L1662.25 914.111 L1671.66 907.567 L1681.07 914.111 L1677.74 903.151 L1686.88 896.223 L1675.42 895.983 L1671.66 885.167 Z" fill="#3da44d" fill-rule="evenodd" fill-opacity="1" stroke="#000000" stroke-opacity="1" stroke-width="3.2"/>
<path clip-path="url(#clip502)" d="M1564.65 925.039 L1560.89 935.855 L1549.43 936.095 L1558.57 943.023 L1555.24 953.983 L1564.65 947.439 L1574.06 953.983 L1570.73 943.023 L1579.87 936.095 L1568.41 935.855 L1564.65 925.039 Z" fill="#3da44d" fill-rule="evenodd" fill-opacity="1" stroke="#000000" stroke-opacity="1" stroke-width="3.2"/>
<path clip-path="url(#clip502)" d="M1438.08 971.708 L1434.32 982.524 L1422.87 982.764 L1432 989.692 L1428.67 1000.65 L1438.08 994.108 L1447.49 1000.65 L1444.16 989.692 L1453.3 982.764 L1441.84 982.524 L1438.08 971.708 Z" fill="#3da44d" fill-rule="evenodd" fill-opacity="1" stroke="#000000" stroke-opacity="1" stroke-width="3.2"/>
<path clip-path="url(#clip502)" d="M1283.18 1028.24 L1279.42 1039.06 L1267.96 1039.3 L1277.1 1046.22 L1273.77 1057.18 L1283.18 1050.64 L1292.58 1057.18 L1289.26 1046.22 L1298.39 1039.3 L1286.94 1039.06 L1283.18 1028.24 Z" fill="#3da44d" fill-rule="evenodd" fill-opacity="1" stroke="#000000" stroke-opacity="1" stroke-width="3.2"/>
<path clip-path="url(#clip502)" d="M1083.47 1100.38 L1079.71 1111.19 L1068.25 1111.43 L1077.39 1118.36 L1074.06 1129.32 L1083.47 1122.78 L1092.87 1129.32 L1089.55 1118.36 L1098.68 1111.43 L1087.23 1111.19 L1083.47 1100.38 Z" fill="#3da44d" fill-rule="evenodd" fill-opacity="1" stroke="#000000" stroke-opacity="1" stroke-width="3.2"/>
<path clip-path="url(#clip502)" d="M801.992 1201.02 L798.232 1211.83 L786.776 1212.07 L795.912 1219 L792.584 1229.96 L801.992 1223.42 L811.4 1229.96 L808.072 1219 L817.208 1212.07 L805.752 1211.83 L801.992 1201.02 Z" fill="#3da44d" fill-rule="evenodd" fill-opacity="1" stroke="#000000" stroke-opacity="1" stroke-width="3.2"/>
<path clip-path="url(#clip502)" d="M320.809 1371.31 L317.049 1382.13 L305.593 1382.37 L314.729 1389.3 L311.401 1400.26 L320.809 1393.71 L330.217 1400.26 L326.889 1389.3 L336.025 1382.37 L324.569 1382.13 L320.809 1371.31 Z" fill="#3da44d" fill-rule="evenodd" fill-opacity="1" stroke="#000000" stroke-opacity="1" stroke-width="3.2"/>
<path clip-path="url(#clip500)" d="M333.401 365.844 L782.266 365.844 L782.266 158.484 L333.401 158.484  Z" fill="#ffffff" fill-rule="evenodd" fill-opacity="1"/>
<polyline clip-path="url(#clip500)" style="stroke:#000000; stroke-linecap:round; stroke-linejoin:round; stroke-width:4; stroke-opacity:1; fill:none" points="333.401,365.844 782.266,365.844 782.266,158.484 333.401,158.484 333.401,365.844 "/>
<polyline clip-path="url(#clip500)" style="stroke:#009af9; stroke-linecap:round; stroke-linejoin:round; stroke-width:4; stroke-opacity:1; fill:none" points="361.21,210.324 528.062,210.324 "/>
<circle clip-path="url(#clip500)" cx="444.636" cy="210.324" r="20.48" fill="#009af9" fill-rule="evenodd" fill-opacity="1" stroke="#000000" stroke-opacity="1" stroke-width="4.55111"/>
<path clip-path="url(#clip500)" d="M563.486 205.752 L569.158 221.77 L577.26 201.678 L581.773 201.678 L571.287 227.604 L571.287 237.465 L567.028 237.465 L567.028 227.604 L560.223 208.252 Q559.204 205.335 557.005 205.335 L555.871 205.335 L555.871 201.678 L557.491 201.678 Q562.051 201.678 563.486 205.752 Z" fill="#000000" fill-rule="nonzero" fill-opacity="1" /><path clip-path="url(#clip500)" d="M603.278 206.076 L632.954 206.076 L632.954 209.965 L603.278 209.965 L603.278 206.076 M603.278 215.52 L632.954 215.52 L632.954 219.456 L603.278 219.456 L603.278 215.52 Z" fill="#000000" fill-rule="nonzero" fill-opacity="1" /><path clip-path="url(#clip500)" d="M668.116 196.122 Q664.504 196.122 662.676 199.687 Q660.87 203.229 660.87 210.358 Q660.87 217.465 662.676 221.03 Q664.504 224.571 668.116 224.571 Q671.75 224.571 673.555 221.03 Q675.384 217.465 675.384 210.358 Q675.384 203.229 673.555 199.687 Q671.75 196.122 668.116 196.122 M668.116 192.419 Q673.926 192.419 676.981 197.025 Q680.06 201.608 680.06 210.358 Q680.06 219.085 676.981 223.692 Q673.926 228.275 668.116 228.275 Q662.305 228.275 659.227 223.692 Q656.171 219.085 656.171 210.358 Q656.171 201.608 659.227 197.025 Q662.305 192.419 668.116 192.419 Z" fill="#000000" fill-rule="nonzero" fill-opacity="1" /><path clip-path="url(#clip500)" d="M688.277 221.724 L693.162 221.724 L693.162 227.604 L688.277 227.604 L688.277 221.724 Z" fill="#000000" fill-rule="nonzero" fill-opacity="1" /><path clip-path="url(#clip500)" d="M707.375 223.668 L723.694 223.668 L723.694 227.604 L701.75 227.604 L701.75 223.668 Q704.412 220.914 708.995 216.284 Q713.601 211.631 714.782 210.289 Q717.027 207.766 717.907 206.03 Q718.81 204.27 718.81 202.581 Q718.81 199.826 716.865 198.09 Q714.944 196.354 711.842 196.354 Q709.643 196.354 707.189 197.118 Q704.759 197.882 701.981 199.432 L701.981 194.71 Q704.805 193.576 707.259 192.997 Q709.713 192.419 711.75 192.419 Q717.12 192.419 720.314 195.104 Q723.509 197.789 723.509 202.28 Q723.509 204.409 722.699 206.331 Q721.912 208.229 719.805 210.821 Q719.226 211.493 716.125 214.71 Q713.023 217.905 707.375 223.668 Z" fill="#000000" fill-rule="nonzero" fill-opacity="1" /><polyline clip-path="url(#clip500)" style="stroke:#e26f46; stroke-linecap:round; stroke-linejoin:round; stroke-width:4; stroke-opacity:1; fill:none" points="361.21,262.164 528.062,262.164 "/>
<path clip-path="url(#clip500)" d="M444.636 239.408 L421.881 262.164 L444.636 284.919 L467.392 262.164 L444.636 239.408 Z" fill="#e26f46" fill-rule="evenodd" fill-opacity="1" stroke="#000000" stroke-opacity="1" stroke-width="4.55111"/>
<path clip-path="url(#clip500)" d="M563.486 257.592 L569.158 273.61 L577.26 253.518 L581.773 253.518 L571.287 279.444 L571.287 289.305 L567.028 289.305 L567.028 279.444 L560.223 260.092 Q559.204 257.175 557.005 257.175 L555.871 257.175 L555.871 253.518 L557.491 253.518 Q562.051 253.518 563.486 257.592 Z" fill="#000000" fill-rule="nonzero" fill-opacity="1" /><path clip-path="url(#clip500)" d="M603.278 257.916 L632.954 257.916 L632.954 261.805 L603.278 261.805 L603.278 257.916 M603.278 267.36 L632.954 267.36 L632.954 271.296 L603.278 271.296 L603.278 267.36 Z" fill="#000000" fill-rule="nonzero" fill-opacity="1" /><path clip-path="url(#clip500)" d="M668.116 247.962 Q664.504 247.962 662.676 251.527 Q660.87 255.069 660.87 262.198 Q660.87 269.305 662.676 272.87 Q664.504 276.411 668.116 276.411 Q671.75 276.411 673.555 272.87 Q675.384 269.305 675.384 262.198 Q675.384 255.069 673.555 251.527 Q671.75 247.962 668.116 247.962 M668.116 244.259 Q673.926 244.259 676.981 248.865 Q680.06 253.448 680.06 262.198 Q680.06 270.925 676.981 275.532 Q673.926 280.115 668.116 280.115 Q662.305 280.115 659.227 275.532 Q656.171 270.925 656.171 262.198 Q656.171 253.448 659.227 248.865 Q662.305 244.259 668.116 244.259 Z" fill="#000000" fill-rule="nonzero" fill-opacity="1" /><path clip-path="url(#clip500)" d="M688.277 273.564 L693.162 273.564 L693.162 279.444 L688.277 279.444 L688.277 273.564 Z" fill="#000000" fill-rule="nonzero" fill-opacity="1" /><path clip-path="url(#clip500)" d="M704.157 275.508 L711.796 275.508 L711.796 249.143 L703.486 250.81 L703.486 246.55 L711.75 244.884 L716.425 244.884 L716.425 275.508 L724.064 275.508 L724.064 279.444 L704.157 279.444 L704.157 275.508 Z" fill="#000000" fill-rule="nonzero" fill-opacity="1" /><path clip-path="url(#clip500)" d="M733.555 244.884 L751.911 244.884 L751.911 248.819 L737.837 248.819 L737.837 257.291 Q738.856 256.944 739.874 256.782 Q740.893 256.597 741.911 256.597 Q747.698 256.597 751.078 259.768 Q754.458 262.939 754.458 268.356 Q754.458 273.934 750.985 277.036 Q747.513 280.115 741.194 280.115 Q739.018 280.115 736.749 279.745 Q734.504 279.374 732.097 278.633 L732.097 273.934 Q734.18 275.069 736.402 275.624 Q738.624 276.18 741.101 276.18 Q745.106 276.18 747.444 274.073 Q749.782 271.967 749.782 268.356 Q749.782 264.745 747.444 262.638 Q745.106 260.532 741.101 260.532 Q739.226 260.532 737.351 260.948 Q735.499 261.365 733.555 262.245 L733.555 244.884 Z" fill="#000000" fill-rule="nonzero" fill-opacity="1" /><polyline clip-path="url(#clip500)" style="stroke:#3da44d; stroke-linecap:round; stroke-linejoin:round; stroke-width:4; stroke-opacity:1; fill:none" points="361.21,314.004 528.062,314.004 "/>
<path clip-path="url(#clip500)" d="M444.636 291.248 L439.289 306.631 L422.996 306.972 L435.989 316.825 L431.256 332.413 L444.636 323.106 L458.016 332.413 L453.283 316.825 L466.277 306.972 L449.984 306.631 L444.636 291.248 Z" fill="#3da44d" fill-rule="evenodd" fill-opacity="1" stroke="#000000" stroke-opacity="1" stroke-width="4.55111"/>
<path clip-path="url(#clip500)" d="M563.486 309.432 L569.158 325.45 L577.26 305.358 L581.773 305.358 L571.287 331.284 L571.287 341.145 L567.028 341.145 L567.028 331.284 L560.223 311.932 Q559.204 309.015 557.005 309.015 L555.871 309.015 L555.871 305.358 L557.491 305.358 Q562.051 305.358 563.486 309.432 Z" fill="#000000" fill-rule="nonzero" fill-opacity="1" /><path clip-path="url(#clip500)" d="M603.278 309.756 L632.954 309.756 L632.954 313.645 L603.278 313.645 L603.278 309.756 M603.278 319.2 L632.954 319.2 L632.954 323.136 L603.278 323.136 L603.278 319.2 Z" fill="#000000" fill-rule="nonzero" fill-opacity="1" /><path clip-path="url(#clip500)" d="M668.116 299.802 Q664.504 299.802 662.676 303.367 Q660.87 306.909 660.87 314.038 Q660.87 321.145 662.676 324.71 Q664.504 328.251 668.116 328.251 Q671.75 328.251 673.555 324.71 Q675.384 321.145 675.384 314.038 Q675.384 306.909 673.555 303.367 Q671.75 299.802 668.116 299.802 M668.116 296.099 Q673.926 296.099 676.981 300.705 Q680.06 305.288 680.06 314.038 Q680.06 322.765 676.981 327.372 Q673.926 331.955 668.116 331.955 Q662.305 331.955 659.227 327.372 Q656.171 322.765 656.171 314.038 Q656.171 305.288 659.227 300.705 Q662.305 296.099 668.116 296.099 Z" fill="#000000" fill-rule="nonzero" fill-opacity="1" /><path clip-path="url(#clip500)" d="M688.277 325.404 L693.162 325.404 L693.162 331.284 L688.277 331.284 L688.277 325.404 Z" fill="#000000" fill-rule="nonzero" fill-opacity="1" /><path clip-path="url(#clip500)" d="M704.157 327.348 L711.796 327.348 L711.796 300.983 L703.486 302.65 L703.486 298.39 L711.75 296.724 L716.425 296.724 L716.425 327.348 L724.064 327.348 L724.064 331.284 L704.157 331.284 L704.157 327.348 Z" fill="#000000" fill-rule="nonzero" fill-opacity="1" /></svg>
