<?xml version="1.0" encoding="utf-8"?>
<svg xmlns="http://www.w3.org/2000/svg" xmlns:xlink="http://www.w3.org/1999/xlink" width="700" height="400" viewBox="0 0 2800 1600">
<defs>
  <clipPath id="clip140">
    <rect x="0" y="0" width="2800" height="1600"/>
  </clipPath>
</defs>
<path clip-path="url(#clip140)" d="M0 1600 L2800 1600 L2800 8.88178e-14 L0 8.88178e-14  Z" fill="#ffffff" fill-rule="evenodd" fill-opacity="1"/>
<defs>
  <clipPath id="clip141">
    <rect x="560" y="0" width="1961" height="1600"/>
  </clipPath>
</defs>
<path clip-path="url(#clip140)" d="M286.256 1424.38 L2752.76 1424.38 L2752.76 114.832 L286.256 114.832  Z" fill="#ffffff" fill-rule="evenodd" fill-opacity="1"/>
<defs>
  <clipPath id="clip142">
    <rect x="286" y="114" width="2468" height="1311"/>
  </clipPath>
</defs>
<polyline clip-path="url(#clip142)" style="stroke:#000000; stroke-linecap:round; stroke-linejoin:round; stroke-width:2; stroke-opacity:0.1; fill:none" points="713.761,1424.38 713.761,114.832 "/>
<polyline clip-path="url(#clip142)" style="stroke:#000000; stroke-linecap:round; stroke-linejoin:round; stroke-width:2; stroke-opacity:0.1; fill:none" points="1250.31,1424.38 1250.31,114.832 "/>
<polyline clip-path="url(#clip142)" style="stroke:#000000; stroke-linecap:round; stroke-linejoin:round; stroke-width:2; stroke-opacity:0.1; fill:none" points="1786.86,1424.38 1786.86,114.832 "/>
<polyline clip-path="url(#clip142)" style="stroke:#000000; stroke-linecap:round; stroke-linejoin:round; stroke-width:2; stroke-opacity:0.1; fill:none" points="2323.41,1424.38 2323.41,114.832 "/>
<polyline clip-path="url(#clip142)" style="stroke:#000000; stroke-linecap:round; stroke-linejoin:round; stroke-width:2; stroke-opacity:0.1; fill:none" points="286.256,1198.25 2752.76,1198.25 "/>
<polyline clip-path="url(#clip142)" style="stroke:#000000; stroke-linecap:round; stroke-linejoin:round; stroke-width:2; stroke-opacity:0.1; fill:none" points="286.256,916.111 2752.76,916.111 "/>
<polyline clip-path="url(#clip142)" style="stroke:#000000; stroke-linecap:round; stroke-linejoin:round; stroke-width:2; stroke-opacity:0.1; fill:none" points="286.256,633.97 2752.76,633.97 "/>
<polyline clip-path="url(#clip142)" style="stroke:#000000; stroke-linecap:round; stroke-linejoin:round; stroke-width:2; stroke-opacity:0.1; fill:none" points="286.256,351.828 2752.76,351.828 "/>
<polyline clip-path="url(#clip140)" style="stroke:#000000; stroke-linecap:round; stroke-linejoin:round; stroke-width:4; stroke-opacity:1; fill:none" points="286.256,1424.38 2752.76,1424.38 "/>
<polyline clip-path="url(#clip140)" style="stroke:#000000; stroke-linecap:round; stroke-linejoin:round; stroke-width:4; stroke-opacity:1; fill:none" points="713.761,1424.38 713.761,1405.48 "/>
<polyline clip-path="url(#clip140)" style="stroke:#000000; stroke-linecap:round; stroke-linejoin:round; stroke-width:4; stroke-opacity:1; fill:none" points="1250.31,1424.38 1250.31,1405.48 "/>
<polyline clip-path="url(#clip140)" style="stroke:#000000; stroke-linecap:round; stroke-linejoin:round; stroke-width:4; stroke-opacity:1; fill:none" points="1786.86,1424.38 1786.86,1405.48 "/>
<polyline clip-path="url(#clip140)" style="stroke:#000000; stroke-linecap:round; stroke-linejoin:round; stroke-width:4; stroke-opacity:1; fill:none" points="2323.41,1424.38 2323.41,1405.48 "/>
<path clip-path="url(#clip140)" d="M645.041 1501.7 L652.68 1501.7 L652.68 1475.34 L644.369 1477 L644.369 1472.74 L652.633 1471.08 L657.309 1471.08 L657.309 1501.7 L664.948 1501.7 L664.948 1505.64 L645.041 1505.64 L645.041 1501.7 Z" fill="#000000" fill-rule="nonzero" fill-opacity="1" /><path clip-path="url(#clip140)" d="M684.392 1474.16 Q680.781 1474.16 678.953 1477.72 Q677.147 1481.26 677.147 1488.39 Q677.147 1495.5 678.953 1499.06 Q680.781 1502.6 684.392 1502.6 Q688.027 1502.6 689.832 1499.06 Q691.661 1495.5 691.661 1488.39 Q691.661 1481.26 689.832 1477.72 Q688.027 1474.16 684.392 1474.16 M684.392 1470.45 Q690.203 1470.45 693.258 1475.06 Q696.337 1479.64 696.337 1488.39 Q696.337 1497.12 693.258 1501.73 Q690.203 1506.31 684.392 1506.31 Q678.582 1506.31 675.504 1501.73 Q672.448 1497.12 672.448 1488.39 Q672.448 1479.64 675.504 1475.06 Q678.582 1470.45 684.392 1470.45 Z" fill="#000000" fill-rule="nonzero" fill-opacity="1" /><path clip-path="url(#clip140)" d="M696.337 1464.55 L720.448 1464.55 L720.448 1467.75 L696.337 1467.75 L696.337 1464.55 Z" fill="#000000" fill-rule="nonzero" fill-opacity="1" /><path clip-path="url(#clip140)" d="M729.307 1475.03 L735.513 1475.03 L735.513 1453.61 L728.761 1454.96 L728.761 1451.5 L735.476 1450.15 L739.275 1450.15 L739.275 1475.03 L745.481 1475.03 L745.481 1478.23 L729.307 1478.23 L729.307 1475.03 Z" fill="#000000" fill-rule="nonzero" fill-opacity="1" /><path clip-path="url(#clip140)" d="M753.155 1473.45 L757.123 1473.45 L757.123 1478.23 L753.155 1478.23 L753.155 1473.45 Z" fill="#000000" fill-rule="nonzero" fill-opacity="1" /><path clip-path="url(#clip140)" d="M773.524 1464.89 Q770.815 1464.89 769.254 1466.34 Q767.712 1467.79 767.712 1470.33 Q767.712 1472.87 769.254 1474.31 Q770.815 1475.76 773.524 1475.76 Q776.232 1475.76 777.793 1474.31 Q779.354 1472.85 779.354 1470.33 Q779.354 1467.79 777.793 1466.34 Q776.251 1464.89 773.524 1464.89 M769.725 1463.27 Q767.28 1462.67 765.907 1461 Q764.553 1459.32 764.553 1456.92 Q764.553 1453.55 766.941 1451.59 Q769.348 1449.64 773.524 1449.64 Q777.718 1449.64 780.107 1451.59 Q782.495 1453.55 782.495 1456.92 Q782.495 1459.32 781.122 1461 Q779.768 1462.67 777.342 1463.27 Q780.088 1463.91 781.611 1465.78 Q783.153 1467.64 783.153 1470.33 Q783.153 1474.41 780.652 1476.59 Q778.169 1478.77 773.524 1478.77 Q768.878 1478.77 766.377 1476.59 Q763.894 1474.41 763.894 1470.33 Q763.894 1467.64 765.436 1465.78 Q766.979 1463.91 769.725 1463.27 M768.333 1457.27 Q768.333 1459.46 769.687 1460.68 Q771.06 1461.9 773.524 1461.9 Q775.969 1461.9 777.342 1460.68 Q778.734 1459.46 778.734 1457.27 Q778.734 1455.09 777.342 1453.87 Q775.969 1452.65 773.524 1452.65 Q771.06 1452.65 769.687 1453.87 Q768.333 1455.09 768.333 1457.27 Z" fill="#000000" fill-rule="nonzero" fill-opacity="1" /><path clip-path="url(#clip140)" d="M1181.96 1501.7 L1189.6 1501.7 L1189.6 1475.34 L1181.29 1477 L1181.29 1472.74 L1189.55 1471.08 L1194.22 1471.08 L1194.22 1501.7 L1201.86 1501.7 L1201.86 1505.64 L1181.96 1505.64 L1181.96 1501.7 Z" fill="#000000" fill-rule="nonzero" fill-opacity="1" /><path clip-path="url(#clip140)" d="M1221.31 1474.16 Q1217.7 1474.16 1215.87 1477.72 Q1214.06 1481.26 1214.06 1488.39 Q1214.06 1495.5 1215.87 1499.06 Q1217.7 1502.6 1221.31 1502.6 Q1224.94 1502.6 1226.75 1499.06 Q1228.58 1495.5 1228.58 1488.39 Q1228.58 1481.26 1226.75 1477.72 Q1224.94 1474.16 1221.31 1474.16 M1221.31 1470.45 Q1227.12 1470.45 1230.17 1475.06 Q1233.25 1479.64 1233.25 1488.39 Q1233.25 1497.12 1230.17 1501.73 Q1227.12 1506.31 1221.31 1506.31 Q1215.5 1506.31 1212.42 1501.73 Q1209.36 1497.12 1209.36 1488.39 Q1209.36 1479.64 1212.42 1475.06 Q1215.5 1470.45 1221.31 1470.45 Z" fill="#000000" fill-rule="nonzero" fill-opacity="1" /><path clip-path="url(#clip140)" d="M1233.25 1464.55 L1257.36 1464.55 L1257.36 1467.75 L1233.25 1467.75 L1233.25 1464.55 Z" fill="#000000" fill-rule="nonzero" fill-opacity="1" /><path clip-path="url(#clip140)" d="M1266.22 1475.03 L1272.43 1475.03 L1272.43 1453.61 L1265.68 1454.96 L1265.68 1451.5 L1272.39 1450.15 L1276.19 1450.15 L1276.19 1475.03 L1282.4 1475.03 L1282.4 1478.23 L1266.22 1478.23 L1266.22 1475.03 Z" fill="#000000" fill-rule="nonzero" fill-opacity="1" /><path clip-path="url(#clip140)" d="M1290.07 1473.45 L1294.04 1473.45 L1294.04 1478.23 L1290.07 1478.23 L1290.07 1473.45 Z" fill="#000000" fill-rule="nonzero" fill-opacity="1" /><path clip-path="url(#clip140)" d="M1302.35 1450.15 L1317.27 1450.15 L1317.27 1453.34 L1305.83 1453.34 L1305.83 1460.23 Q1306.66 1459.95 1307.49 1459.81 Q1308.31 1459.66 1309.14 1459.66 Q1313.84 1459.66 1316.59 1462.24 Q1319.34 1464.82 1319.34 1469.22 Q1319.34 1473.75 1316.51 1476.27 Q1313.69 1478.77 1308.56 1478.77 Q1306.79 1478.77 1304.95 1478.47 Q1303.12 1478.17 1301.17 1477.57 L1301.17 1473.75 Q1302.86 1474.67 1304.67 1475.12 Q1306.47 1475.57 1308.48 1475.57 Q1311.74 1475.57 1313.64 1473.86 Q1315.54 1472.15 1315.54 1469.22 Q1315.54 1466.28 1313.64 1464.57 Q1311.74 1462.86 1308.48 1462.86 Q1306.96 1462.86 1305.44 1463.2 Q1303.93 1463.54 1302.35 1464.25 L1302.35 1450.15 Z" fill="#000000" fill-rule="nonzero" fill-opacity="1" /><path clip-path="url(#clip140)" d="M1718.75 1501.7 L1726.39 1501.7 L1726.39 1475.34 L1718.08 1477 L1718.08 1472.74 L1726.34 1471.08 L1731.02 1471.08 L1731.02 1501.7 L1738.66 1501.7 L1738.66 1505.64 L1718.75 1505.64 L1718.75 1501.7 Z" fill="#000000" fill-rule="nonzero" fill-opacity="1" /><path clip-path="url(#clip140)" d="M1758.1 1474.16 Q1754.49 1474.16 1752.66 1477.72 Q1750.86 1481.26 1750.86 1488.39 Q1750.86 1495.5 1752.66 1499.06 Q1754.49 1502.6 1758.1 1502.6 Q1761.74 1502.6 1763.54 1499.06 Q1765.37 1495.5 1765.37 1488.39 Q1765.37 1481.26 1763.54 1477.72 Q1761.74 1474.16 1758.1 1474.16 M1758.1 1470.45 Q1763.91 1470.45 1766.97 1475.06 Q1770.05 1479.64 1770.05 1488.39 Q1770.05 1497.12 1766.97 1501.73 Q1763.91 1506.31 1758.1 1506.31 Q1752.29 1506.31 1749.21 1501.73 Q1746.16 1497.12 1746.16 1488.39 Q1746.16 1479.64 1749.21 1475.06 Q1752.29 1470.45 1758.1 1470.45 Z" fill="#000000" fill-rule="nonzero" fill-opacity="1" /><path clip-path="url(#clip140)" d="M1770.05 1464.55 L1794.16 1464.55 L1794.16 1467.75 L1770.05 1467.75 L1770.05 1464.55 Z" fill="#000000" fill-rule="nonzero" fill-opacity="1" /><path clip-path="url(#clip140)" d="M1803.02 1475.03 L1809.22 1475.03 L1809.22 1453.61 L1802.47 1454.96 L1802.47 1451.5 L1809.18 1450.15 L1812.98 1450.15 L1812.98 1475.03 L1819.19 1475.03 L1819.19 1478.23 L1803.02 1478.23 L1803.02 1475.03 Z" fill="#000000" fill-rule="nonzero" fill-opacity="1" /><path clip-path="url(#clip140)" d="M1826.86 1473.45 L1830.83 1473.45 L1830.83 1478.23 L1826.86 1478.23 L1826.86 1473.45 Z" fill="#000000" fill-rule="nonzero" fill-opacity="1" /><path clip-path="url(#clip140)" d="M1842.38 1475.03 L1855.64 1475.03 L1855.64 1478.23 L1837.81 1478.23 L1837.81 1475.03 Q1839.97 1472.79 1843.7 1469.03 Q1847.44 1465.25 1848.4 1464.16 Q1850.22 1462.11 1850.94 1460.7 Q1851.67 1459.27 1851.67 1457.9 Q1851.67 1455.66 1850.09 1454.25 Q1848.53 1452.84 1846.01 1452.84 Q1844.22 1452.84 1842.23 1453.46 Q1840.26 1454.08 1838 1455.34 L1838 1451.5 Q1840.29 1450.58 1842.29 1450.11 Q1844.28 1449.64 1845.94 1449.64 Q1850.3 1449.64 1852.89 1451.82 Q1855.49 1454 1855.49 1457.65 Q1855.49 1459.38 1854.83 1460.94 Q1854.19 1462.48 1852.48 1464.59 Q1852.01 1465.14 1849.49 1467.75 Q1846.97 1470.35 1842.38 1475.03 Z" fill="#000000" fill-rule="nonzero" fill-opacity="1" /><path clip-path="url(#clip140)" d="M2254.72 1501.7 L2262.36 1501.7 L2262.36 1475.34 L2254.05 1477 L2254.05 1472.74 L2262.32 1471.08 L2266.99 1471.08 L2266.99 1501.7 L2274.63 1501.7 L2274.63 1505.64 L2254.72 1505.64 L2254.72 1501.7 Z" fill="#000000" fill-rule="nonzero" fill-opacity="1" /><path clip-path="url(#clip140)" d="M2294.08 1474.16 Q2290.47 1474.16 2288.64 1477.72 Q2286.83 1481.26 2286.83 1488.39 Q2286.83 1495.5 2288.64 1499.06 Q2290.47 1502.6 2294.08 1502.6 Q2297.71 1502.6 2299.52 1499.06 Q2301.34 1495.5 2301.34 1488.39 Q2301.34 1481.26 2299.52 1477.72 Q2297.71 1474.16 2294.08 1474.16 M2294.08 1470.45 Q2299.89 1470.45 2302.94 1475.06 Q2306.02 1479.64 2306.02 1488.39 Q2306.02 1497.12 2302.94 1501.73 Q2299.89 1506.31 2294.08 1506.31 Q2288.27 1506.31 2285.19 1501.73 Q2282.13 1497.12 2282.13 1488.39 Q2282.13 1479.64 2285.19 1475.06 Q2288.27 1470.45 2294.08 1470.45 Z" fill="#000000" fill-rule="nonzero" fill-opacity="1" /><path clip-path="url(#clip140)" d="M2306.02 1464.55 L2330.13 1464.55 L2330.13 1467.75 L2306.02 1467.75 L2306.02 1464.55 Z" fill="#000000" fill-rule="nonzero" fill-opacity="1" /><path clip-path="url(#clip140)" d="M2346.46 1452.65 Q2343.52 1452.65 2342.04 1455.54 Q2340.57 1458.42 2340.57 1464.21 Q2340.57 1469.99 2342.04 1472.89 Q2343.52 1475.76 2346.46 1475.76 Q2349.41 1475.76 2350.88 1472.89 Q2352.36 1469.99 2352.36 1464.21 Q2352.36 1458.42 2350.88 1455.54 Q2349.41 1452.65 2346.46 1452.65 M2346.46 1449.64 Q2351.18 1449.64 2353.66 1453.38 Q2356.16 1457.11 2356.16 1464.21 Q2356.16 1471.31 2353.66 1475.05 Q2351.18 1478.77 2346.46 1478.77 Q2341.74 1478.77 2339.24 1475.05 Q2336.75 1471.31 2336.75 1464.21 Q2336.75 1457.11 2339.24 1453.38 Q2341.74 1449.64 2346.46 1449.64 Z" fill="#000000" fill-rule="nonzero" fill-opacity="1" /><path clip-path="url(#clip140)" d="M2362.84 1473.45 L2366.81 1473.45 L2366.81 1478.23 L2362.84 1478.23 L2362.84 1473.45 Z" fill="#000000" fill-rule="nonzero" fill-opacity="1" /><path clip-path="url(#clip140)" d="M2375.2 1477.64 L2375.2 1474.18 Q2376.63 1474.86 2378.09 1475.22 Q2379.56 1475.57 2380.97 1475.57 Q2384.73 1475.57 2386.71 1473.05 Q2388.7 1470.52 2388.98 1465.36 Q2387.89 1466.98 2386.22 1467.84 Q2384.54 1468.71 2382.51 1468.71 Q2378.3 1468.71 2375.84 1466.17 Q2373.39 1463.61 2373.39 1459.19 Q2373.39 1454.87 2375.95 1452.25 Q2378.51 1449.64 2382.76 1449.64 Q2387.63 1449.64 2390.19 1453.38 Q2392.76 1457.11 2392.76 1464.21 Q2392.76 1470.85 2389.6 1474.82 Q2386.46 1478.77 2381.14 1478.77 Q2379.71 1478.77 2378.24 1478.49 Q2376.78 1478.21 2375.2 1477.64 M2382.76 1465.74 Q2385.31 1465.74 2386.8 1463.99 Q2388.3 1462.24 2388.3 1459.19 Q2388.3 1456.17 2386.8 1454.42 Q2385.31 1452.65 2382.76 1452.65 Q2380.2 1452.65 2378.69 1454.42 Q2377.21 1456.17 2377.21 1459.19 Q2377.21 1462.24 2378.69 1463.99 Q2380.2 1465.74 2382.76 1465.74 Z" fill="#000000" fill-rule="nonzero" fill-opacity="1" /><path clip-path="url(#clip140)" d="M1454.62 1588.26 L1465.13 1588.26 L1465.13 1552 L1453.7 1554.29 L1453.7 1548.44 L1465.06 1546.15 L1471.49 1546.15 L1471.49 1588.26 L1482 1588.26 L1482 1593.67 L1454.62 1593.67 L1454.62 1588.26 Z" fill="#000000" fill-rule="nonzero" fill-opacity="1" /><path clip-path="url(#clip140)" d="M1511.91 1573.2 L1529.07 1573.2 L1529.07 1578.42 L1511.91 1578.42 L1511.91 1573.2 Z" fill="#000000" fill-rule="nonzero" fill-opacity="1" /><path clip-path="url(#clip140)" d="M1575.7 1589.62 Q1579.9 1589.66 1582.41 1592.04 Q1585.09 1594.56 1585.09 1598.38 Q1585.09 1602.04 1582.73 1604.58 Q1580.19 1607.35 1575 1607.35 Q1575 1604.97 1575 1602.55 Q1577.19 1602.71 1578.53 1601.3 Q1579.55 1600.19 1579.55 1599.01 Q1579.55 1597.33 1578.53 1595.93 Q1577.55 1594.59 1575.7 1594.59 Q1556.41 1594.59 1556.38 1576.67 Q1556.38 1561.01 1574.55 1550.03 L1557.62 1550.03 L1557.62 1544.14 L1585.31 1544.14 L1585.31 1550.03 Q1562.27 1561.61 1562.27 1576.67 Q1562.27 1589.62 1575.7 1589.62 Z" fill="#000000" fill-rule="nonzero" fill-opacity="1" /><polyline clip-path="url(#clip140)" style="stroke:#000000; stroke-linecap:round; stroke-linejoin:round; stroke-width:4; stroke-opacity:1; fill:none" points="286.256,1424.38 286.256,114.832 "/>
<polyline clip-path="url(#clip140)" style="stroke:#000000; stroke-linecap:round; stroke-linejoin:round; stroke-width:4; stroke-opacity:1; fill:none" points="286.256,1198.25 305.153,1198.25 "/>
<polyline clip-path="url(#clip140)" style="stroke:#000000; stroke-linecap:round; stroke-linejoin:round; stroke-width:4; stroke-opacity:1; fill:none" points="286.256,916.111 305.153,916.111 "/>
<polyline clip-path="url(#clip140)" style="stroke:#000000; stroke-linecap:round; stroke-linejoin:round; stroke-width:4; stroke-opacity:1; fill:none" points="286.256,633.97 305.153,633.97 "/>
<polyline clip-path="url(#clip140)" style="stroke:#000000; stroke-linecap:round; stroke-linejoin:round; stroke-width:4; stroke-opacity:1; fill:none" points="286.256,351.828 305.153,351.828 "/>
<path clip-path="url(#clip140)" d="M107.064 1218.04 L114.703 1218.04 L114.703 1191.68 L106.393 1193.35 L106.393 1189.09 L114.657 1187.42 L119.333 1187.42 L119.333 1218.04 L126.972 1218.04 L126.972 1221.98 L107.064 1221.98 L107.064 1218.04 Z" fill="#000000" fill-rule="nonzero" fill-opacity="1" /><path clip-path="url(#clip140)" d="M146.416 1190.5 Q142.805 1190.5 140.976 1194.06 Q139.171 1197.6 139.171 1204.73 Q139.171 1211.84 140.976 1215.41 Q142.805 1218.95 146.416 1218.95 Q150.05 1218.95 151.856 1215.41 Q153.685 1211.84 153.685 1204.73 Q153.685 1197.6 151.856 1194.06 Q150.05 1190.5 146.416 1190.5 M146.416 1186.79 Q152.226 1186.79 155.282 1191.4 Q158.36 1195.98 158.36 1204.73 Q158.36 1213.46 155.282 1218.07 Q152.226 1222.65 146.416 1222.65 Q140.606 1222.65 137.527 1218.07 Q134.472 1213.46 134.472 1204.73 Q134.472 1195.98 137.527 1191.4 Q140.606 1186.79 146.416 1186.79 Z" fill="#000000" fill-rule="nonzero" fill-opacity="1" /><path clip-path="url(#clip140)" d="M158.36 1180.9 L182.472 1180.9 L182.472 1184.09 L158.36 1184.09 L158.36 1180.9 Z" fill="#000000" fill-rule="nonzero" fill-opacity="1" /><path clip-path="url(#clip140)" d="M193.945 1191.37 L207.204 1191.37 L207.204 1194.57 L189.374 1194.57 L189.374 1191.37 Q191.537 1189.13 195.261 1185.37 Q199.004 1181.59 199.963 1180.5 Q201.788 1178.45 202.502 1177.04 Q203.236 1175.61 203.236 1174.24 Q203.236 1172 201.656 1170.59 Q200.095 1169.18 197.575 1169.18 Q195.788 1169.18 193.794 1169.8 Q191.82 1170.42 189.563 1171.68 L189.563 1167.84 Q191.857 1166.92 193.851 1166.45 Q195.844 1165.98 197.499 1165.98 Q201.863 1165.98 204.458 1168.16 Q207.054 1170.34 207.054 1173.99 Q207.054 1175.72 206.396 1177.28 Q205.756 1178.83 204.045 1180.93 Q203.574 1181.48 201.054 1184.09 Q198.534 1186.69 193.945 1191.37 Z" fill="#000000" fill-rule="nonzero" fill-opacity="1" /><path clip-path="url(#clip140)" d="M215.179 1189.79 L219.147 1189.79 L219.147 1194.57 L215.179 1194.57 L215.179 1189.79 Z" fill="#000000" fill-rule="nonzero" fill-opacity="1" /><path clip-path="url(#clip140)" d="M228.081 1191.37 L234.287 1191.37 L234.287 1169.95 L227.535 1171.3 L227.535 1167.84 L234.25 1166.49 L238.049 1166.49 L238.049 1191.37 L244.256 1191.37 L244.256 1194.57 L228.081 1194.57 L228.081 1191.37 Z" fill="#000000" fill-rule="nonzero" fill-opacity="1" /><path clip-path="url(#clip140)" d="M106.143 935.903 L113.782 935.903 L113.782 909.538 L105.472 911.204 L105.472 906.945 L113.735 905.278 L118.411 905.278 L118.411 935.903 L126.05 935.903 L126.05 939.838 L106.143 939.838 L106.143 935.903 Z" fill="#000000" fill-rule="nonzero" fill-opacity="1" /><path clip-path="url(#clip140)" d="M145.495 908.357 Q141.883 908.357 140.055 911.922 Q138.249 915.463 138.249 922.593 Q138.249 929.699 140.055 933.264 Q141.883 936.806 145.495 936.806 Q149.129 936.806 150.934 933.264 Q152.763 929.699 152.763 922.593 Q152.763 915.463 150.934 911.922 Q149.129 908.357 145.495 908.357 M145.495 904.653 Q151.305 904.653 154.36 909.26 Q157.439 913.843 157.439 922.593 Q157.439 931.32 154.36 935.926 Q151.305 940.51 145.495 940.51 Q139.684 940.51 136.606 935.926 Q133.55 931.32 133.55 922.593 Q133.55 913.843 136.606 909.26 Q139.684 904.653 145.495 904.653 Z" fill="#000000" fill-rule="nonzero" fill-opacity="1" /><path clip-path="url(#clip140)" d="M157.439 898.755 L181.55 898.755 L181.55 901.952 L157.439 901.952 L157.439 898.755 Z" fill="#000000" fill-rule="nonzero" fill-opacity="1" /><path clip-path="url(#clip140)" d="M190.409 909.231 L196.615 909.231 L196.615 887.808 L189.863 889.163 L189.863 885.702 L196.578 884.348 L200.377 884.348 L200.377 909.231 L206.584 909.231 L206.584 912.428 L190.409 912.428 L190.409 909.231 Z" fill="#000000" fill-rule="nonzero" fill-opacity="1" /><path clip-path="url(#clip140)" d="M214.257 907.651 L218.226 907.651 L218.226 912.428 L214.257 912.428 L214.257 907.651 Z" fill="#000000" fill-rule="nonzero" fill-opacity="1" /><path clip-path="url(#clip140)" d="M234.626 899.093 Q231.918 899.093 230.357 900.541 Q228.814 901.99 228.814 904.529 Q228.814 907.068 230.357 908.516 Q231.918 909.964 234.626 909.964 Q237.334 909.964 238.895 908.516 Q240.456 907.049 240.456 904.529 Q240.456 901.99 238.895 900.541 Q237.353 899.093 234.626 899.093 M230.827 897.476 Q228.382 896.874 227.009 895.2 Q225.655 893.526 225.655 891.119 Q225.655 887.752 228.043 885.796 Q230.451 883.84 234.626 883.84 Q238.82 883.84 241.209 885.796 Q243.597 887.752 243.597 891.119 Q243.597 893.526 242.224 895.2 Q240.87 896.874 238.444 897.476 Q241.19 898.115 242.713 899.977 Q244.256 901.839 244.256 904.529 Q244.256 908.61 241.754 910.792 Q239.272 912.973 234.626 912.973 Q229.98 912.973 227.479 910.792 Q224.996 908.61 224.996 904.529 Q224.996 901.839 226.539 899.977 Q228.081 898.115 230.827 897.476 M229.435 891.476 Q229.435 893.658 230.789 894.88 Q232.162 896.103 234.626 896.103 Q237.071 896.103 238.444 894.88 Q239.836 893.658 239.836 891.476 Q239.836 889.294 238.444 888.072 Q237.071 886.849 234.626 886.849 Q232.162 886.849 230.789 888.072 Q229.435 889.294 229.435 891.476 Z" fill="#000000" fill-rule="nonzero" fill-opacity="1" /><path clip-path="url(#clip140)" d="M106.876 653.762 L114.515 653.762 L114.515 627.396 L106.205 629.063 L106.205 624.804 L114.469 623.137 L119.145 623.137 L119.145 653.762 L126.784 653.762 L126.784 657.697 L106.876 657.697 L106.876 653.762 Z" fill="#000000" fill-rule="nonzero" fill-opacity="1" /><path clip-path="url(#clip140)" d="M146.228 626.216 Q142.617 626.216 140.788 629.781 Q138.983 633.322 138.983 640.452 Q138.983 647.558 140.788 651.123 Q142.617 654.665 146.228 654.665 Q149.862 654.665 151.668 651.123 Q153.497 647.558 153.497 640.452 Q153.497 633.322 151.668 629.781 Q149.862 626.216 146.228 626.216 M146.228 622.512 Q152.038 622.512 155.094 627.119 Q158.172 631.702 158.172 640.452 Q158.172 649.179 155.094 653.785 Q152.038 658.368 146.228 658.368 Q140.418 658.368 137.339 653.785 Q134.284 649.179 134.284 640.452 Q134.284 631.702 137.339 627.119 Q140.418 622.512 146.228 622.512 Z" fill="#000000" fill-rule="nonzero" fill-opacity="1" /><path clip-path="url(#clip140)" d="M158.172 616.614 L182.284 616.614 L182.284 619.811 L158.172 619.811 L158.172 616.614 Z" fill="#000000" fill-rule="nonzero" fill-opacity="1" /><path clip-path="url(#clip140)" d="M191.142 627.089 L197.349 627.089 L197.349 605.667 L190.597 607.022 L190.597 603.561 L197.311 602.207 L201.111 602.207 L201.111 627.089 L207.317 627.089 L207.317 630.287 L191.142 630.287 L191.142 627.089 Z" fill="#000000" fill-rule="nonzero" fill-opacity="1" /><path clip-path="url(#clip140)" d="M214.991 625.51 L218.959 625.51 L218.959 630.287 L214.991 630.287 L214.991 625.51 Z" fill="#000000" fill-rule="nonzero" fill-opacity="1" /><path clip-path="url(#clip140)" d="M227.272 602.207 L242.187 602.207 L242.187 605.404 L230.752 605.404 L230.752 612.288 Q231.579 612.006 232.407 611.874 Q233.234 611.724 234.062 611.724 Q238.764 611.724 241.51 614.3 Q244.256 616.877 244.256 621.278 Q244.256 625.811 241.434 628.331 Q238.613 630.832 233.479 630.832 Q231.711 630.832 229.868 630.531 Q228.043 630.23 226.087 629.629 L226.087 625.811 Q227.78 626.732 229.586 627.183 Q231.391 627.635 233.403 627.635 Q236.657 627.635 238.557 625.923 Q240.456 624.212 240.456 621.278 Q240.456 618.344 238.557 616.632 Q236.657 614.921 233.403 614.921 Q231.88 614.921 230.357 615.259 Q228.852 615.598 227.272 616.313 L227.272 602.207 Z" fill="#000000" fill-rule="nonzero" fill-opacity="1" /><path clip-path="url(#clip140)" d="M107.365 371.621 L115.004 371.621 L115.004 345.255 L106.694 346.922 L106.694 342.663 L114.958 340.996 L119.634 340.996 L119.634 371.621 L127.273 371.621 L127.273 375.556 L107.365 375.556 L107.365 371.621 Z" fill="#000000" fill-rule="nonzero" fill-opacity="1" /><path clip-path="url(#clip140)" d="M146.717 344.075 Q143.106 344.075 141.277 347.64 Q139.472 351.181 139.472 358.311 Q139.472 365.417 141.277 368.982 Q143.106 372.524 146.717 372.524 Q150.351 372.524 152.157 368.982 Q153.986 365.417 153.986 358.311 Q153.986 351.181 152.157 347.64 Q150.351 344.075 146.717 344.075 M146.717 340.371 Q152.527 340.371 155.583 344.978 Q158.661 349.561 158.661 358.311 Q158.661 367.038 155.583 371.644 Q152.527 376.227 146.717 376.227 Q140.907 376.227 137.828 371.644 Q134.773 367.038 134.773 358.311 Q134.773 349.561 137.828 344.978 Q140.907 340.371 146.717 340.371 Z" fill="#000000" fill-rule="nonzero" fill-opacity="1" /><path clip-path="url(#clip140)" d="M158.661 334.472 L182.773 334.472 L182.773 337.67 L158.661 337.67 L158.661 334.472 Z" fill="#000000" fill-rule="nonzero" fill-opacity="1" /><path clip-path="url(#clip140)" d="M191.631 344.948 L197.838 344.948 L197.838 323.526 L191.086 324.88 L191.086 321.42 L197.8 320.066 L201.6 320.066 L201.6 344.948 L207.806 344.948 L207.806 348.146 L191.631 348.146 L191.631 344.948 Z" fill="#000000" fill-rule="nonzero" fill-opacity="1" /><path clip-path="url(#clip140)" d="M215.48 343.369 L219.448 343.369 L219.448 348.146 L215.48 348.146 L215.48 343.369 Z" fill="#000000" fill-rule="nonzero" fill-opacity="1" /><path clip-path="url(#clip140)" d="M230.996 344.948 L244.256 344.948 L244.256 348.146 L226.426 348.146 L226.426 344.948 Q228.589 342.71 232.313 338.949 Q236.055 335.168 237.015 334.077 Q238.839 332.027 239.554 330.617 Q240.287 329.187 240.287 327.814 Q240.287 325.576 238.707 324.166 Q237.146 322.755 234.626 322.755 Q232.839 322.755 230.846 323.376 Q228.871 323.997 226.614 325.257 L226.614 321.42 Q228.908 320.498 230.902 320.028 Q232.896 319.558 234.551 319.558 Q238.914 319.558 241.51 321.74 Q244.105 323.921 244.105 327.57 Q244.105 329.3 243.447 330.861 Q242.807 332.404 241.096 334.51 Q240.626 335.055 238.105 337.67 Q235.585 340.265 230.996 344.948 Z" fill="#000000" fill-rule="nonzero" fill-opacity="1" /><path clip-path="url(#clip140)" d="M6.97912 931.294 L24.8349 931.294 L24.8349 923.209 Q24.8349 918.721 22.5114 916.27 Q20.188 913.82 15.8911 913.82 Q11.6261 913.82 9.30261 916.27 Q6.97912 918.721 6.97912 923.209 L6.97912 931.294 M1.69559 937.723 L1.69559 923.209 Q1.69559 915.22 5.32404 911.146 Q8.92066 907.04 15.8911 907.04 Q22.9252 907.04 26.5218 911.146 Q30.1185 915.22 30.1185 923.209 L30.1185 931.294 L49.2156 931.294 L49.2156 937.723 L1.69559 937.723 Z" fill="#000000" fill-rule="nonzero" fill-opacity="1" /><path clip-path="url(#clip140)" d="M19.0421 879.158 Q18.4692 880.145 18.2146 881.323 Q17.9281 882.469 17.9281 883.869 Q17.9281 888.834 21.1746 891.508 Q24.3893 894.15 30.4368 894.15 L49.2156 894.15 L49.2156 900.038 L13.5676 900.038 L13.5676 894.15 L19.1058 894.15 Q15.8593 892.304 14.2997 889.344 Q12.7083 886.384 12.7083 882.15 Q12.7083 881.546 12.8037 880.814 Q12.8674 880.081 13.0265 879.19 L19.0421 879.158 Z" fill="#000000" fill-rule="nonzero" fill-opacity="1" /><path clip-path="url(#clip140)" d="M17.6735 860.634 Q17.6735 865.345 21.3656 868.082 Q25.0259 870.819 31.4234 870.819 Q37.821 870.819 41.5131 868.114 Q45.1734 865.377 45.1734 860.634 Q45.1734 855.955 41.4813 853.218 Q37.7891 850.481 31.4234 850.481 Q25.0896 850.481 21.3974 853.218 Q17.6735 855.955 17.6735 860.634 M12.7083 860.634 Q12.7083 852.995 17.6735 848.635 Q22.6388 844.274 31.4234 844.274 Q40.1763 844.274 45.1734 848.635 Q50.1386 852.995 50.1386 860.634 Q50.1386 868.305 45.1734 872.665 Q40.1763 876.994 31.4234 876.994 Q22.6388 876.994 17.6735 872.665 Q12.7083 868.305 12.7083 860.634 Z" fill="#000000" fill-rule="nonzero" fill-opacity="1" /><path clip-path="url(#clip140)" d="M31.4234 808.977 Q24.9622 808.977 21.302 811.65 Q17.6099 814.292 17.6099 818.939 Q17.6099 823.586 21.302 826.259 Q24.9622 828.901 31.4234 828.901 Q37.8846 828.901 41.5767 826.259 Q45.237 823.586 45.237 818.939 Q45.237 814.292 41.5767 811.65 Q37.8846 808.977 31.4234 808.977 M18.9785 828.901 Q15.7956 827.055 14.2679 824.254 Q12.7083 821.421 12.7083 817.507 Q12.7083 811.014 17.8645 806.971 Q23.0207 802.897 31.4234 802.897 Q39.8262 802.897 44.9824 806.971 Q50.1386 811.014 50.1386 817.507 Q50.1386 821.421 48.6108 824.254 Q47.0512 827.055 43.8684 828.901 L49.2156 828.901 L49.2156 834.789 L-0.309612 834.789 L-0.309612 828.901 L18.9785 828.901 Z" fill="#000000" fill-rule="nonzero" fill-opacity="1" /><path clip-path="url(#clip140)" d="M31.2961 776.989 Q31.2961 784.087 32.9194 786.824 Q34.5426 789.561 38.4575 789.561 Q41.5767 789.561 43.4228 787.524 Q45.237 785.455 45.237 781.922 Q45.237 777.052 41.7995 774.124 Q38.3302 771.164 32.6011 771.164 L31.2961 771.164 L31.2961 776.989 M28.8772 765.308 L49.2156 765.308 L49.2156 771.164 L43.8047 771.164 Q47.0512 773.169 48.6108 776.161 Q50.1386 779.153 50.1386 783.482 Q50.1386 788.956 47.0831 792.203 Q43.9957 795.418 38.8395 795.418 Q32.8239 795.418 29.7684 791.407 Q26.7128 787.365 26.7128 779.376 L26.7128 771.164 L26.1399 771.164 Q22.0977 771.164 19.9015 773.838 Q17.6735 776.48 17.6735 781.286 Q17.6735 784.341 18.4056 787.238 Q19.1376 790.134 20.6017 792.808 L15.1909 792.808 Q13.9496 789.593 13.3448 786.569 Q12.7083 783.546 12.7083 780.681 Q12.7083 772.947 16.7187 769.127 Q20.729 765.308 28.8772 765.308 Z" fill="#000000" fill-rule="nonzero" fill-opacity="1" /><path clip-path="url(#clip140)" d="M31.4234 727.655 Q24.9622 727.655 21.302 730.328 Q17.6099 732.97 17.6099 737.617 Q17.6099 742.264 21.302 744.937 Q24.9622 747.579 31.4234 747.579 Q37.8846 747.579 41.5767 744.937 Q45.237 742.264 45.237 737.617 Q45.237 732.97 41.5767 730.328 Q37.8846 727.655 31.4234 727.655 M18.9785 747.579 Q15.7956 745.733 14.2679 742.932 Q12.7083 740.1 12.7083 736.185 Q12.7083 729.692 17.8645 725.649 Q23.0207 721.575 31.4234 721.575 Q39.8262 721.575 44.9824 725.649 Q50.1386 729.692 50.1386 736.185 Q50.1386 740.1 48.6108 742.932 Q47.0512 745.733 43.8684 747.579 L49.2156 747.579 L49.2156 753.468 L-0.309612 753.468 L-0.309612 747.579 L18.9785 747.579 Z" fill="#000000" fill-rule="nonzero" fill-opacity="1" /><path clip-path="url(#clip140)" d="M13.5676 711.868 L13.5676 706.011 L49.2156 706.011 L49.2156 711.868 L13.5676 711.868 M-0.309612 711.868 L-0.309612 706.011 L7.10644 706.011 L7.10644 711.868 L-0.309612 711.868 Z" fill="#000000" fill-rule="nonzero" fill-opacity="1" /><path clip-path="url(#clip140)" d="M-0.309612 693.757 L-0.309612 687.901 L49.2156 687.901 L49.2156 693.757 L-0.309612 693.757 Z" fill="#000000" fill-rule="nonzero" fill-opacity="1" /><path clip-path="url(#clip140)" d="M13.5676 675.647 L13.5676 669.79 L49.2156 669.79 L49.2156 675.647 L13.5676 675.647 M-0.309612 675.647 L-0.309612 669.79 L7.10644 669.79 L7.10644 675.647 L-0.309612 675.647 Z" fill="#000000" fill-rule="nonzero" fill-opacity="1" /><path clip-path="url(#clip140)" d="M3.44616 651.744 L13.5676 651.744 L13.5676 639.681 L18.1191 639.681 L18.1191 651.744 L37.4709 651.744 Q41.8314 651.744 43.0727 650.566 Q44.314 649.356 44.314 645.696 L44.314 639.681 L49.2156 639.681 L49.2156 645.696 Q49.2156 652.476 46.7011 655.054 Q44.1548 657.632 37.4709 657.632 L18.1191 657.632 L18.1191 661.929 L13.5676 661.929 L13.5676 657.632 L3.44616 657.632 L3.44616 651.744 Z" fill="#000000" fill-rule="nonzero" fill-opacity="1" /><path clip-path="url(#clip140)" d="M52.5258 617.146 Q58.8915 619.629 60.833 621.984 Q62.7745 624.339 62.7745 628.286 L62.7745 632.965 L57.8729 632.965 L57.8729 629.527 Q57.8729 627.108 56.7271 625.771 Q55.5813 624.435 51.3163 622.811 L48.6427 621.761 L13.5676 636.179 L13.5676 629.973 L41.4494 618.833 L13.5676 607.693 L13.5676 601.486 L52.5258 617.146 Z" fill="#000000" fill-rule="nonzero" fill-opacity="1" /><path clip-path="url(#clip140)" d="M1122.29 16.7545 L1122.29 25.383 Q1118.16 21.5346 1113.46 19.6307 Q1108.8 17.7268 1103.54 17.7268 Q1093.17 17.7268 1087.66 24.0867 Q1082.15 30.4061 1082.15 42.3968 Q1082.15 54.3469 1087.66 60.7069 Q1093.17 67.0263 1103.54 67.0263 Q1108.8 67.0263 1113.46 65.1223 Q1118.16 63.2184 1122.29 59.3701 L1122.29 67.9175 Q1118 70.8341 1113.18 72.2924 Q1108.4 73.7508 1103.05 73.7508 Q1089.32 73.7508 1081.42 65.3654 Q1073.52 56.9395 1073.52 42.3968 Q1073.52 27.8135 1081.42 19.4281 Q1089.32 11.0023 1103.05 11.0023 Q1108.48 11.0023 1113.26 12.4606 Q1118.08 13.8784 1122.29 16.7545 Z" fill="#000000" fill-rule="nonzero" fill-opacity="1" /><path clip-path="url(#clip140)" d="M1172.32 45.1919 L1172.32 72.576 L1164.87 72.576 L1164.87 45.4349 Q1164.87 38.994 1162.36 35.7938 Q1159.85 32.5936 1154.82 32.5936 Q1148.79 32.5936 1145.3 36.4419 Q1141.82 40.2903 1141.82 46.9338 L1141.82 72.576 L1134.33 72.576 L1134.33 9.54393 L1141.82 9.54393 L1141.82 34.2544 Q1144.49 30.163 1148.1 28.1376 Q1151.74 26.1121 1156.48 26.1121 Q1164.3 26.1121 1168.31 30.9732 Q1172.32 35.7938 1172.32 45.1919 Z" fill="#000000" fill-rule="nonzero" fill-opacity="1" /><path clip-path="url(#clip140)" d="M1207.81 49.7694 Q1198.78 49.7694 1195.29 51.8354 Q1191.81 53.9013 1191.81 58.8839 Q1191.81 62.8538 1194.4 65.2034 Q1197.03 67.5124 1201.53 67.5124 Q1207.73 67.5124 1211.45 63.1374 Q1215.22 58.7219 1215.22 51.4303 L1215.22 49.7694 L1207.81 49.7694 M1222.68 46.6907 L1222.68 72.576 L1215.22 72.576 L1215.22 65.6895 Q1212.67 69.8214 1208.86 71.8063 Q1205.05 73.7508 1199.55 73.7508 Q1192.58 73.7508 1188.45 69.8619 Q1184.35 65.9325 1184.35 59.3701 Q1184.35 51.7138 1189.46 47.825 Q1194.6 43.9361 1204.77 43.9361 L1215.22 43.9361 L1215.22 43.2069 Q1215.22 38.0623 1211.82 35.2672 Q1208.46 32.4315 1202.34 32.4315 Q1198.45 32.4315 1194.76 33.3632 Q1191.08 34.295 1187.68 36.1584 L1187.68 29.2718 Q1191.77 27.692 1195.62 26.9223 Q1199.46 26.1121 1203.11 26.1121 Q1212.95 26.1121 1217.81 31.2163 Q1222.68 36.3204 1222.68 46.6907 Z" fill="#000000" fill-rule="nonzero" fill-opacity="1" /><path clip-path="url(#clip140)" d="M1238.03 27.2059 L1245.48 27.2059 L1245.48 72.576 L1238.03 72.576 L1238.03 27.2059 M1238.03 9.54393 L1245.48 9.54393 L1245.48 18.9825 L1238.03 18.9825 L1238.03 9.54393 Z" fill="#000000" fill-rule="nonzero" fill-opacity="1" /><path clip-path="url(#clip140)" d="M1298.79 45.1919 L1298.79 72.576 L1291.34 72.576 L1291.34 45.4349 Q1291.34 38.994 1288.83 35.7938 Q1286.32 32.5936 1281.29 32.5936 Q1275.26 32.5936 1271.77 36.4419 Q1268.29 40.2903 1268.29 46.9338 L1268.29 72.576 L1260.79 72.576 L1260.79 27.2059 L1268.29 27.2059 L1268.29 34.2544 Q1270.96 30.163 1274.57 28.1376 Q1278.21 26.1121 1282.95 26.1121 Q1290.77 26.1121 1294.78 30.9732 Q1298.79 35.7938 1298.79 45.1919 Z" fill="#000000" fill-rule="nonzero" fill-opacity="1" /><path clip-path="url(#clip140)" d="M1336.87 12.096 L1384.39 12.096 L1384.39 18.3344 L1346.15 65.6895 L1385.32 65.6895 L1385.32 72.576 L1335.94 72.576 L1335.94 66.3376 L1374.18 18.9825 L1336.87 18.9825 L1336.87 12.096 Z" fill="#000000" fill-rule="nonzero" fill-opacity="1" /><path clip-path="url(#clip140)" d="M1423.56 12.096 L1461.8 12.096 L1461.8 18.9825 L1431.74 18.9825 L1431.74 36.8875 L1460.54 36.8875 L1460.54 43.7741 L1431.74 43.7741 L1431.74 65.6895 L1462.53 65.6895 L1462.53 72.576 L1423.56 72.576 L1423.56 12.096 Z" fill="#000000" fill-rule="nonzero" fill-opacity="1" /><path clip-path="url(#clip140)" d="M1501.95 34.1734 Q1500.69 33.4443 1499.19 33.1202 Q1497.73 32.7556 1495.95 32.7556 Q1489.63 32.7556 1486.23 36.8875 Q1482.87 40.9789 1482.87 48.6757 L1482.87 72.576 L1475.37 72.576 L1475.37 27.2059 L1482.87 27.2059 L1482.87 34.2544 Q1485.21 30.1225 1488.98 28.1376 Q1492.75 26.1121 1498.14 26.1121 Q1498.91 26.1121 1499.84 26.2337 Q1500.77 26.3147 1501.9 26.5172 L1501.95 34.1734 Z" fill="#000000" fill-rule="nonzero" fill-opacity="1" /><path clip-path="url(#clip140)" d="M1534.6 34.1734 Q1533.34 33.4443 1531.84 33.1202 Q1530.38 32.7556 1528.6 32.7556 Q1522.28 32.7556 1518.88 36.8875 Q1515.52 40.9789 1515.52 48.6757 L1515.52 72.576 L1508.02 72.576 L1508.02 27.2059 L1515.52 27.2059 L1515.52 34.2544 Q1517.87 30.1225 1521.63 28.1376 Q1525.4 26.1121 1530.79 26.1121 Q1531.56 26.1121 1532.49 26.2337 Q1533.42 26.3147 1534.55 26.5172 L1534.6 34.1734 Z" fill="#000000" fill-rule="nonzero" fill-opacity="1" /><path clip-path="url(#clip140)" d="M1558.17 32.4315 Q1552.18 32.4315 1548.69 37.1306 Q1545.21 41.7891 1545.21 49.9314 Q1545.21 58.0738 1548.65 62.7728 Q1552.14 67.4314 1558.17 67.4314 Q1564.13 67.4314 1567.61 62.7323 Q1571.09 58.0333 1571.09 49.9314 Q1571.09 41.8701 1567.61 37.1711 Q1564.13 32.4315 1558.17 32.4315 M1558.17 26.1121 Q1567.89 26.1121 1573.44 32.4315 Q1578.99 38.7509 1578.99 49.9314 Q1578.99 61.0714 1573.44 67.4314 Q1567.89 73.7508 1558.17 73.7508 Q1548.41 73.7508 1542.86 67.4314 Q1537.35 61.0714 1537.35 49.9314 Q1537.35 38.7509 1542.86 32.4315 Q1548.41 26.1121 1558.17 26.1121 Z" fill="#000000" fill-rule="nonzero" fill-opacity="1" /><path clip-path="url(#clip140)" d="M1617.64 34.1734 Q1616.38 33.4443 1614.88 33.1202 Q1613.43 32.7556 1611.64 32.7556 Q1605.32 32.7556 1601.92 36.8875 Q1598.56 40.9789 1598.56 48.6757 L1598.56 72.576 L1591.06 72.576 L1591.06 27.2059 L1598.56 27.2059 L1598.56 34.2544 Q1600.91 30.1225 1604.68 28.1376 Q1608.44 26.1121 1613.83 26.1121 Q1614.6 26.1121 1615.53 26.2337 Q1616.46 26.3147 1617.6 26.5172 L1617.64 34.1734 Z" fill="#000000" fill-rule="nonzero" fill-opacity="1" /><path clip-path="url(#clip140)" d="M1625.9 62.2867 L1634.45 62.2867 L1634.45 72.576 L1625.9 72.576 L1625.9 62.2867 M1625.9 29.6769 L1634.45 29.6769 L1634.45 39.9662 L1625.9 39.9662 L1625.9 29.6769 Z" fill="#000000" fill-rule="nonzero" fill-opacity="1" /><path clip-path="url(#clip140)" d="M1685.13 34.3355 L1695.05 62.3677 L1709.23 27.2059 L1717.13 27.2059 L1698.78 72.576 L1698.78 89.8329 L1691.32 89.8329 L1691.32 72.576 L1679.42 38.7104 Q1677.63 33.6063 1673.78 33.6063 L1671.8 33.6063 L1671.8 27.2059 L1674.64 27.2059 Q1682.62 27.2059 1685.13 34.3355 Z" fill="#000000" fill-rule="nonzero" fill-opacity="1" /><path clip-path="url(#clip140)" d="M1754.76 34.9026 L1806.69 34.9026 L1806.69 41.7081 L1754.76 41.7081 L1754.76 34.9026 M1754.76 51.4303 L1806.69 51.4303 L1806.69 58.3168 L1754.76 58.3168 L1754.76 51.4303 Z" fill="#000000" fill-rule="nonzero" fill-opacity="1" /><path clip-path="url(#clip140)" d="M1868.23 17.4837 Q1861.91 17.4837 1858.71 23.7221 Q1855.55 29.92 1855.55 42.3968 Q1855.55 54.833 1858.71 61.0714 Q1861.91 67.2693 1868.23 67.2693 Q1874.59 67.2693 1877.75 61.0714 Q1880.95 54.833 1880.95 42.3968 Q1880.95 29.92 1877.75 23.7221 Q1874.59 17.4837 1868.23 17.4837 M1868.23 11.0023 Q1878.4 11.0023 1883.74 19.0636 Q1889.13 27.0843 1889.13 42.3968 Q1889.13 57.6687 1883.74 65.73 Q1878.4 73.7508 1868.23 73.7508 Q1858.06 73.7508 1852.67 65.73 Q1847.33 57.6687 1847.33 42.3968 Q1847.33 27.0843 1852.67 19.0636 Q1858.06 11.0023 1868.23 11.0023 Z" fill="#000000" fill-rule="nonzero" fill-opacity="1" /><path clip-path="url(#clip140)" d="M1903.51 62.2867 L1912.06 62.2867 L1912.06 72.576 L1903.51 72.576 L1903.51 62.2867 Z" fill="#000000" fill-rule="nonzero" fill-opacity="1" /><path clip-path="url(#clip140)" d="M1936.93 65.6895 L1965.49 65.6895 L1965.49 72.576 L1927.09 72.576 L1927.09 65.6895 Q1931.75 60.8689 1939.77 52.7671 Q1947.83 44.6248 1949.89 42.2752 Q1953.82 37.8598 1955.36 34.8216 Q1956.94 31.7429 1956.94 28.7857 Q1956.94 23.9651 1953.54 20.927 Q1950.18 17.8888 1944.75 17.8888 Q1940.9 17.8888 1936.61 19.2256 Q1932.35 20.5624 1927.49 23.2765 L1927.49 15.0127 Q1932.43 13.0277 1936.73 12.015 Q1941.02 11.0023 1944.59 11.0023 Q1953.99 11.0023 1959.58 15.7013 Q1965.17 20.4004 1965.17 28.2591 Q1965.17 31.9859 1963.75 35.3482 Q1962.37 38.6699 1958.68 43.2069 Q1957.67 44.3817 1952.24 50.0125 Q1946.82 55.6027 1936.93 65.6895 Z" fill="#000000" fill-rule="nonzero" fill-opacity="1" /><polyline clip-path="url(#clip142)" style="stroke:#009af9; stroke-linecap:round; stroke-linejoin:round; stroke-width:4; stroke-opacity:1; fill:none" points="2682.95,151.895 2643.11,171.823 2601.11,192.773 2556.72,214.856 2509.63,238.202 2459.5,262.964 2405.91,289.324 2348.35,317.503 2286.17,347.772 2218.59,380.465 2144.56,416.004 2062.72,454.932 1971.24,497.966 1867.52,546.073 1747.78,600.613 1606.17,663.575 1432.84,738.042 1209.39,829.183 894.453,946.684 356.062,1112.29 "/>
<circle clip-path="url(#clip142)" cx="2682.95" cy="151.895" r="14.4" fill="#009af9" fill-rule="evenodd" fill-opacity="1" stroke="#000000" stroke-opacity="1" stroke-width="3.2"/>
<circle clip-path="url(#clip142)" cx="2643.11" cy="171.823" r="14.4" fill="#009af9" fill-rule="evenodd" fill-opacity="1" stroke="#000000" stroke-opacity="1" stroke-width="3.2"/>
<circle clip-path="url(#clip142)" cx="2601.11" cy="192.773" r="14.4" fill="#009af9" fill-rule="evenodd" fill-opacity="1" stroke="#000000" stroke-opacity="1" stroke-width="3.2"/>
<circle clip-path="url(#clip142)" cx="2556.72" cy="214.856" r="14.4" fill="#009af9" fill-rule="evenodd" fill-opacity="1" stroke="#000000" stroke-opacity="1" stroke-width="3.2"/>
<circle clip-path="url(#clip142)" cx="2509.63" cy="238.202" r="14.4" fill="#009af9" fill-rule="evenodd" fill-opacity="1" stroke="#000000" stroke-opacity="1" stroke-width="3.2"/>
<circle clip-path="url(#clip142)" cx="2459.5" cy="262.964" r="14.4" fill="#009af9" fill-rule="evenodd" fill-opacity="1" stroke="#000000" stroke-opacity="1" stroke-width="3.2"/>
<circle clip-path="url(#clip142)" cx="2405.91" cy="289.324" r="14.4" fill="#009af9" fill-rule="evenodd" fill-opacity="1" stroke="#000000" stroke-opacity="1" stroke-width="3.2"/>
<circle clip-path="url(#clip142)" cx="2348.35" cy="317.503" r="14.4" fill="#009af9" fill-rule="evenodd" fill-opacity="1" stroke="#000000" stroke-opacity="1" stroke-width="3.2"/>
<circle clip-path="url(#clip142)" cx="2286.17" cy="347.772" r="14.4" fill="#009af9" fill-rule="evenodd" fill-opacity="1" stroke="#000000" stroke-opacity="1" stroke-width="3.2"/>
<circle clip-path="url(#clip142)" cx="2218.59" cy="380.465" r="14.4" fill="#009af9" fill-rule="evenodd" fill-opacity="1" stroke="#000000" stroke-opacity="1" stroke-width="3.2"/>
<circle clip-path="url(#clip142)" cx="2144.56" cy="416.004" r="14.4" fill="#009af9" fill-rule="evenodd" fill-opacity="1" stroke="#000000" stroke-opacity="1" stroke-width="3.2"/>
<circle clip-path="url(#clip142)" cx="2062.72" cy="454.932" r="14.4" fill="#009af9" fill-rule="evenodd" fill-opacity="1" stroke="#000000" stroke-opacity="1" stroke-width="3.2"/>
<circle clip-path="url(#clip142)" cx="1971.24" cy="497.966" r="14.4" fill="#009af9" fill-rule="evenodd" fill-opacity="1" stroke="#000000" stroke-opacity="1" stroke-width="3.2"/>
<circle clip-path="url(#clip142)" cx="1867.52" cy="546.073" r="14.4" fill="#009af9" fill-rule="evenodd" fill-opacity="1" stroke="#000000" stroke-opacity="1" stroke-width="3.2"/>
<circle clip-path="url(#clip142)" cx="1747.78" cy="600.613" r="14.4" fill="#009af9" fill-rule="evenodd" fill-opacity="1" stroke="#000000" stroke-opacity="1" stroke-width="3.2"/>
<circle clip-path="url(#clip142)" cx="1606.17" cy="663.575" r="14.4" fill="#009af9" fill-rule="evenodd" fill-opacity="1" stroke="#000000" stroke-opacity="1" stroke-width="3.2"/>
<circle clip-path="url(#clip142)" cx="1432.84" cy="738.042" r="14.4" fill="#009af9" fill-rule="evenodd" fill-opacity="1" stroke="#000000" stroke-opacity="1" stroke-width="3.2"/>
<circle clip-path="url(#clip142)" cx="1209.39" cy="829.183" r="14.4" fill="#009af9" fill-rule="evenodd" fill-opacity="1" stroke="#000000" stroke-opacity="1" stroke-width="3.2"/>
<circle clip-path="url(#clip142)" cx="894.453" cy="946.684" r="14.4" fill="#009af9" fill-rule="evenodd" fill-opacity="1" stroke="#000000" stroke-opacity="1" stroke-width="3.2"/>
<circle clip-path="url(#clip142)" cx="356.062" cy="1112.29" r="14.4" fill="#009af9" fill-rule="evenodd" fill-opacity="1" stroke="#000000" stroke-opacity="1" stroke-width="3.2"/>
<polyline clip-path="url(#clip142)" style="stroke:#e26f46; stroke-linecap:round; stroke-linejoin:round; stroke-width:4; stroke-opacity:1; fill:none" points="2682.95,158.372 2643.11,178.855 2601.11,200.42 2556.72,223.187 2509.63,247.299 2459.5,272.924 2405.91,300.265 2348.35,329.568 2286.17,361.137 2218.59,395.352 2144.56,432.698 2062.72,473.805 1971.24,519.516 1867.52,570.997 1747.78,629.914 1606.17,698.787 1432.84,781.676 1209.39,885.784 894.453,1025.86 356.062,1240.74 "/>
<path clip-path="url(#clip142)" d="M2682.95 142.372 L2666.95 158.372 L2682.95 174.372 L2698.95 158.372 L2682.95 142.372 Z" fill="#e26f46" fill-rule="evenodd" fill-opacity="1" stroke="#000000" stroke-opacity="1" stroke-width="3.2"/>
<path clip-path="url(#clip142)" d="M2643.11 162.855 L2627.11 178.855 L2643.11 194.855 L2659.11 178.855 L2643.11 162.855 Z" fill="#e26f46" fill-rule="evenodd" fill-opacity="1" stroke="#000000" stroke-opacity="1" stroke-width="3.2"/>
<path clip-path="url(#clip142)" d="M2601.11 184.42 L2585.11 200.42 L2601.11 216.42 L2617.11 200.42 L2601.11 184.42 Z" fill="#e26f46" fill-rule="evenodd" fill-opacity="1" stroke="#000000" stroke-opacity="1" stroke-width="3.2"/>
<path clip-path="url(#clip142)" d="M2556.72 207.187 L2540.72 223.187 L2556.72 239.187 L2572.72 223.187 L2556.72 207.187 Z" fill="#e26f46" fill-rule="evenodd" fill-opacity="1" stroke="#000000" stroke-opacity="1" stroke-width="3.2"/>
<path clip-path="url(#clip142)" d="M2509.63 231.299 L2493.63 247.299 L2509.63 263.299 L2525.63 247.299 L2509.63 231.299 Z" fill="#e26f46" fill-rule="evenodd" fill-opacity="1" stroke="#000000" stroke-opacity="1" stroke-width="3.2"/>
<path clip-path="url(#clip142)" d="M2459.5 256.924 L2443.5 272.924 L2459.5 288.924 L2475.5 272.924 L2459.5 256.924 Z" fill="#e26f46" fill-rule="evenodd" fill-opacity="1" stroke="#000000" stroke-opacity="1" stroke-width="3.2"/>
<path clip-path="url(#clip142)" d="M2405.91 284.265 L2389.91 300.265 L2405.91 316.265 L2421.91 300.265 L2405.91 284.265 Z" fill="#e26f46" fill-rule="evenodd" fill-opacity="1" stroke="#000000" stroke-opacity="1" stroke-width="3.2"/>
<path clip-path="url(#clip142)" d="M2348.35 313.568 L2332.35 329.568 L2348.35 345.568 L2364.35 329.568 L2348.35 313.568 Z" fill="#e26f46" fill-rule="evenodd" fill-opacity="1" stroke="#000000" stroke-opacity="1" stroke-width="3.2"/>
<path clip-path="url(#clip142)" d="M2286.17 345.137 L2270.17 361.137 L2286.17 377.137 L2302.17 361.137 L2286.17 345.137 Z" fill="#e26f46" fill-rule="evenodd" fill-opacity="1" stroke="#000000" stroke-opacity="1" stroke-width="3.2"/>
<path clip-path="url(#clip142)" d="M2218.59 379.352 L2202.59 395.352 L2218.59 411.352 L2234.59 395.352 L2218.59 379.352 Z" fill="#e26f46" fill-rule="evenodd" fill-opacity="1" stroke="#000000" stroke-opacity="1" stroke-width="3.2"/>
<path clip-path="url(#clip142)" d="M2144.56 416.698 L2128.56 432.698 L2144.56 448.698 L2160.56 432.698 L2144.56 416.698 Z" fill="#e26f46" fill-rule="evenodd" fill-opacity="1" stroke="#000000" stroke-opacity="1" stroke-width="3.2"/>
<path clip-path="url(#clip142)" d="M2062.72 457.805 L2046.72 473.805 L2062.72 489.805 L2078.72 473.805 L2062.72 457.805 Z" fill="#e26f46" fill-rule="evenodd" fill-opacity="1" stroke="#000000" stroke-opacity="1" stroke-width="3.2"/>
<path clip-path="url(#clip142)" d="M1971.24 503.516 L1955.24 519.516 L1971.24 535.516 L1987.24 519.516 L1971.24 503.516 Z" fill="#e26f46" fill-rule="evenodd" fill-opacity="1" stroke="#000000" stroke-opacity="1" stroke-width="3.2"/>
<path clip-path="url(#clip142)" d="M1867.52 554.997 L1851.52 570.997 L1867.52 586.997 L1883.52 570.997 L1867.52 554.997 Z" fill="#e26f46" fill-rule="evenodd" fill-opacity="1" stroke="#000000" stroke-opacity="1" stroke-width="3.2"/>
<path clip-path="url(#clip142)" d="M1747.78 613.914 L1731.78 629.914 L1747.78 645.914 L1763.78 629.914 L1747.78 613.914 Z" fill="#e26f46" fill-rule="evenodd" fill-opacity="1" stroke="#000000" stroke-opacity="1" stroke-width="3.2"/>
<path clip-path="url(#clip142)" d="M1606.17 682.787 L1590.17 698.787 L1606.17 714.787 L1622.17 698.787 L1606.17 682.787 Z" fill="#e26f46" fill-rule="evenodd" fill-opacity="1" stroke="#000000" stroke-opacity="1" stroke-width="3.2"/>
<path clip-path="url(#clip142)" d="M1432.84 765.676 L1416.84 781.676 L1432.84 797.676 L1448.84 781.676 L1432.84 765.676 Z" fill="#e26f46" fill-rule="evenodd" fill-opacity="1" stroke="#000000" stroke-opacity="1" stroke-width="3.2"/>
<path clip-path="url(#clip142)" d="M1209.39 869.784 L1193.39 885.784 L1209.39 901.784 L1225.39 885.784 L1209.39 869.784 Z" fill="#e26f46" fill-rule="evenodd" fill-opacity="1" stroke="#000000" stroke-opacity="1" stroke-width="3.2"/>
<path clip-path="url(#clip142)" d="M894.453 1009.86 L878.453 1025.86 L894.453 1041.86 L910.453 1025.86 L894.453 1009.86 Z" fill="#e26f46" fill-rule="evenodd" fill-opacity="1" stroke="#000000" stroke-opacity="1" stroke-width="3.2"/>
<path clip-path="url(#clip142)" d="M356.062 1224.74 L340.062 1240.74 L356.062 1256.74 L372.062 1240.74 L356.062 1224.74 Z" fill="#e26f46" fill-rule="evenodd" fill-opacity="1" stroke="#000000" stroke-opacity="1" stroke-width="3.2"/>
<polyline clip-path="url(#clip142)" style="stroke:#3da44d; stroke-linecap:round; stroke-linejoin:round; stroke-width:4; stroke-opacity:1; fill:none" points="2682.95,163.734 2643.11,184.685 2601.11,206.768 2556.72,230.114 2509.63,254.875 2459.5,281.236 2405.91,309.415 2348.35,339.684 2286.17,372.377 2218.59,407.916 2144.56,446.844 2062.72,489.878 1971.24,537.985 1867.52,592.525 1747.78,655.486 1606.17,729.954 1432.84,821.095 1209.39,938.596 894.453,1104.2 356.062,1387.31 "/>
<path clip-path="url(#clip142)" d="M2682.95 147.734 L2679.19 158.55 L2667.73 158.79 L2676.87 165.718 L2673.54 176.678 L2682.95 170.134 L2692.36 176.678 L2689.03 165.718 L2698.17 158.79 L2686.71 158.55 L2682.95 147.734 Z" fill="#3da44d" fill-rule="evenodd" fill-opacity="1" stroke="#000000" stroke-opacity="1" stroke-width="3.2"/>
<path clip-path="url(#clip142)" d="M2643.11 168.685 L2639.35 179.501 L2627.89 179.741 L2637.03 186.669 L2633.7 197.629 L2643.11 191.085 L2652.52 197.629 L2649.19 186.669 L2658.32 179.741 L2646.87 179.501 L2643.11 168.685 Z" fill="#3da44d" fill-rule="evenodd" fill-opacity="1" stroke="#000000" stroke-opacity="1" stroke-width="3.2"/>
<path clip-path="url(#clip142)" d="M2601.11 190.768 L2597.35 201.584 L2585.9 201.824 L2595.03 208.752 L2591.7 219.712 L2601.11 213.168 L2610.52 219.712 L2607.19 208.752 L2616.33 201.824 L2604.87 201.584 L2601.11 190.768 Z" fill="#3da44d" fill-rule="evenodd" fill-opacity="1" stroke="#000000" stroke-opacity="1" stroke-width="3.2"/>
<path clip-path="url(#clip142)" d="M2556.72 214.114 L2552.96 224.93 L2541.5 225.17 L2550.64 232.098 L2547.31 243.058 L2556.72 236.514 L2566.12 243.058 L2562.8 232.098 L2571.93 225.17 L2560.48 224.93 L2556.72 214.114 Z" fill="#3da44d" fill-rule="evenodd" fill-opacity="1" stroke="#000000" stroke-opacity="1" stroke-width="3.2"/>
<path clip-path="url(#clip142)" d="M2509.63 238.875 L2505.87 249.691 L2494.41 249.931 L2503.55 256.859 L2500.22 267.819 L2509.63 261.275 L2519.03 267.819 L2515.71 256.859 L2524.84 249.931 L2513.39 249.691 L2509.63 238.875 Z" fill="#3da44d" fill-rule="evenodd" fill-opacity="1" stroke="#000000" stroke-opacity="1" stroke-width="3.2"/>
<path clip-path="url(#clip142)" d="M2459.5 265.236 L2455.74 276.052 L2444.28 276.292 L2453.42 283.22 L2450.09 294.18 L2459.5 287.636 L2468.9 294.18 L2465.58 283.22 L2474.71 276.292 L2463.26 276.052 L2459.5 265.236 Z" fill="#3da44d" fill-rule="evenodd" fill-opacity="1" stroke="#000000" stroke-opacity="1" stroke-width="3.2"/>
<path clip-path="url(#clip142)" d="M2405.91 293.415 L2402.15 304.231 L2390.69 304.471 L2399.83 311.399 L2396.5 322.359 L2405.91 315.815 L2415.32 322.359 L2411.99 311.399 L2421.12 304.471 L2409.67 304.231 L2405.91 293.415 Z" fill="#3da44d" fill-rule="evenodd" fill-opacity="1" stroke="#000000" stroke-opacity="1" stroke-width="3.2"/>
<path clip-path="url(#clip142)" d="M2348.35 323.684 L2344.59 334.5 L2333.13 334.74 L2342.27 341.668 L2338.94 352.628 L2348.35 346.084 L2357.75 352.628 L2354.43 341.668 L2363.56 334.74 L2352.11 334.5 L2348.35 323.684 Z" fill="#3da44d" fill-rule="evenodd" fill-opacity="1" stroke="#000000" stroke-opacity="1" stroke-width="3.2"/>
<path clip-path="url(#clip142)" d="M2286.17 356.377 L2282.41 367.193 L2270.96 367.433 L2280.09 374.361 L2276.77 385.321 L2286.17 378.777 L2295.58 385.321 L2292.25 374.361 L2301.39 367.433 L2289.93 367.193 L2286.17 356.377 Z" fill="#3da44d" fill-rule="evenodd" fill-opacity="1" stroke="#000000" stroke-opacity="1" stroke-width="3.2"/>
<path clip-path="url(#clip142)" d="M2218.59 391.916 L2214.83 402.732 L2203.37 402.972 L2212.51 409.9 L2209.18 420.86 L2218.59 414.316 L2228 420.86 L2224.67 409.9 L2233.8 402.972 L2222.35 402.732 L2218.59 391.916 Z" fill="#3da44d" fill-rule="evenodd" fill-opacity="1" stroke="#000000" stroke-opacity="1" stroke-width="3.2"/>
<path clip-path="url(#clip142)" d="M2144.56 430.844 L2140.8 441.66 L2129.34 441.9 L2138.48 448.828 L2135.15 459.788 L2144.56 453.244 L2153.97 459.788 L2150.64 448.828 L2159.77 441.9 L2148.32 441.66 L2144.56 430.844 Z" fill="#3da44d" fill-rule="evenodd" fill-opacity="1" stroke="#000000" stroke-opacity="1" stroke-width="3.2"/>
<path clip-path="url(#clip142)" d="M2062.72 473.878 L2058.96 484.694 L2047.51 484.934 L2056.64 491.862 L2053.31 502.822 L2062.72 496.278 L2072.13 502.822 L2068.8 491.862 L2077.94 484.934 L2066.48 484.694 L2062.72 473.878 Z" fill="#3da44d" fill-rule="evenodd" fill-opacity="1" stroke="#000000" stroke-opacity="1" stroke-width="3.2"/>
<path clip-path="url(#clip142)" d="M1971.24 521.985 L1967.48 532.801 L1956.02 533.041 L1965.16 539.969 L1961.83 550.929 L1971.24 544.385 L1980.64 550.929 L1977.32 539.969 L1986.45 533.041 L1975 532.801 L1971.24 521.985 Z" fill="#3da44d" fill-rule="evenodd" fill-opacity="1" stroke="#000000" stroke-opacity="1" stroke-width="3.2"/>
<path clip-path="url(#clip142)" d="M1867.52 576.525 L1863.76 587.341 L1852.3 587.581 L1861.44 594.509 L1858.11 605.469 L1867.52 598.925 L1876.92 605.469 L1873.6 594.509 L1882.73 587.581 L1871.28 587.341 L1867.52 576.525 Z" fill="#3da44d" fill-rule="evenodd" fill-opacity="1" stroke="#000000" stroke-opacity="1" stroke-width="3.2"/>
<path clip-path="url(#clip142)" d="M1747.78 639.486 L1744.02 650.302 L1732.57 650.542 L1741.7 657.47 L1738.37 668.43 L1747.78 661.886 L1757.19 668.43 L1753.86 657.47 L1763 650.542 L1751.54 650.302 L1747.78 639.486 Z" fill="#3da44d" fill-rule="evenodd" fill-opacity="1" stroke="#000000" stroke-opacity="1" stroke-width="3.2"/>
<path clip-path="url(#clip142)" d="M1606.17 713.954 L1602.41 724.77 L1590.95 725.01 L1600.09 731.938 L1596.76 742.898 L1606.17 736.354 L1615.58 742.898 L1612.25 731.938 L1621.38 725.01 L1609.93 724.77 L1606.17 713.954 Z" fill="#3da44d" fill-rule="evenodd" fill-opacity="1" stroke="#000000" stroke-opacity="1" stroke-width="3.2"/>
<path clip-path="url(#clip142)" d="M1432.84 805.095 L1429.08 815.911 L1417.63 816.151 L1426.76 823.079 L1423.44 834.039 L1432.84 827.495 L1442.25 834.039 L1438.92 823.079 L1448.06 816.151 L1436.6 815.911 L1432.84 805.095 Z" fill="#3da44d" fill-rule="evenodd" fill-opacity="1" stroke="#000000" stroke-opacity="1" stroke-width="3.2"/>
<path clip-path="url(#clip142)" d="M1209.39 922.596 L1205.63 933.412 L1194.18 933.652 L1203.31 940.58 L1199.98 951.54 L1209.39 944.996 L1218.8 951.54 L1215.47 940.58 L1224.61 933.652 L1213.15 933.412 L1209.39 922.596 Z" fill="#3da44d" fill-rule="evenodd" fill-opacity="1" stroke="#000000" stroke-opacity="1" stroke-width="3.2"/>
<path clip-path="url(#clip142)" d="M894.453 1088.2 L890.693 1099.02 L879.237 1099.26 L888.373 1106.19 L885.045 1117.15 L894.453 1110.6 L903.861 1117.15 L900.533 1106.19 L909.669 1099.26 L898.213 1099.02 L894.453 1088.2 Z" fill="#3da44d" fill-rule="evenodd" fill-opacity="1" stroke="#000000" stroke-opacity="1" stroke-width="3.2"/>
<path clip-path="url(#clip142)" d="M356.062 1371.31 L352.302 1382.13 L340.846 1382.37 L349.982 1389.3 L346.654 1400.26 L356.062 1393.71 L365.47 1400.26 L362.142 1389.3 L371.278 1382.37 L359.822 1382.13 L356.062 1371.31 Z" fill="#3da44d" fill-rule="evenodd" fill-opacity="1" stroke="#000000" stroke-opacity="1" stroke-width="3.2"/>
<path clip-path="url(#clip140)" d="M368.472 365.844 L782.969 365.844 L782.969 158.484 L368.472 158.484  Z" fill="#ffffff" fill-rule="evenodd" fill-opacity="1"/>
<polyline clip-path="url(#clip140)" style="stroke:#000000; stroke-linecap:round; stroke-linejoin:round; stroke-width:4; stroke-opacity:1; fill:none" points="368.472,365.844 782.969,365.844 782.969,158.484 368.472,158.484 368.472,365.844 "/>
<polyline clip-path="url(#clip140)" style="stroke:#009af9; stroke-linecap:round; stroke-linejoin:round; stroke-width:4; stroke-opacity:1; fill:none" points="395.878,210.324 560.311,210.324 "/>
<circle clip-path="url(#clip140)" cx="478.094" cy="210.324" r="20.48" fill="#009af9" fill-rule="evenodd" fill-opacity="1" stroke="#000000" stroke-opacity="1" stroke-width="4.55111"/>
<path clip-path="url(#clip140)" d="M609.43 211.956 L609.43 237.465 L605.17 237.465 L605.17 212.094 Q605.17 208.414 603.735 206.585 Q602.3 204.757 599.43 204.757 Q595.981 204.757 593.99 206.956 Q591.999 209.155 591.999 212.951 L591.999 227.604 L587.717 227.604 L587.717 201.678 L591.999 201.678 L591.999 205.706 Q593.527 203.368 595.587 202.21 Q597.67 201.053 600.379 201.053 Q604.846 201.053 607.138 203.807 Q609.43 206.585 609.43 211.956 Z" fill="#000000" fill-rule="nonzero" fill-opacity="1" /><path clip-path="url(#clip140)" d="M633.55 206.076 L663.226 206.076 L663.226 209.965 L633.55 209.965 L633.55 206.076 M633.55 215.52 L663.226 215.52 L663.226 219.456 L633.55 219.456 L633.55 215.52 Z" fill="#000000" fill-rule="nonzero" fill-opacity="1" /><path clip-path="url(#clip140)" d="M698.387 196.122 Q694.776 196.122 692.948 199.687 Q691.142 203.229 691.142 210.358 Q691.142 217.465 692.948 221.03 Q694.776 224.571 698.387 224.571 Q702.022 224.571 703.827 221.03 Q705.656 217.465 705.656 210.358 Q705.656 203.229 703.827 199.687 Q702.022 196.122 698.387 196.122 M698.387 192.419 Q704.198 192.419 707.253 197.025 Q710.332 201.608 710.332 210.358 Q710.332 219.085 707.253 223.692 Q704.198 228.275 698.387 228.275 Q692.577 228.275 689.499 223.692 Q686.443 219.085 686.443 210.358 Q686.443 201.608 689.499 197.025 Q692.577 192.419 698.387 192.419 Z" fill="#000000" fill-rule="nonzero" fill-opacity="1" /><path clip-path="url(#clip140)" d="M718.549 221.724 L723.434 221.724 L723.434 227.604 L718.549 227.604 L718.549 221.724 Z" fill="#000000" fill-rule="nonzero" fill-opacity="1" /><path clip-path="url(#clip140)" d="M743.619 211.192 Q740.285 211.192 738.364 212.974 Q736.466 214.756 736.466 217.881 Q736.466 221.006 738.364 222.789 Q740.285 224.571 743.619 224.571 Q746.952 224.571 748.873 222.789 Q750.795 220.983 750.795 217.881 Q750.795 214.756 748.873 212.974 Q746.975 211.192 743.619 211.192 M738.943 209.201 Q735.934 208.46 734.244 206.4 Q732.577 204.34 732.577 201.377 Q732.577 197.233 735.517 194.826 Q738.48 192.419 743.619 192.419 Q748.781 192.419 751.72 194.826 Q754.66 197.233 754.66 201.377 Q754.66 204.34 752.97 206.4 Q751.304 208.46 748.318 209.201 Q751.697 209.988 753.572 212.28 Q755.47 214.571 755.47 217.881 Q755.47 222.905 752.392 225.59 Q749.336 228.275 743.619 228.275 Q737.901 228.275 734.822 225.59 Q731.767 222.905 731.767 217.881 Q731.767 214.571 733.665 212.28 Q735.563 209.988 738.943 209.201 M737.23 201.817 Q737.23 204.502 738.896 206.007 Q740.586 207.511 743.619 207.511 Q746.628 207.511 748.318 206.007 Q750.031 204.502 750.031 201.817 Q750.031 199.132 748.318 197.627 Q746.628 196.122 743.619 196.122 Q740.586 196.122 738.896 197.627 Q737.23 199.132 737.23 201.817 Z" fill="#000000" fill-rule="nonzero" fill-opacity="1" /><polyline clip-path="url(#clip140)" style="stroke:#e26f46; stroke-linecap:round; stroke-linejoin:round; stroke-width:4; stroke-opacity:1; fill:none" points="395.878,262.164 560.311,262.164 "/>
<path clip-path="url(#clip140)" d="M478.094 239.408 L455.339 262.164 L478.094 284.919 L500.85 262.164 L478.094 239.408 Z" fill="#e26f46" fill-rule="evenodd" fill-opacity="1" stroke="#000000" stroke-opacity="1" stroke-width="4.55111"/>
<path clip-path="url(#clip140)" d="M609.43 263.796 L609.43 289.305 L605.17 289.305 L605.17 263.934 Q605.17 260.254 603.735 258.425 Q602.3 256.597 599.43 256.597 Q595.981 256.597 593.99 258.796 Q591.999 260.995 591.999 264.791 L591.999 279.444 L587.717 279.444 L587.717 253.518 L591.999 253.518 L591.999 257.546 Q593.527 255.208 595.587 254.05 Q597.67 252.893 600.379 252.893 Q604.846 252.893 607.138 255.647 Q609.43 258.425 609.43 263.796 Z" fill="#000000" fill-rule="nonzero" fill-opacity="1" /><path clip-path="url(#clip140)" d="M633.55 257.916 L663.226 257.916 L663.226 261.805 L633.55 261.805 L633.55 257.916 M633.55 267.36 L663.226 267.36 L663.226 271.296 L633.55 271.296 L633.55 267.36 Z" fill="#000000" fill-rule="nonzero" fill-opacity="1" /><path clip-path="url(#clip140)" d="M698.387 247.962 Q694.776 247.962 692.948 251.527 Q691.142 255.069 691.142 262.198 Q691.142 269.305 692.948 272.87 Q694.776 276.411 698.387 276.411 Q702.022 276.411 703.827 272.87 Q705.656 269.305 705.656 262.198 Q705.656 255.069 703.827 251.527 Q702.022 247.962 698.387 247.962 M698.387 244.259 Q704.198 244.259 707.253 248.865 Q710.332 253.448 710.332 262.198 Q710.332 270.925 707.253 275.532 Q704.198 280.115 698.387 280.115 Q692.577 280.115 689.499 275.532 Q686.443 270.925 686.443 262.198 Q686.443 253.448 689.499 248.865 Q692.577 244.259 698.387 244.259 Z" fill="#000000" fill-rule="nonzero" fill-opacity="1" /><path clip-path="url(#clip140)" d="M718.549 273.564 L723.434 273.564 L723.434 279.444 L718.549 279.444 L718.549 273.564 Z" fill="#000000" fill-rule="nonzero" fill-opacity="1" /><path clip-path="url(#clip140)" d="M733.758 278.726 L733.758 274.467 Q735.517 275.3 737.322 275.74 Q739.128 276.18 740.864 276.18 Q745.494 276.18 747.924 273.078 Q750.378 269.953 750.725 263.61 Q749.383 265.601 747.322 266.666 Q745.262 267.731 742.762 267.731 Q737.577 267.731 734.545 264.606 Q731.535 261.458 731.535 256.018 Q731.535 250.694 734.684 247.476 Q737.832 244.259 743.063 244.259 Q749.058 244.259 752.207 248.865 Q755.378 253.448 755.378 262.198 Q755.378 270.37 751.489 275.254 Q747.623 280.115 741.072 280.115 Q739.313 280.115 737.508 279.768 Q735.702 279.42 733.758 278.726 M743.063 264.073 Q746.211 264.073 748.04 261.921 Q749.892 259.768 749.892 256.018 Q749.892 252.291 748.04 250.138 Q746.211 247.962 743.063 247.962 Q739.915 247.962 738.063 250.138 Q736.234 252.291 736.234 256.018 Q736.234 259.768 738.063 261.921 Q739.915 264.073 743.063 264.073 Z" fill="#000000" fill-rule="nonzero" fill-opacity="1" /><polyline clip-path="url(#clip140)" style="stroke:#3da44d; stroke-linecap:round; stroke-linejoin:round; stroke-width:4; stroke-opacity:1; fill:none" points="395.878,314.004 560.311,314.004 "/>
<path clip-path="url(#clip140)" d="M478.094 291.248 L472.747 306.631 L456.454 306.972 L469.447 316.825 L464.714 332.413 L478.094 323.106 L491.475 332.413 L486.742 316.825 L499.735 306.972 L483.442 306.631 L478.094 291.248 Z" fill="#3da44d" fill-rule="evenodd" fill-opacity="1" stroke="#000000" stroke-opacity="1" stroke-width="4.55111"/>
<path clip-path="url(#clip140)" d="M609.43 315.636 L609.43 341.145 L605.17 341.145 L605.17 315.774 Q605.17 312.094 603.735 310.265 Q602.3 308.437 599.43 308.437 Q595.981 308.437 593.99 310.636 Q591.999 312.835 591.999 316.631 L591.999 331.284 L587.717 331.284 L587.717 305.358 L591.999 305.358 L591.999 309.386 Q593.527 307.048 595.587 305.89 Q597.67 304.733 600.379 304.733 Q604.846 304.733 607.138 307.487 Q609.43 310.265 609.43 315.636 Z" fill="#000000" fill-rule="nonzero" fill-opacity="1" /><path clip-path="url(#clip140)" d="M633.55 309.756 L663.226 309.756 L663.226 313.645 L633.55 313.645 L633.55 309.756 M633.55 319.2 L663.226 319.2 L663.226 323.136 L633.55 323.136 L633.55 319.2 Z" fill="#000000" fill-rule="nonzero" fill-opacity="1" /><path clip-path="url(#clip140)" d="M689.198 327.348 L696.837 327.348 L696.837 300.983 L688.526 302.65 L688.526 298.39 L696.79 296.724 L701.466 296.724 L701.466 327.348 L709.105 327.348 L709.105 331.284 L689.198 331.284 L689.198 327.348 Z" fill="#000000" fill-rule="nonzero" fill-opacity="1" /><path clip-path="url(#clip140)" d="M718.549 325.404 L723.434 325.404 L723.434 331.284 L718.549 331.284 L718.549 325.404 Z" fill="#000000" fill-rule="nonzero" fill-opacity="1" /><path clip-path="url(#clip140)" d="M743.619 299.802 Q740.008 299.802 738.179 303.367 Q736.373 306.909 736.373 314.038 Q736.373 321.145 738.179 324.71 Q740.008 328.251 743.619 328.251 Q747.253 328.251 749.058 324.71 Q750.887 321.145 750.887 314.038 Q750.887 306.909 749.058 303.367 Q747.253 299.802 743.619 299.802 M743.619 296.099 Q749.429 296.099 752.484 300.705 Q755.563 305.288 755.563 314.038 Q755.563 322.765 752.484 327.372 Q749.429 331.955 743.619 331.955 Q737.809 331.955 734.73 327.372 Q731.674 322.765 731.674 314.038 Q731.674 305.288 734.73 300.705 Q737.809 296.099 743.619 296.099 Z" fill="#000000" fill-rule="nonzero" fill-opacity="1" /></svg>
